<svg width="32" height="38" viewBox="0 0 32 38" fill="none" xmlns="http://www.w3.org/2000/svg">
<g clip-path="url(#clip0_459_674)">
<path d="M26.3486 11.2275L28.5845 22.4782C29.3086 26.122 27.4082 29.7729 24.3398 30.6329L19.0364 32.1192C16.8981 32.7185 14.7556 31.1458 14.2509 28.6066C13.7463 26.0673 15.0706 23.5231 17.2089 22.9239L19.6521 22.2392C20.0236 22.1351 20.2537 21.693 20.1661 21.2518L18.6052 13.3978C18.5352 13.0459 18.7187 12.6933 19.0151 12.6102L25.6856 10.7408C25.9817 10.6577 26.2786 10.8757 26.3486 11.2275Z" fill="#FE93BB"/>
<path d="M25.6854 10.7408L23.8586 11.2527C24.1549 11.1697 24.4518 11.3877 24.5217 11.7395L26.7577 22.9902C27.4818 26.634 25.5814 30.2849 22.513 31.1449L24.3398 30.633C27.4083 29.7731 29.3087 26.122 28.5845 22.4782L26.3486 11.2276C26.2786 10.8757 25.9817 10.6578 25.6854 10.7408Z" fill="#FE76A8"/>
<path d="M19.1209 15.9888L26.862 13.8158L27.2937 15.9846L19.5526 18.1575L19.1209 15.9888Z" fill="#F9F3F1"/>
<path d="M25.0355 14.3286L26.8618 13.816L27.2936 15.9847L25.4672 16.4974L25.0355 14.3286Z" fill="#F3EAE6"/>
<path d="M13.2039 11.2276L15.4398 22.4783C16.164 26.1221 14.2636 29.773 11.1952 30.633L5.89172 32.1193C3.7534 32.7185 1.61084 31.1459 1.10622 28.6066C0.601592 26.0674 1.9259 23.5231 4.06422 22.9239L6.50734 22.2392C6.8789 22.1351 7.10903 21.693 7.02134 21.2518L5.4604 13.3977C5.39047 13.0458 5.57397 12.6932 5.87034 12.6102L12.5407 10.7407C12.837 10.6578 13.134 10.8757 13.2039 11.2276Z" fill="#86E8D0"/>
<path d="M12.5407 10.7408L10.7139 11.2527C11.0102 11.1697 11.3072 11.3877 11.3771 11.7395L13.613 22.9902C14.3372 26.634 12.4368 30.2849 9.36835 31.1449L11.1952 30.633C14.2636 29.7731 16.164 26.122 15.4398 22.4782L13.2039 11.2276C13.134 10.8757 12.837 10.6578 12.5407 10.7408Z" fill="#5DE1C4"/>
<path d="M5.9798 15.9932L13.7209 13.8202L14.1526 15.989L6.41151 18.1619L5.9798 15.9932Z" fill="#F9F3F1"/>
<path d="M11.8943 14.3335L13.7207 13.8208L14.1524 15.9896L12.3261 16.5023L11.8943 14.3335Z" fill="#F3EAE6"/>
<path d="M9.80731 13.0239H8.43231C8.29425 13.0239 8.18231 12.891 8.18231 12.7271V7.53174C8.18231 7.36779 8.29425 7.23486 8.43231 7.23486H9.80731C9.94537 7.23486 10.0573 7.36779 10.0573 7.53174V12.7271C10.0573 12.891 9.94537 13.0239 9.80731 13.0239Z" fill="#E49280"/>
<path d="M23.5677 13.0239H22.1927C22.0546 13.0239 21.9427 12.891 21.9427 12.7271V7.53174C21.9427 7.36779 22.0546 7.23486 22.1927 7.23486H23.5677C23.7058 7.23486 23.8177 7.36779 23.8177 7.53174V12.7271C23.8177 12.891 23.7058 13.0239 23.5677 13.0239Z" fill="#E49280"/>
<path d="M31.9756 5.57398C31.8934 5.28245 31.6279 5.12511 31.3822 5.22285C31.353 5.23451 28.489 6.36248 24.2126 7.15774C24.0955 6.87444 23.8507 6.67843 23.5676 6.67843H22.1926C21.7962 6.67843 21.4738 7.06133 21.4738 7.53195V7.58449C17.729 8.05764 14.2705 8.05771 10.526 7.58449V7.53195C10.526 7.06133 10.2035 6.67843 9.80724 6.67843H8.43224C8.14924 6.67843 7.90461 6.87415 7.78749 7.15714C7.20299 7.04849 6.61574 6.92884 6.03667 6.79926C5.78255 6.74241 5.53717 6.94102 5.48924 7.24316C5.44124 7.54523 5.60867 7.83632 5.86305 7.89324C6.47505 8.03025 7.09599 8.1562 7.71349 8.27005V11.5219L5.76261 12.0686C5.49742 12.1429 5.27255 12.3355 5.1293 12.6107C4.98605 12.8859 4.94161 13.2109 5.00424 13.5258L6.56511 21.3799C6.5933 21.5217 6.51905 21.6642 6.39967 21.6977L3.95655 22.3824C-1.15939 23.9718 -0.249577 32.6782 4.97786 32.8033C5.31499 32.8033 5.65742 32.7573 5.99942 32.6615L11.3028 31.1751C12.3418 30.884 13.2575 30.2951 14.0011 29.5027C14.8007 31.8991 17.0498 33.2716 19.144 32.6615L22.8941 31.6105C23.146 31.5399 23.3021 31.2401 23.2426 30.9409C23.1831 30.6417 22.9305 30.4566 22.6787 30.527L18.9287 31.5779C17.1335 32.1274 15.162 30.7185 14.7294 28.5802C15.5561 27.3345 16.0395 25.7811 16.0609 24.1486C16.4363 23.8241 16.8578 23.5946 17.3165 23.466L19.7596 22.7814C20.0612 22.6969 20.317 22.478 20.4799 22.165C20.6427 21.852 20.6933 21.4824 20.6221 21.1243L20.1171 18.5831L26.9481 16.6687L28.1281 22.6065C28.7398 25.6844 27.3154 28.8138 24.8147 29.886C24.5712 29.9904 24.4451 30.3094 24.533 30.5985C24.6206 30.8906 24.8961 31.0369 25.1331 30.933C28.0819 29.6688 29.7617 25.9792 29.0406 22.3508L26.8047 11.0999C26.6756 10.45 26.1249 10.0459 25.5776 10.1993L24.2864 10.5612V8.27079C28.6759 7.46188 31.5567 6.3276 31.68 6.27854C31.9254 6.18102 32.0578 5.86551 31.9756 5.57398V5.57398ZM22.4114 7.79179H23.3489V12.4676H22.4114V7.79179ZM8.65105 7.79179H9.58855V12.4676H8.65105V7.79179ZM5.9268 13.1961C5.93499 13.1804 5.95055 13.16 5.97805 13.1522L7.71355 12.6659V12.7274C7.71355 13.198 8.03599 13.5809 8.4323 13.5809H9.8073C10.2036 13.5809 10.526 13.198 10.526 12.7274V11.8777L12.6484 11.2829C12.6925 11.2701 12.7372 11.3031 12.7477 11.3557L13.157 13.4158L6.32605 15.3303L5.91661 13.2701C5.91024 13.2375 5.91861 13.2118 5.9268 13.1961V13.1961ZM6.54142 16.4137L13.3724 14.4993L13.5882 15.5852L6.75724 17.4996L6.54142 16.4137ZM11.0875 30.0917L5.78411 31.578C3.90074 32.1056 2.00699 30.7157 1.56249 28.4791C1.11805 26.2426 2.28861 23.9937 4.17192 23.466L6.61505 22.7813C7.23755 22.6069 7.62449 21.8635 7.47755 21.1243L6.97255 18.5831L13.8035 16.6687L14.9836 22.6066C15.6472 25.9458 13.8994 29.3036 11.0875 30.0917V30.0917ZM19.6824 21.5796C19.6643 21.6144 19.6223 21.676 19.5442 21.6979L17.1011 22.3825C16.7063 22.4932 16.3335 22.664 15.9854 22.8904C15.9614 22.7107 15.9317 22.5307 15.896 22.3508L13.6601 11.1C13.5309 10.4501 12.9807 10.0458 12.433 10.1994L10.526 10.7338V8.70408C14.268 9.16906 17.7316 9.16906 21.4738 8.70408V11.3494L18.9072 12.0687C18.6421 12.143 18.4171 12.3355 18.2739 12.6107C18.1306 12.886 18.0862 13.2109 18.1487 13.5259L19.7096 21.3801C19.7281 21.4727 19.7005 21.5448 19.6824 21.5796V21.5796ZM19.9018 17.4996L19.686 16.4137L26.5169 14.4993L26.7327 15.5852L19.9018 17.4996ZM25.7929 11.2828C25.8369 11.2704 25.8818 11.3031 25.8922 11.3557L26.3016 13.4158L19.4707 15.3302L19.0613 13.2701C19.0548 13.2375 19.0632 13.2118 19.0714 13.1961C19.0796 13.1804 19.0952 13.16 19.1226 13.1522L21.4739 12.4932V12.7273C21.4739 13.198 21.7963 13.5808 22.1926 13.5808H23.5676C23.9639 13.5808 24.2864 13.198 24.2864 12.7273V11.705L25.7929 11.2828Z" fill="black"/>
<path d="M3.83229 7.37944C4.04598 7.37944 4.23917 7.20466 4.28879 6.94682C4.34654 6.64713 4.18873 6.34862 3.93636 6.28012C1.87942 5.7214 0.629919 5.22821 0.617482 5.22324C0.372169 5.12572 0.106419 5.28299 0.0242316 5.57444C-0.0578934 5.86597 0.0744191 6.18133 0.319857 6.27893C0.371982 6.29963 1.62092 6.79319 3.72723 7.36534C3.76254 7.37484 3.79767 7.37944 3.83229 7.37944Z" fill="black"/>
</g>
<defs>
<clipPath id="clip0_459_674">
<rect width="32" height="38" fill="white"/>
</clipPath>
</defs>
</svg>
