<svg width="33" height="33" viewBox="0 0 33 33" fill="none" xmlns="http://www.w3.org/2000/svg">
<g clip-path="url(#clip0_430_310)">
<path d="M16.3333 32.6667C7.32703 32.6667 0 25.3397 0 16.3333C0 7.32703 7.32703 0 16.3333 0C25.3397 0 32.6667 7.32703 32.6667 16.3333C32.6667 25.3397 25.3397 32.6667 16.3333 32.6667Z" fill="#FE0050"/>
<path d="M16.3334 0V32.6667C25.3397 32.6667 32.6667 25.3397 32.6667 16.3333C32.6667 7.32703 25.3397 0 16.3334 0Z" fill="#E10555"/>
<path d="M16.3334 27.2437C10.3175 27.2437 5.42322 22.3493 5.42322 16.3335C5.42322 10.3177 10.3175 5.42334 16.3334 5.42334C22.3492 5.42334 27.2435 10.3177 27.2435 16.3335C27.2435 22.3493 22.3492 27.2437 16.3334 27.2437Z" fill="#D9E7F3"/>
<path d="M16.3334 5.42334V27.2437C22.3492 27.2437 27.2435 22.3493 27.2435 16.3335C27.2435 10.3177 22.3492 5.42334 16.3334 5.42334Z" fill="#C8D4DF"/>
<path d="M16.3333 21.5015C13.4837 21.5015 11.1653 19.1832 11.1653 16.3335C11.1653 13.4838 13.4837 11.1655 16.3333 11.1655C19.183 11.1655 21.5013 13.4838 21.5013 16.3335C21.5013 19.1832 19.183 21.5015 16.3333 21.5015Z" fill="#FE0050"/>
<path d="M16.3334 11.1655V21.5015C19.183 21.5015 21.5013 19.1832 21.5013 16.3335C21.5013 13.4838 19.183 11.1655 16.3334 11.1655Z" fill="#E10555"/>
<path d="M16.3334 17.2904C16.0884 17.2904 15.8434 17.1969 15.6567 17.01C15.2829 16.6364 15.2829 16.0303 15.6567 15.6567L22.6946 8.61876C23.0682 8.24492 23.6744 8.24492 24.0479 8.61876C24.4218 8.99235 24.4218 9.59822 24.0479 9.97206L17.01 17.01C16.8234 17.1969 16.5784 17.2904 16.3334 17.2904Z" fill="#2D2D55"/>
<path d="M24.0479 8.61865L15.6567 17.0099C15.8433 17.1968 16.0883 17.2903 16.3333 17.2903C16.5783 17.2903 16.8233 17.1968 17.01 17.0099L24.0479 9.97196C24.4217 9.59836 24.4217 8.99224 24.0479 8.61865Z" fill="#0A0A48"/>
<path d="M27.1159 10.5683C27.0892 10.5683 27.0623 10.5671 27.0354 10.5651L23.291 10.2493C22.826 10.21 22.4569 9.8411 22.4177 9.37604L22.1017 5.6314C22.078 5.35053 22.1795 5.07363 22.3789 4.87425L26.439 0.814095C26.7024 0.550662 27.0947 0.463931 27.4446 0.592034C27.7943 0.719887 28.0381 1.03915 28.0695 1.41025L28.3172 4.34938L31.2566 4.59736C31.6277 4.62876 31.9469 4.87251 32.075 5.22242C32.2029 5.57209 32.1162 5.96437 31.8527 6.22781L27.7926 10.288C27.6124 10.4682 27.3686 10.5683 27.1159 10.5683Z" fill="#FFC300"/>
<path d="M31.2566 4.5971L28.3175 4.34912L22.6946 9.97193C22.8499 10.1272 23.0583 10.2294 23.2908 10.2491L27.0354 10.5648C27.0623 10.5668 27.089 10.5681 27.1159 10.5681C27.3686 10.5681 27.6124 10.4679 27.7926 10.2877L31.8527 6.22755C32.1162 5.96411 32.2029 5.57183 32.075 5.22191C31.9469 4.87225 31.6277 4.6285 31.2566 4.5971Z" fill="#FAB400"/>
</g>
<defs>
<clipPath id="clip0_430_310">
<rect width="32.6667" height="32.6667" fill="white"/>
</clipPath>
</defs>
</svg>
