<svg width="27" height="28" viewBox="0 0 27 28" fill="none" xmlns="http://www.w3.org/2000/svg">
<g clip-path="url(#clip0_443_551)">
<path d="M18.093 27.5895H4.02067C2.15375 27.5895 0.640259 26.0201 0.640259 24.0839V6.49878C0.640259 4.56271 2.1537 2.99316 4.02067 2.99316H18.093C19.9599 2.99316 21.4734 4.56266 21.4734 6.49878V24.0839C21.4734 26.0201 19.96 27.5895 18.093 27.5895Z" fill="#D8A595"/>
<path d="M5.14276 27.5894H4.02057C2.15375 27.5894 0.640259 26.0199 0.640259 24.084V6.49861C0.640259 4.56266 2.15375 2.99316 4.02057 2.99316H5.14276C3.27595 2.99316 1.76251 4.56271 1.76251 6.49861V24.0839C1.76251 26.0199 3.276 27.5894 5.14276 27.5894Z" fill="#D09080"/>
<path d="M3.18311 5.24561H18.9658V24.9616H3.18311V5.24561Z" fill="#F9F6F6"/>
<path d="M15.4244 2.01334H14.494C14.494 1.12794 13.8019 0.410156 12.9481 0.410156H9.16573C8.31196 0.410156 7.61981 1.12794 7.61981 2.01334H6.68941C5.59553 2.01334 4.70874 2.93297 4.70874 4.06736C4.70874 5.20176 5.59553 6.12139 6.68941 6.12139H15.4244C16.5182 6.12139 17.405 5.20176 17.405 4.06736C17.4051 2.93297 16.5183 2.01334 15.4244 2.01334Z" fill="#F6E266"/>
<path d="M10.4458 0.409668C9.59199 0.409668 8.89958 1.12772 8.89958 2.01312H7.96934C6.87509 2.01312 5.98862 2.93243 5.98862 4.0672C5.98862 4.63432 6.2101 5.14784 6.5687 5.51917C6.9273 5.89105 7.42195 6.12074 7.96934 6.12074H6.68946C6.1426 6.12074 5.64689 5.89105 5.28882 5.51917C4.93023 5.14784 4.70874 4.63432 4.70874 4.0672C4.70874 2.93243 5.59521 2.01312 6.68946 2.01312H7.61971C7.61971 1.12772 8.31159 0.409668 9.16589 0.409668H10.4458Z" fill="#FFD064"/>
<path d="M11.0569 4.46548C11.7155 4.46548 12.2493 3.91182 12.2493 3.22884C12.2493 2.54585 11.7155 1.99219 11.0569 1.99219C10.3983 1.99219 9.86438 2.54585 9.86438 3.22884C9.86438 3.91182 10.3983 4.46548 11.0569 4.46548Z" fill="#D09080"/>
<path d="M23.1984 12.4497H21.8656C21.5112 12.4497 21.224 12.7476 21.224 13.1151V15.1565H23.84V13.1151C23.84 12.7476 23.5527 12.4497 23.1984 12.4497Z" fill="#F6E266"/>
<path d="M22.689 12.4497C22.3346 12.4497 22.0472 12.7478 22.0472 13.1153V15.1567H21.224V13.1153C21.224 12.7478 21.5114 12.4497 21.8658 12.4497H22.689Z" fill="#FFD064"/>
<path d="M22.7399 25.2135L22.532 25.3983L22.324 25.2135C21.2094 24.2228 20.5679 22.7763 20.5679 21.2539V14.8836C20.5679 14.6644 20.7392 14.4868 20.9505 14.4868H24.1134C24.3247 14.4868 24.496 14.6644 24.496 14.8836V21.2539C24.4961 22.7763 23.8546 24.2227 22.7399 25.2135Z" fill="#90D8F9"/>
<path d="M22.5317 25.3981L22.3239 25.2132C21.2091 24.2228 20.5679 22.7763 20.5679 21.2539V14.8833C20.5679 14.6646 20.7393 14.4868 20.9502 14.4868H21.8709C21.7824 14.4868 21.7112 14.6646 21.7112 14.8833V21.2539C21.7112 22.7764 21.9791 24.2228 22.4452 25.2132L22.5317 25.3981Z" fill="#75CEF9"/>
<path d="M11.0569 1.58252C10.1813 1.58252 9.46887 2.32129 9.46887 3.22932C9.46887 4.13736 10.1812 4.87613 11.0569 4.87613C11.9325 4.87613 12.6448 4.13736 12.6448 3.22932C12.6448 2.32129 11.9325 1.58252 11.0569 1.58252ZM11.0569 4.05576C10.6174 4.05576 10.2599 3.68498 10.2599 3.22927C10.2599 2.77356 10.6174 2.40278 11.0569 2.40278C11.4963 2.40278 11.8538 2.77356 11.8538 3.22927C11.8538 3.68498 11.4963 4.05576 11.0569 4.05576Z" fill="black"/>
<path d="M9.63648 12.168H16.5809C16.7994 12.168 16.9764 11.9843 16.9764 11.7578C16.9764 11.5313 16.7994 11.3477 16.5809 11.3477H9.63648C9.41805 11.3477 9.24097 11.5313 9.24097 11.7578C9.24097 11.9843 9.41805 12.168 9.63648 12.168Z" fill="black"/>
<path d="M4.61133 15.6938C4.61133 16.5114 5.25284 17.1767 6.04133 17.1767H7.26914C8.05768 17.1767 8.69914 16.5114 8.69914 15.6938V14.4205C8.69914 13.6028 8.05762 12.9375 7.26914 12.9375H6.04133C5.25279 12.9375 4.61133 13.6028 4.61133 14.4205V15.6938ZM5.40234 14.4205C5.40234 14.0551 5.68901 13.7578 6.04133 13.7578H7.26914C7.62151 13.7578 7.90812 14.0551 7.90812 14.4205V15.6938C7.90812 16.0591 7.62146 16.3564 7.26914 16.3564H6.04133C5.68895 16.3564 5.40234 16.0591 5.40234 15.6938V14.4205Z" fill="black"/>
<path d="M9.63648 17.1768H16.5809C16.7994 17.1768 16.9764 16.9931 16.9764 16.7666C16.9764 16.5401 16.7994 16.3564 16.5809 16.3564H9.63648C9.41805 16.3564 9.24097 16.5401 9.24097 16.7666C9.24097 16.9931 9.41805 17.1768 9.63648 17.1768Z" fill="black"/>
<path d="M4.61133 20.702C4.61133 21.5197 5.25284 22.185 6.04133 22.185H7.26914C8.05768 22.185 8.69914 21.5197 8.69914 20.702V19.4288C8.69914 18.6111 8.05762 17.9458 7.26914 17.9458H6.04133C5.25279 17.9458 4.61133 18.6111 4.61133 19.4288V20.702ZM5.40234 19.4288C5.40234 19.0634 5.68901 18.7661 6.04133 18.7661H7.26914C7.62151 18.7661 7.90812 19.0634 7.90812 19.4288V20.7021C7.90812 21.0674 7.62146 21.3647 7.26914 21.3647H6.04133C5.68895 21.3647 5.40234 21.0674 5.40234 20.7021V19.4288Z" fill="black"/>
<path d="M9.63648 22.1851H16.5809C16.7994 22.1851 16.9764 22.0014 16.9764 21.7749C16.9764 21.5484 16.7994 21.3647 16.5809 21.3647H9.63648C9.41805 21.3647 9.24097 21.5484 9.24097 21.7749C9.24097 22.0014 9.41805 22.1851 9.63648 22.1851Z" fill="black"/>
<path d="M26.3595 19.6053C26.2585 19.6053 26.1763 19.5201 26.1763 19.4153V15.0871C26.1763 14.53 25.7393 14.0768 25.202 14.0768H24.2355V13.1155C24.2355 12.5225 23.7703 12.04 23.1984 12.04H21.8689V6.49885C21.8689 4.33977 20.175 2.58319 18.093 2.58319H17.3197C16.8855 1.98835 16.1976 1.60318 15.4244 1.60318H14.8491C14.6659 0.689069 13.8831 0 12.9481 0H9.16573C8.23074 0 7.44795 0.689069 7.26475 1.60318H6.68941C5.91621 1.60318 5.22828 1.98835 4.79406 2.58319H4.02081C1.93884 2.58319 0.244995 4.33977 0.244995 6.49885V24.0843C0.244995 26.2434 1.93884 28 4.02081 28H17.3021C17.5206 28 17.6976 27.8164 17.6976 27.5898C17.6976 27.3633 17.5206 27.1797 17.3021 27.1797H4.02081C2.37501 27.1797 1.03602 25.7911 1.03602 24.0843V6.49885C1.03602 4.79209 2.37501 3.40351 4.02081 3.40351H4.40156C4.34445 3.61488 4.31323 3.83735 4.31323 4.06737C4.31323 4.33567 4.35536 4.5938 4.43215 4.83579H3.18338C2.96496 4.83579 2.78787 5.01943 2.78787 5.24595V7.55597C2.78787 7.78249 2.96496 7.96613 3.18338 7.96613C3.40181 7.96613 3.57889 7.78249 3.57889 7.55597V5.65611H4.87501C5.31124 6.19107 5.96251 6.53161 6.68941 6.53161H15.4244C16.1512 6.53161 16.8025 6.19107 17.2388 5.65611H18.5704V24.5519H3.57889V9.19661C3.57889 8.9701 3.40181 8.78645 3.18338 8.78645C2.96496 8.78645 2.78787 8.9701 2.78787 9.19661V24.9621C2.78787 25.1886 2.96496 25.3722 3.18338 25.3722H18.9659C19.1844 25.3722 19.3614 25.1886 19.3614 24.9621V5.24595C19.3614 5.01943 19.1844 4.83579 18.9659 4.83579H17.6816C17.7584 4.5938 17.8005 4.33567 17.8005 4.06737C17.8005 3.83735 17.7693 3.61488 17.7122 3.40351H18.0931C19.7389 3.40351 21.0779 4.79209 21.0779 6.49885V12.4177C20.9228 12.6058 20.8285 12.8492 20.8285 13.1155V14.0877C20.4574 14.1487 20.1725 14.4819 20.1725 14.8837V21.254C20.1725 22.3669 20.4892 23.4395 21.0669 24.3485C20.9585 25.6684 20.037 26.7872 18.787 27.0951C18.5745 27.1474 18.4431 27.3685 18.4936 27.5889C18.5367 27.7775 18.699 27.9044 18.8781 27.9044C18.9083 27.9044 18.939 27.9008 18.9698 27.8932C20.3029 27.5649 21.3405 26.5078 21.7162 25.1839C21.8277 25.3022 21.9445 25.4163 22.0667 25.525L22.1365 25.587V25.8795C22.1365 26.106 22.3135 26.2896 22.532 26.2896C22.7505 26.2896 22.9275 26.106 22.9275 25.8795V25.587L22.9973 25.525C24.2011 24.455 24.8916 22.8982 24.8916 21.2539V14.8971H25.2021C25.3031 14.8971 25.3853 14.9823 25.3853 15.0871V19.4153C25.3853 19.9723 25.8223 20.4256 26.3595 20.4256C26.578 20.4256 26.755 20.242 26.755 20.0154C26.755 19.7889 26.578 19.6053 26.3595 19.6053ZM15.4244 5.71129H6.68941C5.81533 5.71129 5.10425 4.97382 5.10425 4.06742C5.10425 3.16102 5.81533 2.42356 6.68941 2.42356H7.61976C7.83819 2.42356 8.01527 2.23991 8.01527 2.01339C8.01527 1.35555 8.53139 0.820375 9.16568 0.820375H12.948C13.5824 0.820375 14.0985 1.35555 14.0985 2.01339C14.0985 2.23991 14.2755 2.42356 14.494 2.42356H15.4244C16.2984 2.42356 17.0096 3.16102 17.0096 4.06742C17.0096 4.97382 16.2984 5.71129 15.4244 5.71129ZM24.1006 19.4416H20.9635V14.8971H24.1006V19.4416ZM20.9635 20.8438V20.2619H24.1006V20.8438H20.9635ZM23.4445 13.1155V14.0768H21.6196V13.1155C21.6196 12.9748 21.73 12.8603 21.8657 12.8603H23.1984C23.3341 12.8603 23.4445 12.9748 23.4445 13.1155ZM22.532 24.8576C21.6337 24.036 21.0816 22.8925 20.9806 21.6641H24.0835C23.9824 22.8925 23.4304 24.036 22.532 24.8576Z" fill="black"/>
<path d="M9.08238 7.39552C8.90867 7.2582 8.6605 7.29287 8.52808 7.47307L8.027 8.15474C7.8071 8.01168 7.54744 7.92856 7.26926 7.92856H6.04145C5.25291 7.92856 4.61145 8.59383 4.61145 9.41152V10.6848C4.61145 11.5025 5.25296 12.1678 6.04145 12.1678H7.26926C8.0578 12.1678 8.69926 11.5025 8.69926 10.6848V9.41152C8.69926 9.1855 8.65006 8.97128 8.56247 8.77939L9.15715 7.97034C9.28957 7.7902 9.25608 7.53284 9.08238 7.39552ZM7.90819 10.6848C7.90819 11.0502 7.62153 11.3475 7.26921 11.3475H6.0414C5.68902 11.3475 5.40241 11.0502 5.40241 10.6848V9.41152C5.40241 9.04615 5.68908 8.74887 6.0414 8.74887H7.26921C7.36714 8.74887 7.45963 8.7725 7.54269 8.81351L6.69383 9.96835L6.39182 9.48644C6.27269 9.29651 6.02779 9.24264 5.84464 9.36607C5.6615 9.4895 5.60955 9.74358 5.72857 9.93351L6.3365 10.9034C6.40663 11.0152 6.52476 11.0847 6.65327 11.0897C6.65823 11.0899 6.66319 11.09 6.66814 11.09C6.79123 11.09 6.90766 11.0305 6.98265 10.9285L7.90819 9.66937V10.6848Z" fill="black"/>
</g>
<defs>
<clipPath id="clip0_443_551">
<rect width="27" height="28" fill="white"/>
</clipPath>
</defs>
</svg>
