<svg width="35" height="34" viewBox="0 0 35 34" fill="none" xmlns="http://www.w3.org/2000/svg">
<g clip-path="url(#clip0_443_404)">
<path d="M13.33 17.5898H10.3856C9.14857 17.5898 7.92459 17.1897 6.93906 16.4632L3.08352 13.6213C1.29011 12.2993 0.589565 10.0259 1.34036 7.96411C2.05792 5.99357 3.9858 4.65289 6.13754 4.62799C8.24007 4.60375 9.43465 4.6683 9.48442 4.67109L9.35276 6.91914C9.34127 6.91854 8.17903 6.85645 6.16509 6.87956C4.98111 6.89324 3.92031 7.63088 3.52553 8.7151C3.11244 9.84945 3.49785 11.1003 4.48461 11.8276L8.34008 14.6696C8.9249 15.1007 9.65135 15.3381 10.3855 15.3381H13.3298V17.5898H13.33Z" fill="#FFD064"/>
<path d="M6.93911 15.2771L3.08357 12.4351C1.94053 11.5925 1.24238 10.3633 1.08003 9.04883C0.866198 10.7852 1.60086 12.5284 3.08357 13.6214L6.93911 16.4634C7.92458 17.1898 9.14862 17.5899 10.3856 17.5899H13.33V16.4036H10.3856C9.14862 16.4036 7.92458 16.0035 6.93911 15.2771Z" fill="#ECBE6B"/>
<path d="M21.6807 17.5898H24.625C25.8621 17.5898 27.086 17.1897 28.0716 16.4632L31.9271 13.6213C33.7205 12.2993 34.4211 10.0259 33.6703 7.96411C32.9527 5.99357 31.0248 4.65289 28.8731 4.62799C26.7706 4.60375 25.576 4.6683 25.5262 4.67109L25.6579 6.91914C25.6694 6.91854 26.8316 6.85645 28.8455 6.87956C30.0295 6.89324 31.0903 7.63088 31.4851 8.7151C31.8982 9.84945 31.5128 11.1003 30.526 11.8276L26.6706 14.6696C26.0857 15.1007 25.3593 15.3381 24.6252 15.3381H21.6808V17.5898H21.6807Z" fill="#FFD064"/>
<path d="M33.6702 7.96393C33.3344 7.04155 32.7332 6.25723 31.9681 5.68115C32.2982 6.09446 32.5651 6.56117 32.7505 7.0705C33.5012 9.13228 32.8007 11.4057 31.0073 12.7277L27.1518 15.5696C26.1663 16.2961 24.9422 16.6962 23.7052 16.6962H21.6805V17.5896H24.6249C25.8619 17.5896 27.0859 17.1895 28.0715 16.4631L31.927 13.6211C33.7205 12.2991 34.421 10.0257 33.6702 7.96393Z" fill="#ECBE6B"/>
<path d="M21.2592 25.837L19.888 24.8275C19.2988 24.3937 18.9526 23.7168 18.9526 22.9985V18.5176H15.8471V22.9985C15.8471 23.7168 15.5009 24.3937 14.9117 24.8275L13.5405 25.837C13.1131 26.1516 13.3422 26.8136 13.8784 26.8136H20.9212C21.4575 26.8136 21.6866 26.1516 21.2592 25.837Z" fill="#FFD064"/>
<path d="M21.2592 25.837L19.888 24.8275C19.2988 24.3937 18.9526 23.7168 18.9526 22.9985V18.5176H17.343V22.9985C17.343 23.7168 17.6892 24.3937 18.2784 24.8275L19.6496 25.837C20.077 26.1516 19.8479 26.8136 19.3117 26.8136H20.9213C21.4575 26.8136 21.6866 26.1516 21.2592 25.837Z" fill="#ECBE6B"/>
<path d="M26.2148 1.35254H8.79594C8.46221 1.35254 8.19171 1.61531 8.19171 1.9395V7.99874C8.19171 10.593 8.93532 13.1361 10.3393 15.3429L11.9478 17.8713C14.4687 21.834 20.3916 21.861 22.9508 17.9216L24.5998 15.3833C26.0496 13.1515 26.819 10.5666 26.819 7.92769V1.9395C26.819 1.61538 26.5485 1.35254 26.2148 1.35254Z" fill="#FFE07D"/>
<path d="M26.2148 1.35254H23.4228V4.62849C23.4228 7.26741 22.6533 9.85241 21.2035 12.0841L19.5546 14.6224C17.7289 17.4327 14.1917 18.2238 11.3986 17.0082L11.9478 17.8714C14.4687 21.834 20.3916 21.8611 22.9508 17.9216L24.5998 15.3833C26.0495 13.1516 26.819 10.5667 26.819 7.92775V1.9395C26.819 1.61538 26.5485 1.35254 26.2148 1.35254Z" fill="#FFD064"/>
<path d="M17.5 30.5302C14.1934 30.5302 10.9849 29.5712 8.22109 27.7568C5.53361 25.9926 3.39185 23.5112 2.02739 20.5811C1.90742 20.3237 2.02514 20.0205 2.29017 19.904C2.55526 19.7875 2.86726 19.9019 2.98709 20.1593C5.63137 25.8377 11.3281 29.5068 17.5 29.5068C23.6719 29.5068 29.3685 25.8377 32.0128 20.1593C32.1327 19.902 32.4447 19.7876 32.7098 19.904C32.9748 20.0205 33.0925 20.3237 32.9725 20.5811C31.6081 23.5112 29.4663 25.9926 26.7788 27.7568C24.0151 29.5711 20.8065 30.5302 17.5 30.5302Z" fill="#0DC183"/>
<path d="M34.3553 19.3807C33.78 20.7032 32.7993 21.5642 32.1647 21.3037C31.5301 21.0433 31.482 19.76 32.0572 18.4375C32.4739 17.4793 33.8472 15.9561 34.5722 15.1894C34.7289 15.0238 35.0125 15.1403 34.9995 15.3648C34.9391 16.4042 34.772 18.4226 34.3553 19.3807Z" fill="#AAD880"/>
<path d="M34.5723 15.1894C34.3712 15.402 34.1201 15.673 33.8535 15.9739C33.7581 16.9936 33.5882 18.2089 33.2922 18.8895C32.887 19.8212 32.2805 20.5232 31.7357 20.766C31.8171 21.0293 31.9604 21.2198 32.1647 21.3038C32.7993 21.5642 33.7801 20.7033 34.3553 19.3807C34.772 18.4225 34.9391 16.4042 34.9995 15.3648C35.0126 15.1402 34.7289 15.0238 34.5723 15.1894Z" fill="#80CB8E"/>
<path d="M30.5022 22.321C30.5454 23.6765 30.0532 24.7911 29.4029 24.8107C28.7525 24.8303 28.1902 23.7473 28.1469 22.3918C28.1156 21.4098 28.6758 19.5763 28.9869 18.6405C29.0541 18.4384 29.3448 18.4296 29.4247 18.6274C29.7949 19.5427 30.4709 21.339 30.5022 22.321Z" fill="#AAD880"/>
<path d="M26.5689 24.9993C27.1187 26.2458 27.0796 27.4582 26.4814 27.7071C25.8833 27.9561 24.9527 27.1474 24.4029 25.9008C24.0045 24.9978 23.8369 23.0921 23.7747 22.1106C23.7613 21.8986 24.0286 21.7874 24.1774 21.943C24.866 22.6638 26.1706 24.0962 26.5689 24.9993Z" fill="#AAD880"/>
<path d="M26.5689 24.9993C26.1706 24.0963 24.866 22.6638 24.1774 21.943C24.0286 21.7873 23.7613 21.8986 23.7747 22.1107C23.7924 22.3912 23.8189 22.7474 23.8568 23.134C24.4997 23.8577 25.2181 24.7446 25.4958 25.3743C25.8809 26.2474 25.9766 27.1033 25.7941 27.6235C26.0427 27.7546 26.2808 27.7906 26.4814 27.7071C27.0796 27.4582 27.1187 26.2458 26.5689 24.9993Z" fill="#80CB8E"/>
<path d="M30.0754 27.9027C28.7573 27.4562 27.8623 26.6104 28.0765 26.0135C28.2908 25.4166 29.5331 25.2946 30.8512 25.7412C31.8062 26.0646 33.3676 27.2297 34.1555 27.8471C34.3258 27.9804 34.23 28.2473 34.0113 28.2489C32.999 28.2567 31.0304 28.2261 30.0754 27.9027Z" fill="#AAD880"/>
<path d="M25.8887 30.6996C24.5705 30.2531 23.6755 29.4073 23.8898 28.8104C24.104 28.2135 25.3463 28.0915 26.6645 28.538C27.6195 28.8615 29.1809 30.0265 29.9688 30.644C30.139 30.7773 30.0432 31.0441 29.8245 31.0458C28.8123 31.0536 26.8437 31.023 25.8887 30.6996Z" fill="#AAD880"/>
<path d="M34.1555 27.8474C33.8353 27.5966 33.3874 27.2552 32.9044 26.9167C31.8404 26.9152 30.1408 26.8628 29.2748 26.5694C28.8186 26.4149 28.4132 26.2126 28.0868 25.9893C28.0834 25.9975 28.0794 26.0054 28.0764 26.0138C27.8622 26.6107 28.7571 27.4565 30.0753 27.903C31.0303 28.2265 32.9989 28.257 34.0112 28.2493C34.2299 28.2477 34.3257 27.9808 34.1555 27.8474Z" fill="#80CB8E"/>
<path d="M29.9688 30.6438C29.6486 30.3929 29.2007 30.0516 28.7177 29.7131C27.6536 29.7116 25.9541 29.6592 25.088 29.3658C24.6319 29.2113 24.2265 29.009 23.9002 28.7856C23.8967 28.7939 23.8928 28.8018 23.8898 28.8102C23.6755 29.4071 24.5705 30.2529 25.8887 30.6994C26.8437 31.0229 28.8123 31.0534 29.8245 31.0456C30.0431 31.044 30.1389 30.7772 29.9688 30.6438Z" fill="#80CB8E"/>
<path d="M0.644837 19.3807C1.22008 20.7032 2.20083 21.5642 2.83541 21.3037C3.46999 21.0433 3.51812 19.76 2.94294 18.4375C2.52622 17.4793 1.15295 15.9561 0.427865 15.1894C0.271253 15.0238 -0.0124381 15.1403 0.000618588 15.3648C0.0609799 16.4042 0.228119 18.4226 0.644837 19.3807Z" fill="#AAD880"/>
<path d="M2.9427 18.4375C2.52598 17.4793 1.15271 15.9561 0.427621 15.1894C0.271009 15.0238 -0.0126822 15.1403 0.000374447 15.3648C0.0171909 15.6544 0.0423471 16.0199 0.078851 16.4174C0.77516 17.2025 1.58023 18.1943 1.88244 18.8891C2.28078 19.805 2.37996 20.7018 2.19266 21.2533C2.4244 21.3585 2.64534 21.3816 2.83517 21.3037C3.46982 21.0433 3.51794 19.76 2.9427 18.4375Z" fill="#80CB8E"/>
<path d="M4.49776 22.321C4.45455 23.6765 4.94674 24.7911 5.59711 24.8107C6.24748 24.8303 6.80981 23.7473 6.85308 22.3918C6.88439 21.4098 6.32418 19.5763 6.01308 18.6405C5.94588 18.4384 5.65515 18.4296 5.57524 18.6274C5.20507 19.5427 4.52907 21.339 4.49776 22.321Z" fill="#AAD880"/>
<path d="M30.5022 22.3209C30.4709 21.3389 29.7949 19.5426 29.4248 18.6273C29.3448 18.4296 29.0541 18.4384 28.9869 18.6405C28.8953 18.916 28.7822 19.2696 28.6688 19.656C28.995 20.5574 29.3299 21.6367 29.3517 22.3209C29.3814 23.2537 29.1576 24.0725 28.8031 24.4988C28.9831 24.7028 29.1881 24.8171 29.4028 24.8107C30.0532 24.7912 30.5455 23.6764 30.5022 22.3209Z" fill="#80CB8E"/>
<path d="M6.01307 18.6405C5.94587 18.4384 5.65514 18.4297 5.57516 18.6274C5.46292 18.9049 5.32257 19.2637 5.18052 19.6561C5.45211 20.5824 5.72453 21.699 5.70245 22.3919C5.67346 23.2998 5.41144 24.0849 5.04626 24.4989C5.20684 24.692 5.39428 24.8047 5.5971 24.8108C6.24748 24.8304 6.8098 23.7474 6.85307 22.3919C6.88438 21.4099 6.32417 19.5763 6.01307 18.6405Z" fill="#80CB8E"/>
<path d="M8.43101 24.9993C7.8812 26.2458 7.92037 27.4582 8.51851 27.7071C9.11666 27.9561 10.0472 27.1474 10.597 25.9008C10.9954 24.9978 11.1631 23.0921 11.2253 22.1106C11.2387 21.8986 10.9713 21.7874 10.8226 21.943C10.1339 22.6638 8.82934 24.0962 8.43101 24.9993Z" fill="#AAD880"/>
<path d="M10.8226 21.943C10.6077 22.1679 10.3329 22.4621 10.0443 22.7879C9.94778 23.7302 9.78297 24.8246 9.50919 25.4453C9.14148 26.2789 8.60363 26.9161 8.10864 27.1727C8.18281 27.4345 8.31953 27.6243 8.51846 27.7071C9.1166 27.9561 10.0472 27.1474 10.597 25.9008C10.9953 24.9977 11.163 23.0921 11.2252 22.1106C11.2387 21.8986 10.9713 21.7873 10.8226 21.943Z" fill="#80CB8E"/>
<path d="M4.92451 27.9027C6.24268 27.4562 7.13764 26.6104 6.92341 26.0135C6.70917 25.4166 5.46687 25.2946 4.1487 25.7412C3.19372 26.0646 1.63232 27.2297 0.844412 27.8471C0.674266 27.9804 0.769969 28.2473 0.988651 28.2489C2.00098 28.2567 3.96953 28.2261 4.92451 27.9027Z" fill="#AAD880"/>
<path d="M9.11128 30.6996C10.4295 30.2531 11.3244 29.4073 11.1102 28.8104C10.8959 28.2135 9.65364 28.0915 8.33547 28.538C7.38049 28.8615 5.81909 30.0265 5.03118 30.644C4.86103 30.7773 4.95674 31.0441 5.17542 31.0458C6.18768 31.0536 8.15623 31.023 9.11128 30.6996Z" fill="#AAD880"/>
<path d="M6.9235 26.0136C6.83579 25.7693 6.57569 25.6046 6.20873 25.5259C6.00639 26.0462 5.24432 26.6246 4.23192 26.9674C3.59754 27.1823 2.5161 27.2678 1.56467 27.2989C1.29028 27.5015 1.04281 27.6917 0.844504 27.8472C0.674289 27.9805 0.77006 28.2473 0.988742 28.249C2.00101 28.2567 3.96955 28.2262 4.9246 27.9027C6.24278 27.4563 7.13774 26.6105 6.9235 26.0136Z" fill="#80CB8E"/>
<path d="M11.1102 28.8104C11.0225 28.5661 10.7624 28.4015 10.3954 28.3228C10.1931 28.843 9.43099 29.4214 8.41859 29.7643C7.78422 29.9792 6.70277 30.0647 5.75135 30.0957C5.47695 30.2984 5.22949 30.4886 5.03118 30.6441C4.86103 30.7774 4.95674 31.0442 5.17542 31.0459C6.18768 31.0536 8.15623 31.023 9.11128 30.6996C10.4295 30.2531 11.3244 29.4073 11.1102 28.8104Z" fill="#80CB8E"/>
<path d="M17.343 13.7485C19.5198 13.7485 21.2845 12.0343 21.2845 9.91967C21.2845 7.80506 19.5198 6.09082 17.343 6.09082C15.1662 6.09082 13.4016 7.80506 13.4016 9.91967C13.4016 12.0343 15.1662 13.7485 17.343 13.7485Z" fill="#ECBE6B"/>
<path d="M18.8105 6.36621C18.9927 6.80695 19.0939 7.28773 19.0939 7.79175C19.0939 9.90639 17.3293 11.6206 15.1525 11.6206C14.6336 11.6206 14.1387 11.5223 13.685 11.3453C14.2671 12.7537 15.6851 13.7487 17.343 13.7487C19.5199 13.7487 21.2845 12.0344 21.2845 9.91981C21.2846 8.30912 20.2603 6.93179 18.8105 6.36621Z" fill="#EAB14D"/>
<path d="M17.6308 8.21704L18.0435 9.02926C18.081 9.10303 18.1534 9.15423 18.2373 9.16605L19.16 9.29627C19.3712 9.32609 19.4555 9.57817 19.3027 9.72287L18.635 10.3551C18.5743 10.4126 18.5466 10.4954 18.561 10.5765L18.7186 11.4692C18.7547 11.6735 18.534 11.8293 18.3451 11.7329L17.5198 11.3114C17.4448 11.2731 17.3552 11.2731 17.2802 11.3114L16.4549 11.7329C16.266 11.8293 16.0453 11.6735 16.0814 11.4692L16.239 10.5765C16.2534 10.4953 16.2257 10.4126 16.165 10.3551L15.4973 9.72287C15.3446 9.57817 15.4288 9.32609 15.64 9.29627L16.5627 9.16605C16.6466 9.15423 16.7191 9.10303 16.7566 9.02926L17.1693 8.21704C17.2635 8.03117 17.5364 8.03117 17.6308 8.21704Z" fill="#FFE07D"/>
<path d="M19.3026 9.7231C19.4554 9.5784 19.3711 9.32632 19.16 9.2965L18.8236 9.24902L17.9269 10.0981C17.837 10.1832 17.7961 10.3057 17.8173 10.4259L18.0186 11.5663L18.3451 11.733C18.5339 11.8294 18.7547 11.6736 18.7186 11.4694L18.5609 10.5766C18.5466 10.4955 18.5743 10.4127 18.635 10.3553L19.3026 9.7231Z" fill="#FFD064"/>
<path d="M22.6192 32.6474H12.3915C12.0683 32.6474 11.8065 32.3929 11.8065 32.0791V27.3818C11.8065 27.0679 12.0684 26.8135 12.3915 26.8135H22.6192C22.9423 26.8135 23.2042 27.0679 23.2042 27.3818V32.0791C23.2043 32.3929 22.9423 32.6474 22.6192 32.6474Z" fill="#407093"/>
<path d="M22.6208 26.8135H21.5127V30.4375C21.5127 30.7505 21.2515 31.0042 20.9293 31.0042H11.8065V32.0806C11.8065 32.3937 12.0677 32.6474 12.3899 32.6474H22.6208C22.943 32.6474 23.2042 32.3937 23.2042 32.0806V27.3803C23.2043 27.0672 22.943 26.8135 22.6208 26.8135Z" fill="#365E7D"/>
</g>
<defs>
<clipPath id="clip0_443_404">
<rect width="35" height="34" fill="white"/>
</clipPath>
</defs>
</svg>
