<svg width="316" height="40" viewBox="0 0 316 40" fill="none" xmlns="http://www.w3.org/2000/svg">
<rect width="316" height="40" rx="6" fill="#689FEC"/>
<path d="M109.611 29H106.236L112.381 11.5455H116.285L122.438 29H119.063L114.401 15.125H114.265L109.611 29ZM109.722 22.1562H118.927V24.696H109.722V22.1562ZM128.82 29.2301C127.792 29.2301 126.871 28.9659 126.059 28.4375C125.246 27.9091 124.604 27.142 124.133 26.1364C123.661 25.1307 123.425 23.9091 123.425 22.4716C123.425 21.017 123.664 19.7898 124.141 18.7898C124.624 17.7841 125.275 17.0256 126.093 16.5142C126.911 15.9972 127.823 15.7386 128.829 15.7386C129.596 15.7386 130.226 15.8693 130.721 16.1307C131.215 16.3864 131.607 16.696 131.897 17.0597C132.187 17.4176 132.411 17.7557 132.57 18.0739H132.698V11.5455H135.792V29H132.758V26.9375H132.57C132.411 27.2557 132.181 27.5937 131.88 27.9517C131.579 28.304 131.181 28.6051 130.687 28.8551C130.192 29.1051 129.57 29.2301 128.82 29.2301ZM129.681 26.6989C130.334 26.6989 130.891 26.5227 131.351 26.1705C131.812 25.8125 132.161 25.3153 132.4 24.679C132.638 24.0426 132.758 23.3011 132.758 22.4545C132.758 21.608 132.638 20.8722 132.4 20.2472C132.167 19.6222 131.82 19.1364 131.36 18.7898C130.905 18.4432 130.346 18.2699 129.681 18.2699C128.994 18.2699 128.42 18.4489 127.959 18.8068C127.499 19.1648 127.153 19.6591 126.92 20.2898C126.687 20.9205 126.57 21.642 126.57 22.4545C126.57 23.2727 126.687 24.0028 126.92 24.6449C127.158 25.2812 127.508 25.7841 127.968 26.1534C128.434 26.517 129.005 26.6989 129.681 26.6989ZM143.697 29.2301C142.669 29.2301 141.749 28.9659 140.936 28.4375C140.124 27.9091 139.481 27.142 139.01 26.1364C138.538 25.1307 138.303 23.9091 138.303 22.4716C138.303 21.017 138.541 19.7898 139.018 18.7898C139.501 17.7841 140.152 17.0256 140.97 16.5142C141.788 15.9972 142.7 15.7386 143.706 15.7386C144.473 15.7386 145.104 15.8693 145.598 16.1307C146.092 16.3864 146.484 16.696 146.774 17.0597C147.064 17.4176 147.288 17.7557 147.447 18.0739H147.575V11.5455H150.669V29H147.635V26.9375H147.447C147.288 27.2557 147.058 27.5937 146.757 27.9517C146.456 28.304 146.058 28.6051 145.564 28.8551C145.07 29.1051 144.447 29.2301 143.697 29.2301ZM144.558 26.6989C145.212 26.6989 145.768 26.5227 146.229 26.1705C146.689 25.8125 147.038 25.3153 147.277 24.679C147.516 24.0426 147.635 23.3011 147.635 22.4545C147.635 21.608 147.516 20.8722 147.277 20.2472C147.044 19.6222 146.697 19.1364 146.237 18.7898C145.783 18.4432 145.223 18.2699 144.558 18.2699C143.871 18.2699 143.297 18.4489 142.837 18.8068C142.376 19.1648 142.03 19.6591 141.797 20.2898C141.564 20.9205 141.447 21.642 141.447 22.4545C141.447 23.2727 141.564 24.0028 141.797 24.6449C142.035 25.2812 142.385 25.7841 142.845 26.1534C143.311 26.517 143.882 26.6989 144.558 26.6989ZM165.14 29.2557C163.833 29.2557 162.711 28.9688 161.774 28.3949C160.842 27.821 160.123 27.0284 159.617 26.017C159.117 25 158.867 23.8295 158.867 22.5057C158.867 21.1761 159.123 20.0028 159.634 18.9858C160.146 17.9631 160.867 17.1676 161.799 16.5994C162.737 16.0256 163.845 15.7386 165.123 15.7386C166.185 15.7386 167.126 15.9347 167.944 16.3267C168.768 16.7131 169.424 17.2614 169.913 17.9716C170.401 18.6761 170.68 19.5 170.748 20.4432H167.799C167.68 19.8125 167.396 19.2869 166.947 18.8665C166.504 18.4403 165.91 18.2273 165.166 18.2273C164.535 18.2273 163.981 18.3977 163.504 18.7386C163.026 19.0739 162.654 19.5568 162.387 20.1875C162.126 20.8182 161.995 21.5739 161.995 22.4545C161.995 23.3466 162.126 24.1136 162.387 24.7557C162.649 25.392 163.015 25.8835 163.487 26.2301C163.964 26.571 164.524 26.7415 165.166 26.7415C165.62 26.7415 166.026 26.6562 166.384 26.4858C166.748 26.3097 167.052 26.0568 167.296 25.7273C167.541 25.3977 167.708 24.9972 167.799 24.5256H170.748C170.674 25.4517 170.401 26.2727 169.93 26.9886C169.458 27.6989 168.816 28.2557 168.004 28.6591C167.191 29.0568 166.237 29.2557 165.14 29.2557ZM176.127 21.3295V29H173.041V11.5455H176.058V18.1335H176.212C176.519 17.3949 176.993 16.8125 177.635 16.3864C178.283 15.9545 179.107 15.7386 180.107 15.7386C181.016 15.7386 181.808 15.929 182.485 16.3097C183.161 16.6903 183.683 17.2472 184.053 17.9801C184.428 18.7131 184.615 19.608 184.615 20.6648V29H181.53V21.142C181.53 20.2614 181.303 19.5767 180.848 19.0881C180.399 18.5937 179.769 18.3466 178.956 18.3466C178.411 18.3466 177.922 18.4659 177.49 18.7045C177.064 18.9375 176.729 19.2756 176.485 19.7188C176.246 20.1619 176.127 20.6989 176.127 21.3295ZM187.52 29V15.9091H190.605V29H187.52ZM189.071 14.0511C188.583 14.0511 188.162 13.8892 187.81 13.5653C187.458 13.2358 187.281 12.8409 187.281 12.3807C187.281 11.9148 187.458 11.5199 187.81 11.196C188.162 10.8665 188.583 10.7017 189.071 10.7017C189.566 10.7017 189.986 10.8665 190.333 11.196C190.685 11.5199 190.861 11.9148 190.861 12.3807C190.861 12.8409 190.685 13.2358 190.333 13.5653C189.986 13.8892 189.566 14.0511 189.071 14.0511ZM196.623 11.5455V29H193.538V11.5455H196.623ZM204.414 29.2301C203.385 29.2301 202.465 28.9659 201.652 28.4375C200.84 27.9091 200.198 27.142 199.726 26.1364C199.255 25.1307 199.019 23.9091 199.019 22.4716C199.019 21.017 199.257 19.7898 199.735 18.7898C200.218 17.7841 200.868 17.0256 201.686 16.5142C202.505 15.9972 203.416 15.7386 204.422 15.7386C205.189 15.7386 205.82 15.8693 206.314 16.1307C206.809 16.3864 207.201 16.696 207.49 17.0597C207.78 17.4176 208.005 17.7557 208.164 18.0739H208.291V11.5455H211.385V29H208.351V26.9375H208.164C208.005 27.2557 207.774 27.5937 207.473 27.9517C207.172 28.304 206.774 28.6051 206.28 28.8551C205.786 29.1051 205.164 29.2301 204.414 29.2301ZM205.274 26.6989C205.928 26.6989 206.485 26.5227 206.945 26.1705C207.405 25.8125 207.755 25.3153 207.993 24.679C208.232 24.0426 208.351 23.3011 208.351 22.4545C208.351 21.608 208.232 20.8722 207.993 20.2472C207.76 19.6222 207.414 19.1364 206.953 18.7898C206.499 18.4432 205.939 18.2699 205.274 18.2699C204.587 18.2699 204.013 18.4489 203.553 18.8068C203.093 19.1648 202.746 19.6591 202.513 20.2898C202.28 20.9205 202.164 21.642 202.164 22.4545C202.164 23.2727 202.28 24.0028 202.513 24.6449C202.752 25.2812 203.101 25.7841 203.561 26.1534C204.027 26.517 204.598 26.6989 205.274 26.6989Z" fill="white"/>
</svg>
