<svg width="29" height="28" viewBox="0 0 29 28" fill="none" xmlns="http://www.w3.org/2000/svg">
<g clip-path="url(#clip0_404_98)">
<path d="M13.3672 18.9208V15.0927H9.40234C8.77664 15.0927 8.26953 14.6031 8.26953 13.9989C8.26953 13.395 8.77664 12.9052 9.40234 12.9052H13.3672V9.07706C13.3672 8.47314 13.8743 7.98331 14.5 7.98331C15.1257 7.98331 15.6328 8.47314 15.6328 9.07706V12.9052H19.5977C20.2234 12.9052 20.7305 13.395 20.7305 13.9989C20.7305 14.6031 20.2234 15.0927 19.5977 15.0927H15.6328V18.9208C15.6328 19.5249 15.1257 20.0146 14.5 20.0146C13.8743 20.0146 13.3672 19.5249 13.3672 18.9208ZM24.7531 4.10049C22.0144 1.45627 18.373 0 14.5 0C10.627 0 6.9856 1.45627 4.24694 4.10049C1.50828 6.74472 0 10.2605 0 14C0 17.7395 1.50828 21.2553 4.24694 23.8995C6.9856 26.5437 10.627 28 14.5 28C17.1515 28 19.7459 27.3023 22.0027 25.9823C22.5379 25.6694 22.7089 24.9969 22.3848 24.4803C22.0606 23.9636 21.3639 23.7985 20.8289 24.1114C18.9262 25.2242 16.7375 25.8125 14.5 25.8125C7.75401 25.8125 2.26562 20.5134 2.26562 14C2.26562 7.48663 7.75401 2.1875 14.5 2.1875C21.246 2.1875 26.7344 7.48663 26.7344 14C26.7344 16.3291 26.0171 18.5961 24.6599 20.5563C24.3121 21.0583 24.4519 21.7376 24.9721 22.0735C25.492 22.4091 26.1956 22.274 26.5434 21.772C28.1504 19.451 29 16.7634 29 14C29 10.2605 27.4917 6.74472 24.7531 4.10049V4.10049Z" fill="black"/>
</g>
<defs>
<clipPath id="clip0_404_98">
<rect width="29" height="28" fill="white"/>
</clipPath>
</defs>
</svg>
