<svg width="52" height="59" viewBox="0 0 52 59" fill="none" xmlns="http://www.w3.org/2000/svg">
<g clip-path="url(#clip0_443_578)">
<path d="M50.9844 38.0009V42.5723L34.692 43.7246L1.01562 42.5723V38.0009C1.01562 34.7375 2.20797 31.7886 4.12547 29.6868C5.29547 28.403 6.73664 27.4339 8.34234 26.9027C9.25031 26.6008 10.2111 26.4395 11.2054 26.4395H40.7946C41.7889 26.4395 42.7497 26.6008 43.6577 26.9027C45.1699 27.4028 46.5359 28.2913 47.6673 29.4655C49.7057 31.5789 50.9844 34.6211 50.9844 38.0009Z" fill="#00D0B0"/>
<path d="M1.01562 42.5723H50.9844V49.4587H1.01562V42.5723Z" fill="#66E3D0"/>
<path d="M47.6674 10.4359V29.4657C46.536 28.2914 45.1699 27.403 43.6577 26.9028V22.2405C43.6577 20.8577 43.1641 19.6062 42.3648 18.6993C41.5655 17.7924 40.4625 17.2324 39.2428 17.2324H30.4139C27.9764 17.2324 26 19.4748 26 22.2405C26 20.8577 25.5064 19.6062 24.7071 18.6993C23.9078 17.7924 22.8049 17.2324 21.5861 17.2324H12.7573C10.3188 17.2324 8.34236 19.4748 8.34236 22.2405V26.9028C6.73666 27.4341 5.29549 28.4032 4.12549 29.6869V10.4359C4.12549 6.55477 6.89916 3.40771 10.3198 3.40771H41.4731C44.8937 3.40771 47.6674 6.55477 47.6674 10.4359Z" fill="#FFB954"/>
<path d="M7.23531 49.459V52.0633C7.23531 54.0119 5.84289 55.5918 4.12547 55.5918C3.26625 55.5918 2.4893 55.1965 1.92664 54.5581C1.36398 53.9197 1.01562 53.0382 1.01562 52.0633V49.459H7.23531Z" fill="#FFC66C"/>
<path d="M50.9843 49.459V52.0633C50.9843 54.0119 49.5919 55.5918 47.8745 55.5918C47.0153 55.5918 46.2383 55.1965 45.6757 54.5581C45.113 53.9197 44.7646 53.0382 44.7646 52.0633V49.459H50.9843Z" fill="#FFC66C"/>
<path d="M25.9999 22.2405V26.4396H11.2053C10.211 26.4396 9.25025 26.601 8.34229 26.9029V22.2405C8.34229 19.4749 10.3187 17.2324 12.7572 17.2324H21.586C22.8048 17.2324 23.9078 17.7925 24.7071 18.6994C25.5063 19.6062 25.9999 20.8577 25.9999 22.2405Z" fill="#EAF0F0"/>
<path d="M43.6577 22.2405V26.9029C42.7497 26.601 41.7889 26.4396 40.7946 26.4396H26V22.2405C26 19.4749 27.9764 17.2324 30.4139 17.2324H39.2427C40.4625 17.2324 41.5655 17.7925 42.3648 18.6994C43.1641 19.6062 43.6577 20.8577 43.6577 22.2405Z" fill="#EAF0F0"/>
<path d="M48.6826 28.9804V10.4362C48.6826 5.9255 45.4482 2.25586 41.4727 2.25586H10.32C6.34441 2.25586 3.11015 5.92561 3.11015 10.4362V29.2197C1.18452 31.5038 0 34.5987 0 38.0016V52.0628C0 54.6439 1.85077 56.744 4.12577 56.744C6.40067 56.744 8.25145 54.6439 8.25145 52.0628V50.6106H43.7487V52.0628C43.7487 54.6439 45.5994 56.744 47.8743 56.744C50.1492 56.744 52 54.6441 52 52.0628V38.0016C52 34.4783 50.7301 31.2854 48.6826 28.9804ZM10.32 4.56055H41.4727C44.3283 4.56055 46.6513 7.19642 46.6513 10.4362V27.1668C46.0292 26.7322 45.3673 26.3646 44.673 26.0731V22.2411C44.673 18.844 42.2371 16.0802 39.243 16.0802H30.4144C28.5969 16.0802 26.9862 17.0997 26.0001 18.66C25.014 17.0997 23.4034 16.0802 21.5858 16.0802H12.7572C9.7631 16.0802 7.32723 18.8438 7.32723 22.2411V26.0731C6.55525 26.3972 5.82309 26.8153 5.1415 27.315V10.4362C5.1414 7.19642 7.46444 4.56055 10.32 4.56055ZM11.2057 25.2874C10.5765 25.2874 9.95942 25.3476 9.35827 25.4612V22.2411C9.35827 20.1148 10.8829 18.3849 12.757 18.3849H21.5856C23.4596 18.3849 24.9843 20.1148 24.9843 22.2411V25.2875H11.2057V25.2874ZM27.0156 22.241C27.0156 20.1147 28.5403 18.3848 30.4143 18.3848H39.2429C41.117 18.3848 42.6416 20.1147 42.6416 22.241V25.4611C42.0404 25.3474 41.4234 25.2873 40.7942 25.2873H27.0156V22.241ZM11.2057 27.5921H40.7942C45.853 27.5921 49.9686 32.2617 49.9686 38.0016V41.4202H39.7823C39.2214 41.4202 38.7667 41.9362 38.7667 42.5726C38.7667 43.2089 39.2214 43.7249 39.7823 43.7249H49.9688V48.306H2.03125V43.7249H29.6261C30.187 43.7249 30.6417 43.2089 30.6417 42.5726C30.6417 41.9362 30.187 41.4202 29.6261 41.4202H2.03125V38.0016C2.03125 32.2617 6.14687 27.5921 11.2057 27.5921ZM6.2202 52.0628C6.2202 53.3731 5.28064 54.4393 4.12577 54.4393C2.97091 54.4393 2.03125 53.3731 2.03125 52.0628V50.6106H6.2202V52.0628ZM47.8742 54.4393C46.7194 54.4393 45.7798 53.3731 45.7798 52.0628V50.6106H49.9688V52.0628C49.9688 53.3731 49.0292 54.4393 47.8742 54.4393Z" fill="black"/>
<path d="M34.7038 43.7253C35.265 43.7253 35.7199 43.2091 35.7199 42.5724C35.7199 41.9356 35.265 41.4194 34.7038 41.4194C34.1426 41.4194 33.6876 41.9356 33.6876 42.5724C33.6876 43.2091 34.1426 43.7253 34.7038 43.7253Z" fill="black"/>
</g>
<defs>
<clipPath id="clip0_443_578">
<rect width="52" height="59" fill="white"/>
</clipPath>
</defs>
</svg>
