<svg width="11" height="11" viewBox="0 0 11 11" fill="none" xmlns="http://www.w3.org/2000/svg">
<g clip-path="url(#clip0_443_595)">
<path d="M5.50004 1.49153C5.39707 1.49153 5.3136 1.40805 5.3136 1.30508V0.186441C5.3136 0.0834723 5.39707 0 5.50004 0C5.60301 0 5.68648 0.0834723 5.68648 0.186441V1.30508C5.68648 1.40805 5.60301 1.49153 5.50004 1.49153Z" fill="#F0C419"/>
<path d="M6.80509 1.67797C6.70212 1.67797 6.61865 1.59449 6.61865 1.49153V0.186441C6.61865 0.0834723 6.70212 0 6.80509 0C6.90806 0 6.99153 0.0834723 6.99153 0.186441V1.49153C6.99153 1.59449 6.90806 1.67797 6.80509 1.67797Z" fill="#F0C419"/>
<path d="M8.11021 2.2373C8.00724 2.2373 7.92377 2.15382 7.92377 2.05086V1.30509C7.92377 1.20212 8.00724 1.11865 8.11021 1.11865C8.21318 1.11865 8.29665 1.20212 8.29665 1.30509V2.05086C8.29665 2.15382 8.21318 2.2373 8.11021 2.2373Z" fill="#F0C419"/>
<path d="M8.11021 0.745763C8.00724 0.745763 7.92377 0.66229 7.92377 0.559322V0.186441C7.92377 0.0834723 8.00724 0 8.11021 0C8.21318 0 8.29665 0.0834723 8.29665 0.186441V0.559322C8.29665 0.66229 8.21318 0.745763 8.11021 0.745763Z" fill="#F0C419"/>
<path d="M9.41526 5.4067C9.31229 5.4067 9.22882 5.32323 9.22882 5.22026V1.11857C9.22882 1.0156 9.31229 0.932129 9.41526 0.932129C9.51823 0.932129 9.6017 1.0156 9.6017 1.11857V5.22026C9.6017 5.32323 9.51823 5.4067 9.41526 5.4067Z" fill="#F0C419"/>
<path d="M4.19492 1.67797C4.09196 1.67797 4.00848 1.59449 4.00848 1.49153V0.186441C4.00848 0.0834723 4.09196 0 4.19492 0C4.29789 0 4.38137 0.0834723 4.38137 0.186441V1.49153C4.38137 1.59449 4.29789 1.67797 4.19492 1.67797Z" fill="#F0C419"/>
<path d="M2.88987 2.2373C2.7869 2.2373 2.70343 2.15382 2.70343 2.05086V1.30509C2.70343 1.20212 2.7869 1.11865 2.88987 1.11865C2.99284 1.11865 3.07631 1.20212 3.07631 1.30509V2.05086C3.07631 2.15382 2.99284 2.2373 2.88987 2.2373Z" fill="#F0C419"/>
<path d="M2.88987 0.745763C2.7869 0.745763 2.70343 0.66229 2.70343 0.559322V0.186441C2.70343 0.0834723 2.7869 0 2.88987 0C2.99284 0 3.07631 0.0834723 3.07631 0.186441V0.559322C3.07631 0.66229 2.99284 0.745763 2.88987 0.745763Z" fill="#F0C419"/>
<path d="M1.58476 5.4067C1.48179 5.4067 1.39832 5.32323 1.39832 5.22026V1.11857C1.39832 1.0156 1.48179 0.932129 1.58476 0.932129C1.68772 0.932129 1.7712 1.0156 1.7712 1.11857V5.22026C1.7712 5.32323 1.68772 5.4067 1.58476 5.4067Z" fill="#F0C419"/>
<path d="M5.50003 10.9999C7.97127 10.9999 9.9746 8.9966 9.9746 6.52536C9.9746 4.05412 7.97127 2.05078 5.50003 2.05078C3.02879 2.05078 1.02545 4.05412 1.02545 6.52536C1.02545 8.9966 3.02879 10.9999 5.50003 10.9999Z" fill="#F29C1F"/>
<path d="M5.50005 10.254C7.55942 10.254 9.22887 8.58457 9.22887 6.5252C9.22887 4.46583 7.55942 2.79639 5.50005 2.79639C3.44069 2.79639 1.77124 4.46583 1.77124 6.5252C1.77124 8.58457 3.44069 10.254 5.50005 10.254Z" fill="#F0C419"/>
<path d="M5.50005 10.4407C3.33869 10.4384 1.58716 8.68683 1.5848 6.52547C1.58296 5.91334 1.7262 5.3095 2.0028 4.76342C2.03152 4.70181 2.0915 4.66072 2.15932 4.65618C2.22714 4.65164 2.29206 4.68437 2.32874 4.7416C2.36542 4.79883 2.36805 4.87149 2.33559 4.93122C2.08544 5.42532 1.95593 5.97166 1.95768 6.52547C1.95768 7.86722 2.71575 9.09382 3.91585 9.69386C5.11595 10.2939 6.55207 10.1644 7.62547 9.35937C7.67876 9.3194 7.74932 9.3109 7.81058 9.33707C7.87183 9.36323 7.91447 9.42009 7.92244 9.48622C7.93041 9.55235 7.90249 9.61771 7.8492 9.65767C7.17261 10.1681 6.34758 10.4431 5.50005 10.4407Z" fill="#E57E25"/>
<path d="M8.82539 8.40026C8.76061 8.40016 8.70052 8.36644 8.66668 8.3112C8.63285 8.25596 8.63011 8.18711 8.65946 8.12936C8.91281 7.63276 9.04409 7.0829 9.04241 6.52541C9.04241 5.18366 8.28433 3.95706 7.08423 3.35701C5.88413 2.75697 4.44801 2.88646 3.37461 3.69151C3.29224 3.75329 3.17537 3.7366 3.11359 3.65422C3.05181 3.57185 3.06851 3.45499 3.15088 3.39321C4.60742 2.30165 6.62402 2.35752 8.01788 3.52805C9.41175 4.69858 9.81539 6.67515 8.99207 8.29846C8.96015 8.36111 8.8957 8.40047 8.82539 8.40026Z" fill="#E57E25"/>
<path d="M5.84178 3.95119L6.35523 5.03366C6.40872 5.14984 6.51648 5.23182 6.64273 5.25235L7.78188 5.42425C7.92976 5.45366 8.04949 5.56199 8.09349 5.7062C8.1375 5.85041 8.09864 6.00713 7.99237 6.11408L7.1752 6.94225C7.0828 7.0375 7.04126 7.17104 7.06333 7.3019L7.25723 8.47647C7.28849 8.62214 7.23337 8.77282 7.11549 8.86393C6.9976 8.95504 6.83789 8.97039 6.70481 8.90342L5.67566 8.34093C5.56618 8.28073 5.43351 8.28073 5.32403 8.34093L4.29488 8.90342C4.16179 8.97039 4.00208 8.95504 3.8842 8.86393C3.76632 8.77282 3.71119 8.62214 3.74245 8.47647L3.93635 7.3019C3.95843 7.17104 3.91689 7.0375 3.82449 6.94225L3.00732 6.11408C2.90105 6.00713 2.86219 5.85041 2.90619 5.7062C2.9502 5.56199 3.06993 5.45366 3.21781 5.42425L4.35696 5.25235C4.48335 5.23193 4.59127 5.14994 4.64483 5.03366L5.15828 3.9523C5.21737 3.81633 5.3514 3.72827 5.49966 3.72803C5.64792 3.72779 5.78224 3.8154 5.84178 3.95119Z" fill="#F29C1F"/>
</g>
<defs>
<clipPath id="clip0_443_595">
<rect width="11" height="11" fill="white"/>
</clipPath>
</defs>
</svg>
