<svg width="316" height="22" viewBox="0 0 316 22" fill="none" xmlns="http://www.w3.org/2000/svg">
<path d="M112.219 16.1477C111.635 16.1477 111.115 15.9908 110.659 15.6768C110.204 15.3598 109.845 14.9244 109.583 14.3704C109.322 13.8164 109.191 13.1855 109.191 12.4776C109.191 11.7667 109.322 11.1358 109.583 10.5849C109.845 10.0309 110.204 9.59541 110.659 9.27841C111.115 8.96141 111.635 8.80291 112.219 8.80291C112.804 8.80291 113.324 8.96141 113.78 9.27841C114.235 9.59541 114.594 10.0309 114.855 10.5849C115.117 11.1388 115.248 11.7698 115.248 12.4776C115.248 13.1855 115.117 13.8164 114.855 14.3704C114.594 14.9244 114.235 15.3598 113.78 15.6768C113.324 15.9908 112.804 16.1477 112.219 16.1477ZM112.219 15.6261C112.715 15.6261 113.147 15.486 113.517 15.206C113.889 14.9259 114.177 14.5473 114.38 14.0703C114.586 13.5933 114.689 13.0624 114.689 12.4776C114.689 11.8929 114.586 11.3635 114.38 10.8896C114.174 10.4125 113.886 10.034 113.517 9.75391C113.147 9.47076 112.715 9.32919 112.219 9.32919C111.724 9.32919 111.291 9.47076 110.922 9.75391C110.553 10.034 110.265 10.4125 110.059 10.8896C109.853 11.3635 109.75 11.8929 109.75 12.4776C109.75 13.0624 109.851 13.5933 110.054 14.0703C110.26 14.5473 110.548 14.9259 110.918 15.206C111.29 15.486 111.724 15.6261 112.219 15.6261ZM117.058 16V8.90909H117.607V10.017H117.658C117.812 9.65388 118.072 9.36304 118.438 9.14453C118.804 8.92294 119.221 8.81214 119.689 8.81214C119.739 8.81214 119.788 8.81214 119.837 8.81214C119.886 8.81214 119.932 8.81368 119.976 8.81676V9.38459C119.939 9.38151 119.894 9.37689 119.842 9.37074C119.792 9.36151 119.731 9.35689 119.657 9.35689C119.263 9.35689 118.912 9.44152 118.604 9.6108C118.3 9.78007 118.06 10.014 117.884 10.3125C117.709 10.608 117.621 10.9465 117.621 11.3281V16H117.058ZM127.544 16.1477C126.941 16.1477 126.41 15.9892 125.951 15.6722C125.493 15.3522 125.134 14.9151 124.876 14.3612C124.62 13.8072 124.492 13.1793 124.492 12.4776C124.492 11.7759 124.622 11.1481 124.88 10.5941C125.139 10.0401 125.497 9.6031 125.956 9.28303C126.414 8.96295 126.942 8.80291 127.539 8.80291C127.989 8.80291 128.398 8.89524 128.767 9.0799C129.14 9.26456 129.447 9.52154 129.691 9.85085C129.937 10.1802 130.094 10.5618 130.161 10.9957H129.589C129.497 10.5156 129.266 10.1186 128.897 9.80469C128.53 9.48769 128.079 9.32919 127.544 9.32919C127.064 9.32919 126.636 9.46461 126.261 9.73544C125.885 10.0032 125.59 10.3741 125.374 10.848C125.159 11.3189 125.051 11.859 125.051 12.4684C125.051 13.0685 125.156 13.6071 125.365 14.0842C125.574 14.5581 125.867 14.9336 126.242 15.2106C126.618 15.4876 127.051 15.6261 127.544 15.6261C127.892 15.6261 128.209 15.5568 128.495 15.4183C128.784 15.2798 129.026 15.0829 129.22 14.8274C129.414 14.572 129.541 14.2734 129.603 13.9318H130.175C130.108 14.3688 129.954 14.7536 129.714 15.0859C129.474 15.4183 129.167 15.6784 128.795 15.8661C128.423 16.0539 128.006 16.1477 127.544 16.1477ZM134.602 16.1477C134.017 16.1477 133.497 15.9908 133.041 15.6768C132.586 15.3598 132.227 14.9244 131.966 14.3704C131.704 13.8164 131.573 13.1855 131.573 12.4776C131.573 11.7667 131.704 11.1358 131.966 10.5849C132.227 10.0309 132.586 9.59541 133.041 9.27841C133.497 8.96141 134.017 8.80291 134.602 8.80291C135.187 8.80291 135.707 8.96141 136.162 9.27841C136.618 9.59541 136.976 10.0309 137.238 10.5849C137.499 11.1388 137.63 11.7698 137.63 12.4776C137.63 13.1855 137.499 13.8164 137.238 14.3704C136.976 14.9244 136.618 15.3598 136.162 15.6768C135.707 15.9908 135.187 16.1477 134.602 16.1477ZM134.602 15.6261C135.097 15.6261 135.53 15.486 135.899 15.206C136.271 14.9259 136.559 14.5473 136.762 14.0703C136.968 13.5933 137.072 13.0624 137.072 12.4776C137.072 11.8929 136.968 11.3635 136.762 10.8896C136.556 10.4125 136.268 10.034 135.899 9.75391C135.53 9.47076 135.097 9.32919 134.602 9.32919C134.106 9.32919 133.674 9.47076 133.305 9.75391C132.935 10.034 132.647 10.4125 132.441 10.8896C132.235 11.3635 132.132 11.8929 132.132 12.4776C132.132 13.0624 132.233 13.5933 132.437 14.0703C132.643 14.5473 132.931 14.9259 133.3 15.206C133.672 15.486 134.106 15.6261 134.602 15.6261ZM140.003 11.402V16H139.44V8.90909H139.99V10.0309H140.045C140.211 9.66465 140.477 9.37074 140.844 9.14915C141.21 8.92756 141.645 8.81676 142.15 8.81676C142.627 8.81676 143.046 8.91832 143.406 9.12145C143.769 9.32457 144.052 9.61387 144.255 9.98935C144.461 10.3617 144.565 10.8065 144.565 11.3235V16H144.001V11.3466C144.001 10.7434 143.821 10.2586 143.461 9.8924C143.104 9.52308 142.632 9.33842 142.044 9.33842C141.65 9.33842 141.299 9.4246 140.991 9.59695C140.684 9.76929 140.442 10.0109 140.267 10.3217C140.091 10.6295 140.003 10.9896 140.003 11.402ZM149.282 8.90909V9.41229H146.184V8.90909H149.282ZM147.232 7.21023H147.791V14.3242C147.791 14.6135 147.846 14.8505 147.957 15.0352C148.071 15.2167 148.218 15.3522 148.4 15.4414C148.585 15.5276 148.782 15.5707 148.991 15.5707C149.093 15.5707 149.18 15.563 149.254 15.5476C149.331 15.5322 149.403 15.5122 149.471 15.4876L149.61 16C149.523 16.0308 149.428 16.0569 149.323 16.0785C149.219 16.1031 149.096 16.1154 148.954 16.1154C148.659 16.1154 148.379 16.0492 148.114 15.9169C147.852 15.7846 147.64 15.5922 147.477 15.3398C147.314 15.0875 147.232 14.7828 147.232 14.4258V7.21023ZM151.268 16V8.90909H151.827V16H151.268ZM151.55 7.65341C151.427 7.65341 151.319 7.61032 151.227 7.52415C151.138 7.43797 151.093 7.33333 151.093 7.21023C151.093 7.08712 151.138 6.98248 151.227 6.89631C151.316 6.81013 151.424 6.76704 151.55 6.76704C151.673 6.76704 151.779 6.81013 151.869 6.89631C151.961 6.98248 152.007 7.08712 152.007 7.21023C152.007 7.33333 151.962 7.43797 151.873 7.52415C151.784 7.61032 151.676 7.65341 151.55 7.65341ZM154.619 11.402V16H154.056V8.90909H154.605V10.0309H154.661C154.827 9.66465 155.093 9.37074 155.46 9.14915C155.826 8.92756 156.261 8.81676 156.766 8.81676C157.243 8.81676 157.662 8.91832 158.022 9.12145C158.385 9.32457 158.668 9.61387 158.871 9.98935C159.077 10.3617 159.18 10.8065 159.18 11.3235V16H158.617V11.3466C158.617 10.7434 158.437 10.2586 158.077 9.8924C157.72 9.52308 157.248 9.33842 156.66 9.33842C156.266 9.33842 155.915 9.4246 155.607 9.59695C155.299 9.76929 155.058 10.0109 154.882 10.3217C154.707 10.6295 154.619 10.9896 154.619 11.402ZM165.934 13.484V8.90909H166.497V16H165.934V14.8505H165.887C165.721 15.2167 165.452 15.5153 165.08 15.7461C164.71 15.9769 164.273 16.0923 163.768 16.0923C163.304 16.0923 162.893 15.9908 162.536 15.7876C162.179 15.5845 161.899 15.2968 161.696 14.9244C161.493 14.5489 161.391 14.1026 161.391 13.5856V8.90909H161.954V13.5625C161.954 14.1534 162.133 14.632 162.49 14.9982C162.85 15.3614 163.314 15.543 163.884 15.543C164.253 15.543 164.593 15.4599 164.904 15.2937C165.215 15.1275 165.464 14.8905 165.652 14.5827C165.84 14.2719 165.934 13.9057 165.934 13.484ZM171.466 16.1477C170.826 16.1477 170.268 15.9892 169.794 15.6722C169.321 15.3552 168.954 14.9213 168.696 14.3704C168.437 13.8195 168.308 13.1916 168.308 12.4869C168.308 11.779 168.437 11.1481 168.696 10.5941C168.957 10.0401 169.316 9.6031 169.771 9.28303C170.227 8.96295 170.747 8.80291 171.332 8.80291C171.729 8.80291 172.104 8.88293 172.458 9.04297C172.815 9.19993 173.129 9.42767 173.4 9.72621C173.674 10.0247 173.888 10.3848 174.042 10.8065C174.199 11.2281 174.277 11.7021 174.277 12.2283V12.5792H168.663V12.0668H173.714C173.714 11.5528 173.609 11.0896 173.4 10.6772C173.191 10.2648 172.906 9.93703 172.546 9.69389C172.186 9.45076 171.781 9.32919 171.332 9.32919C170.861 9.32919 170.441 9.46153 170.071 9.72621C169.705 9.98781 169.414 10.3417 169.199 10.788C168.987 11.2343 168.876 11.7328 168.867 12.2837V12.5146C168.867 13.1055 168.97 13.6364 169.176 14.1072C169.385 14.575 169.684 14.9459 170.071 15.2198C170.459 15.4906 170.924 15.6261 171.466 15.6261C171.853 15.6261 172.184 15.5614 172.458 15.4322C172.735 15.2998 172.961 15.1398 173.137 14.9521C173.312 14.7643 173.445 14.5827 173.534 14.4073L174.046 14.6151C173.939 14.852 173.771 15.089 173.543 15.326C173.318 15.5599 173.032 15.7553 172.684 15.9123C172.34 16.0692 171.933 16.1477 171.466 16.1477ZM181.159 16L179.035 8.90909H179.626L181.454 15.1737H181.505L183.338 8.90909H183.924L185.752 15.169H185.798L187.626 8.90909H188.217L186.094 16H185.466L183.656 9.82777H183.596L181.787 16H181.159ZM189.869 16V8.90909H190.428V16H189.869ZM190.151 7.65341C190.028 7.65341 189.92 7.61032 189.828 7.52415C189.739 7.43797 189.694 7.33333 189.694 7.21023C189.694 7.08712 189.739 6.98248 189.828 6.89631C189.917 6.81013 190.025 6.76704 190.151 6.76704C190.274 6.76704 190.38 6.81013 190.469 6.89631C190.562 6.98248 190.608 7.08712 190.608 7.21023C190.608 7.33333 190.563 7.43797 190.474 7.52415C190.385 7.61032 190.277 7.65341 190.151 7.65341ZM195.164 8.90909V9.41229H192.066V8.90909H195.164ZM193.114 7.21023H193.673V14.3242C193.673 14.6135 193.728 14.8505 193.839 15.0352C193.953 15.2167 194.1 15.3522 194.282 15.4414C194.467 15.5276 194.664 15.5707 194.873 15.5707C194.974 15.5707 195.062 15.563 195.136 15.5476C195.213 15.5322 195.285 15.5122 195.353 15.4876L195.491 16C195.405 16.0308 195.31 16.0569 195.205 16.0785C195.101 16.1031 194.978 16.1154 194.836 16.1154C194.54 16.1154 194.26 16.0492 193.996 15.9169C193.734 15.7846 193.522 15.5922 193.359 15.3398C193.196 15.0875 193.114 14.7828 193.114 14.4258V7.21023ZM197.838 11.402V16H197.275V6.54545H197.838V10.0309H197.894C198.06 9.66158 198.324 9.36766 198.688 9.14915C199.054 8.92756 199.492 8.81676 200.003 8.81676C200.48 8.81676 200.9 8.91832 201.264 9.12145C201.627 9.3215 201.91 9.60926 202.113 9.98473C202.319 10.3571 202.422 10.8034 202.422 11.3235V16H201.864V11.3466C201.864 10.7403 201.684 10.254 201.324 9.88778C200.964 9.52154 200.488 9.33842 199.897 9.33842C199.5 9.33842 199.146 9.4246 198.835 9.59695C198.525 9.76929 198.28 10.0109 198.101 10.3217C197.926 10.6295 197.838 10.9896 197.838 11.402Z" fill="#8C8C8C"/>
<line x1="99" y1="11.5" y2="11.5" stroke="#D2D2D2"/>
<line x1="316" y1="11.5" x2="213" y2="11.5" stroke="#D2D2D2"/>
</svg>
