<svg width="40" height="39" viewBox="0 0 40 39" fill="none" xmlns="http://www.w3.org/2000/svg">
<circle cx="20.3965" cy="19.5" r="19" fill="#FCFCFC" stroke="#D0D0D0"/>
<path d="M21.0166 23.6506C20.4313 23.6506 19.9086 23.5497 19.4484 23.348C18.991 23.1463 18.6288 22.8665 18.3617 22.5085C18.0975 22.1477 17.9555 21.7301 17.9356 21.2557H19.2737C19.2907 21.5142 19.3774 21.7386 19.5336 21.929C19.6927 22.1165 19.9001 22.2614 20.1558 22.3636C20.4115 22.4659 20.6956 22.517 21.0081 22.517C21.3518 22.517 21.6558 22.4574 21.92 22.3381C22.187 22.2187 22.3958 22.0526 22.5464 21.8395C22.697 21.6236 22.7723 21.375 22.7723 21.0938C22.7723 20.8011 22.697 20.544 22.5464 20.3224C22.3987 20.098 22.1813 19.9219 21.8944 19.794C21.6103 19.6662 21.2666 19.6023 20.8632 19.6023H20.1259V18.5284H20.8632C21.187 18.5284 21.4711 18.4702 21.7154 18.3537C21.9626 18.2372 22.1558 18.0753 22.295 17.8679C22.4342 17.6577 22.5038 17.4119 22.5038 17.1307C22.5038 16.8608 22.4427 16.6264 22.3206 16.4276C22.2012 16.2259 22.0308 16.0682 21.8092 15.9545C21.5904 15.8409 21.3319 15.7841 21.0336 15.7841C20.7495 15.7841 20.4839 15.8366 20.2367 15.9418C19.9924 16.044 19.7936 16.1918 19.6402 16.3849C19.4867 16.5753 19.4044 16.804 19.393 17.071H18.1188C18.1331 16.5994 18.2723 16.1847 18.5365 15.8267C18.8035 15.4687 19.1558 15.1889 19.5933 14.9872C20.0308 14.7855 20.5166 14.6847 21.0507 14.6847C21.6103 14.6847 22.0933 14.794 22.4995 15.0128C22.9086 15.2287 23.224 15.517 23.4456 15.8778C23.67 16.2386 23.7808 16.6335 23.7779 17.0625C23.7808 17.5511 23.6444 17.9659 23.3688 18.3068C23.0961 18.6477 22.7325 18.8764 22.2779 18.9929V19.0611C22.8575 19.1491 23.3063 19.3793 23.6245 19.7514C23.9456 20.1236 24.1046 20.5852 24.1018 21.1364C24.1046 21.6165 23.9711 22.0469 23.7012 22.4276C23.4342 22.8082 23.0691 23.108 22.6061 23.3267C22.143 23.5426 21.6132 23.6506 21.0166 23.6506Z" fill="black"/>
</svg>
