<svg width="117" height="118" viewBox="0 0 117 118" fill="none" xmlns="http://www.w3.org/2000/svg">
<g filter="url(#filter0_d_451_449)">
<rect x="4" width="109" height="110" rx="6" fill="#F9F9F9"/>
<rect x="4.5" y="0.5" width="108" height="109" rx="5.5" stroke="#969292"/>
</g>
<path d="M83.7553 20.7506V33.933H79.9348H71.0203V20.7506C71.0203 20.0915 71.5933 19.5522 72.2938 19.5522H82.4818C83.1823 19.5522 83.7553 20.0915 83.7553 20.7506Z" fill="#ECC19C"/>
<path d="M63.3792 29.1392C64.7801 29.1392 65.9262 30.2177 65.9262 31.5359C65.9262 32.1951 65.6461 32.7943 65.1749 33.2257C64.7164 33.6691 64.0796 33.9327 63.3792 33.9327H40.4561C39.0552 33.9327 37.9091 32.8542 37.9091 31.5359C37.9091 30.8768 38.1892 30.2776 38.6604 29.8462C39.1189 29.4028 39.7556 29.1392 40.4561 29.1392H63.3792Z" fill="#FCD770"/>
<path d="M65.9262 21.949V26.7426C65.9262 28.0608 64.7801 29.1394 63.3792 29.1394H40.4561C39.0552 29.1394 37.9091 28.0608 37.9091 26.7426V21.949C37.9091 20.6308 39.0552 19.5522 40.4561 19.5522H63.3792C64.7801 19.5522 65.9262 20.6308 65.9262 21.949Z" fill="#EF7385"/>
<path d="M88.8493 36.3299V43.5203H32.815V36.3299C32.815 35.0117 33.9612 33.9331 35.362 33.9331H40.456H63.3792H71.0202H79.9348H83.7553H86.3023C87.7032 33.9331 88.8493 35.0117 88.8493 36.3299Z" fill="#CCD1D9"/>
<path d="M32.815 43.52V89.059C32.815 90.3772 33.9612 91.4558 35.362 91.4558H86.3023C87.7032 91.4558 88.8493 90.3772 88.8493 89.059V43.52H32.815Z" fill="#E6E9ED"/>
<path d="M48.0971 65.0913C48.0971 68.8183 49.9055 72.1379 52.7327 74.3429L52.287 79.8196C49.5107 78.3815 47.1802 76.2843 45.5501 73.7317C47.1675 71.2031 48.0971 68.2551 48.0971 65.0913Z" fill="#AAB2BD"/>
<path d="M78.6613 65.091C78.6613 69.7647 76.6364 73.9831 73.3635 77.027L71.8863 71.035C72.956 69.2854 73.5673 67.2601 73.5673 65.091C73.5673 58.4759 67.862 53.1071 60.8322 53.1071C53.8024 53.1071 48.0971 58.4759 48.0971 65.091C48.0971 61.9392 47.1675 58.9792 45.5501 56.4506C48.6702 51.5731 54.35 48.3135 60.8322 48.3135C70.6764 48.3135 78.6613 55.8274 78.6613 65.091Z" fill="#AAB2BD"/>
<path d="M45.5501 56.4506C42.8503 52.2322 38.2274 49.2123 32.815 48.4813C31.9873 48.3734 31.134 48.3135 30.268 48.3135C22.143 48.3135 15.2788 53.4306 13.1393 60.4292C13.3176 60.3454 13.5087 60.2974 13.7124 60.2974H16.2594C16.9599 60.2974 17.5329 60.8367 17.5329 61.4958V65.091V68.6862C17.5329 69.3453 16.9599 69.8846 16.2594 69.8846H13.7124C13.5087 69.8846 13.3176 69.8366 13.1393 69.7528C15.2788 76.7514 22.143 81.8685 30.268 81.8685C31.134 81.8685 31.9873 81.8086 32.815 81.7007C38.2274 80.9697 42.8503 77.9498 45.5501 73.7314C47.1675 71.2028 48.0971 68.2548 48.0971 65.091C48.0971 61.9392 47.1675 58.9792 45.5501 56.4506Z" fill="#AAB2BD"/>
<path d="M16.2594 60.2979C16.9599 60.2979 17.5329 60.8371 17.5329 61.4962V65.0914V68.6866C17.5329 69.3457 16.9599 69.885 16.2594 69.885H13.7124C13.5087 69.885 13.3176 69.8371 13.1393 69.7532C12.7191 69.5614 12.4389 69.154 12.4389 68.6866V61.4962C12.4389 61.0289 12.7191 60.6214 13.1393 60.4297C13.3176 60.3458 13.5087 60.2979 13.7124 60.2979H16.2594Z" fill="#969FAA"/>
<path d="M30.268 77.0753C37.3014 77.0753 43.0031 71.7099 43.0031 65.0914C43.0031 58.4728 37.3014 53.1074 30.268 53.1074C23.2346 53.1074 17.533 58.4728 17.533 65.0914C17.533 71.7099 23.2346 77.0753 30.268 77.0753Z" fill="#69D6F4"/>
<path d="M73.5673 65.0914C73.5673 67.2605 72.956 69.2857 71.8862 71.0354L71.4405 69.2258C71.1731 68.1233 70.3962 67.2005 69.3265 66.6852C68.7661 66.4216 68.1421 66.2898 67.5181 66.2898C66.4738 66.2898 65.4295 66.4935 64.4617 66.877L60.5775 68.4469L59.1894 67.1406C58.6035 66.5894 57.8267 66.2898 57.0117 66.2898C56.1966 66.2898 55.4198 66.5894 54.834 67.1406C53.777 68.1353 53.1275 69.4655 53.0128 70.8676L52.7327 74.343C49.9055 72.1379 48.0971 68.8184 48.0971 65.0914C48.0971 58.4762 53.8024 53.1074 60.8322 53.1074C67.8619 53.1074 73.5673 58.4762 73.5673 65.0914Z" fill="#69D6F4"/>
<path d="M67.1998 84.2655L63.8759 86.3507C63.5448 86.5544 63.1755 86.6623 62.7934 86.6623C61.7109 86.6623 60.8322 85.8354 60.8322 84.8167V84.2655C58.4635 82.7795 55.4453 82.6117 52.911 83.7981L51.9177 84.2655L52.287 79.8194L52.7327 74.3428L53.0129 70.8674C53.1275 69.4653 53.777 68.1351 54.834 67.1404C55.4198 66.5891 56.1967 66.2896 57.0117 66.2896C57.8267 66.2896 58.6036 66.5891 59.1894 67.1404L60.5775 68.4467L64.4617 66.8768C65.4296 66.4933 66.4739 66.2896 67.5181 66.2896C68.1422 66.2896 68.7662 66.4214 69.3265 66.685C70.3963 67.2003 71.1731 68.1231 71.4405 69.2256L71.8863 71.0352L73.3635 77.0272L74.7644 82.7435C74.8153 82.9592 74.8408 83.1749 74.8408 83.3906C74.8408 84.625 74.0003 85.7275 72.7523 86.123L71.5169 86.5065C71.1858 86.6143 70.842 86.6623 70.4854 86.6623C69.2501 86.6623 68.1294 86.0031 67.5691 84.9605L67.1998 84.2655Z" fill="#EF7385"/>
<path d="M86.3024 32.7347H85.0289V20.7508C85.0289 19.429 83.8865 18.354 82.4818 18.354H72.2938C70.8891 18.354 69.7468 19.429 69.7468 20.7508V32.7347H66.9654C67.1081 32.3584 67.1997 31.9582 67.1997 31.5363C67.1997 30.6124 66.8164 29.7771 66.2064 29.1396C66.8164 28.502 67.1997 27.6667 67.1997 26.7428V21.9492C67.1997 19.967 65.4856 18.354 63.3792 18.354H40.4561C38.3497 18.354 36.6356 19.967 36.6356 21.9492V26.7428C36.6356 27.6667 37.0189 28.502 37.6289 29.1396C37.0176 29.7771 36.6356 30.6124 36.6356 31.5363C36.6356 31.9582 36.7273 32.3584 36.8699 32.7347H35.3621C33.2557 32.7347 31.5415 34.3478 31.5415 36.3299V47.1766C31.1187 47.1502 30.6985 47.1155 30.268 47.1155C21.9584 47.1155 14.5427 52.2674 12.0569 59.689C11.5156 60.13 11.1654 60.7724 11.1654 61.4962V68.6866C11.1654 69.4104 11.5156 70.0539 12.0581 70.4938C14.544 77.9154 21.9584 83.0673 30.268 83.0673C30.6985 83.0673 31.1187 83.0326 31.5415 83.0062V89.0593C31.5415 91.0414 33.2557 92.6545 35.3621 92.6545H86.3024C88.4088 92.6545 90.1229 91.0414 90.1229 89.0593V36.3299C90.1229 34.3478 88.4088 32.7347 86.3024 32.7347ZM72.2938 20.7508H82.4818V32.7347H80.4621L75.7412 28.2923L73.9404 29.9868L76.8606 32.7347H72.2938V20.7508ZM39.1826 21.9492C39.1826 21.2889 39.7531 20.7508 40.4561 20.7508H63.3792C64.0822 20.7508 64.6527 21.2889 64.6527 21.9492V26.7428C64.6527 27.4031 64.0822 27.9412 63.3792 27.9412H40.4561C39.7531 27.9412 39.1826 27.4031 39.1826 26.7428V21.9492ZM39.1826 31.5363C39.1826 30.876 39.7531 30.3379 40.4561 30.3379H63.3792C64.0822 30.3379 64.6527 30.876 64.6527 31.5363C64.6527 32.1967 64.0822 32.7347 63.3792 32.7347H40.4561C39.7531 32.7347 39.1826 32.1967 39.1826 31.5363ZM35.3621 35.1315H86.3024C87.0053 35.1315 87.5759 35.6696 87.5759 36.3299V42.3219H34.0885V36.3299C34.0885 35.6696 34.6591 35.1315 35.3621 35.1315ZM16.2607 65.1142L16.262 68.6866H13.7124V61.4962H16.2594L16.2607 65.0686C16.2607 65.0758 16.2594 65.0842 16.2594 65.0914C16.2594 65.0998 16.2607 65.107 16.2607 65.1142ZM14.9961 71.0834H16.2594C16.7587 71.0834 17.2209 70.9432 17.6132 70.7083C19.8609 75.1723 24.6799 78.2737 30.268 78.2737C37.9918 78.2737 44.2766 72.3597 44.2766 65.0914C44.2766 57.8231 37.9918 51.909 30.268 51.909C24.6799 51.909 19.8609 55.0105 17.6132 59.4745C17.2209 59.2396 16.7587 59.0994 16.2594 59.0994H14.9961C17.538 53.3807 23.5656 49.5123 30.268 49.5123C39.3965 49.5123 46.8236 56.5013 46.8236 65.0914C46.8236 73.6815 39.3965 80.6705 30.268 80.6705C23.5656 80.6705 17.538 76.8021 14.9961 71.0834ZM30.268 54.3058C36.5884 54.3058 41.7296 59.1438 41.7296 65.0914C41.7296 71.039 36.5884 75.8769 30.268 75.8769C23.9476 75.8769 18.8065 71.039 18.8065 65.0914C18.8065 59.1438 23.9476 54.3058 30.268 54.3058ZM68.4401 83.9206L67.1921 73.3483L64.6604 73.6132L65.8486 83.6737L63.1653 85.3574C62.7437 85.6223 62.1057 85.3035 62.1057 84.823V71.0834H59.5587V82.3327C57.5657 81.658 55.3676 81.6424 53.3542 82.3207L54.2826 70.9635C54.3743 69.8394 54.8926 68.7812 55.7395 67.9843C56.4208 67.3456 57.6051 67.3456 58.2865 67.9843L58.3489 68.043L56.5125 68.7836L57.5147 70.9863L64.9635 67.9831C65.7747 67.6548 66.6381 67.4882 67.5232 67.4882C67.9486 67.4882 68.3739 67.5829 68.7547 67.7626C69.4921 68.1089 70.0206 68.7417 70.2065 69.4967L73.5227 83.0194C73.552 83.1428 73.5673 83.2674 73.5673 83.3933C73.5673 84.1147 73.0783 84.7534 72.3511 84.9811L71.1171 85.367C70.209 85.6582 69.1457 85.2472 68.7101 84.4263L68.4401 83.9206ZM71.9958 67.4558C71.4851 66.6853 70.7809 66.0357 69.8945 65.6175C69.161 65.2735 68.3408 65.0914 67.5232 65.0914C66.2905 65.0914 65.0908 65.3227 63.9574 65.7805L60.8691 67.0256L60.0859 66.2898C58.4444 64.7451 55.579 64.7451 53.9374 66.2898C52.6614 67.4906 51.882 69.0856 51.7419 70.779L51.677 71.5723C50.1946 69.7208 49.3706 67.4606 49.3706 65.0914C49.3706 59.1438 54.5118 54.3058 60.8322 54.3058C67.1526 54.3058 72.2938 59.1438 72.2938 65.0914C72.2938 65.8907 72.1804 66.6817 71.9958 67.4558ZM51.4121 74.8224L51.1739 77.7356C49.5477 76.6331 48.1621 75.249 47.0503 73.6719C47.5482 72.8126 47.957 71.9031 48.3022 70.9671C49.065 72.4076 50.1169 73.7114 51.4121 74.8224ZM73.2324 71.1792C74.2715 69.3061 74.8408 67.2185 74.8408 65.0914C74.8408 57.8231 68.556 51.909 60.8322 51.909C55.3485 51.909 50.6047 54.8966 48.306 59.2253C47.9596 58.2845 47.5495 57.3713 47.049 56.5097C50.1284 52.1272 55.2148 49.5123 60.8322 49.5123C69.9607 49.5123 77.3878 56.5013 77.3878 65.0914C77.3878 68.5272 76.2009 71.7748 74.0372 74.4616L73.2324 71.1792ZM86.3024 90.2577H35.3621C34.6591 90.2577 34.0885 89.7208 34.0885 89.0593V82.7054C38.756 81.8102 42.793 79.2972 45.5501 75.8314C47.0197 77.6805 48.8523 79.2396 50.9523 80.4392L50.4748 86.2862L53.4752 84.8721C55.4096 83.9613 57.6892 84.0152 59.5727 84.9644C59.6542 86.5726 61.0589 87.8609 62.787 87.8609C63.4263 87.8609 64.0453 87.6847 64.5776 87.3504L66.7387 85.9938C67.5767 87.1586 68.9661 87.8609 70.4905 87.8609C70.9821 87.8609 71.466 87.7866 71.9257 87.6404L73.1572 87.2545C74.9249 86.6996 76.1143 85.1477 76.1143 83.3933C76.1143 83.0853 76.0774 82.7761 76.0035 82.4789L74.7504 77.3713C78.0882 74.029 79.9348 69.704 79.9348 65.0914C79.9348 55.1795 71.3654 47.1155 60.8322 47.1155C54.7168 47.1155 49.1325 49.7867 45.5361 54.3334C42.779 50.8772 38.7483 48.3714 34.0885 47.4774V44.7187H87.5759V89.0593C87.5759 89.7208 87.0053 90.2577 86.3024 90.2577Z" fill="black"/>
<path d="M45.5501 23.1475H62.1057V25.5443H45.5501V23.1475Z" fill="black"/>
<path d="M73.9329 24.001L75.7336 22.3064L82.1001 28.2975L80.2994 29.992L73.9329 24.001Z" fill="black"/>
<path d="M39.1826 37.5283H41.7296V39.9251H39.1826V37.5283Z" fill="black"/>
<path d="M44.2766 37.5283H46.8236V39.9251H44.2766V37.5283Z" fill="black"/>
<path d="M49.3707 37.5283H51.9177V39.9251H49.3707V37.5283Z" fill="black"/>
<path d="M59.5587 37.5283H67.1998V39.9251H59.5587V37.5283Z" fill="black"/>
<path d="M69.7468 37.5283H79.9348V39.9251H69.7468V37.5283Z" fill="black"/>
<defs>
<filter id="filter0_d_451_449" x="0" y="0" width="117" height="118" filterUnits="userSpaceOnUse" color-interpolation-filters="sRGB">
<feFlood flood-opacity="0" result="BackgroundImageFix"/>
<feColorMatrix in="SourceAlpha" type="matrix" values="0 0 0 0 0 0 0 0 0 0 0 0 0 0 0 0 0 0 127 0" result="hardAlpha"/>
<feOffset dy="4"/>
<feGaussianBlur stdDeviation="2"/>
<feComposite in2="hardAlpha" operator="out"/>
<feColorMatrix type="matrix" values="0 0 0 0 0 0 0 0 0 0 0 0 0 0 0 0 0 0 0.25 0"/>
<feBlend mode="normal" in2="BackgroundImageFix" result="effect1_dropShadow_451_449"/>
<feBlend mode="normal" in="SourceGraphic" in2="effect1_dropShadow_451_449" result="shape"/>
</filter>
</defs>
</svg>
