<svg width="24" height="27" viewBox="0 0 24 27" fill="none" xmlns="http://www.w3.org/2000/svg">
<path d="M21.8571 11.0893H14.5714C14.3348 11.0893 14.1429 10.8734 14.1429 10.6071V2.41071C14.1429 1.07941 13.1834 0 12 0C10.8166 0 9.85714 1.07941 9.85714 2.41071V10.6071C9.85714 10.8734 9.66525 11.0893 9.42857 11.0893H2.14286C0.959473 11.0893 0 12.1687 0 13.5C0 14.8313 0.959473 15.9107 2.14286 15.9107H9.42857C9.66525 15.9107 9.85714 16.1266 9.85714 16.3929V24.5893C9.85714 25.9206 10.8166 27 12 27C13.1834 27 14.1429 25.9206 14.1429 24.5893V16.3929C14.1429 16.1266 14.3348 15.9107 14.5714 15.9107H21.8571C23.0405 15.9107 24 14.8313 24 13.5C24 12.1687 23.0405 11.0893 21.8571 11.0893Z" fill="white"/>
</svg>
