<svg width="39" height="37" viewBox="0 0 39 37" fill="none" xmlns="http://www.w3.org/2000/svg">
<g clip-path="url(#clip0_430_290)">
<path d="M19.5 5.01695C19.1349 5.01695 18.839 4.73618 18.839 4.38983V0.627119C18.839 0.280771 19.1349 0 19.5 0C19.8651 0 20.161 0.280771 20.161 0.627119V4.38983C20.161 4.73618 19.8651 5.01695 19.5 5.01695Z" fill="#F0C419"/>
<path d="M24.1271 5.64407C23.762 5.64407 23.4661 5.3633 23.4661 5.01695V0.627119C23.4661 0.280771 23.762 0 24.1271 0C24.4922 0 24.7881 0.280771 24.7881 0.627119V5.01695C24.7881 5.3633 24.4922 5.64407 24.1271 5.64407Z" fill="#F0C419"/>
<path d="M28.7543 7.52541C28.3892 7.52541 28.0933 7.24464 28.0933 6.89829V4.38981C28.0933 4.04347 28.3892 3.7627 28.7543 3.7627C29.1193 3.7627 29.4153 4.04347 29.4153 4.38981V6.89829C29.4153 7.24464 29.1193 7.52541 28.7543 7.52541Z" fill="#F0C419"/>
<path d="M28.7543 2.50847C28.3892 2.50847 28.0933 2.2277 28.0933 1.88136V0.627119C28.0933 0.280771 28.3892 0 28.7543 0C29.1193 0 29.4153 0.280771 29.4153 0.627119V1.88136C29.4153 2.2277 29.1193 2.50847 28.7543 2.50847Z" fill="#F0C419"/>
<path d="M33.3814 18.1866C33.0163 18.1866 32.7203 17.9058 32.7203 17.5595V3.76286C32.7203 3.41651 33.0163 3.13574 33.3814 3.13574C33.7464 3.13574 34.0424 3.41651 34.0424 3.76286V17.5595C34.0424 17.9058 33.7464 18.1866 33.3814 18.1866Z" fill="#F0C419"/>
<path d="M14.8729 5.64407C14.5079 5.64407 14.2119 5.3633 14.2119 5.01695V0.627119C14.2119 0.280771 14.5079 0 14.8729 0C15.238 0 15.5339 0.280771 15.5339 0.627119V5.01695C15.5339 5.3633 15.238 5.64407 14.8729 5.64407Z" fill="#F0C419"/>
<path d="M10.2457 7.52541C9.88066 7.52541 9.58472 7.24464 9.58472 6.89829V4.38981C9.58472 4.04347 9.88066 3.7627 10.2457 3.7627C10.6108 3.7627 10.9068 4.04347 10.9068 4.38981V6.89829C10.9068 7.24464 10.6108 7.52541 10.2457 7.52541Z" fill="#F0C419"/>
<path d="M10.2457 2.50847C9.88066 2.50847 9.58472 2.2277 9.58472 1.88136V0.627119C9.58472 0.280771 9.88066 0 10.2457 0C10.6108 0 10.9068 0.280771 10.9068 0.627119V1.88136C10.9068 2.2277 10.6108 2.50847 10.2457 2.50847Z" fill="#F0C419"/>
<path d="M5.61866 18.1866C5.25359 18.1866 4.95764 17.9058 4.95764 17.5595V3.76286C4.95764 3.41651 5.25359 3.13574 5.61866 3.13574C5.98373 3.13574 6.27968 3.41651 6.27968 3.76286V17.5595C6.27968 17.9058 5.98373 18.1866 5.61866 18.1866Z" fill="#F0C419"/>
<path d="M19.5 37.0001C28.2617 37.0001 35.3644 30.2616 35.3644 21.9493C35.3644 13.6369 28.2617 6.89844 19.5 6.89844C10.7384 6.89844 3.63562 13.6369 3.63562 21.9493C3.63562 30.2616 10.7384 37.0001 19.5 37.0001Z" fill="#F29C1F"/>
<path d="M19.5 34.4915C26.8014 34.4915 32.7203 28.8761 32.7203 21.9491C32.7203 15.0222 26.8014 9.40674 19.5 9.40674C12.1986 9.40674 6.27966 15.0222 6.27966 21.9491C6.27966 28.8761 12.1986 34.4915 19.5 34.4915Z" fill="#F0C419"/>
<path d="M19.5001 35.1187C11.8371 35.1107 5.62709 29.2192 5.61871 21.9492C5.61219 19.8902 6.12007 17.8591 7.10071 16.0223C7.20255 15.8151 7.4152 15.6768 7.65567 15.6616C7.89613 15.6463 8.1263 15.7564 8.25634 15.9489C8.38639 16.1414 8.39569 16.3858 8.28063 16.5867C7.39373 18.2487 6.93456 20.0864 6.94075 21.9492C6.94075 26.4623 9.62847 30.5882 13.8834 32.6065C18.1383 34.6249 23.23 34.1893 27.0357 31.4814C27.2246 31.347 27.4748 31.3184 27.6919 31.4064C27.9091 31.4944 28.0603 31.6856 28.0885 31.9081C28.1168 32.1305 28.0178 32.3503 27.8289 32.4848C25.43 34.2016 22.5049 35.1267 19.5001 35.1187Z" fill="#E57E25"/>
<path d="M31.2899 28.2552C31.0602 28.2549 30.8472 28.1415 30.7272 27.9557C30.6072 27.7699 30.5975 27.5383 30.7016 27.344C31.5998 25.6736 32.0653 23.8241 32.0593 21.9489C32.0593 17.4358 29.3716 13.3099 25.1167 11.2916C20.8618 9.27325 15.7701 9.70882 11.9644 12.4167C11.6723 12.6245 11.258 12.5684 11.039 12.2913C10.8199 12.0142 10.8791 11.6211 11.1712 11.4133C16.3353 7.74174 23.485 7.92967 28.4269 11.8669C33.3688 15.8041 34.7999 22.4526 31.8808 27.9128C31.7677 28.1235 31.5392 28.2559 31.2899 28.2552Z" fill="#E57E25"/>
<path d="M20.7117 13.2911L22.5321 16.9322C22.7217 17.323 23.1038 17.5987 23.5514 17.6678L27.5902 18.246C28.1145 18.3449 28.539 18.7093 28.695 19.1944C28.851 19.6794 28.7133 20.2066 28.3365 20.5664L25.4393 23.352C25.1116 23.6724 24.9644 24.1216 25.0426 24.5617L25.7301 28.5126C25.8409 29.0026 25.6455 29.5094 25.2275 29.8158C24.8096 30.1223 24.2433 30.1739 23.7715 29.9487L20.1227 28.0567C19.7345 27.8542 19.2642 27.8542 18.876 28.0567L15.2272 29.9487C14.7554 30.1739 14.1891 30.1223 13.7712 29.8158C13.3532 29.5094 13.1578 29.0026 13.2686 28.5126L13.9561 24.5617C14.0343 24.1216 13.8871 23.6724 13.5595 23.352L10.6622 20.5664C10.2854 20.2066 10.1477 19.6794 10.3037 19.1944C10.4597 18.7093 10.8842 18.3449 11.4085 18.246L15.4473 17.6678C15.8954 17.5991 16.278 17.3233 16.4679 16.9322L18.2884 13.2949C18.4979 12.8375 18.9731 12.5413 19.4987 12.5405C20.0244 12.5397 20.5006 12.8344 20.7117 13.2911Z" fill="#F29C1F"/>
</g>
<defs>
<clipPath id="clip0_430_290">
<rect width="39" height="37" fill="white"/>
</clipPath>
</defs>
</svg>
