<svg width="59" height="63" viewBox="0 0 59 63" fill="none" xmlns="http://www.w3.org/2000/svg">
<g clip-path="url(#clip0_443_492)">
<path d="M1.17493 51.8312V36.3C1.17493 35.6074 1.69136 35.0459 2.32844 35.0459H56.2171C56.8542 35.0459 57.3706 35.6074 57.3706 36.3V51.8312C57.3706 52.5239 56.8542 53.0853 56.2171 53.0853H2.32844C1.69136 53.0853 1.17493 52.5239 1.17493 51.8312Z" fill="#3E454C"/>
<path d="M1.17493 44.0656V36.3C1.17493 35.6074 1.69136 35.0459 2.32844 35.0459H56.2171C56.8542 35.0459 57.3706 35.6074 57.3706 36.3V44.0656H1.17493Z" fill="#363C44"/>
<path d="M30.0338 45.7799H1.17493V42.3516H30.0337C30.4467 42.3516 30.7814 42.7155 30.7814 43.1645V44.9669C30.7814 45.4159 30.4467 45.7799 30.0338 45.7799Z" fill="#FFE92F"/>
<path d="M30.0338 45.7799H1.17493V42.3516H30.0337C30.4467 42.3516 30.7814 42.7155 30.7814 43.1645V44.9669C30.7814 45.4159 30.4467 45.7799 30.0338 45.7799Z" fill="#00BCE8"/>
<path d="M49.8963 47.2443C50.9954 47.2443 51.8864 46.2756 51.8864 45.0807C51.8864 43.8857 50.9954 42.917 49.8963 42.917C48.7971 42.917 47.9061 43.8857 47.9061 45.0807C47.9061 46.2756 48.7971 47.2443 49.8963 47.2443Z" fill="#363C44"/>
<path d="M49.8963 46.0974C50.9283 46.0974 51.765 45.1878 51.765 44.0658C51.765 42.9438 50.9283 42.0342 49.8963 42.0342C48.8642 42.0342 48.0276 42.9438 48.0276 44.0658C48.0276 45.1878 48.8642 46.0974 49.8963 46.0974Z" fill="#7A6CF7"/>
<path d="M35.4231 9.09131H23.1227L24.0076 11.9567L28.6209 14.7838L34.1685 12.8984L35.4231 9.09131Z" fill="#363C44"/>
<path d="M29.2729 26.5859H35.4221C36.6165 26.5859 37.7459 27.1767 38.491 28.1914L43.386 34.8566C43.528 35.05 43.7784 35.1024 43.9763 34.9801C46.7078 33.2936 48.0622 29.8275 47.2825 26.5193L44.421 14.3787C43.8886 12.1199 42.374 10.2869 40.365 9.47025L37.9595 8.49239C37.0791 8.13457 36.0877 8.36849 35.4231 9.09114L33.0247 11.6986C32.5872 12.1743 31.9937 12.4416 31.3748 12.4416H29.2729H27.171C26.5522 12.4416 25.9586 12.1743 25.5211 11.6986L23.1227 9.09114C22.4581 8.36861 21.4666 8.13457 20.5863 8.49239L18.1808 9.47025C16.1719 10.2869 14.6572 12.1199 14.1248 14.3787L11.2633 26.5193C10.4836 29.8275 11.838 33.2936 14.5695 34.9801C14.7674 35.1023 15.0178 35.0499 15.1598 34.8566L20.0548 28.1914C20.8 27.1767 21.9294 26.5859 23.1237 26.5859H29.2729Z" fill="#555E6B"/>
<path d="M16.6473 28.1916L12.8027 33.4264C13.2992 34.0341 13.8917 34.5621 14.5692 34.9803C14.7672 35.1025 15.0175 35.0501 15.1596 34.8567L20.0545 28.1915C20.7997 27.1768 21.9291 26.5859 23.1235 26.5859H19.7163C18.522 26.5861 17.3926 27.1769 16.6473 28.1916Z" fill="#414954"/>
<path d="M47.2827 26.5195L44.4212 14.3789C43.8888 12.1201 42.3741 10.2871 40.3652 9.47042L37.9597 8.49256C37.1543 8.16513 36.2567 8.33445 35.6007 8.91867L36.9579 9.47042C38.9669 10.2871 40.4815 12.1201 41.0139 14.3789L43.8754 26.5195C44.4618 29.0071 43.841 31.584 42.3357 33.4263L43.3863 34.8568C43.5283 35.0502 43.7787 35.1026 43.9766 34.9804C46.7079 33.2938 48.0624 29.8277 47.2827 26.5195Z" fill="#414954"/>
<path d="M20.1586 17.129C21.3109 17.129 22.245 16.1134 22.245 14.8607C22.245 13.6079 21.3109 12.5923 20.1586 12.5923C19.0063 12.5923 18.0721 13.6079 18.0721 14.8607C18.0721 16.1134 19.0063 17.129 20.1586 17.129Z" fill="#414954"/>
<path d="M34.5662 23.3971C35.7185 23.3971 36.6526 22.3815 36.6526 21.1287C36.6526 19.8759 35.7185 18.8604 34.5662 18.8604C33.4139 18.8604 32.4797 19.8759 32.4797 21.1287C32.4797 22.3815 33.4139 23.3971 34.5662 23.3971Z" fill="#414954"/>
<path d="M34.3252 22.0491C35.0059 22.0491 35.5577 21.4492 35.5577 20.7091C35.5577 19.9691 35.0059 19.3691 34.3252 19.3691C33.6445 19.3691 33.0927 19.9691 33.0927 20.7091C33.0927 21.4492 33.6445 22.0491 34.3252 22.0491Z" fill="#414954"/>
<path d="M38.7832 13.8034C39.267 13.8034 39.6591 13.3771 39.6591 12.8512C39.6591 12.3253 39.267 11.8989 38.7832 11.8989C38.2995 11.8989 37.9073 12.3253 37.9073 12.8512C37.9073 13.3771 38.2995 13.8034 38.7832 13.8034Z" fill="#414954"/>
<path d="M38.7832 18.8606C39.267 18.8606 39.6591 18.4342 39.6591 17.9083C39.6591 17.3824 39.267 16.9561 38.7832 16.9561C38.2995 16.9561 37.9073 17.3824 37.9073 17.9083C37.9073 18.4342 38.2995 18.8606 38.7832 18.8606Z" fill="#414954"/>
<path d="M36.282 16.3713C36.7658 16.3713 37.1579 15.945 37.1579 15.4191C37.1579 14.8931 36.7658 14.4668 36.282 14.4668C35.7983 14.4668 35.4061 14.8931 35.4061 15.4191C35.4061 15.945 35.7983 16.3713 36.282 16.3713Z" fill="#414954"/>
<path d="M41.2845 16.3713C41.7682 16.3713 42.1603 15.945 42.1603 15.4191C42.1603 14.8931 41.7682 14.4668 41.2845 14.4668C40.8007 14.4668 40.4086 14.8931 40.4086 15.4191C40.4086 15.945 40.8007 16.3713 41.2845 16.3713Z" fill="#414954"/>
<path d="M26.8654 20.1766H25.6549V18.8605C25.6549 18.3346 25.2627 17.9082 24.779 17.9082C24.2953 17.9082 23.9031 18.3346 23.9031 18.8605V20.1766H22.6925C22.2088 20.1766 21.8167 20.6029 21.8167 21.1288C21.8167 21.6547 22.2088 22.0811 22.6925 22.0811H23.9031V23.3972C23.9031 23.9231 24.2953 24.3495 24.779 24.3495C25.2627 24.3495 25.6549 23.9231 25.6549 23.3972V22.0811H26.8654C27.3492 22.0811 27.7413 21.6547 27.7413 21.1288C27.7413 20.6029 27.3492 20.1766 26.8654 20.1766Z" fill="#414954"/>
<path d="M20.1586 16.4938C21.3109 16.4938 22.245 15.4782 22.245 14.2254C22.245 12.9726 21.3109 11.957 20.1586 11.957C19.0063 11.957 18.0721 12.9726 18.0721 14.2254C18.0721 15.4782 19.0063 16.4938 20.1586 16.4938Z" fill="#FFD82F"/>
<path d="M34.5662 22.7618C35.7185 22.7618 36.6526 21.7463 36.6526 20.4935C36.6526 19.2407 35.7185 18.2251 34.5662 18.2251C33.4139 18.2251 32.4797 19.2407 32.4797 20.4935C32.4797 21.7463 33.4139 22.7618 34.5662 22.7618Z" fill="#2E343A"/>
<path d="M34.325 21.4139C35.0057 21.4139 35.5576 20.8139 35.5576 20.0739C35.5576 19.3338 35.0057 18.7339 34.325 18.7339C33.6443 18.7339 33.0925 19.3338 33.0925 20.0739C33.0925 20.8139 33.6443 21.4139 34.325 21.4139Z" fill="#6E7A89"/>
<path d="M26.8654 19.5418H25.6549V18.2257C25.6549 17.6998 25.2627 17.2734 24.779 17.2734C24.2953 17.2734 23.9031 17.6998 23.9031 18.2257V19.5418H22.6925C22.2088 19.5418 21.8167 19.9682 21.8167 20.4941C21.8167 21.02 22.2088 21.4463 22.6925 21.4463H23.9031V22.7624C23.9031 23.2883 24.2953 23.7147 24.779 23.7147C25.2627 23.7147 25.6549 23.2883 25.6549 22.7624V21.4463H26.8654C27.3492 21.4463 27.7413 21.02 27.7413 20.4941C27.7413 19.9682 27.3492 19.5418 26.8654 19.5418Z" fill="#49BC6E"/>
<path d="M34.9136 45.0178C35.3973 45.0178 35.7895 44.5915 35.7895 44.0655C35.7895 43.5396 35.3973 43.1133 34.9136 43.1133C34.4299 43.1133 34.0377 43.5396 34.0377 44.0655C34.0377 44.5915 34.4299 45.0178 34.9136 45.0178Z" fill="black"/>
<path d="M49.8962 41.0815C48.3828 41.0815 47.1516 42.42 47.1516 44.0654C47.1516 45.7108 48.3828 47.0493 49.8962 47.0493C51.4096 47.0493 52.6408 45.7108 52.6408 44.0654C52.6408 42.42 51.4096 41.0815 49.8962 41.0815ZM49.8962 45.1447C49.3487 45.1447 48.9035 44.6605 48.9035 44.0654C48.9035 43.4704 49.3489 42.9862 49.8962 42.9862C50.4436 42.9862 50.8889 43.4704 50.8889 44.0654C50.8889 44.6605 50.4436 45.1447 49.8962 45.1447Z" fill="black"/>
<path d="M56.2171 34.0936H46.3652C48.0786 32.0155 48.7931 29.0918 48.1311 26.283L45.8769 16.7194C45.7568 16.21 45.2799 15.903 44.811 16.0333C44.3424 16.1639 44.0598 16.6826 44.1799 17.1922L46.4341 26.7558C47.0848 29.5162 46.024 32.4206 43.8441 33.954L39.1755 27.5972C38.2591 26.3492 36.891 25.6336 35.4221 25.6336H29.2728H23.1236C21.6548 25.6336 20.2867 26.3494 19.3701 27.5972L14.7016 33.954C12.5217 32.4206 11.4611 29.5162 12.1116 26.7558L14.9731 14.6152C15.4341 12.6593 16.7479 11.0694 18.4875 10.3622L20.8931 9.38435C21.4504 9.15758 22.0825 9.30696 22.5033 9.76432C22.5034 9.76445 22.5034 9.76445 22.5035 9.76457L24.9017 12.3719C25.5079 13.031 26.3138 13.3938 27.171 13.3938H29.2728H31.3747C32.2319 13.3938 33.0377 13.0309 33.644 12.3719L36.0424 9.76445C36.4632 9.30696 37.0949 9.15782 37.6528 9.38435L40.0583 10.3622C41.4727 10.9372 42.5993 12.0751 43.2303 13.5664C43.378 13.9152 43.6952 14.1209 44.0267 14.1209C44.1491 14.1209 44.2736 14.0929 44.3922 14.0336C44.8317 13.8137 45.0241 13.2482 44.8219 12.7704C43.9962 10.8195 42.5224 9.33071 40.6719 8.5784L38.2664 7.60054C37.1906 7.16311 35.9861 7.37881 35.096 8.13887H23.4499C22.5598 7.37869 21.3554 7.16298 20.2795 7.60054L17.8739 8.5784C15.598 9.50359 13.8793 11.5836 13.2761 14.1425L10.4146 26.283C9.75266 29.0918 10.467 32.0157 12.1805 34.0936H2.32859C1.20948 34.0936 0.299072 35.0834 0.299072 36.2999V42.3515V45.7798V51.8313C0.299072 53.0479 1.20948 54.0377 2.32859 54.0377H5.88546V54.6715C5.88546 55.1974 6.27762 55.6237 6.76135 55.6237C7.24507 55.6237 7.63724 55.1974 7.63724 54.6715V54.0377H50.9083V54.6715C50.9083 55.1974 51.3004 55.6237 51.7842 55.6237C52.2679 55.6237 52.6601 55.1974 52.6601 54.6715V54.0377H56.217C57.336 54.0377 58.2464 53.0479 58.2464 51.8313V36.2999C58.2466 35.0834 57.3361 34.0936 56.2171 34.0936ZM31.3747 11.4893H29.2728H27.171C26.7817 11.4893 26.4157 11.3246 26.1405 11.0253L25.2373 10.0434H33.3083L32.4053 11.0252C32.13 11.3246 31.7639 11.4893 31.3747 11.4893ZM56.4947 51.8313C56.4947 51.9977 56.3702 52.133 56.2171 52.133H2.32859C2.17557 52.133 2.05096 51.9977 2.05096 51.8313V45.7798V43.3039H29.9056V44.8276H4.93181C4.44809 44.8276 4.05593 45.2539 4.05593 45.7798C4.05593 46.3058 4.44809 46.7321 4.93181 46.7321H30.0338C30.9292 46.7321 31.6575 45.9403 31.6575 44.9669V43.1645C31.6575 42.1911 30.9292 41.3993 30.0338 41.3993H2.05096V36.3001C2.05096 36.1337 2.17546 35.9983 2.32859 35.9983H14.7733C14.7822 35.9986 14.7911 36.0002 14.8 36.0002C14.8103 36.0002 14.8205 35.9986 14.8308 35.9983H18.8689C19.3526 35.9983 19.7448 35.572 19.7448 35.0461C19.7448 34.5202 19.3526 34.0938 18.8689 34.0938H16.8408L20.739 28.7858C21.3212 27.9931 22.1903 27.5384 23.1235 27.5384H29.2728H35.4221C36.3553 27.5384 37.2244 27.993 37.8066 28.7858L41.7049 34.0938H22.6924C22.2087 34.0938 21.8165 34.5202 21.8165 35.0461C21.8165 35.572 22.2087 35.9983 22.6924 35.9983H43.7147C43.725 35.9986 43.7352 36.0002 43.7455 36.0002C43.7545 36.0002 43.7633 35.9985 43.7722 35.9983H56.217C56.37 35.9983 56.4945 36.1337 56.4945 36.3001V51.8313H56.4947Z" fill="black"/>
<path d="M23.1211 14.2252C23.1211 12.4492 21.7921 11.0044 20.1587 11.0044C18.5253 11.0044 17.1963 12.4492 17.1963 14.2252C17.1963 16.0011 18.5252 17.4458 20.1587 17.4458C21.7922 17.4458 23.1211 16.001 23.1211 14.2252ZM20.1587 15.5411C19.4912 15.5411 18.9482 14.9508 18.9482 14.225C18.9482 13.4993 19.4912 12.9089 20.1587 12.9089C20.8263 12.9089 21.3693 13.4993 21.3693 14.225C21.3692 14.9508 20.8262 15.5411 20.1587 15.5411Z" fill="black"/>
<path d="M31.6034 20.4942C31.6034 22.2701 32.9323 23.7148 34.5658 23.7148C36.1994 23.7148 37.5282 22.27 37.5282 20.4942C37.5282 18.7184 36.1992 17.2734 34.5658 17.2734C32.9324 17.2734 31.6034 18.7183 31.6034 20.4942ZM35.7764 20.4942C35.7764 21.2199 35.2334 21.8103 34.5658 21.8103C33.8983 21.8103 33.3553 21.2199 33.3553 20.4942C33.3553 19.7685 33.8983 19.1781 34.5658 19.1781C35.2334 19.1781 35.7764 19.7685 35.7764 20.4942Z" fill="black"/>
<path d="M38.7832 13.1682C39.267 13.1682 39.6591 12.7419 39.6591 12.2159C39.6591 11.69 39.267 11.2637 38.7832 11.2637C38.2995 11.2637 37.9073 11.69 37.9073 12.2159C37.9073 12.7419 38.2995 13.1682 38.7832 13.1682Z" fill="black"/>
<path d="M38.7832 18.2258C39.267 18.2258 39.6591 17.7995 39.6591 17.2736C39.6591 16.7476 39.267 16.3213 38.7832 16.3213C38.2995 16.3213 37.9073 16.7476 37.9073 17.2736C37.9073 17.7995 38.2995 18.2258 38.7832 18.2258Z" fill="black"/>
<path d="M36.282 15.7366C36.7658 15.7366 37.1579 15.3102 37.1579 14.7843C37.1579 14.2584 36.7658 13.832 36.282 13.832C35.7983 13.832 35.4061 14.2584 35.4061 14.7843C35.4061 15.3102 35.7983 15.7366 36.282 15.7366Z" fill="black"/>
<path d="M41.2845 15.7366C41.7682 15.7366 42.1603 15.3102 42.1603 14.7843C42.1603 14.2584 41.7682 13.832 41.2845 13.832C40.8007 13.832 40.4086 14.2584 40.4086 14.7843C40.4086 15.3102 40.8007 15.7366 41.2845 15.7366Z" fill="black"/>
<path d="M24.779 23.7147C25.2627 23.7147 25.6549 23.2883 25.6549 22.7624V21.4463H26.8654C27.3492 21.4463 27.7413 21.02 27.7413 20.4941C27.7413 19.9682 27.3492 19.5418 26.8654 19.5418H25.6549V18.2257C25.6549 17.6998 25.2627 17.2734 24.779 17.2734C24.2953 17.2734 23.9031 17.6998 23.9031 18.2257V19.5418H22.6925C22.2088 19.5418 21.8167 19.9682 21.8167 20.4941C21.8167 21.02 22.2088 21.4463 22.6925 21.4463H23.9031V22.7624C23.9031 23.2883 24.2953 23.7147 24.779 23.7147Z" fill="black"/>
</g>
<defs>
<clipPath id="clip0_443_492">
<rect width="57.9474" height="63" fill="white" transform="translate(0.299072)"/>
</clipPath>
</defs>
</svg>
