<svg height="512" viewBox="0 0 64 64" width="512" xmlns="http://www.w3.org/2000/svg"><g id="Layer_90" data-name="Layer 90"><path d="m32 3.25a28.75 28.75 0 0 0 -28.75 28.75 28.75 28.75 0 0 0 28.75 28.75 28.75 28.75 0 0 0 28.75-28.75 28.75 28.75 0 0 0 -28.75-28.75zm8.73 36.61-16.59-16.59 9.21-9.21 16.59 16.59zm-4.29 3.14-3.56-3.56a3.37 3.37 0 0 0 -4.77 0l-6.6 6.56a2.5 2.5 0 0 1 -3.51-3.51l6.6-6.6a3.37 3.37 0 0 0 0-4.77l-3.6-3.56a1.87 1.87 0 0 1 2.63-2.66l15.47 15.45a1.87 1.87 0 0 1 -2.66 2.65z" fill="#0fbcf9"/></g></svg>