<svg width="28" height="28" viewBox="0 0 28 28" fill="none" xmlns="http://www.w3.org/2000/svg">
<g clip-path="url(#clip0_459_637)">
<path d="M25.375 1.3125V6.125H24.0625H21V1.3125C21 1.07187 21.1969 0.875 21.4375 0.875H24.9375C25.1781 0.875 25.375 1.07187 25.375 1.3125Z" fill="#ECC19C"/>
<path d="M18.375 4.375C18.8562 4.375 19.25 4.76875 19.25 5.25C19.25 5.49063 19.1537 5.70937 18.9919 5.86687C18.8344 6.02875 18.6156 6.125 18.375 6.125H10.5C10.0187 6.125 9.625 5.73125 9.625 5.25C9.625 5.00937 9.72125 4.79063 9.88313 4.63313C10.0406 4.47125 10.2594 4.375 10.5 4.375H18.375Z" fill="#FCD770"/>
<path d="M19.25 1.75V3.5C19.25 3.98125 18.8562 4.375 18.375 4.375H10.5C10.0187 4.375 9.625 3.98125 9.625 3.5V1.75C9.625 1.26875 10.0187 0.875 10.5 0.875H18.375C18.8562 0.875 19.25 1.26875 19.25 1.75Z" fill="#EF7385"/>
<path d="M27.125 7V9.625H7.875V7C7.875 6.51875 8.26875 6.125 8.75 6.125H10.5H18.375H21H24.0625H25.375H26.25C26.7313 6.125 27.125 6.51875 27.125 7Z" fill="#CCD1D9"/>
<path d="M7.875 9.625V26.25C7.875 26.7313 8.26875 27.125 8.75 27.125H26.25C26.7313 27.125 27.125 26.7313 27.125 26.25V9.625H7.875Z" fill="#E6E9ED"/>
<path d="M13.125 17.5C13.125 18.8606 13.7462 20.0725 14.7175 20.8775L14.5644 22.8769C13.6106 22.3519 12.81 21.5862 12.25 20.6544C12.8056 19.7312 13.125 18.655 13.125 17.5Z" fill="#AAB2BD"/>
<path d="M23.625 17.5C23.625 19.2063 22.9294 20.7463 21.805 21.8575L21.2975 19.67C21.665 19.0312 21.875 18.2919 21.875 17.5C21.875 15.085 19.915 13.125 17.5 13.125C15.085 13.125 13.125 15.085 13.125 17.5C13.125 16.3494 12.8056 15.2688 12.25 14.3456C13.3219 12.565 15.2731 11.375 17.5 11.375C20.8819 11.375 23.625 14.1181 23.625 17.5Z" fill="#AAB2BD"/>
<path d="M12.25 14.3456C11.3225 12.8056 9.73435 11.7031 7.87498 11.4362C7.5906 11.3969 7.29748 11.375 6.99998 11.375C4.20873 11.375 1.8506 13.2431 1.1156 15.7981C1.17685 15.7675 1.24248 15.75 1.31248 15.75H2.18748C2.4281 15.75 2.62498 15.9469 2.62498 16.1875V17.5V18.8125C2.62498 19.0531 2.4281 19.25 2.18748 19.25H1.31248C1.24248 19.25 1.17685 19.2325 1.1156 19.2019C1.8506 21.7569 4.20873 23.625 6.99998 23.625C7.29748 23.625 7.5906 23.6031 7.87498 23.5638C9.73435 23.2969 11.3225 22.1944 12.25 20.6544C12.8056 19.7312 13.125 18.655 13.125 17.5C13.125 16.3494 12.8056 15.2688 12.25 14.3456Z" fill="#AAB2BD"/>
<path d="M2.1875 15.75C2.42813 15.75 2.625 15.9469 2.625 16.1875V17.5V18.8125C2.625 19.0531 2.42813 19.25 2.1875 19.25H1.3125C1.2425 19.25 1.17687 19.2325 1.11562 19.2019C0.97125 19.1319 0.875 18.9831 0.875 18.8125V16.1875C0.875 16.0169 0.97125 15.8681 1.11562 15.7981C1.17687 15.7675 1.2425 15.75 1.3125 15.75H2.1875Z" fill="#969FAA"/>
<path d="M7 21.875C9.41625 21.875 11.375 19.9162 11.375 17.5C11.375 15.0838 9.41625 13.125 7 13.125C4.58375 13.125 2.625 15.0838 2.625 17.5C2.625 19.9162 4.58375 21.875 7 21.875Z" fill="#69D6F4"/>
<path d="M21.875 17.5C21.875 18.2919 21.665 19.0313 21.2975 19.67L21.1444 19.0094C21.0525 18.6069 20.7856 18.27 20.4181 18.0819C20.2256 17.9856 20.0113 17.9375 19.7969 17.9375C19.4381 17.9375 19.0794 18.0119 18.7469 18.1519L17.4125 18.725L16.9356 18.2481C16.7344 18.0469 16.4675 17.9375 16.1875 17.9375C15.9075 17.9375 15.6406 18.0469 15.4394 18.2481C15.0763 18.6113 14.8531 19.0969 14.8138 19.6088L14.7175 20.8775C13.7462 20.0725 13.125 18.8606 13.125 17.5C13.125 15.085 15.085 13.125 17.5 13.125C19.915 13.125 21.875 15.085 21.875 17.5Z" fill="#69D6F4"/>
<path d="M19.6875 24.5L18.5456 25.2613C18.4319 25.3356 18.305 25.375 18.1738 25.375C17.8019 25.375 17.5 25.0731 17.5 24.7012V24.5C16.6862 23.9575 15.6494 23.8963 14.7787 24.3294L14.4375 24.5L14.5644 22.8769L14.7175 20.8775L14.8138 19.6087C14.8531 19.0969 15.0763 18.6112 15.4394 18.2481C15.6406 18.0469 15.9075 17.9375 16.1875 17.9375C16.4675 17.9375 16.7344 18.0469 16.9356 18.2481L17.4125 18.725L18.7469 18.1519C19.0794 18.0119 19.4381 17.9375 19.7969 17.9375C20.0113 17.9375 20.2256 17.9856 20.4181 18.0819C20.7856 18.27 21.0525 18.6069 21.1444 19.0094L21.2975 19.67L21.805 21.8575L22.2862 23.9444C22.3037 24.0231 22.3125 24.1019 22.3125 24.1806C22.3125 24.6313 22.0238 25.0337 21.595 25.1781L21.1706 25.3181C21.0569 25.3575 20.9388 25.375 20.8163 25.375C20.3919 25.375 20.0069 25.1344 19.8144 24.7538L19.6875 24.5Z" fill="#EF7385"/>
<path d="M26.25 5.6875H25.8125V1.3125C25.8125 0.829937 25.4201 0.4375 24.9375 0.4375H21.4375C20.9549 0.4375 20.5625 0.829937 20.5625 1.3125V5.6875H19.607C19.656 5.55013 19.6875 5.404 19.6875 5.25C19.6875 4.91269 19.5558 4.60775 19.3463 4.375C19.5558 4.14225 19.6875 3.83731 19.6875 3.5V1.75C19.6875 1.02637 19.0986 0.4375 18.375 0.4375H10.5C9.77638 0.4375 9.1875 1.02637 9.1875 1.75V3.5C9.1875 3.83731 9.31919 4.14225 9.52875 4.375C9.31875 4.60775 9.1875 4.91269 9.1875 5.25C9.1875 5.404 9.219 5.55013 9.268 5.6875H8.75C8.02638 5.6875 7.4375 6.27637 7.4375 7V10.9598C7.29225 10.9502 7.14788 10.9375 7 10.9375C4.14531 10.9375 1.59775 12.8183 0.74375 15.5278C0.557813 15.6888 0.4375 15.9233 0.4375 16.1875V18.8125C0.4375 19.0767 0.557812 19.3117 0.744188 19.4722C1.59819 22.1817 4.14531 24.0625 7 24.0625C7.14788 24.0625 7.29225 24.0498 7.4375 24.0402V26.25C7.4375 26.9736 8.02638 27.5625 8.75 27.5625H26.25C26.9736 27.5625 27.5625 26.9736 27.5625 26.25V7C27.5625 6.27637 26.9736 5.6875 26.25 5.6875ZM21.4375 1.3125H24.9375V5.6875H24.2436L22.6218 4.06569L22.0032 4.68431L23.0064 5.6875H21.4375V1.3125ZM10.0625 1.75C10.0625 1.50894 10.2585 1.3125 10.5 1.3125H18.375C18.6165 1.3125 18.8125 1.50894 18.8125 1.75V3.5C18.8125 3.74106 18.6165 3.9375 18.375 3.9375H10.5C10.2585 3.9375 10.0625 3.74106 10.0625 3.5V1.75ZM10.0625 5.25C10.0625 5.00894 10.2585 4.8125 10.5 4.8125H18.375C18.6165 4.8125 18.8125 5.00894 18.8125 5.25C18.8125 5.49106 18.6165 5.6875 18.375 5.6875H10.5C10.2585 5.6875 10.0625 5.49106 10.0625 5.25ZM8.75 6.5625H26.25C26.4915 6.5625 26.6875 6.75894 26.6875 7V9.1875H8.3125V7C8.3125 6.75894 8.5085 6.5625 8.75 6.5625ZM2.18794 17.5083L2.18838 18.8125H1.3125V16.1875H2.1875L2.18794 17.4917C2.18794 17.4943 2.1875 17.4974 2.1875 17.5C2.1875 17.5031 2.18794 17.5057 2.18794 17.5083ZM1.7535 19.6875H2.1875C2.359 19.6875 2.51781 19.6363 2.65256 19.5506C3.42475 21.1803 5.08025 22.3125 7 22.3125C9.65344 22.3125 11.8125 20.1534 11.8125 17.5C11.8125 14.8466 9.65344 12.6875 7 12.6875C5.08025 12.6875 3.42475 13.8197 2.65256 15.4494C2.51781 15.3637 2.359 15.3125 2.1875 15.3125H1.7535C2.62675 13.2248 4.69744 11.8125 7 11.8125C10.136 11.8125 12.6875 14.364 12.6875 17.5C12.6875 20.636 10.136 23.1875 7 23.1875C4.69744 23.1875 2.62675 21.7752 1.7535 19.6875ZM7 13.5625C9.17131 13.5625 10.9375 15.3287 10.9375 17.5C10.9375 19.6713 9.17131 21.4375 7 21.4375C4.82869 21.4375 3.0625 19.6713 3.0625 17.5C3.0625 15.3287 4.82869 13.5625 7 13.5625ZM20.1136 24.374L19.6849 20.5144L18.8151 20.6111L19.2233 24.2839L18.3015 24.8986C18.1567 24.9952 17.9375 24.8789 17.9375 24.7034V19.6875H17.0625V23.7943C16.3778 23.548 15.6227 23.5423 14.931 23.7899L15.2499 19.6438C15.2814 19.2334 15.4595 18.8471 15.7504 18.5561C15.9845 18.3229 16.3914 18.3229 16.6254 18.5561L16.6469 18.5776L16.016 18.8479L16.3603 19.6521L18.9193 18.5557C19.1979 18.4358 19.4946 18.375 19.7986 18.375C19.9448 18.375 20.0909 18.4096 20.2217 18.4752C20.475 18.6016 20.6566 18.8326 20.7204 19.1082L21.8597 24.045C21.8698 24.0901 21.875 24.1356 21.875 24.1815C21.875 24.4449 21.707 24.6781 21.4572 24.7612L21.0333 24.9021C20.7213 25.0084 20.356 24.8583 20.2064 24.5586L20.1136 24.374ZM21.3351 18.3632C21.1597 18.0819 20.9178 17.8447 20.6133 17.6921C20.3613 17.5665 20.0795 17.5 19.7986 17.5C19.3751 17.5 18.963 17.5844 18.5736 17.7516L17.5127 18.2061L17.2436 17.9375C16.6797 17.3736 15.6953 17.3736 15.1314 17.9375C14.693 18.3759 14.4253 18.9582 14.3771 19.5764L14.3548 19.866C13.8456 19.1901 13.5625 18.3649 13.5625 17.5C13.5625 15.3287 15.3287 13.5625 17.5 13.5625C19.6713 13.5625 21.4375 15.3287 21.4375 17.5C21.4375 17.7918 21.3986 18.0806 21.3351 18.3632ZM14.2638 21.0525L14.182 22.1161C13.6233 21.7136 13.1473 21.2083 12.7654 20.6325C12.9364 20.3188 13.0769 19.9867 13.1954 19.6451C13.4575 20.1709 13.8189 20.6469 14.2638 21.0525ZM21.7599 19.7225C22.1169 19.0387 22.3125 18.2766 22.3125 17.5C22.3125 14.8466 20.1534 12.6875 17.5 12.6875C15.6161 12.6875 13.9864 13.7782 13.1968 15.3584C13.0778 15.015 12.9369 14.6816 12.7649 14.3671C13.8228 12.7671 15.5702 11.8125 17.5 11.8125C20.636 11.8125 23.1875 14.364 23.1875 17.5C23.1875 18.7543 22.7798 19.9399 22.0364 20.9208L21.7599 19.7225ZM26.25 26.6875H8.75C8.5085 26.6875 8.3125 26.4915 8.3125 26.25V23.9304C9.91594 23.6036 11.3028 22.6861 12.25 21.4209C12.7549 22.0959 13.3844 22.6651 14.1059 23.1031L13.9418 25.2376L14.9726 24.7214C15.6371 24.3889 16.4203 24.4086 17.0673 24.7551C17.0953 25.3422 17.5779 25.8125 18.1716 25.8125C18.3912 25.8125 18.6038 25.7482 18.7867 25.6261L19.5291 25.1309C19.817 25.5561 20.2943 25.8125 20.818 25.8125C20.9869 25.8125 21.1531 25.7854 21.3111 25.732L21.7341 25.5911C22.3414 25.3886 22.75 24.822 22.75 24.1815C22.75 24.0691 22.7373 23.9562 22.7119 23.8477L22.2814 21.9831C23.4281 20.7629 24.0625 19.1839 24.0625 17.5C24.0625 13.8814 21.1186 10.9375 17.5 10.9375C15.3991 10.9375 13.4807 11.9127 12.2452 13.5726C11.298 12.3108 9.91331 11.396 8.3125 11.0696V10.0625H26.6875V26.25C26.6875 26.4915 26.4915 26.6875 26.25 26.6875Z" fill="black"/>
<path d="M12.25 2.1875H17.9375V3.0625H12.25V2.1875Z" fill="black"/>
<path d="M22.0006 2.49902L22.6192 1.8804L24.8064 4.06755L24.1878 4.68617L22.0006 2.49902Z" fill="black"/>
<path d="M10.0625 7.4375H10.9375V8.3125H10.0625V7.4375Z" fill="black"/>
<path d="M11.8125 7.4375H12.6875V8.3125H11.8125V7.4375Z" fill="black"/>
<path d="M13.5625 7.4375H14.4375V8.3125H13.5625V7.4375Z" fill="black"/>
<path d="M17.0625 7.4375H19.6875V8.3125H17.0625V7.4375Z" fill="black"/>
<path d="M20.5625 7.4375H24.0625V8.3125H20.5625V7.4375Z" fill="black"/>
</g>
<defs>
<clipPath id="clip0_459_637">
<rect width="28" height="28" fill="white"/>
</clipPath>
</defs>
</svg>
