<svg width="39" height="39" viewBox="0 0 39 39" fill="none" xmlns="http://www.w3.org/2000/svg">
<circle cx="19.5" cy="19.5" r="19" fill="#FCFCFC" stroke="#D0D0D0"/>
<path d="M17.2691 23.5312V22.5767L20.2222 19.517C20.5376 19.1847 20.7975 18.8935 21.0021 18.6435C21.2095 18.3906 21.3643 18.1506 21.4666 17.9233C21.5688 17.696 21.62 17.4545 21.62 17.1989C21.62 16.9091 21.5518 16.6591 21.4154 16.4489C21.2791 16.2358 21.093 16.0724 20.8572 15.9588C20.6214 15.8423 20.3558 15.7841 20.0603 15.7841C19.7478 15.7841 19.4751 15.848 19.2421 15.9759C19.0092 16.1037 18.8302 16.2841 18.7052 16.517C18.5802 16.75 18.5177 17.0227 18.5177 17.3352H17.2606C17.2606 16.804 17.3828 16.3395 17.6271 15.9418C17.8714 15.544 18.2066 15.2358 18.6328 15.017C19.0589 14.7955 19.5433 14.6847 20.0859 14.6847C20.6342 14.6847 21.1171 14.794 21.5347 15.0128C21.9552 15.2287 22.2833 15.5241 22.5191 15.8991C22.7549 16.2713 22.8728 16.6918 22.8728 17.1605C22.8728 17.4844 22.8117 17.8011 22.6896 18.1108C22.5703 18.4205 22.3614 18.7656 22.0631 19.1463C21.7649 19.5241 21.3501 19.983 20.8188 20.5227L19.0845 22.3381V22.402H23.0134V23.5312H17.2691Z" fill="black"/>
</svg>
