<svg width="11" height="11" viewBox="0 0 11 11" fill="none" xmlns="http://www.w3.org/2000/svg">
<g clip-path="url(#clip0_450_120)">
<path d="M5.50004 1.49153C5.39707 1.49153 5.3136 1.40805 5.3136 1.30508V0.186441C5.3136 0.0834723 5.39707 0 5.50004 0C5.60301 0 5.68648 0.0834723 5.68648 0.186441V1.30508C5.68648 1.40805 5.60301 1.49153 5.50004 1.49153Z" fill="#F0C419"/>
<path d="M6.80509 1.67797C6.70212 1.67797 6.61865 1.59449 6.61865 1.49153V0.186441C6.61865 0.0834723 6.70212 0 6.80509 0C6.90806 0 6.99153 0.0834723 6.99153 0.186441V1.49153C6.99153 1.59449 6.90806 1.67797 6.80509 1.67797Z" fill="#F0C419"/>
<path d="M8.11015 2.2373C8.00718 2.2373 7.92371 2.15382 7.92371 2.05086V1.30509C7.92371 1.20212 8.00718 1.11865 8.11015 1.11865C8.21312 1.11865 8.29659 1.20212 8.29659 1.30509V2.05086C8.29659 2.15382 8.21312 2.2373 8.11015 2.2373Z" fill="#F0C419"/>
<path d="M8.11015 0.745763C8.00718 0.745763 7.92371 0.66229 7.92371 0.559322V0.186441C7.92371 0.0834723 8.00718 0 8.11015 0C8.21312 0 8.29659 0.0834723 8.29659 0.186441V0.559322C8.29659 0.66229 8.21312 0.745763 8.11015 0.745763Z" fill="#F0C419"/>
<path d="M9.41532 5.4067C9.31235 5.4067 9.22888 5.32323 9.22888 5.22026V1.11857C9.22888 1.0156 9.31235 0.932129 9.41532 0.932129C9.51829 0.932129 9.60176 1.0156 9.60176 1.11857V5.22026C9.60176 5.32323 9.51829 5.4067 9.41532 5.4067Z" fill="#F0C419"/>
<path d="M4.19499 1.67797C4.09202 1.67797 4.00854 1.59449 4.00854 1.49153V0.186441C4.00854 0.0834723 4.09202 0 4.19499 0C4.29795 0 4.38143 0.0834723 4.38143 0.186441V1.49153C4.38143 1.59449 4.29795 1.67797 4.19499 1.67797Z" fill="#F0C419"/>
<path d="M2.88981 2.2373C2.78684 2.2373 2.70337 2.15382 2.70337 2.05086V1.30509C2.70337 1.20212 2.78684 1.11865 2.88981 1.11865C2.99278 1.11865 3.07625 1.20212 3.07625 1.30509V2.05086C3.07625 2.15382 2.99278 2.2373 2.88981 2.2373Z" fill="#F0C419"/>
<path d="M2.88981 0.745763C2.78684 0.745763 2.70337 0.66229 2.70337 0.559322V0.186441C2.70337 0.0834723 2.78684 0 2.88981 0C2.99278 0 3.07625 0.0834723 3.07625 0.186441V0.559322C3.07625 0.66229 2.99278 0.745763 2.88981 0.745763Z" fill="#F0C419"/>
<path d="M1.58476 5.4067C1.48179 5.4067 1.39832 5.32323 1.39832 5.22026V1.11857C1.39832 1.0156 1.48179 0.932129 1.58476 0.932129C1.68772 0.932129 1.7712 1.0156 1.7712 1.11857V5.22026C1.7712 5.32323 1.68772 5.4067 1.58476 5.4067Z" fill="#F0C419"/>
<path d="M5.49997 10.9999C7.97121 10.9999 9.97454 8.9966 9.97454 6.52536C9.97454 4.05412 7.97121 2.05078 5.49997 2.05078C3.02873 2.05078 1.02539 4.05412 1.02539 6.52536C1.02539 8.9966 3.02873 10.9999 5.49997 10.9999Z" fill="#F29C1F"/>
<path d="M5.49993 10.254C7.5593 10.254 9.22875 8.58457 9.22875 6.5252C9.22875 4.46583 7.5593 2.79639 5.49993 2.79639C3.44056 2.79639 1.77112 4.46583 1.77112 6.5252C1.77112 8.58457 3.44056 10.254 5.49993 10.254Z" fill="#F0C419"/>
<path d="M5.49999 10.4407C3.33863 10.4384 1.5871 8.68683 1.58473 6.52547C1.5829 5.91334 1.72614 5.3095 2.00273 4.76342C2.03146 4.70181 2.09144 4.66072 2.15926 4.65618C2.22708 4.65164 2.292 4.68437 2.32868 4.7416C2.36536 4.79883 2.36798 4.87149 2.33553 4.93122C2.08538 5.42532 1.95587 5.97166 1.95762 6.52547C1.95762 7.86722 2.71569 9.09382 3.91579 9.69386C5.11589 10.2939 6.55201 10.1644 7.62541 9.35937C7.6787 9.3194 7.74926 9.3109 7.81052 9.33707C7.87177 9.36323 7.91441 9.42009 7.92238 9.48622C7.93035 9.55235 7.90243 9.61771 7.84914 9.65767C7.17254 10.1681 6.34752 10.4431 5.49999 10.4407V10.4407Z" fill="#E57E25"/>
<path d="M8.82527 8.40026C8.76049 8.40016 8.7004 8.36644 8.66656 8.3112C8.63273 8.25596 8.62999 8.18711 8.65934 8.12936C8.91269 7.63276 9.04397 7.0829 9.04228 6.52541C9.04228 5.18366 8.28421 3.95706 7.08411 3.35701C5.88401 2.75697 4.44789 2.88646 3.37449 3.69151C3.29211 3.75329 3.17525 3.7366 3.11347 3.65422C3.05169 3.57185 3.06838 3.45499 3.15076 3.39321C4.6073 2.30165 6.62389 2.35752 8.01776 3.52805C9.41162 4.69858 9.81527 6.67515 8.99195 8.29846C8.96003 8.36111 8.89558 8.40047 8.82527 8.40026V8.40026Z" fill="#E57E25"/>
<path d="M5.84171 3.95119L6.35517 5.03366C6.40866 5.14984 6.51642 5.23182 6.64266 5.25235L7.78182 5.42425C7.9297 5.45366 8.04943 5.56199 8.09343 5.7062C8.13744 5.85041 8.09858 6.00713 7.99231 6.11408L7.17514 6.94225C7.08273 7.0375 7.0412 7.17104 7.06327 7.3019L7.25717 8.47647C7.28843 8.62214 7.23331 8.77282 7.11542 8.86393C6.99754 8.95504 6.83783 8.97039 6.70475 8.90342L5.6756 8.34093C5.56612 8.28073 5.43345 8.28073 5.32397 8.34093L4.29482 8.90342C4.16173 8.97039 4.00202 8.95504 3.88414 8.86393C3.76626 8.77282 3.71113 8.62214 3.74239 8.47647L3.93629 7.3019C3.95837 7.17104 3.91683 7.0375 3.82443 6.94225L3.00726 6.11408C2.90098 6.00713 2.86213 5.85041 2.90613 5.7062C2.95014 5.56199 3.06987 5.45366 3.21775 5.42425L4.3569 5.25235C4.48328 5.23193 4.59121 5.14994 4.64477 5.03366L5.15822 3.9523C5.21731 3.81633 5.35134 3.72827 5.4996 3.72803C5.64786 3.72779 5.78218 3.8154 5.84171 3.95119Z" fill="#F29C1F"/>
</g>
<defs>
<clipPath id="clip0_450_120">
<rect width="11" height="11" fill="white"/>
</clipPath>
</defs>
</svg>
