<svg width="36" height="31" viewBox="0 0 36 31" fill="none" xmlns="http://www.w3.org/2000/svg">
<path d="M31.3594 1.81836H4.64062C2.466 1.81836 0.703125 3.33639 0.703125 5.20898V21.1934C0.703125 23.066 2.466 24.584 4.64062 24.584H23.6294V29.1818L28.9688 24.584H31.3594C33.534 24.584 35.2969 23.066 35.2969 21.1934V5.20898C35.2969 3.33639 33.534 1.81836 31.3594 1.81836Z" fill="#D8DEFF"/>
<path d="M32.858 10.3554L25.875 5.22998L18.8921 10.3554H32.858Z" fill="#FF5D5D"/>
<path d="M31.5 10.3433H20.25V17.5611H31.5V10.3433Z" fill="white"/>
<path d="M27.6335 12.8984H24.1875V17.5605H27.6335V12.8984Z" fill="#FEE28C"/>
<path d="M31.3594 1.21289H16.6333C16.2449 1.21289 15.9301 1.48396 15.9301 1.81836C15.9301 2.15276 16.2449 2.42383 16.6333 2.42383H31.3594C33.1428 2.42383 34.5938 3.67321 34.5938 5.20898V21.1934C34.5938 22.7291 33.1428 23.9785 31.3594 23.9785H28.9688C28.7823 23.9785 28.6034 24.0423 28.4716 24.1559L24.3325 27.72V24.584C24.3325 24.2496 24.0177 23.9785 23.6294 23.9785H4.64062C2.85722 23.9785 1.40625 22.7291 1.40625 21.1934V5.20898C1.40625 3.67321 2.85722 2.42383 4.64062 2.42383H8.72213C9.11046 2.42383 9.42525 2.15276 9.42525 1.81836C9.42525 1.48396 9.11046 1.21289 8.72213 1.21289H4.64062C2.08174 1.21289 0 3.0055 0 5.20898V21.1934C0 23.3968 2.08174 25.1895 4.64062 25.1895H22.9263V29.1818C22.9263 29.4267 23.0977 29.6475 23.3603 29.7412C23.4473 29.7722 23.5387 29.7873 23.6293 29.7873C23.8122 29.7873 23.9921 29.7257 24.1266 29.6099L29.26 25.1895H31.3594C33.9183 25.1895 36 23.3968 36 21.1934V5.20898C36 3.0055 33.9183 1.21289 31.3594 1.21289Z" fill="black"/>
<path d="M12.9431 2.42383C13.1287 2.42383 13.3094 2.35904 13.4402 2.24643C13.571 2.13381 13.6462 1.9776 13.6462 1.81836C13.6462 1.65912 13.571 1.50291 13.4402 1.39029C13.3094 1.27768 13.128 1.21289 12.9431 1.21289C12.7582 1.21289 12.5768 1.27768 12.446 1.39029C12.3152 1.50291 12.24 1.65912 12.24 1.81836C12.24 1.9776 12.3152 2.13381 12.446 2.24643C12.5768 2.35904 12.7582 2.42383 12.9431 2.42383Z" fill="black"/>
<path d="M16.0312 16.9551C15.8463 16.9551 15.6649 17.0198 15.5341 17.1325C15.4034 17.245 15.3281 17.4012 15.3281 17.5605C15.3281 17.7198 15.4034 17.876 15.5341 17.9886C15.6649 18.1012 15.8463 18.166 16.0312 18.166C16.2162 18.166 16.3976 18.1012 16.5284 17.9886C16.6591 17.876 16.7344 17.7198 16.7344 17.5605C16.7344 17.4012 16.6591 17.245 16.5284 17.1325C16.3976 17.0198 16.2162 16.9551 16.0312 16.9551Z" fill="black"/>
<path d="M4.50098 16.9551C4.11264 16.9551 3.79785 17.2262 3.79785 17.5605C3.79785 17.8949 4.11264 18.166 4.50098 18.166H12.9433C13.3316 18.166 13.6464 17.8949 13.6464 17.5605C13.6464 17.2262 13.3316 16.9551 12.9433 16.9551H4.50098Z" fill="black"/>
<path d="M16.0312 14.0488H4.50476C4.11642 14.0488 3.80164 14.3199 3.80164 14.6543C3.80164 14.9887 4.11642 15.2598 4.50476 15.2598H16.0312C16.4196 15.2598 16.7344 14.9887 16.7344 14.6543C16.7344 14.3199 16.4196 14.0488 16.0312 14.0488Z" fill="black"/>
<path d="M4.5 12.3535H16.0265C16.4148 12.3535 16.7296 12.0824 16.7296 11.748C16.7296 11.4136 16.4148 11.1426 16.0265 11.1426H4.5C4.11166 11.1426 3.79688 11.4136 3.79688 11.748C3.79688 12.0824 4.11166 12.3535 4.5 12.3535Z" fill="black"/>
<path d="M16.0265 8.23633H4.5C4.11166 8.23633 3.79688 8.5074 3.79688 8.8418C3.79688 9.1762 4.11166 9.44727 4.5 9.44727H16.0265C16.4148 9.44727 16.7296 9.1762 16.7296 8.8418C16.7296 8.5074 16.4148 8.23633 16.0265 8.23633Z" fill="black"/>
<path d="M20.25 18.166H31.5C31.8883 18.166 32.2031 17.8948 32.2031 17.5605V10.9609H32.8579C33.1525 10.9609 33.4159 10.8027 33.5177 10.5647C33.6195 10.3267 33.5383 10.0592 33.314 9.89465L26.3311 4.76923C26.0683 4.57627 25.6817 4.57627 25.4188 4.76923L18.4359 9.89465C18.2117 10.0592 18.1304 10.3267 18.2322 10.5647C18.334 10.8028 18.5974 10.9609 18.892 10.9609H19.5468V17.5605C19.5468 17.8948 19.8616 18.166 20.25 18.166ZM26.9303 16.955H24.8906V13.5038H26.9303V16.955ZM30.7968 16.955H28.3365V12.8984C28.3365 12.564 28.0217 12.2929 27.6334 12.2929H24.1875C23.7991 12.2929 23.4843 12.564 23.4843 12.8984V16.955H20.9531V10.9609H30.7968V16.955ZM25.875 6.02552L30.9491 9.74994H20.8008L25.875 6.02552Z" fill="black"/>
</svg>
