<svg width="53" height="48" viewBox="0 0 53 48" fill="none" xmlns="http://www.w3.org/2000/svg">
<g clip-path="url(#clip0_583_66)">
<path d="M42.183 31.2813H38.8464V2.15908C38.8464 1.35493 39.5934 0.703125 40.5147 0.703125C41.4361 0.703125 42.183 1.35503 42.183 2.15908V31.2813Z" fill="#EDF4F9"/>
<path d="M41.5889 1.04794C41.2986 0.834579 40.9239 0.706055 40.5147 0.706055C39.5933 0.706055 38.8464 1.35796 38.8464 2.16201V29.8253H40.5147V2.16201C40.5147 1.3063 41.0072 1.04232 41.5889 1.04794V1.04794Z" fill="#D5EBF7"/>
<path d="M42.183 6.52694H38.8464V2.15908C38.8464 1.35493 39.5934 0.703125 40.5147 0.703125C41.4361 0.703125 42.183 1.35503 42.183 2.15908V6.52694Z" fill="#526C7C"/>
<path d="M43.8513 31.281H37.1781V31.2781C37.1781 29.6699 38.6719 28.3662 40.5147 28.3662C42.3574 28.3662 43.8512 29.6699 43.8512 31.2781V31.281H43.8513Z" fill="#FFC047"/>
<path d="M41.5888 28.5204C41.2518 28.4205 40.8905 28.3662 40.5147 28.3662C38.6719 28.3662 37.1781 29.6699 37.1781 31.2781V31.281H39.3264V31.2781C39.3264 29.9979 40.2731 28.9107 41.5888 28.5204Z" fill="#FFA142"/>
<path d="M52.1927 47.2971H28.8367L32.1732 35.6465H48.8562L52.1927 47.2971Z" fill="#EFC495"/>
<path d="M35.9829 36.5839H49.1247L48.8563 35.6465H32.1732L28.8367 47.2971H32.3276L35.2534 37.0811C35.337 36.7889 35.6377 36.5839 35.9829 36.5839V36.5839Z" fill="#D19D6F"/>
<path d="M48.8561 35.6463H32.1732V32.7373L37.1781 31.2812H43.8513L48.8561 32.7373V35.6463Z" fill="#526C7C"/>
<path d="M35.9098 33.525L40.2848 32.2524C40.3614 32.23 40.4417 32.2187 40.5226 32.2187H47.0738L43.8513 31.2812H37.1781L32.1732 32.7372V35.6462H35.3957V34.1476C35.3957 33.8651 35.6028 33.6144 35.9098 33.525V33.525Z" fill="#2E4754"/>
<path d="M41.5889 1.04794C41.2986 0.834579 40.9239 0.706055 40.5147 0.706055C39.5933 0.706055 38.8464 1.35796 38.8464 2.16201V6.52987H40.5147V2.16201C40.5147 1.71503 40.6443 1.05994 41.5889 1.04794V1.04794Z" fill="#2E4754"/>
<path d="M25.5 47.3071H-1.19275L1.64154 32.47C1.93167 30.9514 3.43721 29.8384 5.2012 29.8384H19.1063C20.8704 29.8384 22.376 30.9514 22.666 32.4701L25.5 47.3071Z" fill="#F2384A"/>
<path d="M24.945 44.4012H-0.637573L5.48053 35.6543H18.8269L24.945 44.4012Z" fill="#F8434C"/>
<path d="M8.05068 37.5292H20.1382L18.8268 35.6543H5.48042L-0.637573 44.4012H2.8222L7.40898 37.8435C7.54539 37.6483 7.78858 37.5292 8.05068 37.5292V37.5292Z" fill="#DB2E36"/>
<path d="M13.8222 29.8248H10.4856V2.16152C10.4856 1.35738 11.2326 0.705566 12.1539 0.705566C13.0753 0.705566 13.8222 1.35747 13.8222 2.16152V29.8248Z" fill="#EDF4F9"/>
<path d="M-0.637622 44.4014H24.9449L25.5 47.3075H-1.19275L-0.637622 44.4014Z" fill="#526C7C"/>
<path d="M-0.637515 44.4014L-1.19275 47.3075H2.2827L2.83783 44.4014H-0.637515Z" fill="#2E4754"/>
<path d="M13.228 1.04745C12.9378 0.834091 12.563 0.705566 12.1539 0.705566C11.2325 0.705566 10.4856 1.35747 10.4856 2.16152V29.8248H12.1539V2.16152C12.1539 1.30582 12.6464 1.04183 13.228 1.04745V1.04745Z" fill="#D5EBF7"/>
<path d="M13.8222 6.52938H10.4856V2.16152C10.4856 1.35738 11.2326 0.705566 12.1539 0.705566C13.0753 0.705566 13.8222 1.35747 13.8222 2.16152V6.52938Z" fill="#526C7C"/>
<path d="M13.228 1.04745C12.9378 0.834091 12.563 0.705566 12.1539 0.705566C11.2325 0.705566 10.4856 1.35747 10.4856 2.16152V6.52938H12.1539V2.16152C12.1539 1.71454 12.2834 1.05945 13.228 1.04745V1.04745Z" fill="#2E4754"/>
<path d="M15.4904 29.825H8.81714V29.8221C8.81714 28.2139 10.311 26.9102 12.1537 26.9102C13.9964 26.9102 15.4903 28.2139 15.4903 29.8221V29.825H15.4904Z" fill="#526C7C"/>
<path d="M13.228 27.0644C12.8909 26.9644 12.5297 26.9102 12.1538 26.9102C10.3111 26.9102 8.81726 28.2139 8.81726 29.8221V29.825H10.9656V29.8221C10.9656 28.5419 11.9122 27.4546 13.228 27.0644V27.0644Z" fill="#2E4754"/>
<path d="M5.48047 29.8252H18.8268V35.6625H5.48047V29.8252Z" fill="#C62632"/>
<path d="M23.4604 32.3409C23.1042 30.4756 21.273 29.1217 19.1061 29.1217H16.2177C16.0157 28.2275 15.4348 27.4505 14.6275 26.9241V2.16148C14.6275 0.970922 13.5177 0.00244141 12.1536 0.00244141C10.7895 0.00244141 9.67968 0.971015 9.67968 2.16148V18.9043C9.67968 19.2926 10.0403 19.6074 10.4853 19.6074C10.9303 19.6074 11.2909 19.2926 11.2909 18.9043V7.23243H13.0162V26.2858C12.7379 26.2342 12.4493 26.2069 12.1536 26.2069C11.8579 26.2069 11.5692 26.2342 11.2909 26.2858V21.8854C11.2909 21.4972 10.9303 21.1824 10.4853 21.1824C10.0403 21.1824 9.67968 21.4972 9.67968 21.8854V26.9243C8.87288 27.4505 8.29219 28.2272 8.08992 29.1217H5.20107C3.03417 29.1217 1.20293 30.4755 0.846742 32.3407C0.48926 34.2117 -1.65251 45.424 -1.98754 47.178C-2.02653 47.3818 -1.96069 47.5903 -1.80762 47.748C-1.65455 47.9057 -1.42973 47.9966 -1.19288 47.9966H25.4998C25.7367 47.9966 25.9615 47.9057 26.1146 47.748C26.2676 47.5903 26.3335 47.3818 26.2945 47.178C25.9601 45.4277 23.8175 34.2103 23.4604 32.3409V32.3409ZM11.2909 5.82626V2.16148C11.2909 1.74638 11.6779 1.40862 12.1536 1.40862C12.6292 1.40862 13.0162 1.74638 13.0162 2.16148V5.82626H11.2909ZM18.021 30.5279V34.9456H6.28587V30.5279H18.021ZM5.93193 36.3518H18.3749L23.5119 43.6844H0.79486L5.93193 36.3518ZM21.8712 32.5721L23.4663 40.9237L19.6322 35.4507V30.5706C20.7696 30.7578 21.6745 31.5422 21.8712 32.5721ZM14.5542 29.1217H9.75294C10.5298 27.0987 13.7945 27.1431 14.5542 29.1217ZM2.43586 32.572C2.63254 31.5422 3.53741 30.7579 4.67463 30.5706V35.4507L0.840511 40.9235L2.43586 32.572ZM-0.241922 46.5905L0.0445573 45.0905H24.2622L24.5487 46.5905H-0.241922Z" fill="black"/>
<path d="M52.9743 47.1264L49.6617 35.5597V32.7372C49.6617 32.4346 49.4399 32.1659 49.1109 32.0702L44.6148 30.7623C44.4549 29.7908 43.8509 28.9428 42.9886 28.3807V11.4271C42.9886 11.0388 42.628 10.724 42.183 10.724C41.7379 10.724 41.3773 11.0388 41.3773 11.4271V27.7423C41.099 27.6906 40.8104 27.6633 40.5147 27.6633C40.219 27.6633 39.9303 27.6906 39.652 27.7423V7.23009H41.3773V8.66654C41.3773 9.05483 41.7379 9.36963 42.183 9.36963C42.628 9.36963 42.9886 9.05483 42.9886 8.66654V2.03886C42.9886 0.914671 41.8788 0 40.5147 0C39.1506 0 38.0408 0.914671 38.0408 2.03886V28.3808C37.1792 28.9427 36.5754 29.7903 36.415 30.7621L31.9183 32.0702C31.5894 32.1659 31.3674 32.4346 31.3674 32.7372V35.5597L28.0549 47.1264C27.9948 47.3364 28.0488 47.5589 28.2016 47.7295C28.3542 47.9002 28.5885 47.9999 28.8365 47.9999H52.1926C52.4408 47.9999 52.6749 47.9002 52.8276 47.7295C52.9803 47.5589 53.0344 47.3365 52.9743 47.1264V47.1264ZM39.6519 5.82391V2.15904C39.6519 1.74394 40.0389 1.40618 40.5146 1.40618C40.9902 1.40618 41.3772 1.74394 41.3772 2.15904V5.82382H39.6519V5.82391ZM42.9153 30.5782H38.1139C38.4503 29.7025 39.3994 29.0696 40.5147 29.0696C41.63 29.0696 42.579 29.7024 42.9153 30.5782ZM47.6658 46.5938L46.3012 41.8193C46.1936 41.4425 45.7564 41.2132 45.3245 41.3073C44.8928 41.4012 44.6301 41.7828 44.7378 42.1596L46.005 46.5938H41.3202V41.9894C41.3202 41.6011 40.9596 41.2864 40.5146 41.2864C40.0696 41.2864 39.709 41.6011 39.709 41.9894V46.5938H35.0242L36.2915 42.1596C36.3991 41.7828 36.1365 41.4013 35.7048 41.3073C35.2728 41.213 34.8357 41.4424 34.7281 41.8193L33.3636 46.5938H29.8684L32.8022 36.3494H37.0909C37.5359 36.3494 37.8965 36.0346 37.8965 35.6463C37.8965 35.258 37.5359 34.9432 37.0909 34.9432H32.9788V33.244L37.3088 31.9843H43.7206L48.0506 33.244V34.9432H40.602C40.157 34.9432 39.7964 35.258 39.7964 35.6463C39.7964 36.0346 40.157 36.3494 40.602 36.3494H48.2271L51.1609 46.5938H47.6658Z" fill="black"/>
</g>
<defs>
<clipPath id="clip0_583_66">
<rect width="55" height="48" fill="white" transform="translate(-2)"/>
</clipPath>
</defs>
</svg>
