<svg width="37" height="37" viewBox="0 0 37 37" fill="none" xmlns="http://www.w3.org/2000/svg">
<path d="M27.6872 18.8618C24.5493 18.8618 22.0055 21.4056 22.0055 24.5436V34.9378H33.369V24.5436C33.369 21.4056 30.8252 18.8618 27.6872 18.8618V18.8618Z" fill="#B1E4F9"/>
<path d="M30.3221 24.5435H31.7115V34.9377H30.3221V24.5435Z" fill="#90D8F9"/>
<path d="M29.5953 19.19C27.3957 19.9737 25.8214 22.0742 25.8214 24.5429V34.9375H22.0052V24.5429C22.0052 21.4053 24.5492 18.8613 27.6868 18.8613C28.3565 18.8613 28.9988 18.9768 29.5953 19.19Z" fill="#90D8F9"/>
<path d="M16.3237 23.5186C13.1857 23.5186 10.642 26.0623 10.642 29.2003V34.9378H22.0054V29.2003C22.0054 26.0623 19.4616 23.5186 16.3237 23.5186V23.5186Z" fill="#E490D0"/>
<path d="M19.2742 29.228H20.4455V34.9376H19.2742V29.228Z" fill="#DF73C1"/>
<path d="M18.2317 23.8467C16.0322 24.6305 14.4579 26.7309 14.4579 29.1997V34.9376H10.6417V29.1997C10.6417 26.062 13.1856 23.5181 16.3233 23.5181C16.9929 23.5181 17.6352 23.6335 18.2317 23.8467Z" fill="#DF73C1"/>
<path d="M34.8554 15.2987H20.5189C19.6337 15.2987 18.9161 14.5812 18.9161 13.696C18.9161 12.8109 19.6337 12.0933 20.5189 12.0933H34.8554C35.7406 12.0933 36.4582 12.8108 36.4582 13.696C36.4582 14.5812 35.7406 15.2987 34.8554 15.2987Z" fill="#EAAC9D"/>
<path d="M27.6871 5.3335C24.4154 5.3335 21.7632 7.98575 21.7632 11.2574V14.6656C21.7632 17.9373 24.4154 20.5895 27.6871 20.5895C30.9588 20.5895 33.611 17.9372 33.611 14.6656V11.2574C33.6111 7.98575 30.9588 5.3335 27.6871 5.3335V5.3335Z" fill="#FFDDCE"/>
<path d="M29.2167 20.3891C28.7288 20.5201 28.2159 20.5892 27.687 20.5892C24.4153 20.5892 21.7633 17.9373 21.7633 14.6656V11.2572C21.7633 7.98546 24.4153 5.3335 27.687 5.3335C28.2159 5.3335 28.7288 5.40265 29.2167 5.53367C26.6862 6.20734 24.8228 8.51445 24.8228 11.2573V14.6656C24.8228 17.4084 26.6861 19.7155 29.2167 20.3891V20.3891Z" fill="#FFCBBE"/>
<path d="M33.6111 2.06386V2.06299H33.5755H26.4081C25.4852 2.06299 24.7369 2.81124 24.7369 3.73336V5.08886H24.7161C24.5983 4.38549 23.9871 3.84949 23.2501 3.84949C22.8391 3.84949 22.4673 4.01613 22.199 4.28533C21.9298 4.55452 21.7632 4.92626 21.7632 5.33724V12.9592C22.3087 12.9592 22.8038 12.738 23.1611 12.38C23.5192 12.0219 23.7403 11.5268 23.7403 10.9812V7.91925H31.6338V10.9812C31.6338 12.0731 32.5191 12.9592 33.6111 12.9592V5.73651C34.6093 5.7175 35.4127 4.90292 35.4127 3.90022C35.4127 2.89745 34.6093 2.08286 33.6111 2.06386V2.06386Z" fill="#AA8080"/>
<path d="M29.2545 2.06299C28.412 2.07506 27.7544 2.1956 27.7544 3.05976V3.17553H26.2673C25.8565 3.17553 25.4843 3.34276 25.2166 3.61123C24.9473 3.88049 24.7801 4.25273 24.7801 4.6635V7.91917H23.7407V10.9811C23.7407 11.5261 23.5196 12.0213 23.1611 12.3798C22.8042 12.7375 22.309 12.9586 21.7632 12.9586V5.33709C21.7632 4.92553 21.9296 4.55416 22.1989 4.28482C22.4673 4.01556 22.8387 3.84913 23.2504 3.84913C23.9875 3.84913 24.5984 4.38527 24.7158 5.08871H24.7367V3.73263C24.7367 2.81058 25.4851 2.06299 26.4079 2.06299H29.2545Z" fill="#9D6B6B"/>
<path d="M16.4436 7.354C12.5372 7.354 9.37048 10.5207 9.37048 14.4271V22.9234H23.5167V14.4271C23.5166 10.5207 20.3499 7.354 16.4436 7.354V7.354Z" fill="#F9EF63"/>
<path d="M18.3936 7.62666C15.4363 8.4737 13.2718 11.1973 13.2718 14.4272V22.9234H9.37048V14.4272C9.37048 10.5206 12.5371 7.354 16.443 7.354C17.1197 7.354 17.7742 7.44867 18.3936 7.62666V7.62666Z" fill="#FFD064"/>
<path d="M23.2543 19.7247H9.63283C8.79187 19.7247 8.11011 19.0429 8.11011 18.2019C8.11011 17.361 8.79187 16.6792 9.63283 16.6792H23.2543C24.0952 16.6792 24.777 17.361 24.777 18.2019C24.777 19.0429 24.0952 19.7247 23.2543 19.7247Z" fill="#EAAC9D"/>
<path d="M10.8152 14.8537H13.6035C14.9302 14.8537 16.0552 13.9891 16.4439 12.7915C16.8327 13.9891 17.957 14.8537 19.2844 14.8537H22.072V19.1229C22.072 22.2314 19.5521 24.7513 16.4436 24.7513C13.3351 24.7513 10.8152 22.2314 10.8152 19.1229V14.8537Z" fill="#FFDDCE"/>
<path d="M17.8456 24.5747C17.3973 24.6901 16.9276 24.7511 16.4434 24.7511C14.8891 24.7511 13.4823 24.121 12.4634 23.1022C11.4453 22.0841 10.8152 20.6765 10.8152 19.1229V14.8535H13.6198V19.1229C13.6198 20.6765 14.2499 22.0841 15.268 23.1022C15.9698 23.8041 16.855 24.3211 17.8456 24.5747V24.5747Z" fill="#FFCBBE"/>
<path d="M10.1628 9.5083L8.48106 10.2049C7.976 10.4141 7.73615 10.9931 7.94536 11.4981C8.15457 12.0032 8.73356 12.243 9.23862 12.0338C9.02942 12.5389 9.26927 13.118 9.77433 13.3271C10.2794 13.5363 10.8585 13.2965 11.0676 12.7914L11.7642 11.1097L10.1628 9.5083Z" fill="#E490D0"/>
<path d="M11.3934 8.27738L12.09 6.59569C12.2992 6.09062 12.8782 5.85077 13.3833 6.05998C13.8883 6.26919 14.1282 6.84818 13.919 7.35325C14.424 7.14404 15.0031 7.38389 15.2122 7.88895C15.4214 8.39402 15.1816 8.97308 14.6765 9.18229L12.9948 9.87886L11.3934 8.27738Z" fill="#E490D0"/>
<path d="M12.8735 10.9881C12.5336 11.3279 11.9826 11.3279 11.6427 10.9881L10.2843 9.6297C9.94445 9.28983 9.94445 8.73881 10.2843 8.39894C10.6242 8.05908 11.1752 8.05908 11.5151 8.39894L12.8735 9.75732C13.2133 10.0972 13.2133 10.6482 12.8735 10.9881Z" fill="#DF73C1"/>
<path d="M8.19966 31.7065H7.40011C5.82969 31.7065 4.55664 32.9796 4.55664 34.55V34.9372H11.0431V34.55C11.0431 32.9796 9.77001 31.7065 8.19966 31.7065Z" fill="#B3E59F"/>
<path d="M8.74559 31.759C7.43628 32.0134 6.44754 33.1667 6.44754 34.5501V34.9374H4.55664V34.5501C4.55664 32.9798 5.82989 31.7065 7.40015 31.7065H8.19941C8.38628 31.7065 8.56919 31.7242 8.74559 31.759Z" fill="#95D6A4"/>
<path d="M13.7064 27.0326H1.89328C1.14684 27.0326 0.541748 26.4276 0.541748 25.6811C0.541748 24.9347 1.14684 24.3296 1.89328 24.3296H13.7064C14.4528 24.3296 15.0579 24.9347 15.0579 25.6811C15.0579 26.4276 14.4528 27.0326 13.7064 27.0326Z" fill="#EAAC9D"/>
<path d="M7.79984 32.3356C4.87124 32.3356 2.49707 29.9615 2.49707 27.0329V25.685C2.49707 22.7564 4.87117 20.3823 7.79977 20.3823C10.7284 20.3823 13.1025 22.7564 13.1025 25.685V27.0329C13.1025 29.9615 10.7284 32.3356 7.79984 32.3356V32.3356Z" fill="#FFDDCE"/>
<path d="M9.15872 32.1597C8.72541 32.2746 8.26984 32.3359 7.79967 32.3359C4.87115 32.3359 2.49719 29.9619 2.49719 27.0327V25.6848C2.49719 22.7563 4.87122 20.3823 7.79967 20.3823C8.26991 20.3823 8.72548 20.4436 9.15872 20.5586C6.88781 21.1583 5.21456 23.2259 5.21456 25.6849V27.0328C5.21456 29.4924 6.88781 31.5599 9.15872 32.1597V32.1597Z" fill="#FFCBBE"/>
<path d="M6.6917 21.5299H7.31853H7.93004H8.51019C9.16831 21.5299 9.70185 20.9964 9.70185 20.3383C9.70185 19.6802 9.16831 19.1466 8.51019 19.1466H7.93004V18.9373C7.93004 18.4121 7.50425 17.9863 6.97902 17.9863C6.4538 17.9863 6.02801 18.4121 6.02801 18.9373C6.02801 18.3969 5.57714 17.9617 5.03103 17.9874C4.51953 18.0115 4.12598 18.4522 4.12598 18.9642C4.1259 20.3811 5.27464 21.5299 6.6917 21.5299V21.5299Z" fill="#524798"/>
<path d="M8.05602 21.5303H6.69208C5.98294 21.5303 5.34209 21.2433 4.87749 20.7787C4.41289 20.3147 4.12585 19.6725 4.12585 18.9641C4.12585 18.4521 4.51941 18.0118 5.03142 17.9875C5.3191 17.9735 5.58099 18.0885 5.76354 18.2793C5.59357 18.4577 5.4898 18.7015 5.4898 18.9641C5.4898 19.6725 5.77676 20.3148 6.24143 20.7787C6.70603 21.2433 7.34688 21.5303 8.05602 21.5303V21.5303Z" fill="#453D81"/>
<path d="M34.8559 11.5513H34.1531V11.2578C34.1531 11.2559 34.1528 11.2541 34.1528 11.2522V6.20728C35.1845 5.94661 35.9552 5.00447 35.9552 3.90024C35.9552 3.27304 35.7129 2.68104 35.2725 2.23291C34.8426 1.79628 34.2735 1.5453 33.6658 1.52325C33.6477 1.52145 33.6294 1.52051 33.6108 1.52051H26.408C25.2521 1.52051 24.3003 2.41148 24.2033 3.54274C23.9182 3.39156 23.5933 3.30686 23.25 3.30686C22.7081 3.30686 22.1987 3.51846 21.8159 3.90212C21.4326 4.2855 21.2215 4.79505 21.2215 5.33683V8.50268C19.914 7.44629 18.2515 6.81258 16.4437 6.81258C15.977 6.81258 15.5121 6.85529 15.0581 6.93905C14.8925 6.8446 14.7103 6.78093 14.5209 6.75275C14.5026 6.6291 14.4689 6.50689 14.4198 6.38838C14.2632 6.01042 13.9688 5.71594 13.5908 5.55934C13.2128 5.40274 12.7964 5.40274 12.4183 5.55934C12.0403 5.71594 11.7459 6.01035 11.5893 6.38838L11.0812 7.6151C11.0214 7.60744 10.9609 7.60217 10.8997 7.60217C10.5224 7.60217 10.1677 7.74908 9.90108 8.01582C9.63435 8.28255 9.48743 8.63724 9.48743 9.01447C9.48743 9.07582 9.49271 9.13617 9.50037 9.196L8.27364 9.70411C7.89562 9.86071 7.6012 10.1551 7.4446 10.5331C7.288 10.9112 7.288 11.3276 7.4446 11.7056C7.6012 12.0836 7.89562 12.378 8.27364 12.5346C8.39216 12.5837 8.51436 12.6174 8.63801 12.6357C8.67414 12.8783 8.76874 13.1092 8.91183 13.3083C8.85748 13.6788 8.82858 14.0541 8.82858 14.4277V16.2992C8.58656 16.4015 8.36434 16.5504 8.17363 16.7416C7.92763 16.9871 7.75145 17.2837 7.65468 17.6077C7.45154 17.5041 7.22231 17.4445 6.97906 17.4445C6.61831 17.4445 6.28697 17.5731 6.02861 17.7869C5.74193 17.5489 5.38262 17.4283 5.00546 17.4462C4.20837 17.4837 3.58391 18.1506 3.58391 18.9644C3.58391 19.734 3.86575 20.4388 4.33086 20.9822C3.36979 21.6916 2.65543 22.6746 2.27256 23.788H1.89338C1.38744 23.788 0.911858 23.985 0.55385 24.3431C0.196709 24.7011 0 25.1765 0 25.6814C0 26.7254 0.849348 27.5747 1.89338 27.5747H1.9801C2.02975 28.1146 2.15369 28.6422 2.35054 29.1491C2.43386 29.3636 2.63881 29.495 2.8559 29.495C2.92116 29.495 2.9875 29.4832 3.05196 29.4581C3.33098 29.3497 3.4693 29.0357 3.36097 28.7566C3.14749 28.207 3.03931 27.627 3.03931 27.0327V25.6849C3.03931 24.0689 3.86206 22.5669 5.20593 21.6932C5.64762 21.9346 6.15392 22.0721 6.6918 22.0721H8.51032C9.06597 22.0721 9.561 21.809 9.87854 21.4012C10.3544 21.6323 10.7864 21.9391 11.1662 22.3189C12.0652 23.218 12.5604 24.4134 12.5604 25.6848V27.0326C12.5604 29.6578 10.425 31.7935 7.80023 31.7935C6.51526 31.7935 5.31137 31.2899 4.41042 30.3754C4.20034 30.1622 3.85715 30.1596 3.64396 30.3696C3.43078 30.5797 3.42818 30.9229 3.63826 31.1361C4.04584 31.5498 4.50415 31.8944 4.99896 32.1655C4.37805 32.7904 4.01498 33.6417 4.01498 34.5505V34.9372C4.01498 35.2365 4.25765 35.4792 4.55698 35.4792L33.3688 35.4798C33.6682 35.4798 33.9108 35.2372 33.9108 34.9378V24.543C33.9108 22.6714 33.0853 20.9342 31.669 19.7586C31.8741 19.5975 32.0719 19.4247 32.259 19.2374C33.1986 18.2985 33.8119 17.1207 34.0456 15.841H34.8559C35.4294 15.841 35.968 15.6177 36.3718 15.2128C36.7768 14.8077 37 14.269 37 13.696C37 12.5135 36.0381 11.5513 34.8559 11.5513V11.5513ZM1.084 25.6814C1.084 25.4654 1.16833 25.2619 1.32096 25.1089C1.47373 24.9561 1.67702 24.872 1.89338 24.872H2.01262C1.97497 25.1392 1.95531 25.4107 1.95531 25.685V26.4908H1.89338C1.44706 26.4908 1.084 26.1277 1.084 25.6814V25.6814ZM22.9748 14.4277V16.1373H22.6137V14.8538C22.6137 14.5545 22.371 14.3118 22.0717 14.3118H19.2846C18.2474 14.3118 17.3343 13.6653 16.986 12.6965V11.0202C16.986 10.7209 16.7433 10.4782 16.444 10.4782C16.1447 10.4782 15.902 10.7209 15.902 11.0202V12.6951C15.5548 13.6647 14.6416 14.3118 13.6037 14.3118H10.8151C10.5158 14.3118 10.2731 14.5545 10.2731 14.8538V16.1372H9.91272V14.4277C9.91272 14.2611 9.92052 14.0941 9.93317 13.9274C10.0063 13.9382 10.0797 13.9454 10.1533 13.9454C10.3519 13.9454 10.5505 13.9063 10.7395 13.828C11.1175 13.6714 11.412 13.377 11.5686 12.999L12.077 11.7714C12.1372 11.7792 12.1976 11.7844 12.2582 11.7844C12.6198 11.7844 12.9815 11.6468 13.2568 11.3715C13.5782 11.0501 13.7105 10.6111 13.6567 10.1917L14.8841 9.68322C15.2622 9.52662 15.5567 9.23221 15.7132 8.85418C15.8362 8.55709 15.861 8.23659 15.7907 7.92939C16.007 7.90792 16.2251 7.89665 16.4437 7.89665C20.045 7.89665 22.9748 10.8265 22.9748 14.4277V14.4277ZM21.4636 25.6873C21.0664 25.1064 20.5695 24.5918 19.988 24.169C20.2863 23.959 20.5657 23.7241 20.822 23.4657H21.5572C21.4954 23.8199 21.4636 24.1802 21.4636 24.5432V25.6873ZM13.5875 24.872H13.7063C14.1526 24.872 14.5157 25.235 14.5157 25.6814C14.5157 25.8977 14.4315 26.1011 14.2788 26.2539C14.126 26.4066 13.9226 26.4907 13.7063 26.4907H13.6443V25.6849C13.6444 25.4105 13.6245 25.1392 13.5875 24.872ZM12.8468 22.7195C12.8396 22.7123 12.8328 22.705 12.8256 22.6978C12.6045 22.3273 12.3395 21.9801 12.0355 21.6605C11.5918 20.8922 11.357 20.0163 11.357 19.1233V15.3958H13.6036C14.7502 15.3958 15.7929 14.8491 16.4439 13.9647C17.0954 14.8491 18.1381 15.3958 19.2845 15.3958H21.5296V19.1233C21.5296 21.9278 19.2481 24.2093 16.4437 24.2093C15.0849 24.2092 13.8074 23.6802 12.8468 22.7195ZM21.6797 22.3817C22.0776 21.7446 22.3621 21.0303 22.5058 20.2665H22.9748V22.3817H21.6797ZM23.9481 18.8952C23.7628 19.0804 23.5164 19.1825 23.2544 19.1825H22.6122C22.6124 19.1627 22.6137 19.1432 22.6137 19.1233V17.2213H23.2544C23.7953 17.2213 24.2354 17.661 24.2354 18.2015C24.2354 18.4636 24.1334 18.71 23.9481 18.8952ZM12.5909 6.80319C12.6854 6.57504 12.9478 6.46628 13.1761 6.5608C13.4043 6.65533 13.513 6.9178 13.4185 7.14595C13.3346 7.34851 13.381 7.58157 13.536 7.73658C13.691 7.89166 13.9243 7.93799 14.1266 7.85409C14.3549 7.75971 14.6173 7.86832 14.7118 8.09647C14.7576 8.20696 14.7576 8.32873 14.7118 8.4393C14.666 8.5498 14.58 8.63586 14.4694 8.68168L13.1223 9.23972L12.0329 8.15038L12.5909 6.80319ZM10.6677 8.78235C10.7297 8.72034 10.8121 8.68616 10.8997 8.68616C10.9874 8.68616 11.0698 8.72034 11.1319 8.78235L12.4902 10.1407C12.6182 10.2687 12.6182 10.477 12.4902 10.605C12.3621 10.733 12.1539 10.7329 12.0259 10.605L10.6675 9.24652C10.6055 9.18451 10.5714 9.10213 10.5714 9.01447C10.5714 8.92681 10.6056 8.84435 10.6677 8.78235ZM8.68852 11.5331C8.57803 11.4874 8.49189 11.4012 8.44614 11.2907C8.35162 11.0626 8.46038 10.8 8.68852 10.7056L10.0356 10.1476L10.5803 10.6923L11.125 11.237L10.567 12.584C10.5213 12.6945 10.4351 12.7806 10.3246 12.8264C10.2141 12.8722 10.0923 12.8722 9.98181 12.8264C9.75366 12.7319 9.64497 12.4694 9.73942 12.2412C9.82333 12.0387 9.77693 11.8056 9.62192 11.6506C9.51822 11.5469 9.37961 11.4918 9.23854 11.4918C9.16874 11.4918 9.09828 11.5053 9.03121 11.5331C8.92079 11.5789 8.79902 11.5789 8.68852 11.5331V11.5331ZM8.94016 17.5081C9.12473 17.3231 9.37065 17.2212 9.63276 17.2212H10.273V19.1232C10.273 19.1431 10.2738 19.1629 10.2741 19.1828H9.80121C9.53332 18.8838 9.16346 18.6784 8.74684 18.6213C8.68498 18.4916 8.65225 18.3497 8.65225 18.2016C8.65232 17.9396 8.75414 17.6936 8.94016 17.5081V17.5081ZM8.51024 20.9882H6.69173C5.57579 20.9882 4.66791 20.0803 4.66791 18.9644C4.66791 18.7344 4.84221 18.539 5.05641 18.529C5.06313 18.5287 5.06985 18.5286 5.0765 18.5286C5.18266 18.5286 5.28239 18.5682 5.35921 18.6415C5.44094 18.7196 5.48596 18.8246 5.48596 18.9376C5.48596 19.2369 5.72864 19.4796 6.02796 19.4796C6.32729 19.4796 6.56996 19.2369 6.56996 18.9376C6.56996 18.7121 6.75345 18.5286 6.97899 18.5286C7.20453 18.5286 7.38802 18.7121 7.38802 18.9376V19.1469C7.38802 19.4462 7.63069 19.6889 7.93002 19.6889H8.51017C8.8684 19.6889 9.15985 19.9803 9.15985 20.3386C9.15992 20.6967 8.86847 20.9882 8.51024 20.9882V20.9882ZM10.2421 20.2669H10.3805C10.3926 20.331 10.4057 20.395 10.4198 20.4587C10.3617 20.4296 10.3022 20.4029 10.243 20.3757C10.2433 20.3633 10.2439 20.351 10.2439 20.3386C10.2439 20.3145 10.2431 20.2906 10.2421 20.2669V20.2669ZM6.12567 32.635C6.66181 32.7943 7.22426 32.8777 7.80015 32.8777C8.38074 32.8777 8.94131 32.7914 9.47103 32.633C10.0679 33.0287 10.4475 33.6784 10.4955 34.3953H5.10411C5.15209 33.6798 5.53055 33.0312 6.12567 32.635ZM21.4631 34.3953H19.8163V29.228C19.8163 28.9287 19.5736 28.686 19.2743 28.686C18.9749 28.686 18.7323 28.9287 18.7323 29.228V34.3953H11.5795C11.5407 33.5437 11.1851 32.7521 10.5982 32.1627C12.2616 31.2516 13.4353 29.5547 13.6183 27.5747H13.7063C14.2122 27.5747 14.6877 27.3778 15.0452 27.0203C15.4027 26.6628 15.5997 26.1873 15.5997 25.6814C15.5997 25.5252 15.5803 25.3735 15.5444 25.2282C15.8397 25.2711 16.1399 25.2932 16.4437 25.2932C17.3273 25.2932 18.1674 25.1051 18.9281 24.7691C20.498 25.6922 21.4631 27.3663 21.4631 29.1997V34.3953ZM32.8268 24.5432V34.396H30.8642V24.5435C30.8642 24.2441 30.6215 24.0015 30.3222 24.0015C30.0229 24.0015 29.7802 24.2441 29.7802 24.5435V34.396H22.5476V24.5432C22.5476 24.1788 22.5859 23.8179 22.661 23.4657H23.5168C23.8161 23.4657 24.0588 23.2231 24.0588 22.9237V20.9041C24.2474 20.7156 24.4507 20.5416 24.6673 20.3843C25.5919 20.8748 26.6197 21.1315 27.6874 21.1315C28.7583 21.1315 29.789 20.8725 30.7088 20.385C32.0408 21.3522 32.8268 22.8837 32.8268 24.5432V24.5432ZM31.4925 18.4711C30.4766 19.4876 29.1253 20.0475 27.6874 20.0475C26.7266 20.0475 25.8048 19.7981 24.9886 19.3228C25.2036 18.9917 25.3194 18.6056 25.3194 18.2015C25.3194 17.3484 24.799 16.6145 24.0588 16.3004V14.4277C24.0588 13.7481 23.9688 13.0893 23.801 12.4619C24.1126 12.0339 24.282 11.5189 24.282 10.9816V8.46163H27.8996C28.199 8.46163 28.4416 8.21896 28.4416 7.91963C28.4416 7.6203 28.199 7.37763 27.8996 7.37763H23.74C23.4406 7.37763 23.198 7.6203 23.198 7.91963V10.9137C22.9476 10.4345 22.648 9.98494 22.3055 9.57215V5.3369C22.3055 5.08462 22.4038 4.84729 22.583 4.66815C22.7613 4.48936 22.9982 4.39093 23.25 4.39093C23.7135 4.39093 24.1053 4.72213 24.1817 5.17849C24.2254 5.43966 24.4514 5.63102 24.7163 5.63102H24.7372C25.0366 5.63102 25.2792 5.38835 25.2792 5.08903V3.73331C25.2792 3.11088 25.7856 2.6045 26.408 2.6045H33.5711C33.5811 2.60523 33.5913 2.60573 33.6015 2.60588C33.9407 2.6118 34.2599 2.7494 34.4998 2.99301C34.7393 3.23684 34.8712 3.559 34.8712 3.90024C34.8712 4.60043 34.3019 5.1808 33.6017 5.19454H30.6449C30.3456 5.19454 30.1029 5.43721 30.1029 5.73653C30.1029 6.03586 30.3456 6.27853 30.6449 6.27853H33.0689V12.3113C32.5454 12.0969 32.1757 11.5817 32.1757 10.9816V7.9197C32.1757 7.62038 31.933 7.37771 31.6337 7.37771H30.0677C29.7684 7.37771 29.5257 7.62038 29.5257 7.9197C29.5257 8.21903 29.7684 8.4617 30.0677 8.4617H31.0917V10.9816C31.0917 12.1851 31.9397 13.1936 33.0692 13.4422V14.6657C33.0692 16.1037 32.5094 17.455 31.4925 18.4711V18.4711ZM35.6047 14.447C35.4053 14.647 35.1394 14.7571 34.8559 14.7571H34.151C34.1514 14.7266 34.1532 14.6963 34.1532 14.6657V12.6353H34.8559C35.4405 12.6353 35.916 13.1113 35.916 13.6963C35.916 13.9797 35.8057 14.2461 35.6047 14.447V14.447Z" fill="black"/>
<path d="M29.4989 15.6827C28.4999 16.6816 26.8744 16.6817 25.8754 15.6827C25.6637 15.471 25.3205 15.471 25.1089 15.6827C24.8973 15.8943 24.8973 16.2375 25.1089 16.4491C25.8197 17.1599 26.7534 17.5153 27.6872 17.5153C28.6209 17.5153 29.5546 17.1599 30.2654 16.4491C30.4771 16.2375 30.4771 15.8943 30.2654 15.6827C30.0537 15.471 29.7105 15.471 29.4989 15.6827Z" fill="black"/>
<path d="M25.7749 13.6172C26.0742 13.6172 26.3169 13.3746 26.3169 13.0752V11.8838C26.3169 11.5845 26.0742 11.3418 25.7749 11.3418C25.4756 11.3418 25.2329 11.5845 25.2329 11.8838V13.0752C25.2329 13.3746 25.4755 13.6172 25.7749 13.6172Z" fill="black"/>
<path d="M29.5995 13.6172C29.8988 13.6172 30.1415 13.3746 30.1415 13.0752V11.8838C30.1415 11.5845 29.8988 11.3418 29.5995 11.3418C29.3002 11.3418 29.0575 11.5845 29.0575 11.8838V13.0752C29.0575 13.3746 29.3002 13.6172 29.5995 13.6172Z" fill="black"/>
<path d="M18.9122 20.0699C18.7006 19.8582 18.3574 19.8582 18.1458 20.0699C17.6911 20.5246 17.0866 20.775 16.4436 20.775C15.8006 20.775 15.1961 20.5246 14.7414 20.0699C14.5298 19.8582 14.1866 19.8582 13.9749 20.0699C13.7632 20.2816 13.7632 20.6247 13.9749 20.8364C14.6343 21.4958 15.5111 21.859 16.4437 21.859C17.3762 21.859 18.253 21.4958 18.9124 20.8364C19.1239 20.6247 19.1239 20.2815 18.9122 20.0699Z" fill="black"/>
<path d="M14.6267 18.1535C14.926 18.1535 15.1687 17.9109 15.1687 17.6115V16.4795C15.1687 16.1802 14.926 15.9375 14.6267 15.9375C14.3274 15.9375 14.0847 16.1802 14.0847 16.4795V17.6115C14.0847 17.9109 14.3274 18.1535 14.6267 18.1535Z" fill="black"/>
<path d="M18.2605 18.1535C18.5598 18.1535 18.8025 17.9109 18.8025 17.6115V16.4795C18.8025 16.1802 18.5598 15.9375 18.2605 15.9375C17.9612 15.9375 17.7185 16.1802 17.7185 16.4795V17.6115C17.7185 17.9109 17.9612 18.1535 18.2605 18.1535Z" fill="black"/>
<path d="M5.51445 27.4638C6.12488 28.0742 6.9365 28.4104 7.79978 28.4104C8.66307 28.4104 9.47468 28.0742 10.0851 27.4638C10.2968 27.2521 10.2968 26.9089 10.0851 26.6974C9.87344 26.4856 9.53025 26.4857 9.31866 26.6974C8.91296 27.1031 8.37357 27.3265 7.79985 27.3265C7.22614 27.3265 6.68675 27.1031 6.28098 26.6974C6.06931 26.4857 5.72612 26.4857 5.51453 26.6974C5.30279 26.909 5.30279 27.2522 5.51445 27.4638V27.4638Z" fill="black"/>
<path d="M6.68469 25.1859V24.1533C6.68469 23.854 6.44202 23.6113 6.1427 23.6113C5.84338 23.6113 5.60071 23.854 5.60071 24.1533V25.1858C5.60071 25.4851 5.84338 25.7278 6.1427 25.7278C6.44202 25.7278 6.68469 25.4852 6.68469 25.1859V25.1859Z" fill="black"/>
<path d="M9.9989 25.1859V24.1533C9.9989 23.854 9.75623 23.6113 9.45691 23.6113C9.15758 23.6113 8.91492 23.854 8.91492 24.1533V25.1858C8.91492 25.4851 9.15758 25.7278 9.45691 25.7278C9.75623 25.7278 9.9989 25.4852 9.9989 25.1859V25.1859Z" fill="black"/>
</svg>
