<svg width="364" height="43" viewBox="0 0 364 43" fill="none" xmlns="http://www.w3.org/2000/svg">
<rect width="364" height="43" rx="7" fill="#A0B2EF"/>
<path d="M135.138 29H132.325L137.446 14.4545H140.699L145.827 29H143.014L139.129 17.4375H139.016L135.138 29ZM135.23 23.2969H142.9V25.4134H135.23V23.2969ZM151.145 29.1918C150.288 29.1918 149.521 28.9716 148.844 28.5312C148.167 28.0909 147.632 27.4517 147.239 26.6136C146.846 25.7756 146.649 24.7576 146.649 23.5597C146.649 22.3475 146.848 21.3248 147.246 20.4915C147.648 19.6534 148.191 19.0213 148.872 18.5952C149.554 18.1643 150.314 17.9489 151.152 17.9489C151.791 17.9489 152.317 18.0578 152.729 18.2756C153.141 18.4886 153.468 18.7467 153.709 19.0497C153.95 19.348 154.138 19.6297 154.27 19.8949H154.377V14.4545H156.955V29H154.426V27.2812H154.27C154.138 27.5464 153.946 27.8281 153.695 28.1264C153.444 28.42 153.112 28.6709 152.7 28.8793C152.289 29.0876 151.77 29.1918 151.145 29.1918ZM151.862 27.0824C152.407 27.0824 152.871 26.9356 153.254 26.642C153.638 26.3437 153.929 25.9295 154.128 25.3991C154.327 24.8688 154.426 24.2509 154.426 23.5455C154.426 22.84 154.327 22.2268 154.128 21.706C153.934 21.1851 153.645 20.7803 153.262 20.4915C152.883 20.2027 152.416 20.0582 151.862 20.0582C151.29 20.0582 150.811 20.2074 150.428 20.5057C150.044 20.804 149.755 21.2159 149.561 21.7415C149.367 22.267 149.27 22.8684 149.27 23.5455C149.27 24.2273 149.367 24.8357 149.561 25.3707C149.76 25.901 150.051 26.3201 150.435 26.6278C150.823 26.9309 151.299 27.0824 151.862 27.0824ZM163.543 29.1918C162.686 29.1918 161.919 28.9716 161.242 28.5312C160.565 28.0909 160.029 27.4517 159.637 26.6136C159.244 25.7756 159.047 24.7576 159.047 23.5597C159.047 22.3475 159.246 21.3248 159.644 20.4915C160.046 19.6534 160.588 19.0213 161.27 18.5952C161.952 18.1643 162.712 17.9489 163.55 17.9489C164.189 17.9489 164.715 18.0578 165.127 18.2756C165.538 18.4886 165.865 18.7467 166.107 19.0497C166.348 19.348 166.535 19.6297 166.668 19.8949H166.774V14.4545H169.352V29H166.824V27.2812H166.668C166.535 27.5464 166.343 27.8281 166.092 28.1264C165.842 28.42 165.51 28.6709 165.098 28.8793C164.686 29.0876 164.168 29.1918 163.543 29.1918ZM164.26 27.0824C164.805 27.0824 165.269 26.9356 165.652 26.642C166.036 26.3437 166.327 25.9295 166.526 25.3991C166.725 24.8688 166.824 24.2509 166.824 23.5455C166.824 22.84 166.725 22.2268 166.526 21.706C166.332 21.1851 166.043 20.7803 165.659 20.4915C165.28 20.2027 164.814 20.0582 164.26 20.0582C163.687 20.0582 163.209 20.2074 162.825 20.5057C162.442 20.804 162.153 21.2159 161.959 21.7415C161.765 22.267 161.668 22.8684 161.668 23.5455C161.668 24.2273 161.765 24.8357 161.959 25.3707C162.158 25.901 162.449 26.3201 162.833 26.6278C163.221 26.9309 163.697 27.0824 164.26 27.0824ZM189.217 19.3622H186.561C186.485 18.9266 186.345 18.5407 186.142 18.2045C185.938 17.8636 185.685 17.5748 185.382 17.3381C185.079 17.1013 184.733 16.9238 184.345 16.8054C183.961 16.6823 183.547 16.6207 183.102 16.6207C182.311 16.6207 181.61 16.8196 181 17.2173C180.389 17.6103 179.911 18.188 179.565 18.9503C179.219 19.7079 179.047 20.6335 179.047 21.7273C179.047 22.84 179.219 23.7775 179.565 24.5398C179.915 25.2973 180.394 25.8703 181 26.2585C181.61 26.642 182.309 26.8338 183.095 26.8338C183.53 26.8338 183.938 26.777 184.316 26.6634C184.7 26.545 185.043 26.3722 185.346 26.1449C185.654 25.9176 185.912 25.6383 186.12 25.3068C186.333 24.9754 186.48 24.5966 186.561 24.1705L189.217 24.1847C189.118 24.8759 188.902 25.5246 188.571 26.1307C188.244 26.7367 187.815 27.2718 187.285 27.7358C186.755 28.1951 186.135 28.5549 185.424 28.8153C184.714 29.071 183.926 29.1989 183.059 29.1989C181.781 29.1989 180.64 28.9029 179.636 28.3111C178.632 27.7192 177.842 26.8646 177.264 25.7472C176.686 24.6297 176.397 23.2898 176.397 21.7273C176.397 20.16 176.689 18.8201 177.271 17.7074C177.853 16.59 178.646 15.7353 179.65 15.1435C180.654 14.5516 181.79 14.2557 183.059 14.2557C183.869 14.2557 184.622 14.3693 185.318 14.5966C186.014 14.8239 186.634 15.1577 187.179 15.598C187.723 16.0336 188.171 16.5687 188.521 17.2031C188.876 17.8329 189.108 18.5526 189.217 19.3622ZM193.887 22.608V29H191.316V14.4545H193.831V19.9446H193.958C194.214 19.3291 194.609 18.8437 195.144 18.4886C195.684 18.1288 196.371 17.9489 197.204 17.9489C197.962 17.9489 198.622 18.1075 199.186 18.4247C199.749 18.742 200.185 19.206 200.492 19.8168C200.805 20.4276 200.961 21.1733 200.961 22.054V29H198.39V22.4517C198.39 21.7178 198.201 21.1473 197.822 20.7401C197.448 20.3281 196.922 20.1222 196.245 20.1222C195.791 20.1222 195.384 20.2216 195.024 20.4205C194.669 20.6146 194.389 20.8963 194.186 21.2656C193.987 21.6349 193.887 22.0824 193.887 22.608ZM208.14 29.2131C207.075 29.2131 206.152 28.9787 205.371 28.5099C204.589 28.0412 203.983 27.3854 203.552 26.5426C203.126 25.6998 202.913 24.715 202.913 23.5881C202.913 22.4612 203.126 21.474 203.552 20.6264C203.983 19.7789 204.589 19.1207 205.371 18.652C206.152 18.1832 207.075 17.9489 208.14 17.9489C209.206 17.9489 210.129 18.1832 210.91 18.652C211.692 19.1207 212.295 19.7789 212.721 20.6264C213.152 21.474 213.368 22.4612 213.368 23.5881C213.368 24.715 213.152 25.6998 212.721 26.5426C212.295 27.3854 211.692 28.0412 210.91 28.5099C210.129 28.9787 209.206 29.2131 208.14 29.2131ZM208.155 27.1534C208.732 27.1534 209.215 26.9948 209.604 26.6776C209.992 26.3556 210.281 25.9247 210.47 25.3849C210.664 24.8452 210.761 24.2438 210.761 23.581C210.761 22.9134 210.664 22.3097 210.47 21.7699C210.281 21.2254 209.992 20.7921 209.604 20.4702C209.215 20.1482 208.732 19.9872 208.155 19.9872C207.563 19.9872 207.07 20.1482 206.677 20.4702C206.289 20.7921 205.998 21.2254 205.804 21.7699C205.614 22.3097 205.52 22.9134 205.52 23.581C205.52 24.2438 205.614 24.8452 205.804 25.3849C205.998 25.9247 206.289 26.3556 206.677 26.6776C207.07 26.9948 207.563 27.1534 208.155 27.1534ZM215.35 29V18.0909H217.843V19.9091H217.956C218.155 19.2794 218.496 18.794 218.979 18.4531C219.467 18.1075 220.023 17.9347 220.648 17.9347C220.79 17.9347 220.949 17.9418 221.124 17.956C221.304 17.9654 221.453 17.982 221.572 18.0057V20.3707C221.463 20.3329 221.29 20.2997 221.053 20.2713C220.821 20.2382 220.596 20.2216 220.378 20.2216C219.91 20.2216 219.488 20.3234 219.114 20.527C218.745 20.7259 218.454 21.0028 218.241 21.358C218.027 21.7131 217.921 22.1226 217.921 22.5866V29H215.35ZM227.46 29.2131C226.366 29.2131 225.422 28.9858 224.626 28.5312C223.835 28.072 223.227 27.4233 222.801 26.5852C222.375 25.7424 222.162 24.7505 222.162 23.6094C222.162 22.4872 222.375 21.5024 222.801 20.6548C223.232 19.8026 223.833 19.1397 224.605 18.6662C225.377 18.188 226.283 17.9489 227.325 17.9489C227.997 17.9489 228.632 18.0578 229.228 18.2756C229.83 18.4886 230.36 18.8201 230.819 19.2699C231.283 19.7197 231.648 20.2926 231.913 20.9886C232.178 21.6799 232.311 22.5038 232.311 23.4602V24.2486H223.369V22.5156H229.846C229.842 22.0232 229.735 21.5852 229.527 21.2017C229.318 20.8134 229.027 20.508 228.653 20.2855C228.284 20.063 227.853 19.9517 227.361 19.9517C226.835 19.9517 226.373 20.0795 225.976 20.3352C225.578 20.5862 225.268 20.9176 225.045 21.3295C224.827 21.7367 224.716 22.1842 224.711 22.6719V24.1847C224.711 24.8191 224.827 25.3636 225.059 25.8182C225.291 26.268 225.616 26.6136 226.032 26.8551C226.449 27.0919 226.937 27.2102 227.495 27.2102C227.87 27.2102 228.208 27.1581 228.511 27.054C228.814 26.9451 229.077 26.7865 229.299 26.5781C229.522 26.3698 229.69 26.1117 229.804 25.804L232.204 26.0739C232.053 26.7083 231.764 27.2623 231.338 27.7358C230.916 28.2045 230.377 28.5691 229.718 28.8295C229.06 29.0852 228.307 29.2131 227.46 29.2131Z" fill="white"/>
</svg>
