<svg width="316" height="63" viewBox="0 0 316 63" fill="none" xmlns="http://www.w3.org/2000/svg">
<rect opacity="0.16" x="0.5" y="7.5" width="315" height="55" rx="7.5" stroke="#263238"/>
<rect x="12" width="78" height="17" fill="white"/>
<path d="M13.1591 12V3.27273H18.2216V3.98864H13.956V7.27415H17.9531V7.99006H13.956V11.2841H18.3068V12H13.1591ZM20.1264 12V5.45455H20.8636V6.46023H20.9318C21.0625 6.12216 21.2798 5.85653 21.5838 5.66335C21.8906 5.46733 22.2585 5.36932 22.6875 5.36932C23.1392 5.36932 23.5099 5.47585 23.7997 5.68892C24.0923 5.89915 24.3111 6.18892 24.456 6.55824H24.5114C24.6591 6.1946 24.8991 5.90625 25.2315 5.69318C25.5668 5.47727 25.973 5.36932 26.4503 5.36932C27.0582 5.36932 27.5384 5.56108 27.8906 5.9446C28.2429 6.32528 28.419 6.8821 28.419 7.61506V12H27.6605V7.61506C27.6605 7.09801 27.5284 6.71023 27.2642 6.4517C27 6.19318 26.652 6.06392 26.2202 6.06392C25.7202 6.06392 25.3352 6.21733 25.0653 6.52415C24.7955 6.83097 24.6605 7.22017 24.6605 7.69176V12H23.8849V7.54688C23.8849 7.10369 23.7614 6.74574 23.5142 6.47301C23.267 6.20028 22.919 6.06392 22.4702 6.06392C22.169 6.06392 21.8977 6.13778 21.6562 6.28551C21.4176 6.43324 21.2287 6.6392 21.0895 6.90341C20.9531 7.16477 20.8849 7.46591 20.8849 7.80682V12H20.1264ZM32.2553 12.1491C31.8604 12.1491 31.4996 12.0724 31.1729 11.919C30.8462 11.7628 30.5863 11.5384 30.3931 11.2457C30.1999 10.9503 30.1033 10.5923 30.1033 10.1719C30.1033 9.84801 30.1644 9.57528 30.2866 9.35369C30.4087 9.1321 30.582 8.95028 30.8065 8.80824C31.0309 8.66619 31.2965 8.55398 31.6033 8.47159C31.9102 8.3892 32.2482 8.32528 32.6175 8.27983C32.984 8.23437 33.2937 8.1946 33.5465 8.16051C33.8022 8.12642 33.9968 8.07244 34.1303 7.99858C34.2638 7.92472 34.3306 7.8054 34.3306 7.64062V7.48722C34.3306 7.04119 34.1971 6.69034 33.93 6.43466C33.6658 6.17614 33.2852 6.04688 32.788 6.04688C32.3164 6.04688 31.9315 6.15057 31.6332 6.35795C31.3377 6.56534 31.1303 6.80966 31.011 7.09091L30.2908 6.83097C30.4386 6.47301 30.6431 6.1875 30.9045 5.97443C31.1658 5.75852 31.4585 5.60369 31.7823 5.50994C32.1062 5.41335 32.4343 5.36506 32.7667 5.36506C33.0167 5.36506 33.2766 5.39773 33.5465 5.46307C33.8192 5.52841 34.0721 5.64205 34.305 5.80398C34.538 5.96307 34.7269 6.18608 34.8718 6.47301C35.0167 6.7571 35.0891 7.1179 35.0891 7.5554V12H34.3306V10.9645H34.2837C34.1928 11.1577 34.0579 11.3452 33.8789 11.527C33.6999 11.7088 33.4755 11.858 33.2056 11.9744C32.9357 12.0909 32.619 12.1491 32.2553 12.1491ZM32.3576 11.4545C32.761 11.4545 33.1104 11.3651 33.4059 11.1861C33.7013 11.0071 33.9286 10.7699 34.0877 10.4744C34.2496 10.1761 34.3306 9.84801 34.3306 9.49006V8.54403C34.2738 8.59801 34.1786 8.64631 34.0451 8.68892C33.9144 8.73153 33.7624 8.76989 33.5891 8.80398C33.4187 8.83523 33.2482 8.86222 33.0778 8.88494C32.9073 8.90767 32.7539 8.92756 32.6175 8.9446C32.2482 8.99006 31.9329 9.06108 31.6715 9.15767C31.4102 9.25426 31.2099 9.38778 31.0707 9.55824C30.9315 9.72585 30.8619 9.94176 30.8619 10.206C30.8619 10.6037 31.0039 10.9119 31.288 11.1307C31.5721 11.3466 31.9286 11.4545 32.3576 11.4545ZM37.1154 12V5.45455H37.8782V12H37.1154ZM37.5032 4.32955C37.3469 4.32955 37.2134 4.27699 37.1026 4.17188C36.9918 4.06392 36.9364 3.93466 36.9364 3.78409C36.9364 3.63352 36.9918 3.50568 37.1026 3.40057C37.2134 3.29261 37.3469 3.23864 37.5032 3.23864C37.6594 3.23864 37.793 3.29261 37.9038 3.40057C38.0146 3.50568 38.07 3.63352 38.07 3.78409C38.07 3.93466 38.0146 4.06392 37.9038 4.17188C37.793 4.27699 37.6594 4.32955 37.5032 4.32955ZM40.6428 3.27273V12H39.8842V3.27273H40.6428ZM47.853 12.1491C47.4581 12.1491 47.0973 12.0724 46.7706 11.919C46.4439 11.7628 46.1839 11.5384 45.9908 11.2457C45.7976 10.9503 45.701 10.5923 45.701 10.1719C45.701 9.84801 45.7621 9.57528 45.8842 9.35369C46.0064 9.1321 46.1797 8.95028 46.4041 8.80824C46.6286 8.66619 46.8942 8.55398 47.201 8.47159C47.5078 8.3892 47.8459 8.32528 48.2152 8.27983C48.5817 8.23437 48.8913 8.1946 49.1442 8.16051C49.3999 8.12642 49.5945 8.07244 49.728 7.99858C49.8615 7.92472 49.9283 7.8054 49.9283 7.64062V7.48722C49.9283 7.04119 49.7947 6.69034 49.5277 6.43466C49.2635 6.17614 48.8828 6.04688 48.3857 6.04688C47.9141 6.04688 47.5291 6.15057 47.2308 6.35795C46.9354 6.56534 46.728 6.80966 46.6087 7.09091L45.8885 6.83097C46.0362 6.47301 46.2408 6.1875 46.5021 5.97443C46.7635 5.75852 47.0561 5.60369 47.38 5.50994C47.7038 5.41335 48.032 5.36506 48.3643 5.36506C48.6143 5.36506 48.8743 5.39773 49.1442 5.46307C49.4169 5.52841 49.6697 5.64205 49.9027 5.80398C50.1357 5.96307 50.3246 6.18608 50.4695 6.47301C50.6143 6.7571 50.6868 7.1179 50.6868 7.5554V12H49.9283V10.9645H49.8814C49.7905 11.1577 49.6555 11.3452 49.4766 11.527C49.2976 11.7088 49.0732 11.858 48.8033 11.9744C48.5334 12.0909 48.2166 12.1491 47.853 12.1491ZM47.9553 11.4545C48.3587 11.4545 48.7081 11.3651 49.0036 11.1861C49.299 11.0071 49.5263 10.7699 49.6854 10.4744C49.8473 10.1761 49.9283 9.84801 49.9283 9.49006V8.54403C49.8714 8.59801 49.7763 8.64631 49.6428 8.68892C49.5121 8.73153 49.3601 8.76989 49.1868 8.80398C49.0163 8.83523 48.8459 8.86222 48.6754 8.88494C48.505 8.90767 48.3516 8.92756 48.2152 8.9446C47.8459 8.99006 47.5305 9.06108 47.2692 9.15767C47.0078 9.25426 46.8075 9.38778 46.6683 9.55824C46.5291 9.72585 46.4595 9.94176 46.4595 10.206C46.4595 10.6037 46.6016 10.9119 46.8857 11.1307C47.1697 11.3466 47.5263 11.4545 47.9553 11.4545ZM55.0611 12.1364C54.5241 12.1364 54.054 11.9943 53.6506 11.7102C53.2472 11.4261 52.9318 11.0298 52.7045 10.5213C52.4801 10.0128 52.3679 9.42045 52.3679 8.74432C52.3679 8.07102 52.4801 7.48153 52.7045 6.97585C52.9318 6.46733 53.2486 6.07244 53.6548 5.79119C54.0611 5.5071 54.5341 5.36506 55.0739 5.36506C55.4716 5.36506 55.8026 5.43608 56.0668 5.57812C56.331 5.71733 56.5426 5.89062 56.7017 6.09801C56.8608 6.3054 56.9844 6.5071 57.0724 6.70312H57.1406V3.27273H57.9034V12H57.1619V10.7855H57.0724C56.9844 10.9844 56.8594 11.1889 56.6974 11.3991C56.5355 11.6065 56.321 11.7812 56.054 11.9233C55.7898 12.0653 55.4588 12.1364 55.0611 12.1364ZM55.1506 11.4418C55.5739 11.4418 55.9347 11.3267 56.233 11.0966C56.5313 10.8636 56.7585 10.544 56.9148 10.1378C57.0739 9.72869 57.1534 9.25994 57.1534 8.73153C57.1534 8.20881 57.0753 7.74716 56.919 7.34659C56.7628 6.94318 56.5355 6.62784 56.2372 6.40057C55.9389 6.17045 55.5767 6.0554 55.1506 6.0554C54.7131 6.0554 54.3438 6.17472 54.0426 6.41335C53.7443 6.64915 53.517 6.96875 53.3608 7.37216C53.2074 7.77557 53.1307 8.22869 53.1307 8.73153C53.1307 9.24006 53.2088 9.69886 53.3651 10.108C53.5213 10.517 53.7486 10.8423 54.0469 11.0838C54.348 11.3224 54.7159 11.4418 55.1506 11.4418ZM62.4205 12.1364C61.8835 12.1364 61.4134 11.9943 61.0099 11.7102C60.6065 11.4261 60.2912 11.0298 60.0639 10.5213C59.8395 10.0128 59.7273 9.42045 59.7273 8.74432C59.7273 8.07102 59.8395 7.48153 60.0639 6.97585C60.2912 6.46733 60.608 6.07244 61.0142 5.79119C61.4205 5.5071 61.8935 5.36506 62.4332 5.36506C62.831 5.36506 63.1619 5.43608 63.4261 5.57812C63.6903 5.71733 63.902 5.89062 64.0611 6.09801C64.2202 6.3054 64.3438 6.5071 64.4318 6.70312H64.5V3.27273H65.2628V12H64.5213V10.7855H64.4318C64.3438 10.9844 64.2188 11.1889 64.0568 11.3991C63.8949 11.6065 63.6804 11.7812 63.4134 11.9233C63.1491 12.0653 62.8182 12.1364 62.4205 12.1364ZM62.5099 11.4418C62.9332 11.4418 63.294 11.3267 63.5923 11.0966C63.8906 10.8636 64.1179 10.544 64.2741 10.1378C64.4332 9.72869 64.5128 9.25994 64.5128 8.73153C64.5128 8.20881 64.4347 7.74716 64.2784 7.34659C64.1222 6.94318 63.8949 6.62784 63.5966 6.40057C63.2983 6.17045 62.9361 6.0554 62.5099 6.0554C62.0724 6.0554 61.7031 6.17472 61.402 6.41335C61.1037 6.64915 60.8764 6.96875 60.7202 7.37216C60.5668 7.77557 60.4901 8.22869 60.4901 8.73153C60.4901 9.24006 60.5682 9.69886 60.7244 10.108C60.8807 10.517 61.108 10.8423 61.4062 11.0838C61.7074 11.3224 62.0753 11.4418 62.5099 11.4418ZM67.4233 12V5.45455H68.1605V6.46023H68.2159C68.3466 6.13068 68.5739 5.86506 68.8977 5.66335C69.2244 5.45881 69.5938 5.35653 70.0057 5.35653C70.0682 5.35653 70.1378 5.35795 70.2145 5.3608C70.2912 5.36364 70.3551 5.36648 70.4062 5.36932V6.14062C70.3722 6.13494 70.3125 6.12642 70.2273 6.11506C70.142 6.10369 70.0497 6.09801 69.9503 6.09801C69.6094 6.09801 69.3054 6.17045 69.0384 6.31534C68.7741 6.45739 68.5653 6.65483 68.4119 6.90767C68.2585 7.16051 68.1818 7.44886 68.1818 7.77273V12H67.4233ZM74.1477 12.1364C73.5369 12.1364 73.0085 11.9943 72.5625 11.7102C72.1165 11.4233 71.7713 11.027 71.527 10.5213C71.2855 10.0128 71.1648 9.42756 71.1648 8.76562C71.1648 8.10653 71.2855 7.52131 71.527 7.00994C71.7713 6.49574 72.108 6.09375 72.5369 5.80398C72.9688 5.51136 73.4673 5.36506 74.0327 5.36506C74.3878 5.36506 74.7301 5.4304 75.0597 5.56108C75.3892 5.68892 75.6847 5.88636 75.946 6.15341C76.2102 6.41761 76.419 6.75142 76.5724 7.15483C76.7259 7.5554 76.8026 8.02983 76.8026 8.57812V8.95312H71.6889V8.28409H76.027C76.027 7.86364 75.9418 7.4858 75.7713 7.15057C75.6037 6.8125 75.3693 6.54545 75.0682 6.34943C74.7699 6.15341 74.4247 6.0554 74.0327 6.0554C73.6179 6.0554 73.2528 6.16619 72.9375 6.38778C72.6222 6.60937 72.375 6.90199 72.196 7.26562C72.0199 7.62926 71.9304 8.02699 71.9276 8.45881V8.85938C71.9276 9.37926 72.017 9.83381 72.196 10.223C72.3778 10.6094 72.6349 10.9091 72.9673 11.1222C73.2997 11.3352 73.6932 11.4418 74.1477 11.4418C74.4574 11.4418 74.7287 11.3935 74.9616 11.2969C75.1974 11.2003 75.3949 11.071 75.554 10.9091C75.7159 10.7443 75.8381 10.5639 75.9205 10.3679L76.6406 10.6023C76.5412 10.8778 76.3778 11.1321 76.1506 11.3651C75.9261 11.598 75.6449 11.7855 75.3068 11.9276C74.9716 12.0668 74.5852 12.1364 74.1477 12.1364ZM82.8718 6.89062L82.1772 7.08665C82.109 6.89062 82.0124 6.71307 81.8874 6.55398C81.7624 6.39489 81.5991 6.26847 81.3974 6.17472C81.1985 6.08097 80.9513 6.03409 80.6559 6.03409C80.2127 6.03409 79.8491 6.1392 79.565 6.34943C79.2809 6.55966 79.1388 6.83097 79.1388 7.16335C79.1388 7.4446 79.2354 7.6733 79.4286 7.84943C79.6246 8.02273 79.9258 8.16051 80.332 8.26278L81.3207 8.50568C81.869 8.6392 82.2795 8.85085 82.5522 9.14062C82.8278 9.4304 82.9656 9.79403 82.9656 10.2315C82.9656 10.6009 82.8633 10.929 82.6587 11.2159C82.4542 11.5028 82.1687 11.7287 81.8022 11.8935C81.4386 12.0554 81.0167 12.1364 80.5366 12.1364C79.8974 12.1364 79.3704 11.9929 78.9556 11.706C78.5408 11.4162 78.2752 10.9986 78.1587 10.4531L78.8874 10.2741C78.9812 10.6634 79.1644 10.9574 79.4371 11.1562C79.7127 11.3551 80.0749 11.4545 80.5238 11.4545C81.0266 11.4545 81.4286 11.3423 81.7298 11.1179C82.0309 10.8906 82.1815 10.6065 82.1815 10.2656C82.1815 10.0014 82.0934 9.77983 81.9173 9.60085C81.7411 9.41903 81.4741 9.28551 81.1161 9.20028L80.0465 8.9446C79.4783 8.80824 79.0579 8.59233 78.7852 8.29688C78.5124 8.00142 78.3761 7.63494 78.3761 7.19744C78.3761 6.83665 78.4741 6.51989 78.6701 6.24716C78.8661 5.97159 79.136 5.75568 79.4798 5.59943C79.8235 5.44318 80.2156 5.36506 80.6559 5.36506C81.2553 5.36506 81.734 5.50142 82.092 5.77415C82.4528 6.04403 82.7127 6.41619 82.8718 6.89062ZM89.0241 6.89062L88.3295 7.08665C88.2614 6.89062 88.1648 6.71307 88.0398 6.55398C87.9148 6.39489 87.7514 6.26847 87.5497 6.17472C87.3509 6.08097 87.1037 6.03409 86.8082 6.03409C86.3651 6.03409 86.0014 6.1392 85.7173 6.34943C85.4332 6.55966 85.2912 6.83097 85.2912 7.16335C85.2912 7.4446 85.3878 7.6733 85.581 7.84943C85.777 8.02273 86.0781 8.16051 86.4844 8.26278L87.473 8.50568C88.0213 8.6392 88.4318 8.85085 88.7045 9.14062C88.9801 9.4304 89.1179 9.79403 89.1179 10.2315C89.1179 10.6009 89.0156 10.929 88.8111 11.2159C88.6065 11.5028 88.321 11.7287 87.9545 11.8935C87.5909 12.0554 87.169 12.1364 86.6889 12.1364C86.0497 12.1364 85.5227 11.9929 85.108 11.706C84.6932 11.4162 84.4276 10.9986 84.3111 10.4531L85.0398 10.2741C85.1335 10.6634 85.3168 10.9574 85.5895 11.1562C85.8651 11.3551 86.2273 11.4545 86.6761 11.4545C87.179 11.4545 87.581 11.3423 87.8821 11.1179C88.1832 10.8906 88.3338 10.6065 88.3338 10.2656C88.3338 10.0014 88.2457 9.77983 88.0696 9.60085C87.8935 9.41903 87.6264 9.28551 87.2685 9.20028L86.1989 8.9446C85.6307 8.80824 85.2102 8.59233 84.9375 8.29688C84.6648 8.00142 84.5284 7.63494 84.5284 7.19744C84.5284 6.83665 84.6264 6.51989 84.8224 6.24716C85.0185 5.97159 85.2884 5.75568 85.6321 5.59943C85.9759 5.44318 86.3679 5.36506 86.8082 5.36506C87.4077 5.36506 87.8864 5.50142 88.2443 5.77415C88.6051 6.04403 88.8651 6.41619 89.0241 6.89062Z" fill="black"/>
</svg>
