<svg width="372" height="35" viewBox="0 0 372 35" fill="none" xmlns="http://www.w3.org/2000/svg">
<g filter="url(#filter0_d_430_288)">
<path d="M360 0H12C7.58172 0 4 3.58172 4 8V19C4 23.4183 7.58172 27 12 27H360C364.418 27 368 23.4183 368 19V8C368 3.58172 364.418 0 360 0Z" fill="#FBFBFB"/>
<path d="M12 0.5H360C364.142 0.5 367.5 3.85786 367.5 8V19C367.5 23.1421 364.142 26.5 360 26.5H12C7.85786 26.5 4.5 23.1421 4.5 19V8C4.5 3.85786 7.85786 0.5 12 0.5Z" stroke="#DBDBDB"/>
</g>
<path d="M152.201 18V8.54545H157.907V9.56108H153.346V12.7557H157.612V13.7713H153.346V16.9844H157.981V18H152.201ZM162.371 18.1477C161.78 18.1477 161.258 17.9985 160.806 17.6999C160.353 17.3983 159.999 16.9736 159.744 16.4258C159.488 15.8749 159.361 15.224 159.361 14.473C159.361 13.7282 159.488 13.0819 159.744 12.5341C159.999 11.9863 160.355 11.5631 160.81 11.2646C161.266 10.966 161.792 10.8168 162.389 10.8168C162.851 10.8168 163.215 10.8937 163.483 11.0476C163.754 11.1984 163.96 11.3707 164.102 11.5646C164.246 11.7554 164.359 11.9124 164.439 12.0355H164.531V8.54545H165.621V18H164.568V16.9105H164.439C164.359 17.0398 164.245 17.2029 164.097 17.3999C163.949 17.5937 163.739 17.7676 163.465 17.9215C163.191 18.0723 162.826 18.1477 162.371 18.1477ZM162.518 17.169C162.955 17.169 163.325 17.0552 163.626 16.8274C163.928 16.5966 164.157 16.2781 164.314 15.8718C164.471 15.4625 164.549 14.9901 164.549 14.4545C164.549 13.9252 164.473 13.462 164.319 13.065C164.165 12.6649 163.937 12.354 163.635 12.1325C163.334 11.9078 162.961 11.7955 162.518 11.7955C162.057 11.7955 161.672 11.9139 161.364 12.1509C161.059 12.3848 160.83 12.7034 160.676 13.1065C160.525 13.5066 160.45 13.956 160.45 14.4545C160.45 14.9593 160.527 15.4179 160.681 15.8303C160.838 16.2396 161.069 16.5658 161.373 16.8089C161.681 17.049 162.063 17.169 162.518 17.169ZM167.637 18V10.9091H168.727V18H167.637ZM168.191 9.72727C167.979 9.72727 167.796 9.65495 167.642 9.5103C167.491 9.36565 167.416 9.19176 167.416 8.98864C167.416 8.78551 167.491 8.61162 167.642 8.46697C167.796 8.32232 167.979 8.25 168.191 8.25C168.404 8.25 168.585 8.32232 168.736 8.46697C168.89 8.61162 168.967 8.78551 168.967 8.98864C168.967 9.19176 168.89 9.36565 168.736 9.5103C168.585 9.65495 168.404 9.72727 168.191 9.72727ZM173.676 10.9091V11.8324H170.001V10.9091H173.676ZM171.072 9.21023H172.162V15.9688C172.162 16.2765 172.206 16.5073 172.296 16.6612C172.388 16.812 172.505 16.9136 172.646 16.9659C172.791 17.0152 172.943 17.0398 173.104 17.0398C173.224 17.0398 173.322 17.0336 173.399 17.0213C173.476 17.0059 173.537 16.9936 173.584 16.9844L173.805 17.9631C173.731 17.9908 173.628 18.0185 173.496 18.0462C173.364 18.0769 173.196 18.0923 172.993 18.0923C172.685 18.0923 172.383 18.0262 172.088 17.8938C171.796 17.7615 171.552 17.5599 171.358 17.2891C171.168 17.0182 171.072 16.6766 171.072 16.2642V9.21023ZM178.859 18V8.54545H182.053C182.795 8.54545 183.401 8.67933 183.872 8.94709C184.346 9.21177 184.697 9.57031 184.925 10.0227C185.153 10.4751 185.266 10.9799 185.266 11.5369C185.266 12.094 185.153 12.6003 184.925 13.0558C184.7 13.5112 184.352 13.8744 183.882 14.1452C183.411 14.413 182.807 14.5469 182.072 14.5469H179.782V13.5312H182.035C182.543 13.5312 182.951 13.4435 183.258 13.2681C183.566 13.0927 183.789 12.8557 183.928 12.5572C184.069 12.2556 184.14 11.9155 184.14 11.5369C184.14 11.1584 184.069 10.8198 183.928 10.5213C183.789 10.2228 183.565 9.98887 183.254 9.8196C182.943 9.64725 182.53 9.56108 182.016 9.56108H180.004V18H178.859ZM186.833 18V10.9091H187.886V11.9801H187.959C188.089 11.6293 188.323 11.3446 188.661 11.1261C189 10.9076 189.381 10.7983 189.806 10.7983C189.886 10.7983 189.986 10.7998 190.106 10.8029C190.226 10.806 190.317 10.8106 190.378 10.8168V11.9247C190.342 11.9155 190.257 11.9016 190.125 11.8832C189.995 11.8616 189.858 11.8509 189.714 11.8509C189.369 11.8509 189.061 11.9232 188.79 12.0678C188.523 12.2094 188.31 12.4064 188.153 12.6587C187.999 12.908 187.922 13.1927 187.922 13.5128V18H186.833ZM194.205 18.1477C193.565 18.1477 193.003 17.9954 192.52 17.6907C192.04 17.386 191.664 16.9598 191.393 16.4119C191.126 15.8641 190.992 15.224 190.992 14.4915C190.992 13.7528 191.126 13.1081 191.393 12.5572C191.664 12.0063 192.04 11.5785 192.52 11.2738C193.003 10.9691 193.565 10.8168 194.205 10.8168C194.845 10.8168 195.405 10.9691 195.885 11.2738C196.368 11.5785 196.744 12.0063 197.012 12.5572C197.282 13.1081 197.418 13.7528 197.418 14.4915C197.418 15.224 197.282 15.8641 197.012 16.4119C196.744 16.9598 196.368 17.386 195.885 17.6907C195.405 17.9954 194.845 18.1477 194.205 18.1477ZM194.205 17.169C194.691 17.169 195.091 17.0444 195.405 16.7951C195.719 16.5458 195.951 16.218 196.102 15.8118C196.253 15.4055 196.328 14.9654 196.328 14.4915C196.328 14.0175 196.253 13.5759 196.102 13.1665C195.951 12.7572 195.719 12.4264 195.405 12.174C195.091 11.9216 194.691 11.7955 194.205 11.7955C193.719 11.7955 193.318 11.9216 193.004 12.174C192.691 12.4264 192.458 12.7572 192.307 13.1665C192.157 13.5759 192.081 14.0175 192.081 14.4915C192.081 14.9654 192.157 15.4055 192.307 15.8118C192.458 16.218 192.691 16.5458 193.004 16.7951C193.318 17.0444 193.719 17.169 194.205 17.169ZM202.109 10.9091V11.8324H198.286V10.9091H202.109ZM199.431 18V9.9304C199.431 9.52415 199.526 9.18561 199.717 8.91477C199.908 8.64394 200.156 8.44081 200.461 8.3054C200.765 8.16998 201.087 8.10227 201.425 8.10227C201.693 8.10227 201.912 8.12382 202.081 8.1669C202.25 8.20999 202.376 8.25 202.459 8.28693L202.146 9.22869C202.09 9.21023 202.013 9.18714 201.915 9.15945C201.819 9.13175 201.693 9.1179 201.536 9.1179C201.176 9.1179 200.916 9.20869 200.756 9.39027C200.599 9.57185 200.521 9.83807 200.521 10.1889V18H199.431ZM203.506 18V10.9091H204.595V18H203.506ZM204.059 9.72727C203.847 9.72727 203.664 9.65495 203.51 9.5103C203.359 9.36565 203.284 9.19176 203.284 8.98864C203.284 8.78551 203.359 8.61162 203.51 8.46697C203.664 8.32232 203.847 8.25 204.059 8.25C204.272 8.25 204.453 8.32232 204.604 8.46697C204.758 8.61162 204.835 8.78551 204.835 8.98864C204.835 9.19176 204.758 9.36565 204.604 9.5103C204.453 9.65495 204.272 9.72727 204.059 9.72727ZM207.55 8.54545V18H206.46V8.54545H207.55ZM212.388 18.1477C211.705 18.1477 211.116 17.9969 210.62 17.6953C210.128 17.3906 209.748 16.9659 209.48 16.4212C209.215 15.8733 209.083 15.2363 209.083 14.5099C209.083 13.7836 209.215 13.1435 209.48 12.5895C209.748 12.0324 210.12 11.5985 210.597 11.2876C211.077 10.9737 211.637 10.8168 212.278 10.8168C212.647 10.8168 213.012 10.8783 213.372 11.0014C213.732 11.1245 214.06 11.3246 214.355 11.6016C214.651 11.8755 214.886 12.2386 215.061 12.6911C215.237 13.1435 215.325 13.7005 215.325 14.3622V14.8239H209.859V13.8821H214.217C214.217 13.482 214.137 13.125 213.976 12.8111C213.82 12.4972 213.595 12.2494 213.302 12.0678C213.013 11.8862 212.672 11.7955 212.278 11.7955C211.844 11.7955 211.468 11.9032 211.151 12.1186C210.837 12.331 210.596 12.608 210.426 12.9496C210.257 13.2912 210.173 13.6574 210.173 14.0483V14.6761C210.173 15.2116 210.265 15.6656 210.45 16.038C210.637 16.4073 210.897 16.6889 211.23 16.8828C211.562 17.0736 211.948 17.169 212.388 17.169C212.675 17.169 212.933 17.129 213.164 17.049C213.398 16.9659 213.599 16.8428 213.769 16.6797C213.938 16.5135 214.069 16.3073 214.161 16.0611L215.214 16.3565C215.103 16.7135 214.917 17.0275 214.655 17.2983C214.394 17.5661 214.07 17.7753 213.686 17.9261C213.301 18.0739 212.869 18.1477 212.388 18.1477Z" fill="black"/>
<defs>
<filter id="filter0_d_430_288" x="0" y="0" width="372" height="35" filterUnits="userSpaceOnUse" color-interpolation-filters="sRGB">
<feFlood flood-opacity="0" result="BackgroundImageFix"/>
<feColorMatrix in="SourceAlpha" type="matrix" values="0 0 0 0 0 0 0 0 0 0 0 0 0 0 0 0 0 0 127 0" result="hardAlpha"/>
<feOffset dy="4"/>
<feGaussianBlur stdDeviation="2"/>
<feComposite in2="hardAlpha" operator="out"/>
<feColorMatrix type="matrix" values="0 0 0 0 0 0 0 0 0 0 0 0 0 0 0 0 0 0 0.25 0"/>
<feBlend mode="normal" in2="BackgroundImageFix" result="effect1_dropShadow_430_288"/>
<feBlend mode="normal" in="SourceGraphic" in2="effect1_dropShadow_430_288" result="shape"/>
</filter>
</defs>
</svg>
