<svg width="37" height="38" viewBox="0 0 37 38" fill="none" xmlns="http://www.w3.org/2000/svg">
<path d="M23.125 36.8127H19.6562V36.3377C19.6562 34.5802 20.2633 32.9414 21.2866 31.653C21.9861 30.7802 22.8764 30.0736 23.8997 29.5986L24.8594 32.0627L27.75 30.8752L30.6406 32.0627L31.6003 29.5986C34.1383 30.7683 35.8438 33.3808 35.8438 36.3377V36.8127H32.375H23.125Z" fill="#75B1F2"/>
<path d="M31.6003 29.5984L30.6406 32.0625L27.75 30.875L30.0625 29.0938C30.6002 29.2066 31.1147 29.3787 31.6003 29.5984Z" fill="#5D9CEC"/>
<path d="M27.75 30.875L24.8593 32.0625L23.8997 29.5984C24.3853 29.3787 24.8998 29.2066 25.4375 29.0938L27.75 30.875Z" fill="#5D9CEC"/>
<path d="M13.875 36.8125H4.625H1.15625V36.3375C1.15625 34.58 1.76328 32.9413 2.78656 31.6528C2.97156 31.4213 3.16813 31.2075 3.37625 30.9997C4.34172 30.0556 5.56156 29.3787 6.9375 29.0938V30.875C6.9375 31.5281 7.45781 32.0625 8.09375 32.0625H10.4062C11.0422 32.0625 11.5625 31.5281 11.5625 30.875V29.0938C12.9384 29.3787 14.1583 30.0556 15.1237 30.9997C15.3319 31.2075 15.5284 31.4213 15.7134 31.6528C16.7367 32.9413 17.3438 34.58 17.3438 36.3375V36.8125H13.875Z" fill="#FF826E"/>
<path d="M23.4372 24.0471C23.5644 25.5967 24.6397 26.8436 26.0503 27.2058L25.6283 28.5002H16.7656C16.0141 27.3364 15.6094 25.9767 15.6094 24.5755V20.7814C15.6094 19.5761 15.2221 18.4658 14.563 17.5752L14.5688 17.5692C14.5919 17.5574 14.615 17.5514 14.6381 17.5396L16.1875 20.1877L18.5 18.4064L20.8125 20.1877L21.0611 19.7602C21.1421 19.9027 21.2346 20.0274 21.3502 20.1461L21.645 20.4489C21.142 20.7577 20.8125 21.3217 20.8125 21.9689C20.8125 22.4617 21.0091 22.907 21.3213 23.2277C21.6335 23.5483 22.0671 23.7502 22.5469 23.7502H23.4141L23.4372 24.0471Z" fill="#B4DD7F"/>
<path d="M21.6277 17.2543C21.1189 17.6046 20.8125 18.1865 20.8125 18.8158C20.8125 19.1543 20.8992 19.4749 21.0611 19.7599L20.8125 20.1874L18.5 18.4062L21.1998 16.7437H21.2056C21.3617 16.9099 21.5409 17.0583 21.7259 17.189L21.6277 17.2543Z" fill="#A0D468"/>
<path d="M18.5001 18.4062L16.1876 20.1875L14.6382 17.5394C15.0718 17.3553 15.4649 17.0881 15.7944 16.7378L15.8002 16.7437L18.5001 18.4062Z" fill="#A0D468"/>
<path d="M4.17984 17.2661C3.37625 18.2042 2.89062 19.4333 2.89062 20.7811V24.5752C2.89062 25.9764 2.48594 27.3361 1.73438 28.4999H0.578125V19.5936C0.578125 19.1008 0.774687 18.6555 1.08687 18.3349C1.39906 18.0142 1.83266 17.8124 2.3125 17.8124C2.98891 17.8124 3.63062 17.6164 4.17406 17.2661H4.17984Z" fill="#75B1F2"/>
<path d="M16.7656 28.5L16.7078 28.6841C16.4014 29.6222 15.8406 30.4178 15.1237 30.9997C14.1583 30.0556 12.9384 29.3787 11.5625 29.0938L10.8456 26.8909C11.0075 26.7959 11.1636 26.6891 11.3139 26.5703L11.3197 26.5644C12.5395 25.5609 13.2506 24.0528 13.268 22.4497L13.2795 20.7991C13.2911 19.8075 12.5106 19 11.5452 19H6.9375C5.97781 19 5.20312 19.7956 5.20312 20.7812V22.3191C5.20312 23.9756 5.93734 25.5372 7.19766 26.5762L7.20922 26.5822C7.34797 26.695 7.49828 26.8019 7.65437 26.8909L6.9375 29.0938C5.56156 29.3787 4.34172 30.0556 3.37625 30.9997C2.65938 30.4178 2.09859 29.6222 1.79219 28.6841L1.73438 28.5C2.48594 27.3362 2.89062 25.9766 2.89062 24.5753V20.7812C2.89062 19.4334 3.37625 18.2044 4.17984 17.2662C5.07594 16.2094 6.37094 15.5206 7.82781 15.4434C7.91453 15.4375 8.00125 15.4375 8.09375 15.4375H10.4062C12.1059 15.4375 13.6148 16.2747 14.563 17.575C15.222 18.4656 15.6094 19.5759 15.6094 20.7812V24.5753C15.6094 25.9766 16.0141 27.3362 16.7656 28.5V28.5Z" fill="#FCD770"/>
<path d="M34.5661 19.5047L34.2539 20.7872L34.2481 20.7931C33.9359 20.4191 33.4734 20.1875 32.9531 20.1875H32.375C32.375 20.1697 32.375 20.1519 32.375 20.14C32.375 19.5106 31.8778 19 31.265 19H28.3859C27.3511 19 26.4203 18.4359 25.9116 17.5691L24.0789 18.5072C23.495 18.81 23.125 19.4216 23.125 20.0984V20.1875H22.5469C22.2173 20.1875 21.9052 20.2825 21.645 20.4487L21.3502 20.1459C21.2345 20.0272 21.142 19.9025 21.0611 19.76C20.8992 19.475 20.8125 19.1544 20.8125 18.8159C20.8125 18.1866 21.1189 17.6047 21.6277 17.2544L21.7259 17.1891L22.5469 16.625L22.1653 15.8413C22.0381 15.5741 21.9688 15.2831 21.9688 14.9862C21.9688 14.8556 21.9803 14.725 22.2867 13.9116C22.3561 13.8106 22.4313 13.7156 22.518 13.6266C22.8591 13.2763 23.3216 13.0625 23.8419 13.0625C24.553 13.0625 25.2641 13.0922 25.9694 13.1575C29.2242 13.6562 30.3516 13.9531 31.4616 14.3331L31.8778 14.4756C31.9414 14.4994 32.005 14.5172 32.0628 14.5469C33.618 15.1644 34.6586 16.6844 34.6875 18.4062V18.4775C34.6875 18.8278 34.647 19.1722 34.5661 19.5047V19.5047Z" fill="#656D78"/>
<path d="M13.2969 7.71875C12.8806 7.71875 12.5048 7.86719 12.2042 8.11656L11.9498 7.71875L11.7937 7.48125C11.6434 7.24969 11.5625 6.97656 11.5625 6.6975C11.5625 6.2225 11.7937 5.77719 12.1753 5.51594L13.2969 4.75L13.0367 4.48281C12.8344 4.275 12.7188 3.99 12.7188 3.69906C12.7188 3.39625 12.8344 3.11719 13.0367 2.92125C13.1292 2.82031 13.2448 2.73719 13.372 2.68375L15.9563 1.54375C16.4881 1.30625 17.0663 1.1875 17.6444 1.1875C18.2109 1.1875 18.7659 1.30031 19.292 1.52594L23.6048 3.3725C23.813 3.46156 24.0038 3.56844 24.183 3.69906C24.9577 4.26313 25.4375 5.19531 25.4375 6.19875C25.4375 6.80437 25.2641 7.39219 24.9345 7.89688L24.7958 8.11656C24.4952 7.86719 24.1194 7.71875 23.7031 7.71875H23.0267H23.0209C22.7897 7.02406 22.148 6.53125 21.3906 6.53125C21.0784 6.53125 20.7894 6.61438 20.5408 6.75688L20.1477 6.65594C19.2284 6.41844 18.4595 5.8425 17.9681 5.07656H17.9623L15.6094 6.53125C14.852 6.53125 14.2103 7.02406 13.9791 7.71875H13.9733H13.2969Z" fill="#656D78"/>
<path d="M25.53 9.49414L25.7497 12.172C25.7786 12.5163 25.8537 12.8488 25.9693 13.1576C25.264 13.0923 24.5529 13.0626 23.8419 13.0626C23.3215 13.0626 22.859 13.2763 22.5179 13.6266C22.4312 13.7157 22.3561 13.8107 22.2867 13.9116L22.2289 13.8701C22.5526 13.3773 22.7608 12.8013 22.8128 12.172L22.8822 11.2813H23.7031C24.1829 11.2813 24.6165 11.0795 24.9287 10.7588C25.2409 10.4382 25.4375 9.99289 25.4375 9.50008L25.53 9.49414Z" fill="#B27946"/>
<path d="M27.75 5.34375L26.2931 6.46594C25.7555 6.88156 25.4375 7.52875 25.4375 8.22344C25.4375 8.28281 25.4375 8.34219 25.4433 8.40156L25.53 9.49406L25.4375 9.5C25.4375 8.94188 25.1889 8.44313 24.7958 8.11656L24.9345 7.89688C25.2641 7.39219 25.4375 6.80437 25.4375 6.19875C25.4375 5.19531 24.9577 4.26313 24.183 3.69906C25.2294 2.17906 26.9522 1.1875 28.9063 1.1875H30.0625C33.2538 1.1875 35.8438 3.8475 35.8438 7.125V8.90625C35.8438 9.29813 35.757 9.68406 35.5836 10.0284L35.5258 10.1591C35.3639 10.4916 35.3639 10.8834 35.5258 11.2159L35.5836 11.3466C35.757 11.6909 35.8438 12.0769 35.8438 12.4688C35.8438 12.8606 35.757 13.2466 35.5836 13.5909L35.5258 13.7216C35.3639 14.0541 35.3639 14.4459 35.5258 14.7784L35.5605 14.8616C35.7455 15.2416 35.8438 15.6572 35.8438 16.0847C35.8438 16.8091 35.5605 17.5097 35.0633 18.0203L34.6875 18.4062C34.6586 16.6844 33.618 15.1644 32.0628 14.5469V14.5409C32.7103 13.9531 33.1439 13.1159 33.2191 12.1719L33.5255 8.36C33.5313 8.33031 33.5313 8.29469 33.5313 8.265C33.5313 7.63563 33.0341 7.125 32.4213 7.125H31.9356C30.3689 7.125 28.86 6.48375 27.75 5.34375V5.34375Z" fill="#B27946"/>
<path d="M12.7188 3.69906C12.7188 3.99 12.8344 4.275 13.0367 4.48281L13.2969 4.75L12.1753 5.51594C11.7937 5.77719 11.5625 6.2225 11.5625 6.6975C11.5625 6.97656 11.6434 7.24969 11.7937 7.48125L11.9498 7.71875H11.4816C11.337 7.26156 11.0075 6.88156 10.5623 6.68563L7.51562 5.34375L4.46891 6.68563C4.02375 6.88156 3.69422 7.26156 3.54969 7.71875H2.89062C2.38766 7.71875 1.93094 7.93844 1.61297 8.29469L1.23719 6.35906C1.18516 6.08 1.15625 5.795 1.15625 5.51C1.15625 3.12312 3.04094 1.1875 5.365 1.1875H9.66625C11.0422 1.1875 12.2678 1.86437 13.0309 2.91531L13.0367 2.92125C12.8344 3.11719 12.7188 3.39625 12.7188 3.69906V3.69906Z" fill="#B27946"/>
<path d="M29.4497 27.2056L30.0625 29.0937L27.75 30.8749L25.4375 29.0937L25.6283 28.4999L26.0503 27.2056C26.322 27.2768 26.6053 27.3124 26.8944 27.3124H28.6056C28.8947 27.3124 29.178 27.2768 29.4497 27.2056Z" fill="#F0D0B4"/>
<path d="M32.9531 20.1875C33.4734 20.1875 33.9359 20.4191 34.2481 20.7931C34.5198 21.1078 34.6875 21.5175 34.6875 21.9688C34.6875 22.4616 34.4909 22.9069 34.1787 23.2275C33.8666 23.5481 33.433 23.75 32.9531 23.75H32.0859L32.3692 20.235C32.375 20.2231 32.375 20.2053 32.375 20.1875H32.9531Z" fill="#F0D0B4"/>
<path d="M23.1308 20.2766L23.4141 23.75H22.5469C22.067 23.75 21.6334 23.5481 21.3213 23.2275C21.0091 22.9069 20.8125 22.4616 20.8125 21.9688C20.8125 21.3216 21.142 20.7575 21.645 20.4487C21.9052 20.2825 22.2173 20.1875 22.5469 20.1875H23.125C23.125 20.2172 23.125 20.2469 23.1308 20.2766Z" fill="#F0D0B4"/>
<path d="M32.0628 24.0467C31.9356 25.5963 30.8603 26.8432 29.4497 27.2054C29.178 27.2767 28.8947 27.3123 28.6056 27.3123H26.8944C26.6053 27.3123 26.322 27.2767 26.0503 27.2054C24.6397 26.8432 23.5644 25.5963 23.4372 24.0467L23.4141 23.7498L23.1308 20.2763C23.125 20.2467 23.125 20.217 23.125 20.1873C23.125 20.1576 23.125 20.1279 23.125 20.0982C23.125 19.4213 23.495 18.8098 24.0789 18.507L25.9116 17.5688C26.4203 18.4357 27.3511 18.9998 28.3859 18.9998H31.265C31.8778 18.9998 32.375 19.5104 32.375 20.1398V20.1873C32.375 20.1873 32.375 20.2229 32.3692 20.2348L32.0859 23.7498L32.0628 24.0467Z" fill="#F0D0B4"/>
<path d="M32.0628 14.5409V14.5469C32.005 14.5172 31.9414 14.4994 31.8778 14.4756L31.4616 14.3331C30.3516 13.9531 29.2242 13.6562 25.9694 13.1575C25.8537 12.8487 25.7786 12.5162 25.7497 12.1719L25.53 9.49406L25.4433 8.40156C25.4375 8.34219 25.4375 8.28281 25.4375 8.22344C25.4375 7.52875 25.7555 6.88156 26.2931 6.46594L27.75 5.34375C28.86 6.48375 30.3689 7.125 31.9356 7.125H32.4213C33.0341 7.125 33.5312 7.63563 33.5312 8.265C33.5312 8.29469 33.5313 8.33031 33.5255 8.36L33.2191 12.1719C33.1439 13.1159 32.7103 13.9531 32.0628 14.5409V14.5409Z" fill="#F0D0B4"/>
<path d="M20.3443 15.2891C20.5177 15.8472 20.8126 16.34 21.2057 16.7378C21.1999 16.7438 21.1999 16.7438 21.2057 16.7438H21.1999L18.5001 18.4062L15.8002 16.7438L15.7944 16.7378C16.1818 16.3459 16.4824 15.8472 16.6558 15.2891C16.968 15.3841 17.3033 15.4375 17.6444 15.4375H19.3557C19.6968 15.4375 20.0321 15.3841 20.3443 15.2891Z" fill="#F0D0B4"/>
<path d="M24.7958 8.11656C25.1889 8.44313 25.4375 8.94188 25.4375 9.5C25.4375 9.99281 25.241 10.4381 24.9288 10.7588C24.6166 11.0794 24.183 11.2812 23.7031 11.2812H22.8822L23.1019 8.56188C23.1192 8.47875 23.125 8.39563 23.125 8.3125C23.125 8.10469 23.0903 7.90281 23.021 7.71875H23.0267H23.7031C24.1194 7.71875 24.4952 7.86719 24.7958 8.11656Z" fill="#F0D0B4"/>
<path d="M21.3906 10.0938C20.4309 10.0938 19.6562 9.29822 19.6562 8.3126C19.6562 7.6476 20.0146 7.06572 20.5407 6.75697L20.1476 6.65604C19.2284 6.41854 18.4595 5.8426 17.9681 5.07666H17.9623L15.6093 6.53135C16.569 6.53135 17.3437 7.32697 17.3437 8.3126C17.3437 9.29822 16.569 10.0938 15.6093 10.0938C14.7306 10.0938 14.0079 9.42885 13.8981 8.56197L14.1178 11.2813L14.1871 12.172C14.3085 13.6682 15.3203 14.8854 16.6557 15.2892C16.9679 15.3842 17.3032 15.4376 17.6443 15.4376H19.3556C19.6967 15.4376 20.032 15.3842 20.3442 15.2892C21.1189 15.0517 21.7837 14.547 22.2289 13.8701C22.5526 13.3773 22.7607 12.8013 22.8128 12.172L22.8821 11.2813L23.1018 8.56197C22.992 9.42885 22.2693 10.0938 21.3906 10.0938V10.0938Z" fill="#F0D0B4"/>
<path d="M11.5625 29.0939V30.8752C11.5625 31.5283 11.0422 32.0627 10.4062 32.0627H8.09375C7.45781 32.0627 6.9375 31.5283 6.9375 30.8752V29.0939L7.65437 26.8911C8.13422 27.1702 8.67766 27.3186 9.24422 27.3186H9.26734C9.82234 27.3127 10.3658 27.1642 10.8456 26.8911L11.5625 29.0939Z" fill="#F0D0B4"/>
<path d="M13.875 8.3125C13.875 8.39563 13.8808 8.47875 13.8981 8.56188L14.1178 11.2812H13.2969C13.0945 11.2812 12.898 11.2456 12.7188 11.1744C12.4702 11.0912 12.2505 10.9428 12.0712 10.7588C11.7591 10.4381 11.5625 9.99281 11.5625 9.5C11.5625 8.94188 11.8111 8.44313 12.2042 8.11656C12.5048 7.86719 12.8806 7.71875 13.2969 7.71875H13.9733H13.9791C13.9097 7.90281 13.875 8.10469 13.875 8.3125V8.3125Z" fill="#F0D0B4"/>
<path d="M11.5452 19C12.5106 19 13.2911 19.8075 13.2795 20.7991L13.268 22.4497C13.2506 24.0528 12.5395 25.5609 11.3197 26.5644L11.3139 26.5703C11.1636 26.6891 11.0075 26.7959 10.8456 26.8909C10.3658 27.1641 9.82234 27.3125 9.26734 27.3184C9.26156 27.3184 9.25 27.3184 9.24422 27.3184C8.67766 27.3184 8.13422 27.17 7.65438 26.8909C7.49828 26.8019 7.34797 26.695 7.20922 26.5822L7.19766 26.5762C5.93734 25.5372 5.20312 23.9756 5.20312 22.3191V20.7812C5.20312 19.7956 5.97781 19 6.9375 19H11.5452Z" fill="#F0D0B4"/>
<path d="M11.4816 7.71875C11.5336 7.885 11.5625 8.06313 11.5625 8.24125C11.5625 8.28875 11.5625 8.33625 11.5567 8.38375L11.3197 11.2812L11.2503 12.1719C11.1 14.0066 9.61422 15.4197 7.82781 15.4375C7.81625 15.4375 7.80469 15.4375 7.79312 15.4375H7.23813C5.43438 15.4375 3.93125 14.0184 3.78094 12.1719L3.71156 11.2812L3.47453 8.38375C3.46875 8.33625 3.46875 8.28875 3.46875 8.24125C3.46875 8.06313 3.49766 7.885 3.54969 7.71875C3.69422 7.26156 4.02375 6.88156 4.46891 6.68563L7.51562 5.34375L10.5623 6.68563C11.0075 6.88156 11.337 7.26156 11.4816 7.71875V7.71875Z" fill="#F0D0B4"/>
<path d="M3.71156 11.2812H2.89062C2.41078 11.2812 1.97719 11.0794 1.665 10.7588C1.35281 10.4381 1.15625 9.99281 1.15625 9.5C1.15625 9.03094 1.32969 8.60938 1.61297 8.29469C1.93094 7.93844 2.38766 7.71875 2.89062 7.71875H3.54969C3.49766 7.885 3.46875 8.06313 3.46875 8.24125C3.46875 8.28875 3.46875 8.33625 3.47453 8.38375L3.71156 11.2812Z" fill="#F0D0B4"/>
<path d="M23.0209 7.71875C23.0903 7.90281 23.125 8.10469 23.125 8.3125L23.1019 8.56188C22.992 9.42875 22.2694 10.0938 21.3906 10.0938C20.4309 10.0938 19.6562 9.29812 19.6562 8.3125C19.6562 7.6475 20.0147 7.06563 20.5408 6.75688C20.7894 6.61438 21.0784 6.53125 21.3906 6.53125C22.148 6.53125 22.7897 7.02406 23.0209 7.71875V7.71875Z" fill="#69D6F4"/>
<path d="M15.6094 6.53125C16.5691 6.53125 17.3438 7.32688 17.3438 8.3125C17.3438 9.29812 16.5691 10.0938 15.6094 10.0938C14.7306 10.0938 14.008 9.42875 13.8981 8.56188L13.875 8.3125C13.875 8.10469 13.9097 7.90281 13.9791 7.71875C14.2103 7.02406 14.852 6.53125 15.6094 6.53125Z" fill="#69D6F4"/>
<path d="M16.3095 12.2656C16.7269 13.1235 17.5663 13.6561 18.5 13.6561C19.4337 13.6561 20.2731 13.1235 20.6905 12.2656L20.7512 12.1403L19.717 11.6089L19.6562 11.7348C19.436 12.1872 18.9931 12.4686 18.5 12.4686C18.0069 12.4686 17.564 12.1872 17.3437 11.7348L17.283 11.6095L16.2488 12.1409L16.3095 12.2656Z" fill="black"/>
<path d="M9.70614 12.2656L9.76684 12.1403L8.73258 11.6089L8.67187 11.7348C8.45161 12.1872 8.00876 12.4686 7.51562 12.4686C7.02248 12.4686 6.57964 12.1872 6.35937 11.7348L6.29867 11.6095L5.2644 12.1409L5.32511 12.2656C5.74251 13.1235 6.58195 13.6561 7.51562 13.6561C8.44929 13.6561 9.28873 13.1235 9.70614 12.2656V12.2656Z" fill="black"/>
<path d="M36.1022 10.2962C36.3115 9.86694 36.4219 9.386 36.4219 8.90625V7.125C36.4219 3.52391 33.5688 0.59375 30.0625 0.59375H28.9062C27.0216 0.59375 25.2432 1.46478 24.0407 2.9355C23.9685 2.89869 23.9003 2.85534 23.8251 2.82328L19.5123 0.977906C18.3069 0.461344 16.9304 0.468469 15.7308 0.9975L13.1466 2.13512C12.2447 1.15009 11.004 0.59375 9.66683 0.59375H5.36442C2.72528 0.59375 0.578125 2.79894 0.578125 5.50941C0.578125 5.83419 0.609922 6.15897 0.671203 6.47366L0.996687 8.14447C0.734797 8.52922 0.578125 8.99531 0.578125 9.5C0.578125 10.8098 1.61528 11.875 2.89062 11.875H3.17795L3.2057 12.22C3.32306 13.6693 4.17637 14.9037 5.36384 15.5491C4.7863 15.868 4.27177 16.2883 3.83239 16.7817C3.37394 17.0662 2.85016 17.2188 2.3125 17.2188C1.03716 17.2188 0 18.2839 0 19.5938V29.0938H1.33547C1.60777 29.8247 2.02055 30.4825 2.55762 31.0323C1.32159 32.4562 0.578125 34.3247 0.578125 36.3363V37.4062H36.4219V36.3363C36.4219 32.6622 33.9544 29.4583 30.5077 28.5873L30.1781 27.5708C31.4488 27.0121 32.3999 25.802 32.6063 24.3432H32.9531C34.2285 24.3432 35.2656 23.278 35.2656 21.9682C35.2656 21.4843 35.1223 21.0348 34.8794 20.6589L35.1263 19.6472C35.2043 19.3248 35.2425 18.9941 35.2546 18.6627L35.4709 18.4401C36.0842 17.8113 36.4219 16.9741 36.4219 16.0841C36.4219 15.5693 36.3034 15.0545 36.0796 14.5944L36.0415 14.516C35.9605 14.3497 35.9605 14.1508 36.0415 13.9846L36.1022 13.8593C36.3115 13.4294 36.4219 12.9485 36.4219 12.4688C36.4219 11.989 36.3115 11.5081 36.1022 11.0782L36.0415 10.9535C35.9605 10.7872 35.9605 10.5883 36.0415 10.4221L36.1022 10.2962ZM16.1863 2.08881C17.1004 1.68625 18.1497 1.68091 19.0671 2.07397L23.38 3.91934C24.2789 4.30409 24.8594 5.19828 24.8594 6.19756C24.8594 6.58706 24.7669 6.96587 24.5975 7.30966C24.3217 7.1915 24.0199 7.125 23.7031 7.125H23.3817C22.9805 6.41844 22.2428 5.9375 21.3906 5.9375C21.0675 5.9375 20.7599 6.00697 20.4801 6.13047L20.2881 6.08119C18.8954 5.72375 17.9219 4.44362 17.9219 2.96875H16.7656C16.7656 3.64384 16.9258 4.28331 17.1952 4.86162L15.4169 5.95709C14.6474 6.02359 13.9889 6.47306 13.6183 7.12441H13.2969C12.9725 7.12441 12.6644 7.19447 12.3834 7.31916L12.2753 7.15291C12.1875 7.01694 12.1406 6.859 12.1406 6.69572C12.1406 6.41963 12.2736 6.16372 12.4973 6.01053L14.204 4.84203L13.4431 4.05947C13.3489 3.96328 13.2969 3.83503 13.2969 3.69847C13.2969 3.49303 13.4154 3.30837 13.5987 3.22762L16.1863 2.08881ZM27.7153 6.11206C28.8918 7.14875 30.3706 7.71875 31.9368 7.71875H32.4213C32.7144 7.71875 32.9531 7.96397 32.9514 8.31072L32.6421 12.1214C32.5889 12.7757 32.3207 13.3754 31.8969 13.8563L31.6425 13.7691C31.2714 13.642 30.8973 13.5268 30.5215 13.4182C31.0118 13.183 31.4217 12.7852 31.6743 12.2651L31.735 12.1398L30.7008 11.6084L30.6406 11.7349C30.4204 12.1873 29.9775 12.4688 29.4844 12.4688C28.9912 12.4688 28.5484 12.1873 28.3281 11.7349L28.2674 11.6096L27.2332 12.141L27.2939 12.2657C27.384 12.4509 27.4974 12.6178 27.6234 12.771C27.221 12.7068 26.8163 12.6552 26.4111 12.6112C26.3712 12.4503 26.34 12.2877 26.3267 12.1214L26.0208 8.35169C26.0174 8.30894 26.0156 8.265 26.0156 8.22106C26.0156 7.72053 26.248 7.24256 26.6383 6.94213L27.7153 6.11206ZM34.0042 19.3598L33.896 19.8045C33.6076 19.6715 33.2896 19.5938 32.9531 19.5938H32.8589C32.6346 18.9062 32.009 18.4062 31.265 18.4062H28.3854C27.2869 18.4062 26.333 17.6035 26.118 16.4968L26.0046 15.9149L24.8709 16.1482L24.9842 16.7301C25.0224 16.9272 25.0762 17.1172 25.1438 17.2995L23.8211 17.9788C23.1851 18.3053 22.7492 18.9008 22.6041 19.5938H22.5469C22.2746 19.5938 22.0162 19.6513 21.7733 19.7404L21.7566 19.7232C21.5207 19.4809 21.3906 19.1591 21.3906 18.8165C21.3906 18.3867 21.5982 17.9877 21.9468 17.7496L23.2921 16.8281L22.6833 15.5776C22.5943 15.3942 22.5469 15.1887 22.5469 14.9839C22.5469 14.2518 23.1267 13.6562 23.8396 13.6562C26.3723 13.6562 28.8745 14.0737 31.2771 14.896L31.694 15.0385C33.1387 15.5331 34.1094 16.9159 34.1094 18.4805C34.1094 18.7768 34.0735 19.0724 34.0042 19.3598V19.3598ZM17.9173 36.2188C17.8889 34.2517 17.1541 32.4282 15.9424 31.0323C16.4789 30.4831 16.8922 29.8252 17.1645 29.0938H23.6008C20.9356 30.359 19.1278 33.1105 19.0827 36.2188H17.9173ZM25.3097 29.7368L26.5805 30.7159L25.1814 31.2906L24.6536 29.9357C24.8669 29.8585 25.086 29.792 25.3097 29.7368V29.7368ZM25.2138 27.9062H17.0882C16.5003 26.8998 16.1875 25.7569 16.1875 24.5783V20.9297L18.5 19.1484L20.5743 20.7462C20.3633 21.1043 20.2344 21.5199 20.2344 21.9688C20.2344 23.2786 21.2715 24.3438 22.5469 24.3438H22.8943C23.1007 25.802 24.0512 27.0127 25.3225 27.5714L25.2138 27.9062ZM19.4464 7.03653C19.3169 7.24375 19.2221 7.47412 19.1602 7.71875H17.8398C17.7028 7.17725 17.3883 6.71175 16.9587 6.39231L17.8317 5.85437C18.2664 6.36559 18.8128 6.77469 19.4464 7.03653V7.03653ZM22.5931 20.7812L22.7862 23.1562H22.5469C21.9092 23.1562 21.3906 22.6237 21.3906 21.9688C21.3906 21.3138 21.9092 20.7812 22.5469 20.7812H22.5931ZM15.451 17.7733C15.5955 17.6819 15.7337 17.5833 15.8649 17.4752L17.4652 18.4615L16.3534 19.3177L15.451 17.7733ZM17.8398 8.90625H19.1602C19.4186 9.9275 20.3159 10.6875 21.3906 10.6875C21.7421 10.6875 22.0722 10.6002 22.3711 10.4553L22.2358 12.1214C22.1115 13.6479 20.8472 14.8438 19.355 14.8438H17.6444C16.1528 14.8438 14.8879 13.6479 14.7642 12.1214L14.6289 10.4553C14.9278 10.6002 15.2579 10.6875 15.6094 10.6875C16.6841 10.6875 17.5814 9.9275 17.8398 8.90625V8.90625ZM17.645 16.0312H19.3556C19.573 16.0312 19.7863 16.0093 19.9956 15.9742C20.0927 16.1868 20.2066 16.3899 20.3361 16.5828L18.5 17.7139L16.6697 16.5858C16.7992 16.3928 16.9154 16.1904 17.0131 15.9754C17.2195 16.0093 17.4299 16.0312 17.645 16.0312V16.0312ZM20.3939 17.9313C20.2899 18.2097 20.2344 18.509 20.2344 18.8165C20.2344 18.8836 20.2483 18.9483 20.2535 19.0148L19.5348 18.4615L20.3939 17.9313ZM21.649 16.1084L21.8017 16.4213L21.7554 16.4528C21.4924 16.2135 21.2698 15.9303 21.1045 15.6127C21.2172 15.5563 21.327 15.4951 21.4334 15.4286C21.475 15.6649 21.545 15.8947 21.649 16.1084V16.1084ZM23.3875 12.22L23.4158 11.875H23.7031C24.2327 11.875 24.7154 11.6838 25.1062 11.3751L25.1745 12.2194C25.1825 12.3185 25.2039 12.4153 25.219 12.5133C24.7599 12.4866 24.3009 12.4688 23.8396 12.4688C23.6713 12.4688 23.5071 12.4866 23.3487 12.5198C23.3643 12.4207 23.3794 12.3215 23.3875 12.22V12.22ZM24.8594 9.5C24.8594 10.1549 24.3408 10.6875 23.7031 10.6875H23.5118L23.7008 8.36178H23.6985C23.6985 8.34516 23.7031 8.32913 23.7031 8.3125C24.3408 8.3125 24.8594 8.84509 24.8594 9.5ZM22.537 8.41344C22.4862 9.02084 21.9942 9.5 21.3906 9.5C20.753 9.5 20.2344 8.96741 20.2344 8.3125C20.2344 7.65759 20.753 7.125 21.3906 7.125C22.0248 7.125 22.5405 7.65225 22.5457 8.303L22.537 8.41344ZM15.6094 7.125C16.247 7.125 16.7656 7.65759 16.7656 8.3125C16.7656 8.96741 16.247 9.5 15.6094 9.5C15.0058 9.5 14.5138 9.02084 14.463 8.41344L14.4537 8.30241C14.4595 7.65225 14.9752 7.125 15.6094 7.125ZM13.3015 8.36178H13.2992L13.4882 10.6875H13.2969C12.6592 10.6875 12.1406 10.1549 12.1406 9.5C12.1406 8.84509 12.6592 8.3125 13.2969 8.3125C13.2969 8.32913 13.3015 8.34516 13.3015 8.36178ZM11.825 12.22L11.8533 11.875H12.1406C12.3383 11.875 12.5309 11.8412 12.7193 11.7907C12.9049 11.8406 13.0963 11.875 13.2969 11.875H13.5842L13.612 12.22C13.7334 13.7192 14.6427 14.988 15.895 15.6132C15.6273 16.131 15.2215 16.5567 14.7185 16.8405C13.6987 15.6649 12.2349 14.9091 10.5976 14.8533C11.2827 14.174 11.7417 13.2525 11.825 12.22V12.22ZM5.36442 1.78125H9.66625C10.6826 1.78125 11.6244 2.20459 12.3083 2.95391C12.2008 3.18131 12.1406 3.43425 12.1406 3.69847C12.1406 4.03869 12.2372 4.36347 12.417 4.63897L11.8562 5.02253C11.4278 5.31525 11.1422 5.76472 11.0358 6.27C10.9566 6.2225 10.8763 6.17678 10.7901 6.13938L7.51562 4.69775L4.24112 6.13878C3.77978 6.34184 3.41556 6.69453 3.18027 7.125H2.89062C2.57959 7.125 2.28359 7.19031 2.01245 7.30491L1.80491 6.23913C1.75808 6.00163 1.73438 5.75581 1.73438 5.50941C1.73438 3.45384 3.36238 1.78125 5.36442 1.78125V1.78125ZM2.89062 10.6875C2.25295 10.6875 1.73438 10.1549 1.73438 9.5C1.73438 8.84509 2.25295 8.3125 2.89062 8.3125H2.89352C2.89467 8.35288 2.89467 8.39325 2.89872 8.43184L3.08198 10.6875H2.89062ZM4.35791 12.1214L4.05034 8.3315C4.04803 8.30122 4.04688 8.27212 4.04688 8.24184C4.04688 7.80069 4.30125 7.40406 4.69611 7.23009L7.51562 5.98975L10.3351 7.23069C10.73 7.40406 10.9844 7.80128 10.9844 8.24184C10.9844 8.27153 10.9832 8.30122 10.9809 8.33091L10.6733 12.1208C10.549 13.6479 9.28469 14.8438 7.79255 14.8438H7.23813C5.74656 14.8438 4.4822 13.6479 4.35791 12.1214V12.1214ZM2.3125 24.5783C2.3125 25.7569 1.99973 26.8998 1.41178 27.9062H1.15625V19.5938C1.15625 18.9388 1.67483 18.4062 2.3125 18.4062C2.48131 18.4062 2.64897 18.3914 2.81547 18.37C2.49461 19.1081 2.3125 19.9227 2.3125 20.7812V24.5783ZM2.37089 28.5802C3.09008 27.3742 3.46875 25.9973 3.46875 24.5783V20.7812C3.46875 18.1622 5.54364 16.0312 8.09375 16.0312H10.4062C12.9564 16.0312 15.0312 18.1622 15.0312 20.7812V24.5783C15.0312 25.9973 15.4099 27.3742 16.1291 28.5802C15.914 29.1988 15.5637 29.7504 15.1116 30.2088C14.2265 29.4506 13.1755 28.883 12.0071 28.5879L11.533 27.1278C11.581 27.0922 11.6336 27.0649 11.6799 27.0263C13.039 25.9095 13.8288 24.2434 13.8461 22.4562L13.875 19.5997L12.7188 19.5872L12.6904 22.4437C12.6765 23.8735 12.0452 25.2059 10.9514 26.1036C10.4733 26.4967 9.87264 26.7158 9.26041 26.7217C8.64528 26.7253 8.04692 26.5139 7.55667 26.1108C6.42817 25.1839 5.78125 23.8011 5.78125 22.3173V20.7812C5.78125 20.1263 6.29983 19.5938 6.9375 19.5938V18.4062C5.66216 18.4062 4.625 19.4714 4.625 20.7812V22.3173C4.625 24.1638 5.43033 25.8845 6.84731 27.0489C6.88489 27.0797 6.92767 27.1011 6.96583 27.1302L6.49292 28.5879C5.32511 28.883 4.27408 29.4506 3.38897 30.2088C2.9363 29.7504 2.58537 29.1988 2.37089 28.5802V28.5802ZM7.51562 29.1905L8.00067 27.6955C8.39669 27.8344 8.81409 27.9092 9.2367 27.9092H9.27139C9.68995 27.9051 10.1039 27.8273 10.4976 27.6889L10.9844 29.1905V30.875C10.9844 31.2022 10.7254 31.4688 10.4062 31.4688H8.09375C7.77463 31.4688 7.51562 31.2022 7.51562 30.875V29.1905ZM6.35938 29.8633V30.875C6.35938 31.8571 7.13753 32.6562 8.09375 32.6562H10.4062C11.3625 32.6562 12.1406 31.8571 12.1406 30.875V29.8633C14.822 30.7337 16.7107 33.2892 16.7604 36.2188H14.4531V33.8438H13.2969V36.2188H5.20312V33.8438H4.04688V36.2188H1.73553C1.78525 33.2886 3.67803 30.7337 6.35938 29.8633ZM35.2645 36.2188H32.9531V33.8438H31.7969V36.2188H23.7031V33.8438H22.5469V36.2188H20.2396C20.2812 33.7737 21.6045 31.5905 23.6002 30.4285L24.5379 32.8344L27.75 31.5145L30.9626 32.8344L31.9004 30.4279C33.896 31.5905 35.2234 33.7731 35.2645 36.2188V36.2188ZM30.8464 29.9357L30.3186 31.2906L28.9195 30.7159L30.1903 29.7368C30.414 29.792 30.6331 29.8579 30.8464 29.9357ZM29.3826 28.8758L27.75 30.1328L26.1174 28.8752L26.4411 27.8766C26.5909 27.8944 26.7417 27.9062 26.895 27.9062H28.6056C28.7588 27.9062 28.9097 27.8944 29.0589 27.8772L29.3826 28.8758ZM31.4858 23.9964C31.3615 25.5229 30.0972 26.7188 28.605 26.7188H26.8944C25.4028 26.7188 24.1379 25.5229 24.0142 23.9964L23.7083 20.2267C23.7049 20.1839 23.7031 20.14 23.7031 20.0961C23.7031 19.6466 23.9465 19.2423 24.3385 19.041L25.7335 18.3243C26.3764 19.1063 27.3366 19.5938 28.3854 19.5938H31.265C31.5581 19.5938 31.7969 19.839 31.7951 20.1857L31.4858 23.9964ZM32.9531 23.1562H32.7138L32.9069 20.7812H32.9531C33.5908 20.7812 34.1094 21.3138 34.1094 21.9688C34.1094 22.6237 33.5908 23.1562 32.9531 23.1562ZM35.2656 8.90625C35.2656 9.20312 35.1974 9.5 35.0679 9.76541L35.0072 9.89069C34.7644 10.3894 34.7644 10.985 35.0072 11.4837L35.0679 11.6084C35.1974 11.875 35.2656 12.1719 35.2656 12.4688C35.2656 12.7656 35.1974 13.0625 35.0679 13.3279L35.0072 13.4532C34.7644 13.9519 34.7644 14.5475 35.0066 15.0456L35.0448 15.1246C35.1893 15.4215 35.2656 15.7528 35.2656 16.0841C35.2656 16.4178 35.1841 16.7354 35.0448 17.0264C34.7031 15.9173 33.9735 14.9768 32.9965 14.3711C33.4515 13.7501 33.7307 13.0097 33.7943 12.22L34.1036 8.41403C34.1076 8.36416 34.1094 8.31428 34.1094 8.265C34.1094 7.30906 33.352 6.53125 32.4213 6.53125H31.9368C30.5863 6.53125 29.3161 6.01469 28.3281 5.08191V2.96875H27.1719V5.04688L25.9977 5.95116C25.9393 5.05994 25.5728 4.24234 24.9785 3.62841C25.9624 2.46584 27.3933 1.78125 28.9062 1.78125H30.0625C32.9317 1.78125 35.2656 4.17881 35.2656 7.125V8.90625Z" fill="black"/>
<path d="M28.3281 24.3438H26.0156V25.5312H28.3281C29.6035 25.5312 30.6406 24.4661 30.6406 23.1562H29.4844C29.4844 23.8112 28.9658 24.3438 28.3281 24.3438Z" fill="black"/>
<path d="M9.25 25.5311C10.1837 25.5311 11.0231 24.9985 11.4405 24.1406L11.5012 24.0153L10.467 23.4839L10.4062 23.6098C10.186 24.0622 9.74314 24.3436 9.25 24.3436C8.75686 24.3436 8.31401 24.0622 8.09375 23.6098L8.03305 23.4845L6.99878 24.0159L7.05948 24.1406C7.47689 24.9985 8.31633 25.5311 9.25 25.5311V25.5311Z" fill="black"/>
<path d="M8.11804 18.5435L9.23904 18.255L9.81826 20.6296L8.69726 20.918L8.11804 18.5435Z" fill="black"/>
<path d="M10.4299 18.5425L11.5509 18.2541L12.1302 20.6287L11.0091 20.9171L10.4299 18.5425Z" fill="black"/>
</svg>
