<svg width="71" height="70" viewBox="0 0 71 70" fill="none" xmlns="http://www.w3.org/2000/svg">
<ellipse cx="35.5" cy="35" rx="35.5" ry="35" fill="#689FEC"/>
<g clip-path="url(#clip0_430_219)">
<path d="M30.8601 39.6297V43.4374C31.8765 43.5392 32.9042 43.5095 33.9136 43.347V43.0471C33.9136 41.5118 34.3595 40.1725 35.131 39.0786C33.7834 39.6653 32.2955 39.8482 30.8601 39.6297Z" fill="#A2F9F9"/>
<path d="M36.3682 45.275C36.6941 45.7319 36.8614 46.2968 36.8008 46.8903C36.7469 47.4176 36.5215 47.8872 36.1834 48.2544V52.4776H37.5544C37.6626 51.5489 38.4687 50.8267 39.4483 50.8267C40.1855 50.8267 40.8235 51.2359 41.141 51.8336C41.4588 51.2356 42.0969 50.8267 42.834 50.8267C43.8141 50.8267 44.6201 51.5489 44.7283 52.4776H50.2806V42.9588C50.2806 40.4507 49.0916 38.4937 47.2358 37.2725C46.0321 37.8453 44.6821 38.1676 43.2547 38.1676H40.5593C39.1862 38.1676 37.8838 37.9343 36.7147 37.4778C34.999 38.7308 33.9136 40.6505 33.9136 43.0471V44.1676L34.1414 44.1904L34.146 44.1907L34.0795 44.0168C33.9349 43.64 34.1278 43.2189 34.5103 43.0764L34.699 43.006C35.0816 42.8639 35.5086 43.0537 35.6531 43.4312L36.3682 45.275Z" fill="#48E5E1"/>
<path d="M34.1414 44.1906L34.146 44.1909L34.0791 44.017C33.9349 43.6402 34.1278 43.2188 34.5103 43.0767L34.699 43.0063C35.0816 42.8638 35.5082 43.0539 35.6528 43.4311L36.3682 45.2752C36.4508 45.3911 36.5233 45.514 36.5845 45.6427C36.6118 45.6496 36.6398 45.6551 36.6671 45.6617V43.0473C36.6671 40.9803 37.4753 39.2694 38.798 38.0336C38.0686 37.9201 37.3707 37.7341 36.7147 37.478C34.999 38.731 33.9136 40.6507 33.9136 43.0473V44.1678L34.1414 44.1906Z" fill="#41CECA"/>
<path d="M40.9268 55.5395V52.6898C40.9268 52.3809 41.0049 52.09 41.141 51.8336C40.8236 51.2359 40.1855 50.8267 39.4484 50.8267C38.4687 50.8267 37.6626 51.5489 37.5544 52.4779H36.1834V56.8373C36.1834 57.1483 35.923 57.4026 35.6049 57.4026H39.5786V57.3964C40.259 57.3515 40.8421 56.9581 41.141 56.3977C41.0042 56.141 40.9268 55.849 40.9268 55.5395Z" fill="#A2F9F9"/>
<path d="M42.7042 57.3964V57.4026H50.4343C51.8266 57.4026 52.9551 56.3004 52.9551 54.9401C52.9551 53.5801 51.8266 52.4775 50.4343 52.4775H44.728C44.6199 51.5489 43.8138 50.8267 42.8341 50.8267C41.7805 50.8267 40.9265 51.6607 40.9265 52.6898V55.5395C40.9269 56.5254 41.7116 57.3308 42.7042 57.3964Z" fill="#A2F9F9"/>
<path d="M43.6563 55.5395V52.6898C43.6563 52.1842 43.8635 51.7263 44.1981 51.3905C43.8519 51.0434 43.3696 50.8267 42.8341 50.8267C41.7806 50.8267 40.9269 51.6607 40.9269 52.6898V55.5395C40.9269 56.5254 41.7116 57.3308 42.7043 57.3964V57.4026H45.4337V57.3964C44.4414 57.3308 43.6563 56.5254 43.6563 55.5395Z" fill="#91E0E0"/>
<path d="M43.2548 38.1678H40.5593C40.1397 38.1678 39.7266 38.1457 39.322 38.1025C39.3297 39.272 40.3024 40.2182 41.5016 40.2182C42.6822 40.2182 43.6426 39.3017 43.68 38.1578C43.539 38.164 43.3972 38.1678 43.2548 38.1678Z" fill="#FFD5B3"/>
<path d="M52.4356 24.3919C52.4234 24.3919 52.4115 24.3929 52.3992 24.3929V23.1365C52.3992 23.0395 52.3971 22.9429 52.394 22.8466C52.1993 22.9995 51.9785 23.1203 51.7317 23.2065C51.1875 23.3963 50.6558 23.4926 50.1518 23.4926C47.4147 23.4926 46.1763 20.6529 46.1641 20.6243L46.0794 20.4248L45.9982 20.6256C45.9835 20.6626 44.4819 24.3077 41.9751 24.3077C41.7 24.3077 41.4186 24.2635 41.1386 24.1766C39.9506 23.8073 39.5579 22.9163 39.9713 21.5284L39.8085 21.458C39.0378 22.7262 37.8558 24.2376 36.6013 24.2376C36.455 24.2376 36.3087 24.2169 36.1666 24.1759C35.7 24.0416 35.3658 23.7735 35.174 23.3787C34.8607 22.7351 34.9367 21.7558 35.3822 20.6922L35.2184 20.6205C34.1799 22.7676 33.0749 23.8111 31.8404 23.8111C31.7008 23.8111 31.559 23.797 31.4155 23.769V29.1855C31.4155 35.0184 35.5093 38.168 40.5593 38.168H43.2544C47.4948 38.168 51.0597 35.3328 52.0947 31.4875C52.2063 31.5044 52.3201 31.5141 52.4356 31.5141C54.0016 31.5141 55.2711 29.9194 55.2711 27.9528C55.2711 25.9862 54.0016 24.3919 52.4356 24.3919Z" fill="#FFD5B3"/>
<path d="M34.1582 29.1854V23.1364C34.1582 22.9259 34.1663 22.7174 34.1806 22.5107C33.4593 23.4242 32.5457 24.0674 31.4155 23.858V29.1854C31.4155 35.0187 35.5093 38.1679 40.5593 38.1679H43.2544C43.2596 38.1679 43.2645 38.1679 43.2698 38.1676C38.2348 38.1541 34.1582 35.0062 34.1582 29.1854Z" fill="#E5BFA1"/>
<path d="M40.5054 35.3169C38.8089 35.3169 37.4285 33.9683 37.4285 32.3109C37.4285 31.9986 37.6875 31.7456 38.007 31.7456H43.0042C43.3237 31.7456 43.5828 31.9986 43.5828 32.3109C43.5828 33.9683 42.2023 35.3169 40.5054 35.3169Z" fill="#FB8276"/>
<path d="M40.1901 32.3109C40.1901 31.9986 40.4491 31.7456 40.7686 31.7456H38.007C37.6875 31.7456 37.4285 31.9986 37.4285 32.3109C37.4285 33.9683 38.8089 35.3169 40.5058 35.3169C41.0021 35.3169 41.4708 35.2006 41.8866 34.996C40.8814 34.5008 40.1901 33.4834 40.1901 32.3109Z" fill="#E1756A"/>
<path d="M43.0766 13.4971H40.161C34.698 13.4971 30.2693 17.8475 30.2693 23.2136V23.3592C30.4516 23.4969 30.6655 23.6174 30.9179 23.7157C33.0137 24.5346 34.4299 22.4555 35.2993 20.6583C34.6518 22.2039 34.6735 23.8379 36.1415 24.2606C37.5576 24.6685 38.9174 23.0959 39.8852 21.5034C39.5538 22.617 39.6269 23.7992 41.1113 24.2606C44.2355 25.2317 46.0815 20.6583 46.0815 20.6583C46.0815 20.6583 47.7857 24.6768 51.7619 23.2895C52.2768 23.1101 52.6572 22.8016 52.9313 22.4023C52.5113 17.4162 48.261 13.4971 43.0766 13.4971Z" fill="#F7931E"/>
<path d="M33.0015 23.3592V23.2136C33.0015 17.8475 37.4299 13.4971 42.8929 13.4971H40.161C34.698 13.4971 30.2697 17.8475 30.2697 23.2136V23.3592C30.4517 23.4969 30.6655 23.6174 30.9179 23.7157C31.7807 24.0528 32.5283 23.8979 33.1702 23.4745C33.1114 23.4376 33.0547 23.3993 33.0015 23.3592Z" fill="#DE841B"/>
<path d="M28.6035 36.375V35.73C28.6035 35.0433 28.0337 34.4863 27.3305 34.4863H23.6274C22.9242 34.4863 22.3544 35.0433 22.3544 35.73V36.375H28.6035Z" fill="#89C947"/>
<path d="M25.1314 36.375V35.73C25.1314 35.0433 25.7016 34.4863 26.4044 34.4863H23.6274C22.9242 34.4863 22.3544 35.0433 22.3544 35.73V36.375H25.1314Z" fill="#7BB540"/>
<path d="M30.8601 46.3238C30.8601 46.6343 30.5997 46.889 30.2816 46.889H20.6765C20.358 46.889 20.0979 46.6343 20.0979 46.3238V36.9402C20.0979 36.6293 20.358 36.375 20.6765 36.375H30.2816C30.5997 36.375 30.8601 36.6297 30.8601 36.9402V46.3238Z" fill="#D5E962"/>
<path d="M22.8683 46.3238V42.3163L22.3268 41.8032C22.052 41.5437 21.9516 41.1458 22.0706 40.7897C22.1896 40.4356 22.4948 40.1827 22.8683 40.1254V36.9402C22.8683 36.6293 23.1287 36.375 23.4468 36.375H20.6765C20.358 36.375 20.0979 36.6293 20.0979 36.9402V46.3238C20.0979 46.6343 20.358 46.8887 20.6765 46.8887H23.4468C23.1287 46.889 22.8683 46.6343 22.8683 46.3238Z" fill="#BFD158"/>
<path d="M26.9973 44.2229C26.9448 44.2229 26.8923 44.2109 26.844 44.186L25.479 43.4886L24.1139 44.186C24.0656 44.2109 24.0131 44.2229 23.9606 44.2229C23.892 44.2229 23.8245 44.2022 23.7671 44.1615C23.6656 44.0901 23.6148 43.9686 23.6362 43.8485L23.8966 42.3712L22.7923 41.3253C22.7023 41.2404 22.6701 41.113 22.7086 40.9974C22.7478 40.8815 22.8507 40.7966 22.9746 40.779L24.501 40.5637L25.1836 39.2199C25.2389 39.1105 25.3537 39.0415 25.479 39.0415C25.6043 39.0415 25.7187 39.1105 25.7744 39.2199L26.4573 40.5637L27.9833 40.779C28.1072 40.7966 28.2105 40.8815 28.249 40.9974C28.2878 41.113 28.2556 41.2404 28.1657 41.3253L27.0614 42.3712L27.3222 43.8485C27.3435 43.9686 27.2924 44.0901 27.1913 44.1615C27.1335 44.2022 27.0656 44.2229 26.9973 44.2229Z" fill="#89C947"/>
<path d="M25.4213 56.8376C25.4213 57.1485 25.1609 57.4028 24.8423 57.4028H15.2373C14.9191 57.4028 14.6587 57.1485 14.6587 56.8376V47.4544C14.6587 47.1435 14.9191 46.8892 15.2373 46.8892H24.8423C25.1609 46.8892 25.4213 47.1435 25.4213 47.4544V56.8376Z" fill="#FB8276"/>
<path d="M17.4024 56.8376V53.0669L16.9723 52.6521C16.56 52.2542 16.3328 51.7241 16.3332 51.1589C16.3332 50.5936 16.56 50.0636 16.9723 49.6661C17.1032 49.5401 17.2477 49.4324 17.4024 49.3437V47.4544C17.4024 47.1435 17.6629 46.8892 17.981 46.8892H15.2373C14.9191 46.8892 14.6587 47.1435 14.6587 47.4544V56.8376C14.6587 57.1485 14.9191 57.4028 15.2373 57.4028H17.981C17.6629 57.4028 17.4024 57.1485 17.4024 56.8376Z" fill="#E1756A"/>
<path d="M20.0398 54.574C19.9677 54.574 19.8984 54.5464 19.8476 54.4974L17.4423 52.1781C16.8592 51.6159 16.8592 50.7015 17.4423 50.1393C17.7245 49.8674 18.1 49.7173 18.499 49.7173C18.8984 49.7173 19.2736 49.8674 19.5561 50.1397L20.0398 50.6059L20.5235 50.1397C20.8056 49.8674 21.1812 49.7173 21.5806 49.7173C21.9796 49.7173 22.3548 49.8674 22.6373 50.1393C23.2204 50.7015 23.2204 51.6159 22.6373 52.1781L20.232 54.4974C20.1809 54.5464 20.1119 54.574 20.0398 54.574Z" fill="#EF5050"/>
<path d="M34.0529 49.0542L31.8258 48.8334C31.4488 48.7961 31.1744 48.4645 31.2122 48.0928L31.2308 47.9092C31.2686 47.5376 31.6049 47.2667 31.9819 47.304L33.5906 47.4637L33.6028 47.3457L31.6392 47.1507C31.4432 47.1314 31.2756 47.032 31.1643 46.8892H25.9995C25.6813 46.8892 25.4209 47.1435 25.4209 47.4544V56.8376C25.4209 57.1485 25.6813 57.4028 25.9995 57.4028H35.6049C35.9231 57.4028 36.1835 57.1485 36.1835 56.8376V48.2547C35.6672 48.8158 34.8877 49.137 34.0529 49.0542Z" fill="#FFC502"/>
<path d="M28.1549 56.8376V53.7784L27.6768 52.9692C27.3946 52.4923 27.3946 51.8001 27.6768 51.3228L28.1549 50.5136V47.4544C28.1549 47.1435 28.4153 46.8892 28.7334 46.8892H25.9998C25.6813 46.8892 25.4213 47.1435 25.4213 47.4544V56.8376C25.4213 57.1485 25.6813 57.4028 25.9998 57.4028H28.7334C28.4153 57.4028 28.1549 57.1485 28.1549 56.8376Z" fill="#E5B102"/>
<path d="M29.9637 54.5437C29.6455 54.5437 29.2549 54.3235 29.0957 54.0544L28.2574 52.6354C28.0981 52.3662 28.0981 51.9255 28.2574 51.6564L29.0957 50.2374C29.2549 49.9682 29.6455 49.748 29.9637 49.748H31.641C31.9591 49.748 32.3497 49.9682 32.5086 50.2374L33.3473 51.6564C33.5065 51.9255 33.5065 52.3662 33.3473 52.6354L32.5086 54.0544C32.3497 54.3235 31.9591 54.5437 31.641 54.5437H29.9637Z" fill="#FCDB67"/>
<path d="M47.1931 41.1165C46.2915 40.6872 45.2019 41.0544 44.7591 41.9374C43.2457 44.9562 39.7868 46.4387 36.5845 45.6429C36.7641 46.0208 36.846 46.4477 36.8009 46.8904C36.7462 47.426 36.5138 47.9022 36.1666 48.2718C36.1722 48.2659 36.1782 48.2604 36.1834 48.2545V49.2021C40.8743 50.1328 45.8179 47.8939 48.024 43.4931C48.4665 42.61 48.0947 41.5461 47.1931 41.1165Z" fill="#A2F9F9"/>
<path d="M31.2123 48.093L31.2308 47.9094C31.269 47.5378 31.6053 47.2669 31.9823 47.3042L33.5906 47.4639L33.6028 47.3459L31.6396 47.1509C31.2627 47.1137 30.9879 46.782 31.0257 46.4104L31.0446 46.2272C31.0824 45.8555 31.4188 45.5846 31.7957 45.6219L33.759 45.8165L33.7709 45.6985L32.1622 45.5391C31.7852 45.5018 31.5105 45.1702 31.5483 44.7985L31.5672 44.6149C31.605 44.2433 31.9413 43.9724 32.3183 44.0096L34.1415 44.1905L34.1457 44.1908L34.0792 44.0172C33.9347 43.6401 34.1279 43.2191 34.5101 43.0765L34.6987 43.0061C35.0813 42.864 35.5083 43.0541 35.6529 43.4313L36.3683 45.2751C36.6938 45.7323 36.8611 46.2972 36.8009 46.8907C36.6648 48.2228 35.4345 49.1914 34.0526 49.0541L31.8258 48.8332C31.4492 48.7963 31.1744 48.4647 31.2123 48.093Z" fill="#FFD5B3"/>
<path d="M52.5899 32.1723C54.4527 32.075 55.9431 30.2195 55.9431 27.953C55.9431 25.8852 54.7026 24.1598 53.0712 23.7985V23.2591C53.2245 23.1142 53.3642 22.9534 53.4877 22.7736C53.5735 22.6487 53.6134 22.4982 53.6008 22.3474C53.3827 19.7607 52.1916 17.3616 50.2459 15.5927C48.2897 13.8142 45.7437 12.8345 43.0766 12.8345H40.161C34.336 12.8345 29.5972 17.4907 29.5972 23.2136V23.3592C29.5972 23.5649 29.6945 23.7591 29.8604 23.8848C30.097 24.0639 30.3697 24.2143 30.67 24.3316C30.6945 24.3413 30.719 24.3485 30.7435 24.3575V29.1852C30.7435 32.1378 31.7438 34.6151 33.636 36.3495C34.1873 36.8547 34.8099 37.2878 35.489 37.6446C35.2023 37.9235 34.9398 38.2227 34.7032 38.5405C33.8709 38.88 32.9692 39.0588 32.0382 39.0588C31.8684 39.0588 31.6997 39.0515 31.5321 39.0391V36.9403C31.5321 36.2633 30.971 35.7125 30.2815 35.7125H29.2748C29.2654 34.6697 28.397 33.8239 27.3305 33.8239H23.6274C22.5609 33.8239 21.6921 34.6697 21.6827 35.7125H20.6764C19.9865 35.7125 19.4258 36.2633 19.4258 36.9403V46.2265H15.2372C14.5476 46.2265 13.9866 46.7773 13.9866 47.4543V56.8375C13.9866 57.5146 14.5476 58.0653 15.2372 58.0653H39.5785C39.6296 58.0653 39.6797 58.0595 39.728 58.0484C40.267 57.9911 40.7549 57.7706 41.141 57.44C41.5267 57.7699 42.0136 57.9905 42.5519 58.0481C42.6006 58.0595 42.6517 58.065 42.7038 58.065H50.4342C52.1948 58.065 53.627 56.6633 53.627 54.9399C53.627 53.3894 52.4671 52.0999 50.9522 51.8569V50.556C50.9522 50.1902 50.6516 49.8934 50.2802 49.8934C49.9088 49.8934 49.6082 50.1902 49.6082 50.556V51.8152H45.2537C44.8882 50.8424 43.9352 50.1643 42.8337 50.1643C42.1861 50.1643 41.5943 50.3996 41.1406 50.7868C40.6874 50.3996 40.0955 50.1643 39.4483 50.1643C38.3468 50.1643 37.3937 50.8424 37.0283 51.8152H36.8551V49.981C37.3381 50.0421 37.8218 50.0732 38.3041 50.0732C42.5445 50.0732 46.6348 47.7584 48.626 43.7861C48.9197 43.2001 48.9635 42.5379 48.7485 41.9216C48.5333 41.3032 48.0846 40.8053 47.485 40.5195C46.2543 39.9336 44.7612 40.4377 44.1564 41.6438C43.5802 42.7929 42.6737 43.7336 41.5351 44.3641C41.2113 44.5432 41.0962 44.9473 41.2778 45.2662C41.4599 45.5854 41.8694 45.6989 42.1931 45.5198C43.569 44.7579 44.6646 43.6208 45.3615 42.2308C45.6404 41.6738 46.331 41.4419 46.9001 41.7128C47.1745 41.8433 47.3793 42.0703 47.4773 42.3519C47.5746 42.6314 47.5546 42.9324 47.4209 43.1991C45.4364 47.1583 41.0892 49.2471 36.8551 48.6404V48.4975C37.19 48.062 37.4098 47.5358 37.469 46.9567C37.4858 46.7942 37.4882 46.6317 37.4781 46.4705C37.937 46.5202 38.4004 46.5312 38.8635 46.5002C39.2338 46.475 39.5131 46.1586 39.4879 45.7935C39.4623 45.4284 39.1417 45.1544 38.771 45.1778C38.1855 45.2179 37.5989 45.1758 37.0276 45.0598C37.008 45.0284 36.9881 44.997 36.9674 44.9659L36.2811 43.1967C36.0745 42.658 35.5439 42.2964 34.9601 42.2964C34.8456 42.2964 34.7326 42.3112 34.6216 42.3381C34.7942 40.6579 35.5824 39.2382 36.8194 38.2199C37.4228 38.43 38.0577 38.5874 38.7164 38.6899C38.9982 39.9412 40.1396 40.8808 41.5012 40.8808C42.8309 40.8808 43.9506 39.985 44.2649 38.7775C45.2789 38.6747 46.2536 38.419 47.1619 38.0311C48.6988 39.1768 49.6078 40.8988 49.6078 42.9589V47.4644C49.6078 47.8301 49.9088 48.1269 50.2799 48.1269C50.6512 48.1269 50.9519 47.8301 50.9519 47.4644V42.9589C50.9519 40.7135 50.0894 38.7827 48.4556 37.3627C50.3716 36.1863 51.8626 34.3712 52.5899 32.1723ZM41.5988 52.69C41.5988 52.0281 42.1529 51.4894 42.834 51.4894C43.4626 51.4894 43.9898 51.947 44.0605 52.5533C44.0997 52.888 44.3867 53.1403 44.7279 53.1403H50.4342C51.4538 53.1403 52.283 53.9478 52.283 54.9403C52.283 55.9327 51.4538 56.7402 50.4342 56.7402H42.7966C42.7808 56.7381 42.7651 56.7364 42.749 56.7354C42.1039 56.6929 41.5988 56.1674 41.5988 55.5397V52.69ZM36.8554 53.1403H37.5544C37.896 53.1403 38.183 52.888 38.2219 52.5533C38.2926 51.947 38.8201 51.4894 39.4487 51.4894C39.8214 51.4894 40.1557 51.6516 40.3825 51.9066C40.2999 52.1534 40.2548 52.4167 40.2548 52.69V55.5397C40.2548 55.8116 40.2999 56.0742 40.3825 56.3206C40.1736 56.5556 39.8736 56.713 39.5334 56.7354C39.5173 56.7364 39.5015 56.7381 39.4858 56.7402H36.8554V53.1403ZM31.5321 40.3677C31.7001 40.3777 31.8688 40.3839 32.0382 40.3839C32.6294 40.3839 33.2097 40.3215 33.7739 40.2038C33.4599 40.9944 33.2772 41.8554 33.2468 42.7698C32.8485 42.813 32.4453 42.835 32.0382 42.835C31.8688 42.835 31.7001 42.8302 31.5321 42.8223V40.3677ZM31.6409 50.4107C31.7193 50.4107 31.8884 50.5049 31.9279 50.5708L32.7666 51.9898C32.804 52.054 32.804 52.2376 32.7666 52.3021L31.9279 53.7207C31.8884 53.7866 31.7193 53.8812 31.6409 53.8812H29.9637C29.8849 53.8812 29.7158 53.7866 29.6763 53.7207L28.8377 52.3017C28.8002 52.2376 28.8002 52.054 28.8377 51.9898L29.6763 50.5708C29.7158 50.5049 29.8849 50.4103 29.9637 50.4103H31.6409V50.4107ZM23.6274 35.149H27.3305C27.6557 35.149 27.921 35.4002 27.9304 35.7125H23.0274C23.0369 35.4002 23.3018 35.149 23.6274 35.149ZM20.7698 37.0376H30.188V46.2265H20.7698V37.0376ZM24.7491 56.7402H15.3306V47.5517H24.7491V56.7402ZM35.5114 56.7402H26.0932V47.5517H30.6266C30.5951 47.6445 30.5723 47.7415 30.5622 47.8426L30.5433 48.0265C30.5023 48.4313 30.6497 48.8122 30.915 49.0852H29.9637C29.4047 49.0852 28.7953 49.4296 28.5149 49.9038L27.6767 51.3227C27.3946 51.7996 27.3946 52.4922 27.6767 52.9691L28.5149 54.3881C28.7957 54.8623 29.4047 55.2067 29.9637 55.2067H31.6409C32.1999 55.2067 32.8093 54.8623 33.0893 54.3878L33.9279 52.9691C34.2097 52.4922 34.2097 51.8 33.9279 51.3227L33.0896 49.9038C33.0249 49.795 32.9426 49.6932 32.8481 49.6004L33.9853 49.7133C34.0942 49.724 34.2044 49.7295 34.3133 49.7295C34.7368 49.7295 35.1414 49.6494 35.5114 49.5038V56.7402ZM34.6825 44.5891C34.8211 44.4079 34.8558 44.1691 34.7746 43.9566L34.7077 43.783C34.7011 43.7657 34.7018 43.7485 34.7095 43.7316C34.7172 43.715 34.7301 43.7029 34.748 43.6964L34.9359 43.6263C34.9443 43.6232 34.9524 43.6215 34.9604 43.6215C34.965 43.6215 35.0077 43.6229 35.0252 43.6677L35.7406 45.5115C35.7602 45.5629 35.7865 45.6112 35.8183 45.6561C36.0626 45.9984 36.1739 46.4136 36.1323 46.8242C36.0402 47.7252 35.2583 48.4047 34.3133 48.4047C34.2492 48.4047 34.1845 48.4013 34.1201 48.395L31.8933 48.1742C31.8856 48.1735 31.88 48.1666 31.8807 48.1594L31.8996 47.9758C31.9006 47.9658 31.9101 47.9633 31.9146 47.9633H31.915L33.5233 48.1228C33.8919 48.1604 34.2219 47.8943 34.2594 47.5303L34.2713 47.4126C34.2895 47.2376 34.2359 47.0627 34.1232 46.9267C34.0105 46.7904 33.8474 46.7041 33.6699 46.6865L31.7067 46.4916C31.7004 46.4909 31.6938 46.4829 31.6945 46.4767L31.713 46.2931C31.7141 46.2831 31.7242 46.2817 31.7284 46.2807L33.6917 46.4757C33.8691 46.4929 34.0462 46.4405 34.1845 46.3294C34.3224 46.2183 34.4099 46.0574 34.4277 45.8828L34.4396 45.7648C34.4767 45.4007 34.2076 45.0757 33.8383 45.0391L32.2296 44.8797C32.223 44.879 32.2163 44.871 32.217 44.8645L32.2359 44.6809C32.237 44.6709 32.2471 44.6699 32.251 44.6688L34.0742 44.8496C34.0788 44.85 34.0872 44.8507 34.0914 44.8514C34.3213 44.87 34.5443 44.7706 34.6825 44.5891ZM41.5015 39.5557C40.9457 39.5557 40.4602 39.2614 40.1991 38.8248C40.3188 38.8283 40.4385 38.8303 40.5593 38.8303H42.8004C42.5386 39.2641 42.0549 39.5557 41.5015 39.5557ZM43.2547 37.5052H40.5593C35.413 37.5052 32.0875 34.2397 32.0875 29.1852V24.5487C32.7641 24.49 33.4162 24.1936 34.0175 23.6608C34.1288 23.5624 34.238 23.4565 34.3462 23.3423C34.3843 23.4682 34.4316 23.589 34.4872 23.7036C34.7728 24.2902 35.2797 24.7029 35.9531 24.8965C37.0469 25.2119 38.1519 24.7488 39.2499 23.5186C39.5246 24.1629 40.0854 24.6363 40.9093 24.8927C41.2708 25.0049 41.6293 25.0608 41.9835 25.0605C43.1595 25.0605 44.2855 24.4459 45.2873 23.2443C45.6271 22.8364 45.9085 22.413 46.1287 22.0399C46.4126 22.4257 46.7909 22.8547 47.2708 23.2301C47.5616 23.4572 47.9845 23.4092 48.2151 23.1225C48.4458 22.8357 48.3968 22.4192 48.1059 22.1918C47.1619 21.4536 46.7052 20.4115 46.7017 20.4029C46.597 20.1561 46.3523 19.9957 46.0814 19.9957C46.0797 19.9957 46.0776 19.9957 46.0758 19.9957C45.8028 19.9981 45.5582 20.1634 45.457 20.4132C45.4409 20.4532 43.8126 24.4058 41.3136 23.6287C40.6975 23.4372 40.1232 23.0572 40.5302 21.69C40.6254 21.3701 40.4648 21.0302 40.1547 20.8967C39.8452 20.7628 39.4826 20.877 39.3087 21.1631C38.2177 22.9582 37.133 23.8565 36.3297 23.6249C36.0203 23.5355 35.8201 23.3785 35.699 23.1304C35.4606 22.6407 35.5436 21.8111 35.9205 20.9115C36.0595 20.5795 35.9051 20.1989 35.5723 20.0529C35.2401 19.9073 34.8495 20.0488 34.6927 20.3732C33.0228 23.8254 31.6248 23.2791 31.1653 23.0997C31.0875 23.0693 31.014 23.0358 30.944 22.9996C31.0602 18.106 35.1502 14.1596 40.161 14.1596H43.0766C47.7493 14.1596 51.724 17.6743 52.2368 22.207C52.0499 22.4161 51.8196 22.5665 51.5375 22.6649C51.2592 22.7622 50.9844 22.8322 50.7198 22.8733C50.3534 22.9303 50.1031 23.2695 50.1609 23.6311C50.219 23.9924 50.5627 24.2395 50.9295 24.1822C51.1913 24.1412 51.4584 24.0797 51.7272 23.9983V24.3927C51.7272 24.5694 51.7986 24.7388 51.9256 24.8631C52.0516 24.9863 52.2217 25.0553 52.3992 25.0553C52.4128 25.0556 52.4261 25.0549 52.4426 25.0542C53.6323 25.0594 54.599 26.3576 54.599 27.953C54.599 29.551 53.6284 30.8513 52.4356 30.8513C52.3589 30.8513 52.2805 30.8454 52.1958 30.8327C51.8563 30.7816 51.5333 30.9907 51.445 31.3175C50.4643 34.9609 47.0965 37.5052 43.2547 37.5052Z" fill="black"/>
<path d="M45.3188 26.6685C44.9474 26.6685 44.6467 26.9649 44.6467 27.331V28.4177C44.6467 28.7838 44.9474 29.0802 45.3188 29.0802C45.6898 29.0802 45.9908 28.7838 45.9908 28.4177V27.331C45.9908 26.9649 45.6898 26.6685 45.3188 26.6685Z" fill="black"/>
<path d="M35.3893 26.6685C35.0179 26.6685 34.7173 26.9649 34.7173 27.331V28.4177C34.7173 28.7838 35.0179 29.0802 35.3893 29.0802C35.7603 29.0802 36.0613 28.7838 36.0613 28.4177V27.331C36.0613 26.9649 35.7603 26.6685 35.3893 26.6685Z" fill="black"/>
<path d="M40.3535 30.0344H40.7893C41.1607 30.0344 41.4613 29.7376 41.4613 29.3718C41.4613 29.0057 41.1607 28.7093 40.7893 28.7093H40.5901V28.0947C40.5901 27.7286 40.2891 27.4321 39.9181 27.4321C39.5468 27.4321 39.2461 27.7286 39.2461 28.0947V28.9301C39.2461 29.5389 39.7428 30.0344 40.3535 30.0344Z" fill="black"/>
<path d="M43.0042 31.083H38.0071C37.3175 31.083 36.7565 31.6338 36.7565 32.3108C36.7565 34.3337 38.4383 35.9794 40.5055 35.9794C42.573 35.9794 44.2548 34.3337 44.2548 32.3108C44.2548 31.6341 43.6937 31.083 43.0042 31.083ZM40.5055 34.6546C39.2129 34.6546 38.1548 33.6556 38.1023 32.4081H42.909C42.8562 33.6556 41.7984 34.6546 40.5055 34.6546Z" fill="black"/>
<path d="M28.0781 40.123L26.9003 39.957L26.3753 38.9234C26.2049 38.5877 25.8615 38.3789 25.4789 38.3789C25.0964 38.3789 24.753 38.5877 24.5825 38.9231L24.0575 39.957L22.8783 40.1233C22.5 40.1771 22.1905 40.4322 22.0705 40.7897C21.9511 41.1454 22.0519 41.5437 22.3264 41.8032L23.173 42.6048L22.9739 43.7346C22.9084 44.1035 23.0666 44.4828 23.3736 44.6984C23.5451 44.8206 23.7481 44.8851 23.9602 44.8851C24.1219 44.8851 24.2829 44.8465 24.4229 44.774L25.4789 44.2346L26.5314 44.7723C26.6742 44.8461 26.8352 44.8851 26.9973 44.8851C27.2097 44.8851 27.4128 44.8206 27.5815 44.7005C27.8912 44.4824 28.0494 44.1032 27.984 43.7346L27.7848 42.6048L28.6308 41.8035C28.9056 41.5437 29.0064 41.1454 28.887 40.7897C28.768 40.4325 28.4582 40.1775 28.0781 40.123ZM26.5958 41.8936C26.4345 42.0461 26.361 42.2677 26.3995 42.4847L26.5405 43.2846L25.788 42.9002C25.6914 42.8505 25.585 42.826 25.4789 42.826C25.3729 42.826 25.2668 42.8505 25.1699 42.9002L24.4177 43.2846L24.5587 42.4847C24.5969 42.2677 24.5234 42.0461 24.362 41.8932L23.773 41.3356L24.5962 41.2196C24.8143 41.1886 25.0029 41.0543 25.1016 40.8604L25.4789 40.1178L25.8562 40.8604C25.9549 41.0547 26.144 41.1889 26.362 41.2196L27.1849 41.3356L26.5958 41.8936Z" fill="black"/>
<path d="M19.3776 54.971C19.555 55.1421 19.7902 55.2367 20.0398 55.2367C20.289 55.2367 20.5242 55.1425 20.702 54.9713L23.1073 52.6516C23.5196 52.2541 23.7468 51.7241 23.7468 51.1588C23.7468 50.5936 23.5196 50.0635 23.1073 49.666C22.6985 49.2719 22.1563 49.0552 21.5805 49.0552C21.0048 49.0552 20.4622 49.2722 20.0538 49.666L20.0398 49.6794L20.0261 49.666C19.6177 49.2722 19.0751 49.0552 18.4994 49.0552C17.9232 49.0552 17.3811 49.2719 16.9726 49.666C16.5603 50.0635 16.3331 50.5936 16.3331 51.1588C16.3331 51.7241 16.5603 52.2541 16.9726 52.652L19.3776 54.971ZM17.912 50.6132C18.0678 50.4628 18.2764 50.38 18.499 50.38C18.7216 50.38 18.9302 50.4628 19.0863 50.6132L19.5697 51.0798C19.8308 51.3314 20.2484 51.3314 20.5095 51.0798L20.9932 50.6136C21.1493 50.4631 21.3576 50.38 21.5805 50.38C21.8031 50.38 22.0114 50.4628 22.1675 50.6132C22.3191 50.7592 22.4024 50.9531 22.4024 51.1588C22.4027 51.3645 22.3191 51.5584 22.1675 51.7044L20.0398 53.7559L17.912 51.7044C17.7605 51.5584 17.6768 51.3645 17.6772 51.1588C17.6772 50.9531 17.7605 50.7592 17.912 50.6132Z" fill="black"/>
<path d="M52.3786 30.0287C52.4864 30.0287 52.596 30.0032 52.6975 29.949C54.1329 29.1843 53.898 27.5824 53.5736 26.8422C53.4262 26.5065 53.0307 26.3515 52.6898 26.4971C52.3492 26.6424 52.1924 27.0324 52.3398 27.3681C52.3583 27.4099 52.7815 28.3982 52.0584 28.7833C51.7318 28.9572 51.6104 29.3593 51.7868 29.6812C51.9082 29.9028 52.1396 30.0287 52.3786 30.0287Z" fill="black"/>
</g>
<defs>
<clipPath id="clip0_430_219">
<rect width="45.8769" height="45.2308" fill="white" transform="translate(12.0154 12.9229)"/>
</clipPath>
</defs>
</svg>
