<svg width="22" height="23" viewBox="0 0 22 23" fill="none" xmlns="http://www.w3.org/2000/svg">
<g clip-path="url(#clip0_451_204)">
<path d="M18.2055 22.6628H1.76387C1.47894 22.6628 1.24792 22.4212 1.24792 22.1234V7.74658H18.7215V22.1234C18.7215 22.4212 18.4905 22.6628 18.2055 22.6628Z" fill="#FE646F"/>
<path d="M18.7216 7.74658V22.1234C18.7216 22.4214 18.4903 22.6628 18.2056 22.6628H17.245C17.5301 22.6628 17.7609 22.4214 17.7609 22.1234V7.74658H18.7216Z" fill="#FD4755"/>
<path d="M9.46646 2.74126L8.91874 2.15444C8.48263 1.72071 8.01381 1.31594 7.50363 0.980615C6.99271 0.644839 6.40221 0.370015 5.79137 0.339674C5.48937 0.324661 5.18591 0.369926 4.90811 0.499201C3.76172 1.03276 3.1106 2.56231 3.21547 3.82769C3.22101 3.89462 3.28632 4.75267 3.30386 4.75267H9.46646C9.46646 4.75267 9.46646 2.74202 9.46646 2.74126Z" fill="#FEA613"/>
<path d="M10.5029 2.74121L11.0507 2.15439C11.4868 1.72067 11.9556 1.3159 12.4658 0.980615C12.9767 0.644839 13.5672 0.370015 14.1781 0.339674C14.4801 0.324661 14.7835 0.369926 15.0613 0.499201C16.2077 1.03276 16.8588 2.56231 16.7539 3.82769C16.7484 3.89463 16.6831 4.75267 16.6655 4.75267C16.6574 4.75267 10.5029 4.75267 10.5029 4.75267C10.5029 4.75267 10.5029 2.74198 10.5029 2.74121Z" fill="#FEA613"/>
<path d="M16.7537 3.82772C16.7485 3.8947 16.6832 4.75279 16.6656 4.75279H15.8912C15.9136 4.50467 15.9368 4.2035 15.9398 4.16485C16.0447 2.89951 15.3933 1.36986 14.2471 0.836308C13.9693 0.707302 13.6658 0.661902 13.3639 0.676736C13.1821 0.685726 13.0019 0.716741 12.8252 0.764388C13.2457 0.532896 13.7057 0.363435 14.1778 0.339612C14.4801 0.324778 14.7836 0.370178 15.0614 0.499184C16.2077 1.03274 16.8586 2.56238 16.7537 3.82772Z" fill="#FE9901"/>
<path d="M18.8733 7.74673H1.09615C0.811215 7.74673 0.5802 7.50521 0.5802 7.20733V5.29233C0.5802 4.99445 0.811215 4.75293 1.09615 4.75293H18.8733C19.1582 4.75293 19.3892 4.99445 19.3892 5.29233V7.20733C19.3892 7.50521 19.1582 7.74673 18.8733 7.74673Z" fill="#FB2B3A"/>
<path d="M12.2272 4.75289H7.74207V4.58815C7.74207 3.29332 8.7461 2.24365 9.98463 2.24365C11.2232 2.24365 12.2272 3.29332 12.2272 4.58815V4.75289H12.2272Z" fill="#FEC165"/>
<path d="M12.2271 4.58779V4.75275H11.4115V4.62959C11.4115 3.98231 11.1604 3.39617 10.7545 2.97229C10.4157 2.61764 9.96811 2.3758 9.46851 2.30613C9.63404 2.26523 9.80688 2.24365 9.98445 2.24365C10.6036 2.24365 11.1642 2.50616 11.5701 2.93004C11.976 3.35436 12.2271 3.94051 12.2271 4.58779Z" fill="#FDB441"/>
<path d="M7.27856 4.75293H12.6908V7.74673H7.27856V4.75293Z" fill="#E1D3CE"/>
<path d="M11.7416 4.75293H12.6908V7.74673H11.7416V4.75293Z" fill="#CDBFBA"/>
<path d="M7.94873 7.74658H12.0206V22.6628H7.94873V7.74658Z" fill="#F3EAE6"/>
<path d="M11.025 7.74658H12.0206V22.6628H11.025V7.74658Z" fill="#E1D3CE"/>
<path d="M18.731 15.1802H16.9285V19.9404C16.9285 20.1319 17.112 20.264 17.2831 20.1956L18.6377 19.6541C18.6978 19.6301 18.7642 19.6301 18.8243 19.6541L20.1789 20.1956C20.35 20.264 20.5335 20.1319 20.5335 19.9404V15.1802H18.731Z" fill="#8AC9FE"/>
<path d="M20.5336 15.1802V19.9405C20.5336 20.1317 20.3501 20.264 20.1787 20.1956L19.6174 19.9711C19.6352 19.935 19.6451 19.894 19.6451 19.8492V15.1802H20.5336Z" fill="#60B7FF"/>
<path d="M18.731 16.2885C20.216 16.2885 21.4198 15.03 21.4198 13.4775C21.4198 11.925 20.216 10.6665 18.731 10.6665C17.246 10.6665 16.0422 11.925 16.0422 13.4775C16.0422 15.03 17.246 16.2885 18.731 16.2885Z" fill="#FEC165"/>
<path d="M18.9707 11.9873L19.2573 12.5943C19.2761 12.6341 19.3124 12.6617 19.3544 12.6681L19.9951 12.7654C20.2143 12.7987 20.3018 13.0803 20.1432 13.2419L19.6797 13.7144C19.6493 13.7454 19.6354 13.79 19.6426 13.8338L19.752 14.5009C19.7894 14.7291 19.5603 14.9032 19.3642 14.7954L18.7912 14.4804C18.7536 14.4598 18.7087 14.4598 18.6711 14.4804L18.098 14.7954C17.902 14.9031 17.6728 14.7291 17.7103 14.5009L17.8197 13.8338C17.8269 13.79 17.813 13.7454 17.7826 13.7144L17.319 13.2419C17.1604 13.0803 17.248 12.7987 17.4671 12.7654L18.1078 12.6681C18.1499 12.6617 18.1862 12.6341 18.205 12.5943L18.4915 11.9873C18.5895 11.7796 18.8727 11.7796 18.9707 11.9873Z" fill="#FE9901"/>
<path d="M19.6797 13.7146C19.649 13.7457 19.6355 13.79 19.6427 13.8339L19.7518 14.5013C19.7892 14.7294 19.5602 14.9034 19.3641 14.7954L18.791 14.4805C18.7536 14.4598 18.7085 14.4598 18.6711 14.4805L18.0981 14.7954C17.9019 14.9033 17.6729 14.7294 17.7103 14.5013L17.7352 14.349C17.7482 14.3448 17.7613 14.3387 17.7744 14.3316C17.8586 14.2852 17.9429 14.2389 18.0272 14.1925C18.1542 14.1226 18.2813 14.0512 18.416 13.9987C18.5261 13.9557 18.644 13.9389 18.7609 13.9342C18.8872 13.9293 19.0738 14.0206 19.1519 13.8688C19.176 13.8221 19.1685 13.7568 19.177 13.706C19.2167 13.4701 19.346 13.2602 19.5119 13.0943C19.616 12.9906 19.7165 12.883 19.8195 12.778C19.8303 12.7667 19.8402 12.7554 19.8483 12.7432L19.9953 12.7658C20.2144 12.7988 20.3019 13.0806 20.1431 13.2423L19.6797 13.7146Z" fill="#FB8801"/>
<path d="M19.0439 10.3463V8.06545C19.4247 7.98278 19.7117 7.62943 19.7117 7.20726V5.29222C19.7117 4.80892 19.3355 4.4157 18.8733 4.4157H17.0293C17.0465 4.22133 17.0636 4.0036 17.0714 3.90489L17.0752 3.85701C17.1331 3.15872 16.9873 2.40599 16.6647 1.7374C16.3194 1.02167 15.7966 0.472603 15.1925 0.191442C14.8841 0.0479166 14.5377 -0.0153728 14.1627 0.00314651C13.5776 0.0321841 12.9489 0.265114 12.2942 0.69542C11.8097 1.01384 11.3302 1.41125 10.8284 1.91037C10.8255 1.9132 10.8226 1.91617 10.8198 1.91914L10.725 2.02081C10.4904 1.94673 10.242 1.9065 9.9847 1.9065C9.72737 1.9065 9.47894 1.94678 9.2444 2.02081L9.14951 1.91914C9.14672 1.91617 9.14388 1.9132 9.141 1.91037C8.63915 1.41125 8.15971 1.01384 7.67524 0.69542C7.0205 0.265114 6.39182 0.0321841 5.80661 0.00314651C5.43177 -0.0153279 5.08527 0.0479166 4.77691 0.191442C4.17282 0.472603 3.64995 1.02167 3.30466 1.7374C2.9821 2.40599 2.83635 3.15872 2.89422 3.85697L2.89805 3.90502C2.90583 4.00378 2.92294 4.22142 2.94014 4.4157H1.0961C0.633815 4.4157 0.25769 4.80892 0.25769 5.29222V7.20726C0.25769 7.62943 0.544686 7.98278 0.925454 8.06545V10.7133C0.925454 10.8995 1.06983 11.0504 1.24792 11.0504C1.42601 11.0504 1.57039 10.8995 1.57039 10.7133V8.08379H7.62631V22.3258H1.76387C1.65719 22.3258 1.57039 22.235 1.57039 22.1235V12.2641C1.57039 12.0779 1.42601 11.927 1.24792 11.927C1.06983 11.927 0.925454 12.0779 0.925454 12.2641V22.1235C0.925454 22.6068 1.30158 23 1.76387 23H18.2055C18.6678 23 19.0439 22.6068 19.0439 22.1235V20.1029L20.0638 20.5105C20.1313 20.5376 20.2019 20.5508 20.2723 20.5508C20.3889 20.5508 20.5045 20.5143 20.6033 20.4432C20.7616 20.3293 20.8561 20.1414 20.8561 19.9404V15.7056C21.4032 15.1353 21.7423 14.3469 21.7423 13.4773C21.7423 11.852 20.5579 10.5105 19.0439 10.3463ZM18.8733 5.08999C18.98 5.08999 19.0668 5.18074 19.0668 5.29226V7.20731C19.0668 7.31883 18.98 7.40958 18.8733 7.40958H13.0133V5.08999H18.8733ZM12.6375 1.26624C13.197 0.898458 13.7205 0.700049 14.1934 0.676586C14.4669 0.663235 14.7147 0.707107 14.9303 0.80739C15.7587 1.19297 16.5472 2.41731 16.4327 3.79885L16.4287 3.84964C16.408 4.11323 16.3927 4.29307 16.3816 4.41574H12.5439C12.4901 3.5345 12.0275 2.76806 11.3525 2.3213C11.7937 1.89032 12.2151 1.5438 12.6375 1.26624ZM9.9847 2.58075C10.9879 2.58075 11.8138 3.38927 11.8978 4.4157H8.07157C8.15554 3.38931 8.98153 2.58075 9.9847 2.58075ZM6.95609 7.40954H1.0961C0.989431 7.40954 0.902623 7.31878 0.902623 7.20726V5.29222C0.902623 5.1807 0.989431 5.08994 1.0961 5.08994H6.95609V7.40954ZM3.58787 4.41574C3.57673 4.29307 3.56151 4.11327 3.54074 3.84973L3.5367 3.7988C3.42221 2.4174 4.21074 1.19297 5.03918 0.80739C5.25472 0.707062 5.50242 0.663101 5.776 0.676586C6.2489 0.700049 6.77237 0.898503 7.33192 1.26624C7.75431 1.54385 8.17562 1.89032 8.61684 2.3213C7.94185 2.76806 7.47926 3.5345 7.42548 4.41574H3.58787ZM7.60103 7.40954V5.08994H12.3683V7.40954H7.60103ZM11.6982 22.3258H8.27124V8.08379H11.6982V22.3258ZM20.2111 19.8476L18.9395 19.3393C18.8051 19.2856 18.6571 19.2856 18.5226 19.3393L17.251 19.8476V18.9017C17.251 18.7155 17.1066 18.5646 16.9285 18.5646C16.7504 18.5646 16.6061 18.7155 16.6061 18.9017V19.9405C16.6061 20.1414 16.7006 20.3293 16.8589 20.4433C17.0172 20.5572 17.2188 20.5822 17.3983 20.5106L18.399 20.1106V22.1235C18.399 22.235 18.3122 22.3258 18.2055 22.3258H12.3431V8.08379H18.3991V10.3488C16.8944 10.5222 15.7199 11.8589 15.7199 13.4774C15.7199 14.347 16.059 15.1353 16.6061 15.7056V17.3284C16.6061 17.5146 16.7505 17.6655 16.9286 17.6655C17.1067 17.6655 17.251 17.5146 17.251 17.3284V16.2173C17.6885 16.4766 18.1933 16.6254 18.7311 16.6254C19.2689 16.6254 19.7738 16.4766 20.2112 16.2173V19.8476H20.2111ZM18.7311 15.9513C17.4263 15.9513 16.3648 14.8415 16.3648 13.4774C16.3648 12.1133 17.4263 11.0036 18.7311 11.0036C20.0359 11.0036 21.0974 12.1133 21.0974 13.4774C21.0974 14.8415 20.0359 15.9513 18.7311 15.9513Z" fill="black"/>
<path d="M20.5174 12.8515C20.4476 12.6267 20.2652 12.466 20.0414 12.432L19.5013 12.3499L19.2598 11.8383C19.1597 11.6263 18.9571 11.4947 18.731 11.4946C18.5049 11.4946 18.3023 11.6263 18.2022 11.8383L17.9607 12.3499L17.4206 12.432C17.1968 12.466 17.0144 12.6267 16.9446 12.8515C16.8747 13.0764 16.9319 13.3186 17.0938 13.4836L17.4846 13.8818L17.3923 14.4442C17.3541 14.6771 17.444 14.9081 17.6269 15.0471C17.8098 15.1861 18.0478 15.204 18.2479 15.0941L18.731 14.8286L19.2141 15.0941C19.3011 15.1419 19.3952 15.1656 19.489 15.1656C19.6108 15.1656 19.7317 15.1256 19.8351 15.0471C20.018 14.9081 20.1079 14.6771 20.0697 14.4442L19.9774 13.8818L20.3682 13.4836C20.5302 13.3185 20.5873 13.0764 20.5174 12.8515ZM19.4545 13.4731C19.348 13.5816 19.2995 13.7378 19.3246 13.891L19.4151 14.4428L18.9412 14.1823C18.8096 14.1099 18.6525 14.1099 18.5209 14.1823L18.0469 14.4428L18.1374 13.891C18.1625 13.7378 18.114 13.5816 18.0075 13.4731L17.624 13.0824L18.1539 13.0019C18.301 12.9796 18.4281 12.8831 18.494 12.7437L18.731 12.2417L18.968 12.7437C19.0338 12.8831 19.161 12.9796 19.308 13.0019L19.838 13.0824L19.4545 13.4731Z" fill="black"/>
</g>
<defs>
<clipPath id="clip0_451_204">
<rect width="22" height="23" fill="white"/>
</clipPath>
</defs>
</svg>
