<svg width="316" height="63" viewBox="0 0 316 63" fill="none" xmlns="http://www.w3.org/2000/svg">
<rect opacity="0.16" x="0.5" y="7.5" width="315" height="55" rx="7.5" stroke="#263238"/>
<rect x="12" width="54" height="17" fill="white"/>
<path d="M13.1591 12V3.27273H15.9759C16.5952 3.27273 17.1122 3.39205 17.527 3.63068C17.9446 3.86648 18.2585 4.1875 18.4688 4.59375C18.6818 5 18.7884 5.45739 18.7884 5.96591C18.7884 6.47443 18.6832 6.93324 18.473 7.34233C18.2628 7.74858 17.9503 8.07102 17.5355 8.30966C17.1207 8.54545 16.6051 8.66335 15.9886 8.66335H13.7727V7.94744H15.9673C16.4247 7.94744 16.804 7.86222 17.1051 7.69176C17.4063 7.51847 17.6307 7.28267 17.7784 6.98438C17.929 6.68608 18.0043 6.34659 18.0043 5.96591C18.0043 5.58523 17.929 5.24574 17.7784 4.94744C17.6307 4.64915 17.4048 4.41477 17.1009 4.24432C16.7997 4.07386 16.4176 3.98864 15.9545 3.98864H13.956V12H13.1591ZM22.3295 12.1491C21.9347 12.1491 21.5739 12.0724 21.2472 11.919C20.9205 11.7628 20.6605 11.5384 20.4673 11.2457C20.2741 10.9503 20.1776 10.5923 20.1776 10.1719C20.1776 9.84801 20.2386 9.57528 20.3608 9.35369C20.483 9.1321 20.6563 8.95028 20.8807 8.80824C21.1051 8.66619 21.3707 8.55398 21.6776 8.47159C21.9844 8.3892 22.3224 8.32528 22.6918 8.27983C23.0582 8.23437 23.3679 8.1946 23.6207 8.16051C23.8764 8.12642 24.071 8.07244 24.2045 7.99858C24.3381 7.92472 24.4048 7.8054 24.4048 7.64062V7.48722C24.4048 7.04119 24.2713 6.69034 24.0043 6.43466C23.7401 6.17614 23.3594 6.04688 22.8622 6.04688C22.3906 6.04688 22.0057 6.15057 21.7074 6.35795C21.4119 6.56534 21.2045 6.80966 21.0852 7.09091L20.3651 6.83097C20.5128 6.47301 20.7173 6.1875 20.9787 5.97443C21.2401 5.75852 21.5327 5.60369 21.8565 5.50994C22.1804 5.41335 22.5085 5.36506 22.8409 5.36506C23.0909 5.36506 23.3509 5.39773 23.6207 5.46307C23.8935 5.52841 24.1463 5.64205 24.3793 5.80398C24.6122 5.96307 24.8011 6.18608 24.946 6.47301C25.0909 6.7571 25.1634 7.1179 25.1634 7.5554V12H24.4048V10.9645H24.358C24.267 11.1577 24.1321 11.3452 23.9531 11.527C23.7741 11.7088 23.5497 11.858 23.2798 11.9744C23.0099 12.0909 22.6932 12.1491 22.3295 12.1491ZM22.4318 11.4545C22.8352 11.4545 23.1847 11.3651 23.4801 11.1861C23.7756 11.0071 24.0028 10.7699 24.1619 10.4744C24.3239 10.1761 24.4048 9.84801 24.4048 9.49006V8.54403C24.348 8.59801 24.2528 8.64631 24.1193 8.68892C23.9886 8.73153 23.8366 8.76989 23.6634 8.80398C23.4929 8.83523 23.3224 8.86222 23.152 8.88494C22.9815 8.90767 22.8281 8.92756 22.6918 8.9446C22.3224 8.99006 22.0071 9.06108 21.7457 9.15767C21.4844 9.25426 21.2841 9.38778 21.1449 9.55824C21.0057 9.72585 20.9361 9.94176 20.9361 10.206C20.9361 10.6037 21.0781 10.9119 21.3622 11.1307C21.6463 11.3466 22.0028 11.4545 22.4318 11.4545ZM31.5788 6.89062L30.8842 7.08665C30.8161 6.89062 30.7195 6.71307 30.5945 6.55398C30.4695 6.39489 30.3061 6.26847 30.1044 6.17472C29.9055 6.08097 29.6584 6.03409 29.3629 6.03409C28.9197 6.03409 28.5561 6.1392 28.272 6.34943C27.9879 6.55966 27.8459 6.83097 27.8459 7.16335C27.8459 7.4446 27.9425 7.6733 28.1357 7.84943C28.3317 8.02273 28.6328 8.16051 29.0391 8.26278L30.0277 8.50568C30.576 8.6392 30.9865 8.85085 31.2592 9.14062C31.5348 9.4304 31.6726 9.79403 31.6726 10.2315C31.6726 10.6009 31.5703 10.929 31.3658 11.2159C31.1612 11.5028 30.8757 11.7287 30.5092 11.8935C30.1456 12.0554 29.7237 12.1364 29.2436 12.1364C28.6044 12.1364 28.0774 11.9929 27.6626 11.706C27.2479 11.4162 26.9822 10.9986 26.8658 10.4531L27.5945 10.2741C27.6882 10.6634 27.8714 10.9574 28.1442 11.1562C28.4197 11.3551 28.782 11.4545 29.2308 11.4545C29.7337 11.4545 30.1357 11.3423 30.4368 11.1179C30.7379 10.8906 30.8885 10.6065 30.8885 10.2656C30.8885 10.0014 30.8004 9.77983 30.6243 9.60085C30.4482 9.41903 30.1811 9.28551 29.8232 9.20028L28.7536 8.9446C28.1854 8.80824 27.7649 8.59233 27.4922 8.29688C27.2195 8.00142 27.0831 7.63494 27.0831 7.19744C27.0831 6.83665 27.1811 6.51989 27.3771 6.24716C27.5732 5.97159 27.843 5.75568 28.1868 5.59943C28.5305 5.44318 28.9226 5.36506 29.3629 5.36506C29.9624 5.36506 30.4411 5.50142 30.799 5.77415C31.1598 6.04403 31.4197 6.41619 31.5788 6.89062ZM37.7312 6.89062L37.0366 7.08665C36.9684 6.89062 36.8718 6.71307 36.7468 6.55398C36.6218 6.39489 36.4585 6.26847 36.2567 6.17472C36.0579 6.08097 35.8107 6.03409 35.5153 6.03409C35.0721 6.03409 34.7085 6.1392 34.4244 6.34943C34.1403 6.55966 33.9982 6.83097 33.9982 7.16335C33.9982 7.4446 34.0948 7.6733 34.288 7.84943C34.484 8.02273 34.7852 8.16051 35.1914 8.26278L36.18 8.50568C36.7283 8.6392 37.1388 8.85085 37.4116 9.14062C37.6871 9.4304 37.8249 9.79403 37.8249 10.2315C37.8249 10.6009 37.7227 10.929 37.5181 11.2159C37.3136 11.5028 37.0281 11.7287 36.6616 11.8935C36.2979 12.0554 35.8761 12.1364 35.396 12.1364C34.7567 12.1364 34.2298 11.9929 33.815 11.706C33.4002 11.4162 33.1346 10.9986 33.0181 10.4531L33.7468 10.2741C33.8406 10.6634 34.0238 10.9574 34.2965 11.1562C34.5721 11.3551 34.9343 11.4545 35.3832 11.4545C35.886 11.4545 36.288 11.3423 36.5891 11.1179C36.8903 10.8906 37.0408 10.6065 37.0408 10.2656C37.0408 10.0014 36.9528 9.77983 36.7766 9.60085C36.6005 9.41903 36.3335 9.28551 35.9755 9.20028L34.9059 8.9446C34.3377 8.80824 33.9173 8.59233 33.6445 8.29688C33.3718 8.00142 33.2354 7.63494 33.2354 7.19744C33.2354 6.83665 33.3335 6.51989 33.5295 6.24716C33.7255 5.97159 33.9954 5.75568 34.3391 5.59943C34.6829 5.44318 35.0749 5.36506 35.5153 5.36506C36.1147 5.36506 36.5934 5.50142 36.9513 5.77415C37.3121 6.04403 37.5721 6.41619 37.7312 6.89062ZM40.9389 12L38.9616 5.45455H39.7628L41.3139 10.8537H41.3693L42.9162 5.45455H43.7216L45.2557 10.8409H45.3153L46.8665 5.45455H47.6676L45.6903 12H44.9062L43.3551 6.63494H43.2741L41.723 12H40.9389ZM51.4634 12.1364C50.8981 12.1364 50.3981 11.9929 49.9634 11.706C49.5316 11.419 49.1935 11.0227 48.9492 10.517C48.7049 10.0085 48.5827 9.42187 48.5827 8.7571C48.5827 8.08665 48.7049 7.49716 48.9492 6.98864C49.1935 6.47727 49.5316 6.07955 49.9634 5.79545C50.3981 5.50852 50.8981 5.36506 51.4634 5.36506C52.0288 5.36506 52.5273 5.50852 52.9592 5.79545C53.391 6.08239 53.729 6.48011 53.9734 6.98864C54.2205 7.49716 54.3441 8.08665 54.3441 8.7571C54.3441 9.42187 54.2219 10.0085 53.9776 10.517C53.7333 11.0227 53.3938 11.419 52.9592 11.706C52.5273 11.9929 52.0288 12.1364 51.4634 12.1364ZM51.4634 11.4418C51.918 11.4418 52.3029 11.3196 52.6183 11.0753C52.9336 10.831 53.1722 10.5057 53.3342 10.0994C53.4989 9.69318 53.5813 9.24574 53.5813 8.7571C53.5813 8.26847 53.4989 7.8196 53.3342 7.41051C53.1722 7.00142 52.9336 6.6733 52.6183 6.42614C52.3029 6.17898 51.918 6.0554 51.4634 6.0554C51.0117 6.0554 50.6268 6.17898 50.3086 6.42614C49.9933 6.6733 49.7532 7.00142 49.5884 7.41051C49.4265 7.8196 49.3455 8.26847 49.3455 8.7571C49.3455 9.24574 49.4265 9.69318 49.5884 10.0994C49.7532 10.5057 49.9933 10.831 50.3086 11.0753C50.6239 11.3196 51.0089 11.4418 51.4634 11.4418ZM56.0092 12V5.45455H56.7464V6.46023H56.8018C56.9325 6.13068 57.1598 5.86506 57.4837 5.66335C57.8104 5.45881 58.1797 5.35653 58.5916 5.35653C58.6541 5.35653 58.7237 5.35795 58.8004 5.3608C58.8771 5.36364 58.9411 5.36648 58.9922 5.36932V6.14062C58.9581 6.13494 58.8984 6.12642 58.8132 6.11506C58.728 6.10369 58.6357 6.09801 58.5362 6.09801C58.1953 6.09801 57.8913 6.17045 57.6243 6.31534C57.3601 6.45739 57.1513 6.65483 56.9979 6.90767C56.8445 7.16051 56.7678 7.44886 56.7678 7.77273V12H56.0092ZM62.4439 12.1364C61.907 12.1364 61.4368 11.9943 61.0334 11.7102C60.63 11.4261 60.3146 11.0298 60.0874 10.5213C59.8629 10.0128 59.7507 9.42045 59.7507 8.74432C59.7507 8.07102 59.8629 7.48153 60.0874 6.97585C60.3146 6.46733 60.6314 6.07244 61.0376 5.79119C61.4439 5.5071 61.9169 5.36506 62.4567 5.36506C62.8544 5.36506 63.1854 5.43608 63.4496 5.57812C63.7138 5.71733 63.9254 5.89062 64.0845 6.09801C64.2436 6.3054 64.3672 6.5071 64.4553 6.70312H64.5234V3.27273H65.2862V12H64.5447V10.7855H64.4553C64.3672 10.9844 64.2422 11.1889 64.0803 11.3991C63.9183 11.6065 63.7038 11.7812 63.4368 11.9233C63.1726 12.0653 62.8416 12.1364 62.4439 12.1364ZM62.5334 11.4418C62.9567 11.4418 63.3175 11.3267 63.6158 11.0966C63.9141 10.8636 64.1413 10.544 64.2976 10.1378C64.4567 9.72869 64.5362 9.25994 64.5362 8.73153C64.5362 8.20881 64.4581 7.74716 64.3018 7.34659C64.1456 6.94318 63.9183 6.62784 63.62 6.40057C63.3217 6.17045 62.9595 6.0554 62.5334 6.0554C62.0959 6.0554 61.7266 6.17472 61.4254 6.41335C61.1271 6.64915 60.8999 6.96875 60.7436 7.37216C60.5902 7.77557 60.5135 8.22869 60.5135 8.73153C60.5135 9.24006 60.5916 9.69886 60.7479 10.108C60.9041 10.517 61.1314 10.8423 61.4297 11.0838C61.7308 11.3224 62.0987 11.4418 62.5334 11.4418Z" fill="black"/>
</svg>
