<svg width="58" height="61" viewBox="0 0 58 61" fill="none" xmlns="http://www.w3.org/2000/svg">
<g clip-path="url(#clip0_583_98)">
<path d="M46.691 35.7673L37.5245 45.3567C37.5241 45.3571 37.5237 45.3574 37.5234 45.3578L35.085 47.9087C34.6698 48.3433 33.9903 48.3433 33.575 47.9087L14.6983 28.1614C14.2831 27.7267 14.2831 27.0158 14.6983 26.5813L26.3568 14.3851C25.8613 14.35 25.3617 14.3306 24.8577 14.3306C20.3105 14.3306 16.0877 15.7822 12.5886 18.266C12.9465 19.0662 13.1475 19.9614 13.1475 20.9068C13.1475 24.3028 10.562 27.0553 7.37287 27.0553C6.6891 27.0553 6.03343 26.9279 5.42477 26.6956C3.86274 29.846 2.97937 33.424 2.97937 37.2182C2.97937 49.859 12.7746 60.1061 24.8577 60.1061C36.9409 60.1061 46.7361 49.8589 46.7361 37.2182C46.7361 36.7308 46.7196 36.2472 46.691 35.7673Z" fill="#E6E9ED"/>
<g opacity="0.1">
<path d="M13.062 19.8571C16.6008 16.6747 21.1228 14.6549 26.0869 14.3673C25.6798 14.3437 25.2703 14.3306 24.8577 14.3306C20.3104 14.3306 16.0876 15.7822 12.5885 18.266C12.811 18.7631 12.9715 19.2974 13.062 19.8571Z" fill="black"/>
<path d="M5.43769 37.2184C5.43769 33.5632 6.25739 30.1087 7.71396 27.0439C7.60102 27.051 7.48751 27.0555 7.37287 27.0555C6.6891 27.0555 6.03343 26.9281 5.42477 26.6958C3.86274 29.8462 2.97937 33.4243 2.97937 37.2184C2.97937 49.8592 12.7746 60.1063 24.8577 60.1063C25.2704 60.1063 25.6799 60.0933 26.0869 60.0696C14.5756 59.4026 5.43769 49.4275 5.43769 37.2184Z" fill="black"/>
</g>
<path d="M17.176 30.7534C15.8141 32.5222 14.9983 34.7705 14.9983 37.2186C14.9983 42.9152 19.4124 47.5329 24.8576 47.5329C27.1978 47.5329 29.3471 46.6795 31.0378 45.2546L17.176 30.7534Z" fill="white"/>
<path d="M36.0145 45.3567L17.1379 25.6092C16.7226 25.1746 16.7226 24.4638 17.1379 24.0293L14.6983 26.5813C14.2832 27.0157 14.2832 27.7266 14.6983 28.1613L33.5751 47.9087C33.9904 48.3433 34.6698 48.3433 35.085 47.9087L37.5234 45.3577C37.108 45.7913 36.4295 45.7909 36.0145 45.3567Z" fill="#3EAF91"/>
<g opacity="0.1">
<path d="M18.2334 26.7552L17.1379 25.6092C16.7226 25.1746 16.7226 24.4638 17.1379 24.0293L14.6983 26.5813C14.2832 27.0157 14.2832 27.7266 14.6983 28.1613L16.4656 30.0102C16.1312 29.5723 16.1571 28.9275 16.544 28.5226L18.2334 26.7552Z" fill="black"/>
</g>
<path d="M47.8551 28.9916L39.3135 37.9272C38.7287 38.5387 37.7729 38.5387 37.1883 37.9272L36.7217 37.4392C36.1371 36.8279 36.1371 35.8273 36.7217 35.216L43.6532 27.9643L43.0911 27.3759L34.7231 36.13C34.1383 36.7415 33.182 36.7415 32.5982 36.13L32.1311 35.6417C31.547 35.0303 31.547 34.0299 32.1312 33.4186L40.4993 24.6646L39.937 24.0763L31.5693 32.8302C30.9849 33.4417 30.0286 33.4418 29.4441 32.8302L28.9771 32.3418C28.3927 31.7306 28.3927 30.7299 28.9771 30.1187L37.3451 21.365L36.7827 20.7768L29.4002 28.4997C28.8158 29.111 27.8595 29.111 27.2751 28.4997L26.8084 28.0115C26.2237 27.4 26.2237 26.3996 26.8081 25.7882L36.4206 15.7203H33.9553C32.6276 15.7203 31.5509 14.5942 31.5509 13.2048C31.5509 12.8328 31.6302 12.4809 31.7688 12.1631L30.8798 11.233C30.4645 10.7986 29.7849 10.7986 29.3698 11.233L17.1379 24.0296C16.7226 24.4639 16.7226 25.1749 17.1379 25.6095L36.0145 45.3569C36.4299 45.7914 37.1093 45.7914 37.5245 45.3569L49.7565 32.5605C50.1716 32.126 50.1716 31.4154 49.7565 30.9808L47.8551 28.9916Z" fill="#FCC96C"/>
<path opacity="0.1" d="M31.2459 13.1297C31.342 13.0293 31.4528 12.9545 31.5704 12.9002C31.6005 12.6401 31.6688 12.3926 31.7689 12.1631L30.8799 11.233C30.4646 10.7986 29.7851 10.7986 29.3699 11.233L17.1379 24.0294C16.7226 24.4638 16.7226 25.1747 17.1379 25.6094L18.5941 27.1327C18.5094 26.7626 18.6032 26.3558 18.8779 26.0683L31.2459 13.1297Z" fill="black"/>
<path d="M5.31164 7.0598C6.90532 7.0598 8.19725 5.67944 8.19725 3.97668C8.19725 2.27392 6.90532 0.893555 5.31164 0.893555C3.71796 0.893555 2.42603 2.27392 2.42603 3.97668C2.42603 5.67944 3.71796 7.0598 5.31164 7.0598Z" fill="#D7F7FF"/>
<g opacity="0.1">
<path d="M4.30491 3.97679C4.30491 2.6255 5.11872 1.47806 6.25108 1.06154C5.95644 0.953244 5.64072 0.893555 5.31175 0.893555C3.71788 0.893555 2.42603 2.27392 2.42603 3.97679C2.42603 5.67955 3.71777 7.05992 5.31175 7.05992C5.64072 7.05992 5.95644 7.00023 6.25108 6.89193C5.11872 6.47541 4.30491 5.32797 4.30491 3.97679Z" fill="black"/>
</g>
<path d="M50.982 54.3795C50.982 56.3484 49.488 57.9445 47.6457 57.9445C45.8027 57.9445 44.309 56.3485 44.309 54.3795C44.309 52.4107 45.8027 50.8145 47.6457 50.8145C49.4878 50.8145 50.982 52.4106 50.982 54.3795Z" fill="#B1E8FF"/>
<path d="M7.37253 27.0553C10.5617 27.0553 13.147 24.3025 13.147 20.9068C13.147 17.5111 10.5617 14.7583 7.37253 14.7583C4.18336 14.7583 1.59802 17.5111 1.59802 20.9068C1.59802 24.3025 4.18336 27.0553 7.37253 27.0553Z" fill="#B1E8FF"/>
<g opacity="0.1">
<path d="M8.61232 25.1387C5.423 25.1387 2.83792 22.3861 2.83792 18.9902C2.83792 18.114 3.01113 17.2813 3.32141 16.5269C2.25815 17.6421 1.59851 19.1923 1.59851 20.9071C1.59851 24.303 4.18348 27.0556 7.37291 27.0556C9.73935 27.0556 11.7723 25.5391 12.6643 23.3697C11.6217 24.4633 10.1913 25.1387 8.61232 25.1387Z" fill="black"/>
</g>
<path d="M15.1199 12.4956C14.9299 12.4956 14.7622 12.3645 14.7061 12.1714C14.0264 9.85118 13.5597 9.35484 11.3774 8.63249C11.1961 8.57245 11.0726 8.39421 11.0726 8.19191C11.0726 7.99045 11.1962 7.81173 11.3774 7.75181C13.5597 7.02946 14.0264 6.53312 14.7061 4.21309C14.7622 4.02032 14.93 3.88867 15.1199 3.88867C15.3101 3.88867 15.4778 4.0202 15.5343 4.21309C16.2139 6.53312 16.6801 7.02946 18.8624 7.75181C19.0439 7.81173 19.167 7.99045 19.167 8.19191C19.167 8.39421 19.0438 8.57245 18.8624 8.63249C16.6801 9.35484 16.2139 9.85118 15.5343 12.1714C15.4778 12.3645 15.31 12.4956 15.1199 12.4956Z" fill="#FFBB4A"/>
<path d="M52.9679 47.3701C52.8067 47.3701 52.6644 47.2588 52.6168 47.095C52.0402 45.1266 51.6441 44.7052 49.7924 44.0924C49.6387 44.0416 49.5339 43.8903 49.5339 43.7186C49.5339 43.5475 49.6388 43.3959 49.7924 43.3451C51.6441 42.7321 52.0402 42.311 52.6168 40.3426C52.6644 40.1791 52.8067 40.0674 52.9679 40.0674C53.1294 40.0674 53.2717 40.1791 53.3196 40.3426C53.8962 42.311 54.2917 42.7322 56.1433 43.3451C56.2972 43.3959 56.4017 43.5475 56.4017 43.7186C56.4017 43.8901 56.2972 44.0416 56.1433 44.0924C54.2917 44.7052 53.8962 45.1266 53.3196 47.095C53.2717 47.2588 53.1294 47.3701 52.9679 47.3701Z" fill="#FFBB4A"/>
<path d="M54.744 19.5619L44.815 9.1743C44.2305 8.56299 43.2746 8.56299 42.6897 9.1743L41.2408 10.69H33.9555C32.6278 10.69 31.551 11.8162 31.551 13.2049C31.551 14.5944 32.6278 15.7205 33.9554 15.7205H36.4325L26.8083 25.7883C26.2239 26.3998 26.2239 27.4002 26.8085 28.0116L27.2752 28.4999C27.8596 29.1112 28.8159 29.1112 29.4004 28.4999L36.7828 20.7769L37.3452 21.3651L28.9773 30.1189C28.3929 30.7301 28.3929 31.7307 28.9773 32.3419L29.4442 32.8304C30.0288 33.4419 30.9851 33.4418 31.5695 32.8304L39.9371 24.0764L40.4995 24.6647L32.1314 33.4187C31.5472 34.03 31.5472 35.0304 32.1313 35.6419L32.5983 36.1301C33.1822 36.7417 34.1385 36.7417 34.7232 36.1301L43.0912 27.376L43.6533 27.9644L36.7219 35.2162C36.1372 35.8275 36.1372 36.828 36.7219 37.4393L37.1885 37.9273C37.773 38.5389 38.7289 38.5389 39.3136 37.9273L54.7441 21.7852C55.3288 21.1737 55.3288 20.1734 54.744 19.5619Z" fill="#EF5A50"/>
<path d="M44.2943 49.5518C46.4476 45.8438 47.5857 41.5792 47.5857 37.2186C47.5857 36.8496 47.5769 36.4829 47.5606 36.1182L50.356 33.1938C50.718 32.8147 50.9175 32.3093 50.9175 31.7708C50.9175 31.2322 50.718 30.7268 50.3558 30.3474L49.0598 28.9917L51.1228 26.8336C51.4554 26.4856 51.4569 25.9198 51.126 25.57C50.7949 25.22 50.2569 25.2188 49.9244 25.5667L38.7143 37.2938C38.4629 37.5565 38.0386 37.5565 37.7872 37.2938L37.3206 36.8057C37.1994 36.679 37.1327 36.5094 37.1327 36.3278C37.1327 36.1464 37.1994 35.9766 37.3207 35.8497L44.2522 28.598C44.4125 28.4303 44.5026 28.2024 44.5026 27.9646C44.5026 27.7268 44.4126 27.4989 44.2524 27.3313L43.6903 26.7428C43.3588 26.3958 42.8233 26.3958 42.4918 26.7426L34.1239 35.4964C33.8726 35.7594 33.4483 35.7595 33.197 35.4963L32.7303 35.0086C32.6092 34.8818 32.5425 34.7119 32.5425 34.5302C32.5425 34.3486 32.6092 34.1787 32.7302 34.0521L41.0983 25.2981C41.2586 25.1305 41.3488 24.9025 41.3488 24.6647C41.3488 24.4269 41.2586 24.1988 41.0983 24.0312L40.536 23.4429C40.2045 23.0962 39.6692 23.0962 39.3377 23.4429L30.9701 32.1968C30.7187 32.4595 30.2942 32.4595 30.0431 32.1968L29.576 31.7083C29.455 31.5816 29.3883 31.4119 29.3883 31.2303C29.3883 31.0488 29.455 30.879 29.5761 30.7523L37.9441 21.9985C38.1044 21.8309 38.1946 21.6029 38.1946 21.3649C38.1946 21.1271 38.1044 20.8991 37.944 20.7315L37.3816 20.1434C37.0501 19.7969 36.5148 19.7968 36.1834 20.1435L28.801 27.8663C28.5498 28.1293 28.1252 28.1291 27.8741 27.8664L27.4073 27.3781C27.2862 27.2514 27.2193 27.0815 27.2193 26.9C27.2193 26.7185 27.286 26.5486 27.4071 26.4219L37.0314 16.354C37.2753 16.0988 37.3489 15.7141 37.2176 15.3795C37.0865 15.0451 36.7764 14.8269 36.4323 14.8269H33.9551C33.0979 14.8269 32.4004 14.0993 32.4004 13.2049C32.4004 12.3108 33.0978 11.5835 33.9553 11.5835H41.2405C41.465 11.5835 41.6805 11.4901 41.8396 11.3234L43.2884 9.80806C43.5399 9.54511 43.9643 9.54523 44.2156 9.8077L54.1447 20.1955C54.2659 20.3222 54.3326 20.4918 54.3326 20.6732C54.3326 20.8547 54.2659 21.0243 54.1446 21.1513L52.8695 22.485C52.5368 22.833 52.5354 23.3987 52.8663 23.7487C53.1973 24.0985 53.7351 24.1002 54.0678 23.752L55.3428 22.4186C55.7872 21.954 56.0318 21.3341 56.0318 20.6733C56.0318 20.0126 55.7872 19.3928 55.3429 18.9284L45.4138 8.54076C44.4979 7.58287 43.0071 7.58263 42.0903 8.54088L40.89 9.7965H33.9554C33.0609 9.7965 32.2498 10.1764 31.6611 10.7904L31.4789 10.5996C31.1178 10.222 30.6369 10.0139 30.1249 10.0139C29.6126 10.0139 29.1317 10.222 28.7707 10.5997L26.3321 13.1509C26.3318 13.1511 26.3314 13.1514 26.3312 13.1517L26.0281 13.4688C25.6404 13.448 25.2503 13.4372 24.8576 13.4372C20.4682 13.4372 16.3657 14.7462 12.8872 17.0105C11.6989 15.1157 9.67092 13.8644 7.37279 13.8644C3.72037 13.8644 0.748779 17.0238 0.748779 20.907C0.748779 23.6029 2.18167 25.9485 4.27976 27.1316C2.90226 30.1958 2.12956 33.6141 2.12956 37.2185C2.12979 50.3318 12.3256 61.0002 24.8577 61.0002C28.076 61.0002 31.1867 60.3103 34.1031 58.9499C36.9204 57.6356 39.417 55.7646 41.5235 53.3889C41.8435 53.028 41.8247 52.4625 41.4815 52.1259C41.1381 51.7893 40.6008 51.8089 40.2807 52.1699C38.3312 54.3687 36.0209 56.1 33.4142 57.3161C30.716 58.5749 27.837 59.2131 24.8577 59.2131C13.2625 59.2131 3.82901 49.3464 3.82901 37.2187C3.82901 33.8361 4.5659 30.6313 5.876 27.7656C6.35733 27.8844 6.85804 27.9492 7.3729 27.9492C11.0254 27.9492 13.9971 24.7901 13.9971 20.9072C13.9971 20.1088 13.8697 19.3419 13.6385 18.626C16.7517 16.5632 20.4153 15.3312 24.3431 15.2319L14.0991 25.9484C13.7369 26.3274 13.5374 26.8328 13.5373 27.3714C13.5373 27.9102 13.7368 28.4158 14.0992 28.7953L16.0561 30.8425C14.8544 32.6537 14.1487 34.8514 14.1487 37.2187C14.1487 41.1498 16.0627 44.7245 19.2687 46.7811C19.6692 47.0377 20.1919 46.9046 20.4365 46.4835C20.6807 46.0622 20.5541 45.5124 20.1535 45.2553C17.4575 43.5258 15.8479 40.5216 15.8479 37.2187C15.8479 35.3436 16.3774 33.5969 17.2847 32.1277L29.7231 45.1397C28.3187 46.0869 26.6495 46.6397 24.8577 46.6397C24.3884 46.6397 24.0081 47.0396 24.0081 47.5332C24.0081 48.0268 24.3884 48.4268 24.8577 48.4268C27.1213 48.4268 29.2226 47.687 30.9541 46.4276L32.9758 48.5426C33.3371 48.9205 33.818 49.1286 34.3301 49.1286C34.8422 49.1286 35.3232 48.9205 35.6842 48.5427L38.1225 45.9918C38.1229 45.9914 38.1233 45.9911 38.1237 45.9907L45.8756 37.881C45.767 41.6814 44.7254 45.3811 42.8442 48.6206C42.5996 49.0418 42.7259 49.5917 43.1264 49.849C43.5268 50.1061 44.0499 49.973 44.2943 49.5518ZM7.3729 26.1621C4.65732 26.1621 2.44811 23.8048 2.44811 20.9072C2.44811 18.0093 4.65732 15.6518 7.3729 15.6518C10.0886 15.6518 12.2979 18.0093 12.2979 20.9072C12.2979 23.8048 10.0886 26.1621 7.3729 26.1621ZM34.4857 47.2756C34.4311 47.3328 34.3648 47.3414 34.3301 47.3414C34.2953 47.3414 34.2289 47.3329 34.1742 47.2755L15.2977 27.5284C15.2472 27.4755 15.2365 27.4139 15.2365 27.3716C15.2365 27.3294 15.2472 27.268 15.2975 27.2152L16.3925 26.0698C16.438 26.1298 16.4861 26.1881 16.5387 26.2431L35.4153 45.9906C35.4656 46.0431 35.5188 46.0917 35.5735 46.1376L34.4857 47.2756ZM36.9253 44.7236C36.8707 44.7808 36.8043 44.7894 36.7695 44.7894C36.7348 44.7894 36.6683 44.781 36.6136 44.7235L17.7371 24.9762C17.6866 24.9233 17.6759 24.8618 17.6759 24.8197C17.6761 24.7775 17.6866 24.716 17.737 24.6632L29.9691 11.8669C30.0237 11.8099 30.0902 11.8012 30.125 11.8012C30.1598 11.8012 30.2263 11.8097 30.2809 11.8669L30.7932 12.4031C30.7338 12.6604 30.7015 12.9288 30.7015 13.2051C30.7015 15.0849 32.1612 16.6142 33.9555 16.6142H34.3736L26.2092 25.1549C25.765 25.6196 25.5203 26.2395 25.5204 26.9003C25.5206 27.5611 25.7652 28.1809 26.2094 28.6453L26.6761 29.1335C27.0732 29.5487 27.5779 29.784 28.097 29.8395C27.8319 30.2453 27.6893 30.7258 27.6893 31.2304C27.6893 31.8912 27.9339 32.511 28.3781 32.9754L28.845 33.4639C29.3957 34.0402 30.1543 34.2695 30.8705 34.1535C30.8526 34.2769 30.8435 34.4027 30.8435 34.53C30.8435 35.1907 31.0879 35.8104 31.5323 36.2755L31.9988 36.7631C32.9144 37.722 34.4053 37.7226 35.3223 36.7635L35.4509 36.6291C35.5137 37.1754 35.7467 37.6797 36.1228 38.0729L36.5893 38.5607C37.0474 39.0399 37.649 39.2796 38.2509 39.2795C38.8526 39.2795 39.4545 39.0398 39.9127 38.5607L47.8551 30.252L49.1573 31.6142C49.2077 31.667 49.2183 31.7285 49.2183 31.7708C49.2183 31.813 49.2077 31.8744 49.1575 31.9271L36.9253 44.7236Z" fill="black"/>
<path d="M5.31175 7.95347C7.37132 7.95347 9.04686 6.16946 9.04686 3.9768C9.04675 1.78401 7.37121 0 5.31175 0C3.25207 0 1.57642 1.78401 1.57642 3.9768C1.57642 6.16946 3.25207 7.95347 5.31175 7.95347ZM5.31175 1.78711C6.43426 1.78711 7.34764 2.76942 7.34764 3.9768C7.34764 5.18417 6.43437 6.16636 5.31175 6.16636C4.18902 6.16636 3.27563 5.18417 3.27563 3.9768C3.27563 2.76942 4.18902 1.78711 5.31175 1.78711Z" fill="black"/>
<path d="M47.6457 49.9209C45.3373 49.9209 43.4594 51.921 43.4594 54.3795C43.4594 56.838 45.3373 58.8381 47.6457 58.8381C49.9539 58.8381 51.8316 56.838 51.8316 54.3795C51.8316 51.921 49.9539 49.9209 47.6457 49.9209ZM47.6457 57.0509C46.2742 57.0509 45.1586 55.8524 45.1586 54.3794C45.1586 52.9063 46.2743 51.7079 47.6457 51.7079C49.0168 51.7079 50.1324 52.9063 50.1324 54.3794C50.1324 55.8526 49.0168 57.0509 47.6457 57.0509Z" fill="black"/>
<path d="M11.1222 9.4847C13.0375 10.1186 13.2964 10.3943 13.8936 12.4325C14.0598 13.0046 14.5526 13.3889 15.1199 13.3889C15.6862 13.3889 16.1791 13.0053 16.3463 12.4343C16.9438 10.3941 17.2028 10.1184 19.1174 9.48458C19.6553 9.30658 20.0166 8.78701 20.0166 8.19154C20.0166 7.59608 19.6551 7.07662 19.1174 6.89899C17.2027 6.26528 16.9438 5.98959 16.3461 3.9493C16.1788 3.37826 15.6859 2.99463 15.1198 2.99463C14.5527 2.99463 14.06 3.3791 13.8941 3.94954C13.2964 5.98935 13.0374 6.26504 11.1225 6.89899C10.5844 7.07686 10.2229 7.59632 10.2229 8.19154C10.2229 8.78689 10.5843 9.30646 11.1222 9.4847ZM15.1202 5.66517C15.639 6.98238 16.2643 7.64159 17.5129 8.19202C16.2648 8.74233 15.639 9.40189 15.1202 10.7189C14.6012 9.40177 13.9756 8.74233 12.727 8.19202C13.9753 7.64171 14.601 6.98227 15.1202 5.66517Z" fill="black"/>
<path d="M56.3986 42.4922C54.8162 41.9685 54.6257 41.7655 54.1315 40.0783C53.9725 39.5371 53.5049 39.1733 52.9679 39.1733C52.4299 39.1733 51.9623 39.5379 51.8048 40.079C51.3109 41.7654 51.1202 41.9683 49.5374 42.4922C49.0271 42.6611 48.6843 43.1537 48.6843 43.7181C48.6843 44.2826 49.0271 44.7755 49.5374 44.9443C51.1201 45.468 51.3108 45.671 51.8042 47.3554C51.9619 47.8984 52.4295 48.2631 52.9678 48.2631C53.5051 48.2631 53.9726 47.8992 54.1315 47.3575C54.6255 45.6708 54.8161 45.4678 56.3979 44.9443C56.9083 44.7756 57.2512 44.2828 57.2512 43.718C57.2516 43.1535 56.9085 42.6608 56.3986 42.4922ZM52.9683 45.5232C52.5759 44.643 52.0926 44.1339 51.2573 43.7183C52.0926 43.3029 52.5758 42.7938 52.9683 41.9135C53.3607 42.7939 53.8436 43.3028 54.6789 43.7183C53.8438 44.1338 53.3607 44.6427 52.9683 45.5232Z" fill="black"/>
<path d="M28.9815 18.2646C29.1475 18.439 29.365 18.5262 29.5824 18.5262C29.7998 18.5262 30.0173 18.439 30.1832 18.2646C30.515 17.9155 30.515 17.3499 30.1832 17.0009L29.3902 16.1669C29.0583 15.8181 28.5205 15.8181 28.1887 16.1669C27.8569 16.516 27.8569 17.0817 28.1887 17.4306L28.9815 18.2646Z" fill="black"/>
<path d="M26.4893 22.5537C26.6553 22.7281 26.8728 22.8153 27.0902 22.8153C27.3076 22.8153 27.5251 22.7281 27.691 22.5537C28.0228 22.2046 28.0228 21.6389 27.691 21.29L26.8981 20.456C26.5661 20.1071 26.0283 20.1071 25.6965 20.456C25.3647 20.8051 25.3647 21.3707 25.6965 21.7197L26.4893 22.5537Z" fill="black"/>
<path d="M22.48 22.7196C22.1481 22.3708 21.6102 22.3708 21.2784 22.7196C20.9466 23.0687 20.9466 23.6344 21.2784 23.9834L22.0714 24.8173C22.2373 24.9918 22.4548 25.079 22.6722 25.079C22.8896 25.079 23.1071 24.9918 23.273 24.8173C23.6048 24.4683 23.6048 23.9026 23.273 23.5536L22.48 22.7196Z" fill="black"/>
<path d="M36.4136 39.8759C36.0816 39.527 35.5438 39.527 35.212 39.8759C34.8802 40.225 34.8802 40.7907 35.212 41.1396L36.005 41.9736C36.1709 42.148 36.3884 42.2352 36.6058 42.2352C36.8232 42.2352 37.0407 42.148 37.2066 41.9736C37.5384 41.6245 37.5384 41.0588 37.2066 40.7099L36.4136 39.8759Z" fill="black"/>
</g>
<defs>
<clipPath id="clip0_583_98">
<rect width="58" height="61" fill="white"/>
</clipPath>
</defs>
</svg>
