<svg width="24" height="21" viewBox="0 0 24 21" fill="none" xmlns="http://www.w3.org/2000/svg">
<g clip-path="url(#clip0_443_531)">
<path d="M19.499 20.6924H2.02432C1.72148 20.6924 1.47595 20.4718 1.47595 20.1999V7.07324H20.0474V20.1999C20.0474 20.4718 19.8019 20.6924 19.499 20.6924Z" fill="#FE646F"/>
<path d="M20.0475 7.07275V20.1994C20.0475 20.4715 19.8017 20.6919 19.4992 20.6919H18.4781C18.7811 20.6919 19.0265 20.4715 19.0265 20.1994V7.07275H20.0475Z" fill="#FD4755"/>
<path d="M10.2109 2.50289L9.62872 1.96709C9.16522 1.57109 8.66694 1.20151 8.1247 0.895344C7.58168 0.588766 6.95408 0.33784 6.30486 0.310137C5.98388 0.29643 5.66136 0.337758 5.36611 0.455793C4.14769 0.942952 3.45565 2.3395 3.56711 3.49485C3.573 3.55596 3.64242 4.3394 3.66106 4.3394H10.2109C10.2109 4.3394 10.2109 2.50358 10.2109 2.50289Z" fill="#FEA613"/>
<path d="M11.3125 2.50285L11.8946 1.96705C12.3581 1.57105 12.8564 1.20147 13.3987 0.895344C13.9417 0.588766 14.5693 0.33784 15.2185 0.310137C15.5395 0.29643 15.862 0.337758 16.1573 0.455793C17.3757 0.942952 18.0677 2.3395 17.9562 3.49485C17.9504 3.55596 17.8809 4.3394 17.8623 4.3394C17.8536 4.3394 11.3125 4.3394 11.3125 4.3394C11.3125 4.3394 11.3125 2.50354 11.3125 2.50285Z" fill="#FEA613"/>
<path d="M17.956 3.49488C17.9505 3.55603 17.881 4.3395 17.8623 4.3395H17.0393C17.0631 4.11296 17.0877 3.83798 17.0909 3.80269C17.2024 2.64738 16.5101 1.25074 15.2918 0.763585C14.9966 0.645797 14.674 0.604346 14.3532 0.617889C14.1599 0.626097 13.9685 0.654416 13.7806 0.69792C14.2276 0.486557 14.7165 0.331832 15.2183 0.31008C15.5395 0.296537 15.8621 0.337988 16.1573 0.455776C17.3757 0.942935 18.0675 2.33957 17.956 3.49488Z" fill="#FE9901"/>
<path d="M20.2087 7.07331H1.3146C1.01177 7.07331 0.766235 6.8528 0.766235 6.58082V4.83234C0.766235 4.56036 1.01177 4.33984 1.3146 4.33984H20.2087C20.5115 4.33984 20.7571 4.56036 20.7571 4.83234V6.58082C20.7571 6.8528 20.5115 7.07331 20.2087 7.07331Z" fill="#FB2B3A"/>
<path d="M13.1451 4.33938H8.37817V4.18897C8.37817 3.00673 9.44529 2.04834 10.7616 2.04834C12.078 2.04834 13.1451 3.00673 13.1451 4.18897V4.33938H13.1451Z" fill="#FEC165"/>
<path d="M13.1451 4.18913V4.33975H12.2782V4.22729C12.2782 3.6363 12.0113 3.10112 11.5799 2.71411C11.2198 2.39029 10.7441 2.16949 10.2131 2.10588C10.3891 2.06853 10.5728 2.04883 10.7615 2.04883C11.4195 2.04883 12.0154 2.28851 12.4468 2.67553C12.8782 3.06296 13.1451 3.59813 13.1451 4.18913Z" fill="#FDB441"/>
<path d="M7.8855 4.33936H13.6378V7.07282H7.8855V4.33936Z" fill="#E1D3CE"/>
<path d="M12.629 4.33936H13.6379V7.07282H12.629V4.33936Z" fill="#CDBFBA"/>
<path d="M8.59778 7.07324H12.9255V20.6924H8.59778V7.07324Z" fill="#F3EAE6"/>
<path d="M11.8673 7.07324H12.9254V20.6924H11.8673V7.07324Z" fill="#E1D3CE"/>
<path d="M20.0576 13.8604H18.1418V18.2067C18.1418 18.3815 18.3369 18.5021 18.5188 18.4396L19.9584 17.9453C20.0223 17.9233 20.0929 17.9233 20.1568 17.9453L21.5965 18.4396C21.7783 18.5021 21.9734 18.3815 21.9734 18.2067V13.8604H20.0576Z" fill="#8AC9FE"/>
<path d="M21.9733 13.8604V18.2067C21.9733 18.3813 21.7784 18.5021 21.5962 18.4397L20.9996 18.2346C21.0185 18.2017 21.0291 18.1643 21.0291 18.1234V13.8604H21.9733Z" fill="#60B7FF"/>
<path d="M20.0575 14.8719C21.6358 14.8719 22.9152 13.7228 22.9152 12.3053C22.9152 10.8879 21.6358 9.73877 20.0575 9.73877C18.4793 9.73877 17.1998 10.8879 17.1998 12.3053C17.1998 13.7228 18.4793 14.8719 20.0575 14.8719Z" fill="#FEC165"/>
<path d="M20.3123 10.9449L20.6168 11.4991C20.6368 11.5355 20.6754 11.5607 20.7201 11.5665L21.401 11.6554C21.634 11.6858 21.727 11.9429 21.5584 12.0905L21.0657 12.5218C21.0334 12.5501 21.0187 12.5909 21.0263 12.6309L21.1426 13.24C21.1824 13.4484 20.9388 13.6073 20.7305 13.5089L20.1214 13.2213C20.0815 13.2024 20.0338 13.2024 19.9938 13.2213L19.3847 13.5089C19.1763 13.6072 18.9328 13.4483 18.9726 13.24L19.0889 12.6309C19.0966 12.5909 19.0818 12.5501 19.0495 12.5218L18.5568 12.0905C18.3882 11.9429 18.4812 11.6858 18.7142 11.6554L19.3951 11.5665C19.4398 11.5607 19.4784 11.5355 19.4984 11.4991L19.8029 10.9449C19.907 10.7553 20.2081 10.7553 20.3123 10.9449Z" fill="#FE9901"/>
<path d="M21.0657 12.5222C21.0332 12.5506 21.0188 12.5911 21.0264 12.6311L21.1424 13.2405C21.1822 13.4488 20.9388 13.6076 20.7303 13.509L20.1213 13.2215C20.0815 13.2026 20.0336 13.2026 19.9938 13.2215L19.3848 13.509C19.1763 13.6076 18.9329 13.4488 18.9727 13.2405L18.9991 13.1015C19.0129 13.0976 19.0268 13.092 19.0407 13.0856C19.1303 13.0432 19.2199 13.0009 19.3095 12.9585C19.4444 12.8947 19.5795 12.8296 19.7227 12.7816C19.8397 12.7423 19.965 12.727 20.0892 12.7228C20.2235 12.7182 20.4218 12.8016 20.5049 12.663C20.5304 12.6204 20.5225 12.5607 20.5315 12.5144C20.5737 12.299 20.7111 12.1073 20.8875 11.9558C20.9981 11.8611 21.1049 11.7629 21.2143 11.6671C21.2258 11.6568 21.2363 11.6465 21.245 11.6353L21.4012 11.6559C21.634 11.686 21.727 11.9434 21.5583 12.091L21.0657 12.5222Z" fill="#FB8801"/>
<path d="M20.3901 9.44662V7.3641C20.7947 7.28863 21.0997 6.966 21.0997 6.58054V4.83203C21.0997 4.39075 20.7 4.03172 20.2087 4.03172H18.2488C18.2671 3.85426 18.2853 3.65546 18.2936 3.56533L18.2976 3.52162C18.3591 2.88405 18.2042 2.19677 17.8614 1.58632C17.4943 0.932825 16.9387 0.431507 16.2966 0.174794C15.9689 0.0437499 15.6007 -0.0140361 15.2022 0.0028729C14.5802 0.0293855 13.9121 0.242061 13.2162 0.634948C12.7013 0.925684 12.1917 1.28853 11.6583 1.74425C11.6552 1.74684 11.6522 1.74955 11.6492 1.75225L11.5484 1.84509C11.2991 1.77745 11.0351 1.74072 10.7616 1.74072C10.4881 1.74072 10.2241 1.77749 9.97481 1.84509L9.87396 1.75225C9.87099 1.74955 9.86798 1.74684 9.86491 1.74425C9.33154 1.28853 8.82197 0.925684 8.30706 0.634948C7.61118 0.242061 6.943 0.0293855 6.32102 0.0028729C5.92264 -0.013995 5.55436 0.0437499 5.22662 0.174794C4.58458 0.431507 4.02886 0.932825 3.66187 1.58632C3.31905 2.19677 3.16414 2.88405 3.22565 3.52158L3.22971 3.56545C3.23798 3.65562 3.25617 3.85434 3.27445 4.03172H1.31455C0.823219 4.03172 0.423462 4.39075 0.423462 4.83203V6.58054C0.423462 6.966 0.728489 7.28863 1.13318 7.3641V9.78172C1.13318 9.95175 1.28663 10.0895 1.47591 10.0895C1.66519 10.0895 1.81864 9.95175 1.81864 9.78172V7.38085H8.25505V20.3844H2.02427C1.9109 20.3844 1.81864 20.3015 1.81864 20.1997V11.1976C1.81864 11.0276 1.66519 10.8898 1.47591 10.8898C1.28663 10.8898 1.13318 11.0276 1.13318 11.1976V20.1997C1.13318 20.641 1.53294 21 2.02427 21H19.499C19.9903 21 20.3901 20.641 20.3901 20.1997V18.3548L21.474 18.727C21.5457 18.7517 21.6208 18.7638 21.6956 18.7638C21.8195 18.7638 21.9424 18.7304 22.0474 18.6655C22.2156 18.5615 22.3161 18.3899 22.3161 18.2065V14.3399C22.8976 13.8191 23.258 13.0994 23.258 12.3053C23.258 10.8214 21.9991 9.5965 20.3901 9.44662ZM20.2087 4.64738C20.3221 4.64738 20.4143 4.73024 20.4143 4.83207V6.58059C20.4143 6.68241 20.3221 6.76527 20.2087 6.76527H13.9805V4.64738H20.2087ZM13.5811 1.15613C14.1758 0.820331 14.7321 0.639176 15.2348 0.617752C15.5255 0.605563 15.7888 0.645619 16.0179 0.737182C16.8984 1.08923 17.7364 2.20711 17.6148 3.46851L17.6105 3.51489C17.5885 3.75556 17.5723 3.91976 17.5604 4.03176H13.4816C13.4244 3.22715 12.9328 2.52736 12.2154 2.11945C12.6843 1.72595 13.1322 1.40956 13.5811 1.15613ZM10.7616 2.35634C11.8278 2.35634 12.7057 3.09455 12.7949 4.03172H8.72829C8.81754 3.09459 9.69542 2.35634 10.7616 2.35634ZM7.54273 6.76523H1.31455C1.20118 6.76523 1.10892 6.68237 1.10892 6.58054V4.83203C1.10892 4.7302 1.20118 4.64734 1.31455 4.64734H7.54273V6.76523ZM3.96288 4.03176C3.95104 3.91976 3.93486 3.7556 3.91279 3.51497L3.9085 3.46847C3.78681 2.2072 4.62489 1.08923 5.50538 0.737182C5.73446 0.645578 5.99772 0.60544 6.28849 0.617752C6.79111 0.639176 7.34747 0.820372 7.94217 1.15613C8.39109 1.4096 8.83888 1.72595 9.30782 2.11945C8.59043 2.52736 8.09877 3.22715 8.0416 4.03176H3.96288ZM8.22819 6.76523V4.64734H13.295V6.76523H8.22819ZM12.5827 20.3844H8.94051V7.38085H12.5827V20.3844ZM21.6306 18.1217L20.2791 17.6576C20.1362 17.6086 19.9789 17.6086 19.8359 17.6576L18.4845 18.1217V17.2581C18.4845 17.088 18.331 16.9503 18.1417 16.9503C17.9525 16.9503 17.799 17.088 17.799 17.2581V18.2065C17.799 18.39 17.8994 18.5615 18.0677 18.6656C18.236 18.7696 18.4503 18.7924 18.6411 18.7271L19.7046 18.3618V20.1997C19.7046 20.3015 19.6124 20.3844 19.499 20.3844H13.2682V7.38085H19.7047V9.44891C18.1054 9.60725 16.8571 10.8277 16.8571 12.3054C16.8571 13.0994 17.2176 13.8192 17.799 14.3399V15.8216C17.799 15.9916 17.9525 16.1294 18.1418 16.1294C18.3311 16.1294 18.4845 15.9916 18.4845 15.8216V14.8071C18.9494 15.0438 19.486 15.1797 20.0576 15.1797C20.6292 15.1797 21.1657 15.0438 21.6306 14.8071V18.1217H21.6306ZM20.0575 14.5642C18.6708 14.5642 17.5426 13.5509 17.5426 12.3055C17.5426 11.06 18.6708 10.0467 20.0575 10.0467C21.4443 10.0467 22.5726 11.06 22.5726 12.3055C22.5726 13.5509 21.4443 14.5642 20.0575 14.5642Z" fill="black"/>
<path d="M21.9563 11.734C21.882 11.5288 21.6882 11.382 21.4503 11.3509L20.8763 11.276L20.6196 10.8089C20.5133 10.6154 20.2979 10.4952 20.0577 10.4951C19.8173 10.4951 19.602 10.6154 19.4956 10.8089L19.2389 11.276L18.6649 11.3509C18.4271 11.382 18.2332 11.5288 18.1589 11.734C18.0847 11.9393 18.1455 12.1604 18.3176 12.3111L18.7329 12.6747L18.6348 13.1882C18.5942 13.4009 18.6897 13.6118 18.8841 13.7387C19.0785 13.8656 19.3314 13.882 19.5442 13.7816L20.0576 13.5392L20.571 13.7816C20.6635 13.8252 20.7636 13.8468 20.8632 13.8468C20.9927 13.8468 21.1212 13.8104 21.2311 13.7387C21.4255 13.6118 21.521 13.4009 21.4804 13.1882L21.3823 12.6747L21.7977 12.3111C21.9698 12.1604 22.0305 11.9393 21.9563 11.734ZM20.8266 12.3016C20.7134 12.4006 20.6618 12.5432 20.6885 12.6831L20.7847 13.1869L20.281 12.9491C20.1411 12.883 19.9741 12.883 19.8343 12.9491L19.3305 13.1869L19.4267 12.6831C19.4534 12.5432 19.4018 12.4006 19.2887 12.3016L18.8811 11.9448L19.4442 11.8714C19.6005 11.851 19.7357 11.7629 19.8057 11.6356L20.0576 11.1772L20.3095 11.6355C20.3795 11.7629 20.5146 11.851 20.6709 11.8713L21.2341 11.9448L20.8266 12.3016Z" fill="black"/>
</g>
<defs>
<clipPath id="clip0_443_531">
<rect width="23.3823" height="21" fill="white" transform="translate(0.149658)"/>
</clipPath>
</defs>
</svg>
