<svg width="364" height="43" viewBox="0 0 364 43" fill="none" xmlns="http://www.w3.org/2000/svg">
<rect width="364" height="43" rx="7" fill="#A0B2EF"/>
<path d="M157.811 15.4545H160.446V24.9574C160.446 25.9991 160.199 26.9152 159.707 27.706C159.219 28.4967 158.533 29.1146 157.647 29.5597C156.762 30 155.727 30.2202 154.544 30.2202C153.355 30.2202 152.318 30 151.433 29.5597C150.547 29.1146 149.861 28.4967 149.373 27.706C148.886 26.9152 148.642 25.9991 148.642 24.9574V15.4545H151.277V24.7372C151.277 25.3433 151.409 25.883 151.674 26.3565C151.944 26.83 152.323 27.2017 152.811 27.4716C153.298 27.7367 153.876 27.8693 154.544 27.8693C155.211 27.8693 155.789 27.7367 156.277 27.4716C156.769 27.2017 157.148 26.83 157.413 26.3565C157.678 25.883 157.811 25.3433 157.811 24.7372V15.4545ZM162.996 34.0909V19.0909H165.524V20.8949H165.674C165.806 20.6297 165.993 20.348 166.235 20.0497C166.476 19.7467 166.803 19.4886 167.215 19.2756C167.627 19.0578 168.152 18.9489 168.791 18.9489C169.634 18.9489 170.394 19.1643 171.071 19.5952C171.753 20.0213 172.293 20.6534 172.691 21.4915C173.093 22.3248 173.294 23.3475 173.294 24.5597C173.294 25.7576 173.098 26.7756 172.705 27.6136C172.312 28.4517 171.777 29.0909 171.1 29.5312C170.423 29.9716 169.656 30.1918 168.799 30.1918C168.174 30.1918 167.655 30.0876 167.243 29.8793C166.831 29.6709 166.5 29.42 166.249 29.1264C166.003 28.8281 165.811 28.5464 165.674 28.2812H165.567V34.0909H162.996ZM165.517 24.5455C165.517 25.2509 165.617 25.8688 165.816 26.3991C166.019 26.9295 166.31 27.3437 166.689 27.642C167.073 27.9356 167.537 28.0824 168.081 28.0824C168.649 28.0824 169.125 27.9309 169.509 27.6278C169.892 27.3201 170.181 26.901 170.375 26.3707C170.574 25.8357 170.674 25.2273 170.674 24.5455C170.674 23.8684 170.577 23.267 170.382 22.7415C170.188 22.2159 169.899 21.804 169.516 21.5057C169.132 21.2074 168.654 21.0582 168.081 21.0582C167.532 21.0582 167.066 21.2027 166.682 21.4915C166.299 21.7803 166.007 22.1851 165.809 22.706C165.614 23.2268 165.517 23.84 165.517 24.5455ZM179.344 30.1918C178.487 30.1918 177.72 29.9716 177.043 29.5312C176.366 29.0909 175.831 28.4517 175.438 27.6136C175.045 26.7756 174.849 25.7576 174.849 24.5597C174.849 23.3475 175.047 22.3248 175.445 21.4915C175.848 20.6534 176.39 20.0213 177.072 19.5952C177.753 19.1643 178.513 18.9489 179.351 18.9489C179.991 18.9489 180.516 19.0578 180.928 19.2756C181.34 19.4886 181.667 19.7467 181.908 20.0497C182.15 20.348 182.337 20.6297 182.469 20.8949H182.576V15.4545H185.154V30H182.626V28.2812H182.469C182.337 28.5464 182.145 28.8281 181.894 29.1264C181.643 29.42 181.312 29.6709 180.9 29.8793C180.488 30.0876 179.969 30.1918 179.344 30.1918ZM180.062 28.0824C180.606 28.0824 181.07 27.9356 181.454 27.642C181.837 27.3437 182.128 26.9295 182.327 26.3991C182.526 25.8688 182.626 25.2509 182.626 24.5455C182.626 23.84 182.526 23.2268 182.327 22.706C182.133 22.1851 181.844 21.7803 181.461 21.4915C181.082 21.2027 180.616 21.0582 180.062 21.0582C179.489 21.0582 179.011 21.2074 178.627 21.5057C178.243 21.804 177.955 22.2159 177.761 22.7415C177.566 23.267 177.469 23.8684 177.469 24.5455C177.469 25.2273 177.566 25.8357 177.761 26.3707C177.959 26.901 178.251 27.3201 178.634 27.6278C179.022 27.9309 179.498 28.0824 180.062 28.0824ZM190.833 30.2202C190.142 30.2202 189.519 30.0971 188.965 29.8509C188.416 29.5999 187.98 29.2306 187.658 28.7429C187.341 28.2552 187.182 27.6539 187.182 26.9389C187.182 26.3234 187.296 25.8144 187.523 25.4119C187.75 25.0095 188.061 24.6875 188.454 24.446C188.847 24.2045 189.289 24.0223 189.782 23.8991C190.279 23.7713 190.793 23.679 191.323 23.6222C191.962 23.5559 192.481 23.4967 192.878 23.4446C193.276 23.3878 193.565 23.3026 193.745 23.1889C193.929 23.0705 194.022 22.8883 194.022 22.642V22.5994C194.022 22.0644 193.863 21.6501 193.546 21.3565C193.229 21.063 192.772 20.9162 192.175 20.9162C191.545 20.9162 191.046 21.0535 190.677 21.3281C190.312 21.6027 190.066 21.9271 189.938 22.3011L187.537 21.9602C187.727 21.2973 188.039 20.7434 188.475 20.2983C188.911 19.8485 189.443 19.5123 190.073 19.2898C190.703 19.0625 191.399 18.9489 192.161 18.9489C192.687 18.9489 193.21 19.0104 193.731 19.1335C194.251 19.2566 194.727 19.4602 195.158 19.7443C195.589 20.0237 195.935 20.4048 196.195 20.8878C196.46 21.3707 196.593 21.9744 196.593 22.6989V30H194.121V28.5014H194.036C193.88 28.8045 193.66 29.0885 193.375 29.3537C193.096 29.6141 192.743 29.8248 192.317 29.9858C191.896 30.142 191.401 30.2202 190.833 30.2202ZM191.5 28.331C192.017 28.331 192.464 28.2292 192.843 28.0256C193.222 27.8172 193.513 27.5426 193.716 27.2017C193.925 26.8608 194.029 26.4891 194.029 26.0866V24.8011C193.948 24.8674 193.811 24.929 193.617 24.9858C193.428 25.0426 193.215 25.0923 192.978 25.1349C192.741 25.1776 192.507 25.2154 192.275 25.2486C192.043 25.2817 191.841 25.3101 191.671 25.3338C191.287 25.3859 190.944 25.4711 190.641 25.5895C190.338 25.7079 190.099 25.8736 189.924 26.0866C189.749 26.295 189.661 26.5649 189.661 26.8963C189.661 27.3698 189.834 27.7273 190.179 27.9688C190.525 28.2102 190.965 28.331 191.5 28.331ZM204.425 19.0909V21.0795H198.154V19.0909H204.425ZM199.702 16.4773H202.274V26.7188C202.274 27.0644 202.326 27.3295 202.43 27.5142C202.539 27.6941 202.681 27.8172 202.856 27.8835C203.031 27.9498 203.225 27.983 203.438 27.983C203.599 27.983 203.746 27.9711 203.879 27.9474C204.016 27.9238 204.12 27.9025 204.191 27.8835L204.624 29.8935C204.487 29.9408 204.291 29.9929 204.035 30.0497C203.784 30.1065 203.476 30.1397 203.112 30.1491C202.468 30.1681 201.888 30.071 201.372 29.858C200.855 29.6402 200.446 29.304 200.143 28.8494C199.845 28.3949 199.698 27.8267 199.702 27.1449V16.4773ZM211.088 30.2131C209.994 30.2131 209.05 29.9858 208.254 29.5312C207.464 29.072 206.855 28.4233 206.429 27.5852C206.003 26.7424 205.79 25.7505 205.79 24.6094C205.79 23.4872 206.003 22.5024 206.429 21.6548C206.86 20.8026 207.461 20.1397 208.233 19.6662C209.005 19.188 209.911 18.9489 210.953 18.9489C211.625 18.9489 212.26 19.0578 212.857 19.2756C213.458 19.4886 213.988 19.8201 214.447 20.2699C214.911 20.7197 215.276 21.2926 215.541 21.9886C215.806 22.6799 215.939 23.5038 215.939 24.4602V25.2486H206.997V23.5156H213.474C213.47 23.0232 213.363 22.5852 213.155 22.2017C212.946 21.8134 212.655 21.508 212.281 21.2855C211.912 21.063 211.481 20.9517 210.989 20.9517C210.463 20.9517 210.001 21.0795 209.604 21.3352C209.206 21.5862 208.896 21.9176 208.673 22.3295C208.455 22.7367 208.344 23.1842 208.339 23.6719V25.1847C208.339 25.8191 208.455 26.3636 208.688 26.8182C208.92 27.268 209.244 27.6136 209.661 27.8551C210.077 28.0919 210.565 28.2102 211.124 28.2102C211.498 28.2102 211.836 28.1581 212.139 28.054C212.442 27.9451 212.705 27.7865 212.928 27.5781C213.15 27.3698 213.318 27.1117 213.432 26.804L215.832 27.0739C215.681 27.7083 215.392 28.2623 214.966 28.7358C214.545 29.2045 214.005 29.5691 213.347 29.8295C212.688 30.0852 211.936 30.2131 211.088 30.2131Z" fill="white"/>
</svg>
