<svg width="316" height="40" viewBox="0 0 316 40" fill="none" xmlns="http://www.w3.org/2000/svg">
<rect width="316" height="40" rx="6" fill="#689FEC"/>
<path d="M126.674 29V11.5455H129.836V26.3494H137.523V29H126.674ZM145.602 29.2557C144.323 29.2557 143.215 28.9744 142.278 28.4119C141.34 27.8494 140.613 27.0625 140.096 26.0511C139.585 25.0398 139.329 23.858 139.329 22.5057C139.329 21.1534 139.585 19.9687 140.096 18.9517C140.613 17.9347 141.34 17.1449 142.278 16.5824C143.215 16.0199 144.323 15.7386 145.602 15.7386C146.88 15.7386 147.988 16.0199 148.925 16.5824C149.863 17.1449 150.587 17.9347 151.099 18.9517C151.616 19.9687 151.874 21.1534 151.874 22.5057C151.874 23.858 151.616 25.0398 151.099 26.0511C150.587 27.0625 149.863 27.8494 148.925 28.4119C147.988 28.9744 146.88 29.2557 145.602 29.2557ZM145.619 26.7841C146.312 26.7841 146.891 26.5937 147.357 26.2131C147.823 25.8267 148.17 25.3097 148.397 24.6619C148.63 24.0142 148.746 23.2926 148.746 22.4972C148.746 21.696 148.63 20.9716 148.397 20.3239C148.17 19.6705 147.823 19.1506 147.357 18.7642C146.891 18.3778 146.312 18.1847 145.619 18.1847C144.908 18.1847 144.317 18.3778 143.846 18.7642C143.38 19.1506 143.031 19.6705 142.798 20.3239C142.57 20.9716 142.457 21.696 142.457 22.4972C142.457 23.2926 142.57 24.0142 142.798 24.6619C143.031 25.3097 143.38 25.8267 143.846 26.2131C144.317 26.5937 144.908 26.7841 145.619 26.7841ZM159.946 34.1818C158.838 34.1818 157.886 34.0313 157.091 33.7301C156.295 33.4347 155.656 33.0369 155.173 32.5369C154.69 32.0369 154.355 31.483 154.168 30.875L156.946 30.2017C157.071 30.4574 157.253 30.7102 157.492 30.9602C157.73 31.2159 158.051 31.4261 158.455 31.5909C158.864 31.7614 159.378 31.8466 159.997 31.8466C160.872 31.8466 161.597 31.6335 162.17 31.2074C162.744 30.7869 163.031 30.0938 163.031 29.1278V26.6477H162.878C162.719 26.9659 162.486 27.2926 162.179 27.6278C161.878 27.9631 161.477 28.2443 160.977 28.4716C160.483 28.6989 159.861 28.8125 159.111 28.8125C158.105 28.8125 157.193 28.5767 156.375 28.1051C155.563 27.6278 154.915 26.9176 154.432 25.9744C153.955 25.0256 153.716 23.8381 153.716 22.4119C153.716 20.9744 153.955 19.7614 154.432 18.7727C154.915 17.7784 155.565 17.0256 156.384 16.5142C157.202 15.9972 158.114 15.7386 159.119 15.7386C159.886 15.7386 160.517 15.8693 161.011 16.1307C161.511 16.3864 161.909 16.696 162.205 17.0597C162.5 17.4176 162.724 17.7557 162.878 18.0739H163.048V15.9091H166.091V29.2131C166.091 30.3324 165.824 31.2585 165.29 31.9915C164.756 32.7244 164.026 33.2727 163.099 33.6364C162.173 34 161.122 34.1818 159.946 34.1818ZM159.972 26.392C160.625 26.392 161.182 26.233 161.642 25.9148C162.102 25.5966 162.452 25.1392 162.69 24.5426C162.929 23.946 163.048 23.2301 163.048 22.3949C163.048 21.571 162.929 20.8494 162.69 20.2301C162.457 19.6108 162.111 19.1307 161.651 18.7898C161.196 18.4432 160.636 18.2699 159.972 18.2699C159.284 18.2699 158.71 18.4489 158.25 18.8068C157.79 19.1648 157.443 19.6562 157.21 20.2812C156.977 20.9006 156.861 21.6051 156.861 22.3949C156.861 23.196 156.977 23.8977 157.21 24.5C157.449 25.0966 157.798 25.5625 158.259 25.8977C158.724 26.2273 159.295 26.392 159.972 26.392ZM174.726 29V15.9091H177.811V29H174.726ZM176.277 14.0511C175.789 14.0511 175.368 13.8892 175.016 13.5653C174.664 13.2358 174.487 12.8409 174.487 12.3807C174.487 11.9148 174.664 11.5199 175.016 11.196C175.368 10.8665 175.789 10.7017 176.277 10.7017C176.771 10.7017 177.192 10.8665 177.539 11.196C177.891 11.5199 178.067 11.9148 178.067 12.3807C178.067 12.8409 177.891 13.2358 177.539 13.5653C177.192 13.8892 176.771 14.0511 176.277 14.0511ZM183.829 21.3295V29H180.744V15.9091H183.693V18.1335H183.846C184.147 17.4006 184.627 16.8182 185.286 16.3864C185.951 15.9545 186.772 15.7386 187.749 15.7386C188.653 15.7386 189.44 15.9318 190.11 16.3182C190.786 16.7045 191.309 17.2642 191.678 17.9972C192.053 18.7301 192.238 19.6193 192.232 20.6648V29H189.147V21.142C189.147 20.267 188.92 19.5824 188.465 19.0881C188.017 18.5937 187.394 18.3466 186.599 18.3466C186.059 18.3466 185.579 18.4659 185.159 18.7045C184.744 18.9375 184.417 19.2756 184.178 19.7188C183.946 20.1619 183.829 20.6989 183.829 21.3295Z" fill="white"/>
</svg>
