<svg width="40" height="41" viewBox="0 0 40 41" fill="none" xmlns="http://www.w3.org/2000/svg">
<path d="M33.6719 9.75191V31.0879C33.6719 32.9329 32.2078 34.4336 30.4078 34.4336H9.59219C7.79219 34.4336 6.32812 32.9329 6.32812 31.0879V9.75191C6.32812 7.90691 7.79219 6.40625 9.59219 6.40625H30.4078C32.2078 6.40625 33.6719 7.90691 33.6719 9.75191Z" fill="#ECF9FD"/>
<path d="M33.6719 9.75191V31.0879C33.6719 32.9329 32.2078 34.4336 30.4078 34.4336H20V6.40625H30.4078C32.2078 6.40625 33.6719 7.90691 33.6719 9.75191Z" fill="#D9F3FC"/>
<path d="M38.75 21.7012H1.25001C-0.300305 21.7012 -0.300774 19.2988 1.25001 19.2988H38.75C40.3003 19.2988 40.3008 21.7012 38.75 21.7012Z" fill="#58B354"/>
<path d="M38.75 21.7012H20V19.2988H38.75C40.3003 19.2988 40.3008 21.7012 38.75 21.7012Z" fill="#00A963"/>
<path d="M37.6563 10.1699V4.4316C37.6563 3.31267 36.7681 2.40234 35.6766 2.40234H30.0781C28.5288 2.40234 28.5266 0 30.0781 0H35.6766C38.0605 0 40 1.98802 40 4.4316V10.1699C40 11.758 37.6563 11.7603 37.6563 10.1699Z" fill="#001737"/>
<path d="M35.6766 41H30.0781C28.5288 41 28.5266 38.5977 30.0781 38.5977H35.6766C36.7682 38.5977 37.6563 37.6874 37.6563 36.5684V30.8301C37.6563 29.242 40 29.2398 40 30.8301V36.5684C40 39.012 38.0605 41 35.6766 41Z" fill="#001737"/>
<path d="M0 10.1699V4.4316C0 1.98802 1.93953 0 4.32344 0H9.92187C11.4712 0 11.4734 2.40234 9.92187 2.40234H4.32344C3.23187 2.40234 2.34375 3.31267 2.34375 4.4316V10.1699C2.34375 11.758 0 11.7603 0 10.1699H0Z" fill="#00357B"/>
<path d="M9.92187 41H4.32344C1.93953 41 0 39.012 0 36.5684V30.8301C0 29.242 2.34375 29.2398 2.34375 30.8301V36.5684C2.34375 37.6874 3.23187 38.5977 4.32344 38.5977H9.92187C11.4712 38.5977 11.4734 41 9.92187 41Z" fill="#00357B"/>
<path d="M30.4077 34.4336H26.6909C25.1415 34.4336 25.1393 32.0312 26.6909 32.0312H30.4077C30.9152 32.0312 31.3281 31.608 31.3281 31.0877V27.2781C31.3281 25.69 33.6719 25.6878 33.6719 27.2781V31.0877C33.6719 32.9327 32.2075 34.4336 30.4077 34.4336Z" fill="#001737"/>
<path d="M31.3281 13.5617V9.75207C31.3281 9.23181 30.9152 8.80859 30.4077 8.80859H26.6909C25.1415 8.80859 25.1393 6.40625 26.6909 6.40625H30.4077C32.2075 6.40625 33.6719 7.90715 33.6719 9.75207V13.5617C33.6719 15.1498 31.3281 15.1521 31.3281 13.5617Z" fill="#001737"/>
<path d="M6.32812 13.5617V9.75207C6.32812 7.90715 7.7925 6.40625 9.59234 6.40625H13.3091C14.8585 6.40625 14.8607 8.80859 13.3091 8.80859H9.59234C9.08477 8.80859 8.67188 9.23181 8.67188 9.75207V13.5617C8.67188 15.1498 6.32812 15.1521 6.32812 13.5617Z" fill="#00357B"/>
<path d="M13.3091 34.4336H9.59234C7.7925 34.4336 6.32812 32.9327 6.32812 31.0877V27.2781C6.32812 25.69 8.67188 25.6878 8.67188 27.2781V31.0877C8.67188 31.608 9.08484 32.0312 9.59234 32.0312H13.3091C14.8585 32.0312 14.8607 34.4336 13.3091 34.4336Z" fill="#00357B"/>
</svg>
