<svg width="142" height="137" viewBox="0 0 142 137" fill="none" xmlns="http://www.w3.org/2000/svg">
<g filter="url(#filter0_d_382_74)">
<rect x="4" width="134" height="129" rx="8" fill="white"/>
<rect x="4.5" y="0.5" width="133" height="128" rx="7.5" stroke="#C0C0C0"/>
</g>
<g clip-path="url(#clip0_382_74)">
<path fill-rule="evenodd" clip-rule="evenodd" d="M67.4284 25.2949C42.4608 25.2949 22.2124 46.6122 22.1694 72.9237V73.0014V73.0855C22.1818 82.3678 24.7135 91.0281 29.0827 98.3541V94.3964C29.0827 88.1392 33.4886 82.9119 39.1975 81.9986C36.973 79.9063 35.5781 76.862 35.5781 73.4742C35.5781 67.1652 40.4265 62.0544 46.4119 62.0544C49.3553 62.0544 52.0224 63.2852 53.9705 65.2868C54.4743 57.9153 60.3062 52.1051 67.4284 52.1051C74.5506 52.1051 80.3824 57.9153 80.8863 65.2868C82.8405 63.2852 85.5075 62.0544 88.4449 62.0544C94.4302 62.0544 99.285 67.1652 99.285 73.4742C99.285 76.862 97.8838 79.9063 95.6655 81.9986C101.368 82.9119 105.78 88.1392 105.78 94.3964V98.3541C110.156 91.0087 112.694 82.3157 112.694 73.0012C112.694 66.7892 111.563 60.8558 109.517 55.4149C108.484 55.5639 107.433 55.6416 106.364 55.6416C93.9572 55.6416 83.8976 45.0444 83.8976 31.9664C83.8976 30.8394 83.9713 29.7252 84.1187 28.6436C78.9505 26.4805 73.3216 25.2949 67.4284 25.2949V25.2949Z" fill="#CCF5FC"/>
<path fill-rule="evenodd" clip-rule="evenodd" d="M106.364 8.28516C95.026 8.28516 85.6487 17.1399 84.1185 28.6438C83.9711 29.7256 83.8974 30.8397 83.8974 31.9667C83.8974 45.0446 93.957 55.6418 106.364 55.6418C107.433 55.6418 108.484 55.5641 109.517 55.4151C120.43 53.7956 128.831 43.9176 128.831 31.9667C128.831 18.8887 118.771 8.28516 106.364 8.28516V8.28516Z" fill="#FFCD69"/>
<path fill-rule="evenodd" clip-rule="evenodd" d="M67.4284 52.1055C60.3062 52.1055 54.4743 57.9157 53.9705 65.2872C53.946 65.6304 53.9337 65.9803 53.9337 66.3235C53.9337 70.5403 55.6789 74.3298 58.4441 76.9337C60.8284 79.1814 63.9809 80.5481 67.4284 80.5481C70.882 80.5481 74.0283 79.1814 76.4187 76.9337C79.184 74.3298 80.9231 70.5405 80.9231 66.3235C80.9231 65.9803 80.9108 65.6304 80.8863 65.2872C80.3822 57.9157 74.5506 52.1055 67.4284 52.1055V52.1055Z" fill="#FFDCD5"/>
<path fill-rule="evenodd" clip-rule="evenodd" d="M58.4441 76.9336C53.8352 77.6719 49.9023 80.6712 47.7086 84.8167C46.5225 87.058 45.8465 89.6359 45.8465 92.376V114.95C52.2435 118.616 59.5687 120.702 67.3545 120.715H67.4282H67.5019C75.294 120.702 82.6189 118.616 89.0099 114.95V92.376C89.0099 89.6361 88.3339 87.058 87.1478 84.8167C84.9601 80.6712 81.0272 77.6719 76.4183 76.9336C74.0279 79.1813 70.8816 80.548 67.428 80.548C63.9809 80.548 60.8285 79.1813 58.4441 76.9336V76.9336Z" fill="#FF7D97"/>
<path fill-rule="evenodd" clip-rule="evenodd" d="M88.4447 62.0547C85.5073 62.0547 82.8403 63.2855 80.8861 65.287C80.9105 65.6303 80.9229 65.9801 80.9229 66.3234C80.9229 70.5402 79.1838 74.3296 76.4185 76.9336C81.0274 77.6719 84.9603 80.6712 87.148 84.8167C87.5721 84.8749 88.0083 84.9008 88.4447 84.9008C91.2162 84.9008 93.748 83.8062 95.6653 81.9988C97.8838 79.9066 99.2847 76.8623 99.2847 73.4745C99.2847 67.1654 94.43 62.0547 88.4447 62.0547V62.0547Z" fill="#FFDCD5"/>
<path fill-rule="evenodd" clip-rule="evenodd" d="M95.6653 81.999C93.748 83.8064 91.2162 84.9009 88.4447 84.9009C88.0083 84.9009 87.5721 84.8751 87.148 84.8169C88.3341 87.0581 89.0101 89.636 89.0101 92.3761V114.95C95.8619 111.025 101.645 105.292 105.78 98.355V94.3974C105.78 88.1397 101.368 82.9124 95.6653 81.999Z" fill="#FFCD69"/>
<path fill-rule="evenodd" clip-rule="evenodd" d="M46.4119 84.9009C43.6404 84.9009 41.1147 83.8064 39.1976 81.999C33.4887 82.9124 29.0827 88.1397 29.0827 94.3969V98.3546C33.2123 105.292 38.9949 111.025 45.8467 114.95V92.3757C45.8467 89.6358 46.5227 87.0577 47.7088 84.8164C47.2845 84.8751 46.8544 84.9009 46.4119 84.9009V84.9009Z" fill="#FFCD69"/>
<path fill-rule="evenodd" clip-rule="evenodd" d="M46.4119 62.0547C40.4266 62.0547 35.5781 67.1654 35.5781 73.4745C35.5781 76.8623 36.973 79.9066 39.1975 81.9988C41.1149 83.8062 43.6406 84.9008 46.4119 84.9008C46.8544 84.9008 47.2845 84.8749 47.7086 84.8167C49.9023 80.6712 53.8352 77.6719 58.4441 76.9336C55.6789 74.3296 53.9337 70.5404 53.9337 66.3234C53.9337 65.9801 53.946 65.6303 53.9705 65.287C52.0224 63.2855 49.3556 62.0547 46.4119 62.0547V62.0547Z" fill="#FFDCD5"/>
<path d="M35.4184 41.5585C35.9732 41.5585 36.5282 41.3355 36.9513 40.8892L36.9574 40.8828C37.804 39.9904 37.801 38.5467 36.9544 37.6543C36.1078 36.7622 34.7322 36.7654 33.8852 37.6575C33.0386 38.5499 33.0386 39.9968 33.8852 40.8894C34.3086 41.3355 34.8636 41.5585 35.4184 41.5585V41.5585Z" fill="black"/>
<path d="M130.999 31.9669C130.999 17.6488 119.948 6 106.364 6C94.8695 6 85.1893 14.3417 82.4834 25.5833C77.6528 23.8765 72.601 23.0098 67.4284 23.0098C57.9999 23.0098 48.8899 25.9206 41.0828 31.4278C40.0877 32.1298 39.8211 33.5492 40.4868 34.598C40.905 35.2566 41.5912 35.6124 42.2906 35.6124C42.7051 35.6124 43.1242 35.4874 43.4945 35.2262C50.5855 30.2243 58.8617 27.5803 67.4284 27.5803C72.3746 27.5803 77.1973 28.4512 81.7897 30.1655C81.7509 30.7608 81.7294 31.3614 81.7294 31.9669C81.7294 46.2816 92.7804 57.9272 106.364 57.9272C106.937 57.9272 107.506 57.9048 108.069 57.8639C109.698 62.7199 110.526 67.8034 110.526 73.0017C110.526 79.0587 109.391 84.8404 107.341 90.1289C106.136 85.9786 103.227 82.5297 99.438 80.7909C100.712 78.6719 101.453 76.1634 101.453 73.4747C101.453 65.9177 95.6174 59.7697 88.4449 59.7697C86.2941 59.7697 84.2178 60.3202 82.3644 61.3545C80.3584 54.6757 74.4221 49.8204 67.4286 49.8204C60.4354 49.8204 54.4993 54.6752 52.4931 61.3536C50.6427 60.3198 48.5664 59.7697 46.4121 59.7697C39.2429 59.7697 33.4104 65.9177 33.4104 73.4747C33.4104 76.1637 34.151 78.6721 35.4242 80.7911C31.6348 82.5299 28.7258 85.9802 27.5213 90.1321C25.4711 84.8429 24.3376 79.0596 24.3376 73.0019C24.3376 64.045 26.8096 55.3786 31.4863 47.9397C32.1478 46.8876 31.8748 45.4697 30.8767 44.7725C29.8785 44.0753 28.5333 44.3632 27.8719 45.4151C22.7232 53.6046 20.0017 63.144 20.0017 73.0017C20.0017 86.3566 24.9345 98.9122 33.8914 108.355C42.8491 117.799 54.7594 123 67.4286 123C80.098 123 92.0095 117.799 100.969 108.356C109.928 98.9119 114.862 86.3564 114.862 73.0019C114.862 67.5639 114.038 62.2391 112.416 57.1336C123.083 54.2833 130.999 44.0814 130.999 31.9669V31.9669ZM67.4286 54.3905C73.6743 54.3905 78.7554 59.7434 78.7554 66.3233C78.7554 72.9069 73.6741 78.2628 67.4286 78.2628C61.1831 78.2628 56.1019 72.9069 56.1019 66.3233C56.1016 59.7437 61.1829 54.3905 67.4286 54.3905V54.3905ZM43.679 92.3759V110.887C38.7252 107.424 34.4866 102.913 31.2509 97.6535V94.3967C31.2509 89.6952 34.3636 85.5781 38.6263 84.4487C40.3071 85.7782 42.3025 86.6866 44.4709 87.0305C43.958 88.7291 43.679 90.5261 43.679 92.3759ZM46.4121 82.6156C41.6337 82.6156 37.7463 78.5149 37.7463 73.4745C37.7463 68.4376 41.6339 64.3398 46.4121 64.3398C48.3809 64.3398 50.2503 65.0274 51.7666 66.2906C51.7666 66.3016 51.7657 66.3124 51.7657 66.3233C51.7657 69.799 52.7925 73.0257 54.5396 75.6888C51.2059 77.0645 48.393 79.5203 46.4661 82.6147C46.4479 82.6149 46.4305 82.6156 46.4121 82.6156V82.6156ZM86.8424 113.552C81.0047 116.67 74.4082 118.43 67.4286 118.43C60.4489 118.43 53.8524 116.669 48.0149 113.55V92.3759C48.0149 86.1727 52.1867 80.7523 57.8588 79.3793C60.5076 81.5416 63.8268 82.8331 67.4286 82.8331C71.0305 82.8331 74.3499 81.5416 76.9987 79.3791C82.6705 80.7511 86.8424 86.1717 86.8424 92.3757V113.552ZM88.387 82.614C86.4599 79.5215 83.6502 77.0638 80.3174 75.6888C82.0644 73.0257 83.0911 69.7993 83.0911 66.3236C83.0911 66.3119 83.0903 66.3005 83.0903 66.2886C84.6126 65.0267 86.482 64.3398 88.4447 64.3398C93.2266 64.3398 97.1168 68.4376 97.1168 73.4745C97.1168 78.5149 93.2266 82.6156 88.4447 82.6156C88.425 82.6156 88.4068 82.614 88.387 82.614V82.614ZM103.612 97.6434C100.375 102.906 96.1362 107.425 91.1783 110.89V92.3759C91.1783 90.5263 90.9017 88.7286 90.3887 87.0305C92.5578 86.6864 94.5536 85.778 96.2349 84.4485C100.499 85.5776 103.612 89.6954 103.612 94.3967V97.6434ZM106.364 53.3569C95.1713 53.3569 86.0654 43.7613 86.0654 31.9669C86.0654 20.1689 95.1713 10.5703 106.364 10.5703C117.557 10.5703 126.663 20.1687 126.663 31.9669C126.663 43.7613 117.557 53.3569 106.364 53.3569Z" fill="black"/>
<path d="M116.147 29.6819H108.532V21.6484C108.532 20.3863 107.561 19.3633 106.364 19.3633C105.167 19.3633 104.196 20.3863 104.196 21.6484V29.6819H96.5748C95.3774 29.6819 94.4068 30.705 94.4068 31.9671C94.4068 33.2292 95.3774 34.2522 96.5748 34.2522H104.196V42.2791C104.196 43.5411 105.167 44.5642 106.364 44.5642C107.561 44.5642 108.532 43.5411 108.532 42.2791V34.2522H116.147C117.344 34.2522 118.315 33.2292 118.315 31.9671C118.315 30.705 117.344 29.6819 116.147 29.6819V29.6819Z" fill="black"/>
</g>
<defs>
<filter id="filter0_d_382_74" x="0" y="0" width="142" height="137" filterUnits="userSpaceOnUse" color-interpolation-filters="sRGB">
<feFlood flood-opacity="0" result="BackgroundImageFix"/>
<feColorMatrix in="SourceAlpha" type="matrix" values="0 0 0 0 0 0 0 0 0 0 0 0 0 0 0 0 0 0 127 0" result="hardAlpha"/>
<feOffset dy="4"/>
<feGaussianBlur stdDeviation="2"/>
<feComposite in2="hardAlpha" operator="out"/>
<feColorMatrix type="matrix" values="0 0 0 0 0 0 0 0 0 0 0 0 0 0 0 0 0 0 0.25 0"/>
<feBlend mode="normal" in2="BackgroundImageFix" result="effect1_dropShadow_382_74"/>
<feBlend mode="normal" in="SourceGraphic" in2="effect1_dropShadow_382_74" result="shape"/>
</filter>
<clipPath id="clip0_382_74">
<rect width="111" height="117" fill="white" transform="translate(20 6)"/>
</clipPath>
</defs>
</svg>
