<svg width="285" height="276" viewBox="0 0 285 276" fill="none" xmlns="http://www.w3.org/2000/svg">
<ellipse cx="142.5" cy="138" rx="142.5" ry="138" fill="#D9D9D9"/>
<g clip-path="url(#clip0_1014_89)">
<path d="M205.712 137.5C202.478 137.5 199.855 140.074 199.855 143.25V200.749C199.855 203.925 197.233 206.499 193.998 206.499H88.5712C85.3363 206.499 82.714 203.925 82.714 200.749V85.7507C82.714 82.575 85.3363 80.0007 88.5712 80.0007H158.856C162.091 80.0007 164.713 77.4264 164.713 74.2507C164.713 71.075 162.091 68.501 158.856 68.501H88.5712C78.8669 68.501 71 76.224 71 85.7507V200.749C71 210.276 78.8669 217.999 88.5712 217.999H193.998C203.703 217.999 211.57 210.276 211.57 200.749V143.25C211.57 140.074 208.947 137.5 205.712 137.5Z" fill="white"/>
<path d="M228.434 63.4491C224.229 59.3199 218.525 57.0006 212.577 57.0013C206.626 56.9845 200.916 59.3078 196.722 63.4528L119.573 139.185C118.933 139.818 118.45 140.587 118.161 141.433L106.447 175.932C105.425 178.945 107.084 182.201 110.153 183.205C110.749 183.399 111.372 183.499 111.999 183.499C112.628 183.498 113.253 183.399 113.85 183.206L148.993 171.707C149.856 171.424 150.64 170.947 151.283 170.315L228.432 94.5772C237.188 85.9819 237.189 72.0453 228.434 63.4491ZM220.15 86.4523L144.008 161.201L121.259 168.659L128.832 146.355L205.004 71.606C209.191 67.5031 215.974 67.5099 220.154 71.6208C222.15 73.5847 223.275 76.2432 223.284 79.0177C223.291 81.807 222.163 84.4834 220.15 86.4523Z" fill="white"/>
</g>
<defs>
<clipPath id="clip0_1014_89">
<rect width="164" height="161" fill="white" transform="translate(71 57)"/>
</clipPath>
</defs>
</svg>
